<svg width="3300" height="980" xmlns="http://www.w3.org/2000/svg" xmlns:xlink="http://www.w3.org/1999/xlink" overflow="hidden"><defs><clipPath id="clip0"><rect x="0" y="0" width="3300" height="980"/></clipPath><clipPath id="clip1"><rect x="0" y="0" width="1650" height="979"/></clipPath><clipPath id="clip2"><rect x="0" y="0" width="1650" height="979"/></clipPath><clipPath id="clip3"><rect x="0" y="0" width="1650" height="979"/></clipPath><clipPath id="clip4"><rect x="0" y="0" width="1650" height="979"/></clipPath><clipPath id="clip5"><rect x="336" y="165" width="895" height="623"/></clipPath><clipPath id="clip6"><rect x="0" y="0" width="1650" height="979"/></clipPath><clipPath id="clip7"><rect x="336" y="165" width="895" height="623"/></clipPath><clipPath id="clip8"><rect x="0" y="0" width="1650" height="979"/></clipPath><clipPath id="clip9"><rect x="0" y="0" width="1650" height="979"/></clipPath><clipPath id="clip10"><rect x="0" y="0" width="1650" height="979"/></clipPath><clipPath id="clip11"><rect x="0" y="0" width="1650" height="979"/></clipPath><clipPath id="clip12"><rect x="0" y="0" width="1650" height="979"/></clipPath><clipPath id="clip13"><rect x="0" y="0" width="1650" height="979"/></clipPath><clipPath id="clip14"><rect x="0" y="0" width="1650" height="979"/></clipPath><clipPath id="clip15"><rect x="0" y="0" width="1650" height="979"/></clipPath><clipPath id="clip16"><rect x="0" y="0" width="1650" height="979"/></clipPath><clipPath id="clip17"><rect x="0" y="0" width="1650" height="979"/></clipPath><clipPath id="clip18"><rect x="0" y="0" width="1650" height="979"/></clipPath><clipPath id="clip19"><rect x="0" y="0" width="1650" height="979"/></clipPath><clipPath id="clip20"><rect x="0" y="0" width="1650" height="979"/></clipPath><clipPath id="clip21"><rect x="0" y="0" width="1650" height="979"/></clipPath><clipPath id="clip22"><rect x="0" y="0" width="1650" height="979"/></clipPath><clipPath id="clip23"><rect x="0" y="0" width="1650" height="979"/></clipPath><clipPath id="clip24"><rect x="0" y="0" width="1650" height="979"/></clipPath><clipPath id="clip25"><rect x="0" y="0" width="1650" height="979"/></clipPath><clipPath id="clip26"><rect x="0" y="0" width="1650" height="979"/></clipPath><clipPath id="clip27"><rect x="0" y="0" width="1650" height="979"/></clipPath><clipPath id="clip28"><rect x="0" y="0" width="1650" height="979"/></clipPath><clipPath id="clip29"><rect x="0" y="0" width="1650" height="979"/></clipPath><clipPath id="clip30"><rect x="0" y="0" width="1650" height="979"/></clipPath><clipPath id="clip31"><rect x="0" y="0" width="1650" height="979"/></clipPath><clipPath id="clip32"><rect x="0" y="0" width="1650" height="979"/></clipPath><clipPath id="clip33"><rect x="0" y="0" width="1650" height="979"/></clipPath><clipPath id="clip34"><rect x="0" y="0" width="1650" height="979"/></clipPath><clipPath id="clip35"><rect x="1650" y="0" width="1650" height="979"/></clipPath><clipPath id="clip36"><rect x="1650" y="0" width="1650" height="979"/></clipPath><clipPath id="clip37"><rect x="1650" y="0" width="1650" height="979"/></clipPath><clipPath id="clip38"><rect x="1650" y="0" width="1650" height="979"/></clipPath><clipPath id="clip39"><rect x="1986" y="165" width="895" height="623"/></clipPath><clipPath id="clip40"><rect x="1650" y="0" width="1650" height="979"/></clipPath><clipPath id="clip41"><rect x="1986" y="165" width="895" height="623"/></clipPath><clipPath id="clip42"><rect x="1650" y="0" width="1650" height="979"/></clipPath><clipPath id="clip43"><rect x="1650" y="0" width="1650" height="979"/></clipPath><clipPath id="clip44"><rect x="1650" y="0" width="1650" height="979"/></clipPath><clipPath id="clip45"><rect x="1650" y="0" width="1650" height="979"/></clipPath><clipPath id="clip46"><rect x="1650" y="0" width="1650" height="979"/></clipPath><clipPath id="clip47"><rect x="1650" y="0" width="1650" height="979"/></clipPath><clipPath id="clip48"><rect x="1650" y="0" width="1650" height="979"/></clipPath><clipPath id="clip49"><rect x="1650" y="0" width="1650" height="979"/></clipPath><clipPath id="clip50"><rect x="1650" y="0" width="1650" height="979"/></clipPath><clipPath id="clip51"><rect x="1650" y="0" width="1650" height="979"/></clipPath><clipPath id="clip52"><rect x="1650" y="0" width="1650" height="979"/></clipPath><clipPath id="clip53"><rect x="1650" y="0" width="1650" height="979"/></clipPath><clipPath id="clip54"><rect x="1650" y="0" width="1650" height="979"/></clipPath><clipPath id="clip55"><rect x="1650" y="0" width="1650" height="979"/></clipPath><clipPath id="clip56"><rect x="1650" y="0" width="1650" height="979"/></clipPath><clipPath id="clip57"><rect x="1650" y="0" width="1650" height="979"/></clipPath><clipPath id="clip58"><rect x="1650" y="0" width="1650" height="979"/></clipPath><clipPath id="clip59"><rect x="1650" y="0" width="1650" height="979"/></clipPath><clipPath id="clip60"><rect x="1650" y="0" width="1650" height="979"/></clipPath><clipPath id="clip61"><rect x="1650" y="0" width="1650" height="979"/></clipPath><clipPath id="clip62"><rect x="1650" y="0" width="1650" height="979"/></clipPath><clipPath id="clip63"><rect x="1650" y="0" width="1650" height="979"/></clipPath><clipPath id="clip64"><rect x="1650" y="0" width="1650" height="979"/></clipPath><clipPath id="clip65"><rect x="1650" y="0" width="1650" height="979"/></clipPath><clipPath id="clip66"><rect x="1650" y="0" width="1650" height="979"/></clipPath><clipPath id="clip67"><rect x="1650" y="0" width="1650" height="979"/></clipPath><clipPath id="clip68"><rect x="1650" y="0" width="1650" height="979"/></clipPath></defs><g clip-path="url(#clip0)"><g clip-path="url(#clip1)"><path d="M336.5 723.524 1228.5 723.524M336.5 661.522 1228.5 661.522M336.5 599.52 1228.5 599.52M336.5 537.518 1228.5 537.518M336.5 475.516 1228.5 475.516M336.5 413.514 1228.5 413.514M336.5 351.512 1228.5 351.512M336.5 289.51 1228.5 289.51M336.5 227.508 1228.5 227.508M336.5 165.5 1228.5 165.5" stroke="#D9D9D9" stroke-width="3.4375" stroke-linejoin="round" stroke-miterlimit="10" fill="none"/></g><g clip-path="url(#clip2)"><path d="M515.517 165.5 515.517 784.5M693.523 165.5 693.523 784.5M871.529 165.5 871.529 784.5M1049.53 165.5 1049.53 784.5M1228.5 165.5 1228.5 784.5" stroke="#D9D9D9" stroke-width="3.4375" stroke-linejoin="round" stroke-miterlimit="10" fill="none"/></g><g clip-path="url(#clip3)"><path d="M0 0 0.000360892 619" stroke="#BFBFBF" stroke-width="3.4375" stroke-linejoin="round" stroke-miterlimit="10" fill="none" fill-rule="evenodd" transform="matrix(1 0 0 -1 336.5 784.5)"/></g><g clip-path="url(#clip4)"><path d="M336.5 784.5 1228.5 784.5" stroke="#BFBFBF" stroke-width="3.4375" stroke-linejoin="round" stroke-miterlimit="10" fill="none" fill-rule="evenodd"/></g><g clip-path="url(#clip5)"><path d="M1050.5 766.5C1044.56 761.564 1038.61 761.198 1032.67 755.57 1026.73 749.941 1020.79 738.565 1014.84 732.728 1008.9 726.89 1002.96 726.929 997.014 720.543 991.071 714.156 985.128 701.641 979.186 694.41 973.243 687.178 967.3 681.933 961.357 677.155 955.414 672.377 949.471 669.391 943.528 665.739 937.586 662.086 931.643 658.407 925.7 655.24 919.757 652.072 913.814 650.008 907.872 646.734 901.929 643.459 895.985 638.85 890.043 635.593 884.1 632.335 878.157 630.399 872.214 627.19 866.271 623.98 860.328 618.592 854.386 616.336 848.443 614.079 842.5 614.993 836.557 613.65 830.614 612.306 824.671 609.047 818.729 608.274 812.786 607.5 806.843 609.007 800.9 609.007 794.957 609.007 789.014 608.214 783.072 608.274 777.129 608.333 771.185 608.55 765.243 609.362 759.3 610.173 753.357 612.082 747.414 613.143 741.471 614.204 735.528 615.02 729.586 615.727 723.643 616.433 717.7 617.008 711.757 617.383 705.814 617.758 699.871 617.923 693.929 617.976 687.986 618.03 682.043 618.121 676.1 617.705 670.157 617.288 664.214 616.035 658.272 615.477 652.329 614.918 646.385 614.213 640.443 614.356 634.5 614.499 628.557 615.631 622.614 616.336 616.671 617.04 610.728 616.987 604.786 618.584 598.843 620.18 592.9 624.467 586.957 625.914 581.014 627.361 575.071 625.289 569.129 627.266 563.186 629.243 557.243 634.505 551.3 637.777 545.357 641.048 539.414 643.525 533.472 646.893 527.529 650.26 521.585 654.212 515.643 657.983 509.7 661.755 503.757 663.894 497.814 669.523 491.871 675.151 485.928 688.05 479.986 691.756 474.043 695.461 468.1 688.641 462.157 691.756 456.214 694.87 450.271 707.328 444.329 710.442 438.386 713.556 432.443 710.442 426.5 710.442" stroke="#00A6D6" stroke-width="6.875" stroke-linecap="round" stroke-linejoin="round" stroke-miterlimit="10" fill="none"/></g><g clip-path="url(#clip6)"><path d="M1185.5 784.5C1185.5 790.575 1180.57 795.499 1174.5 795.499 1168.42 795.499 1163.5 790.575 1163.5 784.5 1163.5 778.425 1168.42 773.5 1174.5 773.5 1180.57 773.5 1185.5 778.425 1185.5 784.5Z" stroke="#00A6D6" stroke-width="3.4375" stroke-linejoin="round" stroke-miterlimit="10" fill="#00A6D6"/><path d="M1185.5 784.5C1185.5 790.575 1180.57 795.499 1174.5 795.499 1168.42 795.499 1163.5 790.575 1163.5 784.5 1163.5 778.425 1168.42 773.5 1174.5 773.5 1180.57 773.5 1185.5 778.425 1185.5 784.5Z" stroke="#00A6D6" stroke-width="3.4375" stroke-linejoin="round" stroke-miterlimit="10" fill="#00A6D6"/><path d="M1185.5 784.5C1185.5 790.575 1180.57 795.499 1174.5 795.499 1168.42 795.499 1163.5 790.575 1163.5 784.5 1163.5 778.425 1168.42 773.5 1174.5 773.5 1180.57 773.5 1185.5 778.425 1185.5 784.5Z" stroke="#00A6D6" stroke-width="3.4375" stroke-linejoin="round" stroke-miterlimit="10" fill="#00A6D6"/><path d="M1185.5 784.5C1185.5 790.575 1180.57 795.499 1174.5 795.499 1168.42 795.499 1163.5 790.575 1163.5 784.5 1163.5 778.425 1168.42 773.5 1174.5 773.5 1180.57 773.5 1185.5 778.425 1185.5 784.5Z" stroke="#00A6D6" stroke-width="3.4375" stroke-linejoin="round" stroke-miterlimit="10" fill="#00A6D6"/><path d="M1114.5 784.5C1114.5 790.575 1109.57 795.499 1103.5 795.499 1097.42 795.499 1092.5 790.575 1092.5 784.5 1092.5 778.425 1097.42 773.5 1103.5 773.5 1109.57 773.5 1114.5 778.425 1114.5 784.5Z" stroke="#00A6D6" stroke-width="3.4375" stroke-linejoin="round" stroke-miterlimit="10" fill="#00A6D6"/><path d="M1114.5 784.5C1114.5 790.575 1109.57 795.499 1103.5 795.499 1097.42 795.499 1092.5 790.575 1092.5 784.5 1092.5 778.425 1097.42 773.5 1103.5 773.5 1109.57 773.5 1114.5 778.425 1114.5 784.5Z" stroke="#00A6D6" stroke-width="3.4375" stroke-linejoin="round" stroke-miterlimit="10" fill="#00A6D6"/><path d="M1078.5 784.5C1078.5 790.575 1073.57 795.499 1067.5 795.499 1061.42 795.499 1056.5 790.575 1056.5 784.5 1056.5 778.425 1061.42 773.5 1067.5 773.5 1073.57 773.5 1078.5 778.425 1078.5 784.5Z" stroke="#00A6D6" stroke-width="3.4375" stroke-linejoin="round" stroke-miterlimit="10" fill="#00A6D6"/><path d="M1061.5 766.5C1061.5 772.575 1056.57 777.499 1050.5 777.499 1044.42 777.499 1039.5 772.575 1039.5 766.5 1039.5 760.425 1044.42 755.5 1050.5 755.5 1056.57 755.5 1061.5 760.425 1061.5 766.5Z" stroke="#00A6D6" stroke-width="3.4375" stroke-linejoin="round" stroke-miterlimit="10" fill="#00A6D6"/><path d="M1043.5 755.5C1043.5 761.575 1038.57 766.499 1032.5 766.499 1026.42 766.499 1021.5 761.575 1021.5 755.5 1021.5 749.425 1026.42 744.5 1032.5 744.5 1038.57 744.5 1043.5 749.425 1043.5 755.5Z" stroke="#00A6D6" stroke-width="3.4375" stroke-linejoin="round" stroke-miterlimit="10" fill="#00A6D6"/><path d="M1025.5 732.5C1025.5 738.575 1020.57 743.499 1014.5 743.499 1008.42 743.499 1003.5 738.575 1003.5 732.5 1003.5 726.425 1008.42 721.5 1014.5 721.5 1020.57 721.5 1025.5 726.425 1025.5 732.5Z" stroke="#00A6D6" stroke-width="3.4375" stroke-linejoin="round" stroke-miterlimit="10" fill="#00A6D6"/><path d="M1007.5 720.5C1007.5 726.575 1002.57 731.499 996.5 731.499 990.425 731.499 985.5 726.575 985.5 720.5 985.5 714.425 990.425 709.5 996.5 709.5 1002.57 709.5 1007.5 714.425 1007.5 720.5Z" stroke="#00A6D6" stroke-width="3.4375" stroke-linejoin="round" stroke-miterlimit="10" fill="#00A6D6"/><path d="M989.499 694.5C989.499 700.574 984.575 705.499 978.5 705.499 972.425 705.499 967.5 700.574 967.5 694.5 967.5 688.425 972.425 683.5 978.5 683.5 984.575 683.5 989.499 688.425 989.499 694.5Z" stroke="#00A6D6" stroke-width="3.4375" stroke-linejoin="round" stroke-miterlimit="10" fill="#00A6D6"/><path d="M971.499 677.5C971.499 683.575 966.575 688.499 960.5 688.499 954.425 688.499 949.5 683.575 949.5 677.5 949.5 671.425 954.425 666.5 960.5 666.5 966.575 666.5 971.499 671.425 971.499 677.5Z" stroke="#00A6D6" stroke-width="3.4375" stroke-linejoin="round" stroke-miterlimit="10" fill="#00A6D6"/><path d="M954.499 665.5C954.499 671.575 949.575 676.499 943.5 676.499 937.425 676.499 932.5 671.575 932.5 665.5 932.5 659.425 937.425 654.5 943.5 654.5 949.575 654.5 954.499 659.425 954.499 665.5Z" stroke="#00A6D6" stroke-width="3.4375" stroke-linejoin="round" stroke-miterlimit="10" fill="#00A6D6"/><path d="M936.499 655.5C936.499 661.575 931.574 666.499 925.5 666.499 919.425 666.499 914.5 661.575 914.5 655.5 914.5 649.425 919.425 644.5 925.5 644.5 931.574 644.5 936.499 649.425 936.499 655.5Z" stroke="#00A6D6" stroke-width="3.4375" stroke-linejoin="round" stroke-miterlimit="10" fill="#00A6D6"/><path d="M918.499 646.5C918.499 652.575 913.575 657.499 907.5 657.499 901.425 657.499 896.5 652.575 896.5 646.5 896.5 640.425 901.425 635.5 907.5 635.5 913.575 635.5 918.499 640.425 918.499 646.5Z" stroke="#00A6D6" stroke-width="3.4375" stroke-linejoin="round" stroke-miterlimit="10" fill="#00A6D6"/><path d="M900.499 635.5C900.499 641.575 895.575 646.499 889.5 646.499 883.425 646.499 878.5 641.575 878.5 635.5 878.5 629.425 883.425 624.5 889.5 624.5 895.575 624.5 900.499 629.425 900.499 635.5Z" stroke="#00A6D6" stroke-width="3.4375" stroke-linejoin="round" stroke-miterlimit="10" fill="#00A6D6"/><path d="M882.499 627.5C882.499 633.575 877.574 638.499 871.5 638.499 865.425 638.499 860.5 633.575 860.5 627.5 860.5 621.425 865.425 616.5 871.5 616.5 877.574 616.5 882.499 621.425 882.499 627.5Z" stroke="#00A6D6" stroke-width="3.4375" stroke-linejoin="round" stroke-miterlimit="10" fill="#00A6D6"/><path d="M864.499 616.5C864.499 622.575 859.575 627.499 853.5 627.499 847.425 627.499 842.5 622.575 842.5 616.5 842.5 610.425 847.425 605.5 853.5 605.5 859.575 605.5 864.499 610.425 864.499 616.5Z" stroke="#00A6D6" stroke-width="3.4375" stroke-linejoin="round" stroke-miterlimit="10" fill="#00A6D6"/><path d="M847.499 613.5C847.499 619.575 842.575 624.499 836.5 624.499 830.425 624.499 825.5 619.575 825.5 613.5 825.5 607.425 830.425 602.5 836.5 602.5 842.575 602.5 847.499 607.425 847.499 613.5Z" stroke="#00A6D6" stroke-width="3.4375" stroke-linejoin="round" stroke-miterlimit="10" fill="#00A6D6"/><path d="M829.499 608.5C829.499 614.575 824.575 619.499 818.5 619.499 812.425 619.499 807.5 614.575 807.5 608.5 807.5 602.425 812.425 597.5 818.5 597.5 824.575 597.5 829.499 602.425 829.499 608.5Z" stroke="#00A6D6" stroke-width="3.4375" stroke-linejoin="round" stroke-miterlimit="10" fill="#00A6D6"/><path d="M811.499 609.5C811.499 615.575 806.575 620.499 800.5 620.499 794.425 620.499 789.5 615.575 789.5 609.5 789.5 603.425 794.425 598.5 800.5 598.5 806.575 598.5 811.499 603.425 811.499 609.5Z" stroke="#00A6D6" stroke-width="3.4375" stroke-linejoin="round" stroke-miterlimit="10" fill="#00A6D6"/><path d="M793.499 608.5C793.499 614.575 788.574 619.499 782.5 619.499 776.425 619.499 771.5 614.575 771.5 608.5 771.5 602.425 776.425 597.5 782.5 597.5 788.574 597.5 793.499 602.425 793.499 608.5Z" stroke="#00A6D6" stroke-width="3.4375" stroke-linejoin="round" stroke-miterlimit="10" fill="#00A6D6"/><path d="M775.499 609.5C775.499 615.575 770.575 620.499 764.5 620.499 758.425 620.499 753.5 615.575 753.5 609.5 753.5 603.425 758.425 598.5 764.5 598.5 770.575 598.5 775.499 603.425 775.499 609.5Z" stroke="#00A6D6" stroke-width="3.4375" stroke-linejoin="round" stroke-miterlimit="10" fill="#00A6D6"/><path d="M758.499 613.5C758.499 619.575 753.575 624.499 747.5 624.499 741.425 624.499 736.5 619.575 736.5 613.5 736.5 607.425 741.425 602.5 747.5 602.5 753.575 602.5 758.499 607.425 758.499 613.5Z" stroke="#00A6D6" stroke-width="3.4375" stroke-linejoin="round" stroke-miterlimit="10" fill="#00A6D6"/><path d="M740.499 615.5C740.499 621.575 735.575 626.499 729.5 626.499 723.425 626.499 718.5 621.575 718.5 615.5 718.5 609.425 723.425 604.5 729.5 604.5 735.575 604.5 740.499 609.425 740.499 615.5Z" stroke="#00A6D6" stroke-width="3.4375" stroke-linejoin="round" stroke-miterlimit="10" fill="#00A6D6"/><path d="M722.499 617.5C722.499 623.574 717.575 628.499 711.5 628.499 705.425 628.499 700.5 623.574 700.5 617.5 700.5 611.425 705.425 606.5 711.5 606.5 717.575 606.5 722.499 611.425 722.499 617.5Z" stroke="#00A6D6" stroke-width="3.4375" stroke-linejoin="round" stroke-miterlimit="10" fill="#00A6D6"/><path d="M704.499 618.5C704.499 624.574 699.575 629.499 693.5 629.499 687.425 629.499 682.5 624.574 682.5 618.5 682.5 612.425 687.425 607.5 693.5 607.5 699.575 607.5 704.499 612.425 704.499 618.5Z" stroke="#00A6D6" stroke-width="3.4375" stroke-linejoin="round" stroke-miterlimit="10" fill="#00A6D6"/><path d="M686.499 617.5C686.499 623.574 681.575 628.499 675.5 628.499 669.425 628.499 664.5 623.574 664.5 617.5 664.5 611.425 669.425 606.5 675.5 606.5 681.575 606.5 686.499 611.425 686.499 617.5Z" stroke="#00A6D6" stroke-width="3.4375" stroke-linejoin="round" stroke-miterlimit="10" fill="#00A6D6"/><path d="M668.499 615.5C668.499 621.575 663.575 626.499 657.5 626.499 651.425 626.499 646.5 621.575 646.5 615.5 646.5 609.425 651.425 604.5 657.5 604.5 663.575 604.5 668.499 609.425 668.499 615.5Z" stroke="#00A6D6" stroke-width="3.4375" stroke-linejoin="round" stroke-miterlimit="10" fill="#00A6D6"/><path d="M651.499 614.5C651.499 620.575 646.574 625.499 640.5 625.499 634.425 625.499 629.5 620.575 629.5 614.5 629.5 608.425 634.425 603.5 640.5 603.5 646.574 603.5 651.499 608.425 651.499 614.5Z" stroke="#00A6D6" stroke-width="3.4375" stroke-linejoin="round" stroke-miterlimit="10" fill="#00A6D6"/><path d="M633.499 616.5C633.499 622.575 628.575 627.499 622.5 627.499 616.425 627.499 611.5 622.575 611.5 616.5 611.5 610.425 616.425 605.5 622.5 605.5 628.575 605.5 633.499 610.425 633.499 616.5Z" stroke="#00A6D6" stroke-width="3.4375" stroke-linejoin="round" stroke-miterlimit="10" fill="#00A6D6"/><path d="M615.499 618.5C615.499 624.574 610.575 629.499 604.5 629.499 598.425 629.499 593.5 624.574 593.5 618.5 593.5 612.425 598.425 607.5 604.5 607.5 610.575 607.5 615.499 612.425 615.499 618.5Z" stroke="#00A6D6" stroke-width="3.4375" stroke-linejoin="round" stroke-miterlimit="10" fill="#00A6D6"/><path d="M597.499 626.5C597.499 632.575 592.575 637.499 586.5 637.499 580.425 637.499 575.5 632.575 575.5 626.5 575.5 620.425 580.425 615.5 586.5 615.5 592.575 615.5 597.499 620.425 597.499 626.5Z" stroke="#00A6D6" stroke-width="3.4375" stroke-linejoin="round" stroke-miterlimit="10" fill="#00A6D6"/><path d="M579.499 627.5C579.499 633.575 574.575 638.499 568.5 638.499 562.425 638.499 557.5 633.575 557.5 627.5 557.5 621.425 562.425 616.5 568.5 616.5 574.575 616.5 579.499 621.425 579.499 627.5Z" stroke="#00A6D6" stroke-width="3.4375" stroke-linejoin="round" stroke-miterlimit="10" fill="#00A6D6"/><path d="M561.499 637.5C561.499 643.575 556.575 648.499 550.5 648.499 544.425 648.499 539.5 643.575 539.5 637.5 539.5 631.425 544.425 626.5 550.5 626.5 556.575 626.5 561.499 631.425 561.499 637.5Z" stroke="#00A6D6" stroke-width="3.4375" stroke-linejoin="round" stroke-miterlimit="10" fill="#00A6D6"/><path d="M544.499 646.5C544.499 652.575 539.575 657.499 533.5 657.499 527.425 657.499 522.5 652.575 522.5 646.5 522.5 640.425 527.425 635.5 533.5 635.5 539.575 635.5 544.499 640.425 544.499 646.5Z" stroke="#00A6D6" stroke-width="3.4375" stroke-linejoin="round" stroke-miterlimit="10" fill="#00A6D6"/><path d="M526.499 658.5C526.499 664.575 521.575 669.499 515.5 669.499 509.425 669.499 504.5 664.575 504.5 658.5 504.5 652.425 509.425 647.5 515.5 647.5 521.575 647.5 526.499 652.425 526.499 658.5Z" stroke="#00A6D6" stroke-width="3.4375" stroke-linejoin="round" stroke-miterlimit="10" fill="#00A6D6"/><path d="M508.499 669.5C508.499 675.575 503.574 680.499 497.5 680.499 491.425 680.499 486.5 675.575 486.5 669.5 486.5 663.425 491.425 658.5 497.5 658.5 503.574 658.5 508.499 663.425 508.499 669.5Z" stroke="#00A6D6" stroke-width="3.4375" stroke-linejoin="round" stroke-miterlimit="10" fill="#00A6D6"/><path d="M490.499 691.5C490.499 697.575 485.575 702.499 479.5 702.499 473.425 702.499 468.5 697.575 468.5 691.5 468.5 685.425 473.425 680.5 479.5 680.5 485.575 680.5 490.499 685.425 490.499 691.5Z" stroke="#00A6D6" stroke-width="3.4375" stroke-linejoin="round" stroke-miterlimit="10" fill="#00A6D6"/><path d="M472.499 691.5C472.499 697.575 467.575 702.499 461.5 702.499 455.425 702.499 450.5 697.575 450.5 691.5 450.5 685.425 455.425 680.5 461.5 680.5 467.575 680.5 472.499 685.425 472.499 691.5Z" stroke="#00A6D6" stroke-width="3.4375" stroke-linejoin="round" stroke-miterlimit="10" fill="#00A6D6"/><path d="M455.499 710.5C455.499 716.575 450.575 721.499 444.5 721.499 438.425 721.499 433.5 716.575 433.5 710.5 433.5 704.425 438.425 699.5 444.5 699.5 450.575 699.5 455.499 704.425 455.499 710.5Z" stroke="#00A6D6" stroke-width="3.4375" stroke-linejoin="round" stroke-miterlimit="10" fill="#00A6D6"/><path d="M437.499 710.5C437.499 716.575 432.575 721.499 426.5 721.499 420.425 721.499 415.5 716.575 415.5 710.5 415.5 704.425 420.425 699.5 426.5 699.5 432.575 699.5 437.499 704.425 437.499 710.5Z" stroke="#00A6D6" stroke-width="3.4375" stroke-linejoin="round" stroke-miterlimit="10" fill="#00A6D6"/></g><g clip-path="url(#clip7)"><path d="M1050.5 766.5C1044.56 761.565 1038.61 761.199 1032.67 755.572 1026.73 749.944 1020.79 738.603 1014.84 732.735 1008.9 726.866 1002.96 726.783 997.014 720.361 991.071 713.94 985.128 701.458 979.186 694.206 973.243 686.953 967.3 681.683 961.357 676.845 955.414 672.008 949.471 668.95 943.528 665.182 937.586 661.414 931.643 657.602 925.7 654.236 919.757 650.87 913.814 648.588 907.872 644.987 901.929 641.385 895.985 636.403 890.043 632.629 884.1 628.854 878.157 626.355 872.214 622.337 866.271 618.319 860.328 611.988 854.386 608.522 848.443 605.056 842.5 604.567 836.557 601.542 830.614 598.518 824.671 593.346 818.729 590.377 812.786 587.407 806.843 586.474 800.9 583.724 794.957 580.975 789.014 577.137 783.072 573.88 777.129 570.624 771.185 567.306 765.243 564.185 759.3 561.064 753.357 558.695 747.414 555.152 741.471 551.61 735.528 547.48 729.586 542.932 723.643 538.383 717.7 533.401 711.757 527.862 705.814 522.323 699.871 516.133 693.929 509.698 687.986 503.263 682.043 496.592 676.1 489.25 670.157 481.908 664.214 473.781 658.272 465.649 652.329 457.518 646.385 448.482 640.443 440.462 634.5 432.441 628.557 425.102 622.614 417.528 616.671 409.953 610.728 401.692 604.786 395.013 598.843 388.334 592.9 384.288 586.957 377.455 581.014 370.621 575.071 360.296 569.129 354.013 563.186 347.73 557.243 344.765 551.3 339.756 545.357 334.746 539.414 328.887 533.472 323.957 527.529 319.027 521.585 314.678 515.643 310.174 509.7 305.67 503.757 299.566 497.814 296.932 491.871 294.298 485.928 298.922 479.986 294.368 474.043 289.812 468.1 274.768 462.157 269.602 456.214 264.436 450.271 268.555 444.329 263.371 438.386 258.187 432.443 246.79 426.5 238.5" stroke="#017188" stroke-width="6.875" stroke-linecap="round" stroke-linejoin="round" stroke-miterlimit="10" fill="none"/></g><g clip-path="url(#clip8)"><path d="M1185.5 784.5C1185.5 790.575 1180.57 795.499 1174.5 795.499 1168.42 795.499 1163.5 790.575 1163.5 784.5 1163.5 778.425 1168.42 773.5 1174.5 773.5 1180.57 773.5 1185.5 778.425 1185.5 784.5Z" stroke="#017188" stroke-width="3.4375" stroke-linejoin="round" stroke-miterlimit="10" fill="#017188"/><path d="M1185.5 784.5C1185.5 790.575 1180.57 795.499 1174.5 795.499 1168.42 795.499 1163.5 790.575 1163.5 784.5 1163.5 778.425 1168.42 773.5 1174.5 773.5 1180.57 773.5 1185.5 778.425 1185.5 784.5Z" stroke="#017188" stroke-width="3.4375" stroke-linejoin="round" stroke-miterlimit="10" fill="#017188"/><path d="M1185.5 784.5C1185.5 790.575 1180.57 795.499 1174.5 795.499 1168.42 795.499 1163.5 790.575 1163.5 784.5 1163.5 778.425 1168.42 773.5 1174.5 773.5 1180.57 773.5 1185.5 778.425 1185.5 784.5Z" stroke="#017188" stroke-width="3.4375" stroke-linejoin="round" stroke-miterlimit="10" fill="#017188"/><path d="M1185.5 784.5C1185.5 790.575 1180.57 795.499 1174.5 795.499 1168.42 795.499 1163.5 790.575 1163.5 784.5 1163.5 778.425 1168.42 773.5 1174.5 773.5 1180.57 773.5 1185.5 778.425 1185.5 784.5Z" stroke="#017188" stroke-width="3.4375" stroke-linejoin="round" stroke-miterlimit="10" fill="#017188"/><path d="M1114.5 784.5C1114.5 790.575 1109.57 795.499 1103.5 795.499 1097.42 795.499 1092.5 790.575 1092.5 784.5 1092.5 778.425 1097.42 773.5 1103.5 773.5 1109.57 773.5 1114.5 778.425 1114.5 784.5Z" stroke="#017188" stroke-width="3.4375" stroke-linejoin="round" stroke-miterlimit="10" fill="#017188"/><path d="M1114.5 784.5C1114.5 790.575 1109.57 795.499 1103.5 795.499 1097.42 795.499 1092.5 790.575 1092.5 784.5 1092.5 778.425 1097.42 773.5 1103.5 773.5 1109.57 773.5 1114.5 778.425 1114.5 784.5Z" stroke="#017188" stroke-width="3.4375" stroke-linejoin="round" stroke-miterlimit="10" fill="#017188"/><path d="M1078.5 784.5C1078.5 790.575 1073.57 795.499 1067.5 795.499 1061.42 795.499 1056.5 790.575 1056.5 784.5 1056.5 778.425 1061.42 773.5 1067.5 773.5 1073.57 773.5 1078.5 778.425 1078.5 784.5Z" stroke="#017188" stroke-width="3.4375" stroke-linejoin="round" stroke-miterlimit="10" fill="#017188"/><path d="M1061.5 766.5C1061.5 772.575 1056.57 777.499 1050.5 777.499 1044.42 777.499 1039.5 772.575 1039.5 766.5 1039.5 760.425 1044.42 755.5 1050.5 755.5 1056.57 755.5 1061.5 760.425 1061.5 766.5Z" stroke="#017188" stroke-width="3.4375" stroke-linejoin="round" stroke-miterlimit="10" fill="#017188"/><path d="M1043.5 755.5C1043.5 761.575 1038.57 766.499 1032.5 766.499 1026.42 766.499 1021.5 761.575 1021.5 755.5 1021.5 749.425 1026.42 744.5 1032.5 744.5 1038.57 744.5 1043.5 749.425 1043.5 755.5Z" stroke="#017188" stroke-width="3.4375" stroke-linejoin="round" stroke-miterlimit="10" fill="#017188"/><path d="M1025.5 732.5C1025.5 738.575 1020.57 743.499 1014.5 743.499 1008.42 743.499 1003.5 738.575 1003.5 732.5 1003.5 726.425 1008.42 721.5 1014.5 721.5 1020.57 721.5 1025.5 726.425 1025.5 732.5Z" stroke="#017188" stroke-width="3.4375" stroke-linejoin="round" stroke-miterlimit="10" fill="#017188"/><path d="M1007.5 720.5C1007.5 726.575 1002.57 731.499 996.5 731.499 990.425 731.499 985.5 726.575 985.5 720.5 985.5 714.425 990.425 709.5 996.5 709.5 1002.57 709.5 1007.5 714.425 1007.5 720.5Z" stroke="#017188" stroke-width="3.4375" stroke-linejoin="round" stroke-miterlimit="10" fill="#017188"/><path d="M989.499 693.5C989.499 699.575 984.575 704.499 978.5 704.499 972.425 704.499 967.5 699.575 967.5 693.5 967.5 687.425 972.425 682.5 978.5 682.5 984.575 682.5 989.499 687.425 989.499 693.5Z" stroke="#017188" stroke-width="3.4375" stroke-linejoin="round" stroke-miterlimit="10" fill="#017188"/><path d="M971.499 676.5C971.499 682.575 966.575 687.499 960.5 687.499 954.425 687.499 949.5 682.575 949.5 676.5 949.5 670.425 954.425 665.5 960.5 665.5 966.575 665.5 971.499 670.425 971.499 676.5Z" stroke="#017188" stroke-width="3.4375" stroke-linejoin="round" stroke-miterlimit="10" fill="#017188"/><path d="M954.499 664.5C954.499 670.575 949.575 675.499 943.5 675.499 937.425 675.499 932.5 670.575 932.5 664.5 932.5 658.425 937.425 653.5 943.5 653.5 949.575 653.5 954.499 658.425 954.499 664.5Z" stroke="#017188" stroke-width="3.4375" stroke-linejoin="round" stroke-miterlimit="10" fill="#017188"/><path d="M936.499 653.5C936.499 659.575 931.574 664.499 925.5 664.499 919.425 664.499 914.5 659.575 914.5 653.5 914.5 647.425 919.425 642.5 925.5 642.5 931.574 642.5 936.499 647.425 936.499 653.5Z" stroke="#017188" stroke-width="3.4375" stroke-linejoin="round" stroke-miterlimit="10" fill="#017188"/><path d="M918.499 644.5C918.499 650.575 913.575 655.499 907.5 655.499 901.425 655.499 896.5 650.575 896.5 644.5 896.5 638.425 901.425 633.5 907.5 633.5 913.575 633.5 918.499 638.425 918.499 644.5Z" stroke="#017188" stroke-width="3.4375" stroke-linejoin="round" stroke-miterlimit="10" fill="#017188"/><path d="M900.499 632.5C900.499 638.575 895.575 643.499 889.5 643.499 883.425 643.499 878.5 638.575 878.5 632.5 878.5 626.425 883.425 621.5 889.5 621.5 895.575 621.5 900.499 626.425 900.499 632.5Z" stroke="#017188" stroke-width="3.4375" stroke-linejoin="round" stroke-miterlimit="10" fill="#017188"/><path d="M882.499 622.5C882.499 628.575 877.574 633.499 871.5 633.499 865.425 633.499 860.5 628.575 860.5 622.5 860.5 616.425 865.425 611.5 871.5 611.5 877.574 611.5 882.499 616.425 882.499 622.5Z" stroke="#017188" stroke-width="3.4375" stroke-linejoin="round" stroke-miterlimit="10" fill="#017188"/><path d="M864.499 608.5C864.499 614.575 859.575 619.499 853.5 619.499 847.425 619.499 842.5 614.575 842.5 608.5 842.5 602.425 847.425 597.5 853.5 597.5 859.575 597.5 864.499 602.425 864.499 608.5Z" stroke="#017188" stroke-width="3.4375" stroke-linejoin="round" stroke-miterlimit="10" fill="#017188"/><path d="M847.499 601.5C847.499 607.575 842.575 612.499 836.5 612.499 830.425 612.499 825.5 607.575 825.5 601.5 825.5 595.425 830.425 590.5 836.5 590.5 842.575 590.5 847.499 595.425 847.499 601.5Z" stroke="#017188" stroke-width="3.4375" stroke-linejoin="round" stroke-miterlimit="10" fill="#017188"/><path d="M829.499 590.5C829.499 596.575 824.575 601.499 818.5 601.499 812.425 601.499 807.5 596.575 807.5 590.5 807.5 584.425 812.425 579.5 818.5 579.5 824.575 579.5 829.499 584.425 829.499 590.5Z" stroke="#017188" stroke-width="3.4375" stroke-linejoin="round" stroke-miterlimit="10" fill="#017188"/><path d="M811.499 583.5C811.499 589.575 806.575 594.499 800.5 594.499 794.425 594.499 789.5 589.575 789.5 583.5 789.5 577.425 794.425 572.5 800.5 572.5 806.575 572.5 811.499 577.425 811.499 583.5Z" stroke="#017188" stroke-width="3.4375" stroke-linejoin="round" stroke-miterlimit="10" fill="#017188"/><path d="M793.499 573.5C793.499 579.574 788.574 584.499 782.5 584.499 776.425 584.499 771.5 579.574 771.5 573.5 771.5 567.425 776.425 562.5 782.5 562.5 788.574 562.5 793.499 567.425 793.499 573.5Z" stroke="#017188" stroke-width="3.4375" stroke-linejoin="round" stroke-miterlimit="10" fill="#017188"/><path d="M775.499 564.5C775.499 570.575 770.575 575.499 764.5 575.499 758.425 575.499 753.5 570.575 753.5 564.5 753.5 558.425 758.425 553.5 764.5 553.5 770.575 553.5 775.499 558.425 775.499 564.5Z" stroke="#017188" stroke-width="3.4375" stroke-linejoin="round" stroke-miterlimit="10" fill="#017188"/><path d="M758.499 555.5C758.499 561.575 753.575 566.499 747.5 566.499 741.425 566.499 736.5 561.575 736.5 555.5 736.5 549.425 741.425 544.5 747.5 544.5 753.575 544.5 758.499 549.425 758.499 555.5Z" stroke="#017188" stroke-width="3.4375" stroke-linejoin="round" stroke-miterlimit="10" fill="#017188"/><path d="M740.499 542.5C740.499 548.575 735.575 553.499 729.5 553.499 723.425 553.499 718.5 548.575 718.5 542.5 718.5 536.425 723.425 531.5 729.5 531.5 735.575 531.5 740.499 536.425 740.499 542.5Z" stroke="#017188" stroke-width="3.4375" stroke-linejoin="round" stroke-miterlimit="10" fill="#017188"/><path d="M722.499 527.5C722.499 533.575 717.575 538.499 711.5 538.499 705.425 538.499 700.5 533.575 700.5 527.5 700.5 521.425 705.425 516.5 711.5 516.5 717.575 516.5 722.499 521.425 722.499 527.5Z" stroke="#017188" stroke-width="3.4375" stroke-linejoin="round" stroke-miterlimit="10" fill="#017188"/><path d="M704.499 509.5C704.499 515.574 699.575 520.499 693.5 520.499 687.425 520.499 682.5 515.574 682.5 509.5 682.5 503.425 687.425 498.5 693.5 498.5 699.575 498.5 704.499 503.425 704.499 509.5Z" stroke="#017188" stroke-width="3.4375" stroke-linejoin="round" stroke-miterlimit="10" fill="#017188"/><path d="M686.499 489.5C686.499 495.575 681.575 500.499 675.5 500.499 669.425 500.499 664.5 495.575 664.5 489.5 664.5 483.425 669.425 478.5 675.5 478.5 681.575 478.5 686.499 483.425 686.499 489.5Z" stroke="#017188" stroke-width="3.4375" stroke-linejoin="round" stroke-miterlimit="10" fill="#017188"/><path d="M668.499 465.5C668.499 471.574 663.575 476.499 657.5 476.499 651.425 476.499 646.5 471.574 646.5 465.5 646.5 459.425 651.425 454.5 657.5 454.5 663.575 454.5 668.499 459.425 668.499 465.5Z" stroke="#017188" stroke-width="3.4375" stroke-linejoin="round" stroke-miterlimit="10" fill="#017188"/><path d="M651.499 440.5C651.499 446.575 646.574 451.499 640.5 451.499 634.425 451.499 629.5 446.575 629.5 440.5 629.5 434.425 634.425 429.5 640.5 429.5 646.574 429.5 651.499 434.425 651.499 440.5Z" stroke="#017188" stroke-width="3.4375" stroke-linejoin="round" stroke-miterlimit="10" fill="#017188"/><path d="M633.499 417.5C633.499 423.575 628.575 428.499 622.5 428.499 616.425 428.499 611.5 423.575 611.5 417.5 611.5 411.425 616.425 406.5 622.5 406.5 628.575 406.5 633.499 411.425 633.499 417.5Z" stroke="#017188" stroke-width="3.4375" stroke-linejoin="round" stroke-miterlimit="10" fill="#017188"/><path d="M615.499 395.5C615.499 401.575 610.575 406.499 604.5 406.499 598.425 406.499 593.5 401.575 593.5 395.5 593.5 389.425 598.425 384.5 604.5 384.5 610.575 384.5 615.499 389.425 615.499 395.5Z" stroke="#017188" stroke-width="3.4375" stroke-linejoin="round" stroke-miterlimit="10" fill="#017188"/><path d="M597.499 377.5C597.499 383.574 592.575 388.499 586.5 388.499 580.425 388.499 575.5 383.574 575.5 377.5 575.5 371.425 580.425 366.5 586.5 366.5 592.575 366.5 597.499 371.425 597.499 377.5Z" stroke="#017188" stroke-width="3.4375" stroke-linejoin="round" stroke-miterlimit="10" fill="#017188"/><path d="M579.499 354.5C579.499 360.574 574.575 365.499 568.5 365.499 562.425 365.499 557.5 360.574 557.5 354.5 557.5 348.425 562.425 343.5 568.5 343.5 574.575 343.5 579.499 348.425 579.499 354.5Z" stroke="#017188" stroke-width="3.4375" stroke-linejoin="round" stroke-miterlimit="10" fill="#017188"/><path d="M561.499 340.5C561.499 346.575 556.575 351.499 550.5 351.499 544.425 351.499 539.5 346.575 539.5 340.5 539.5 334.425 544.425 329.5 550.5 329.5 556.575 329.5 561.499 334.425 561.499 340.5Z" stroke="#017188" stroke-width="3.4375" stroke-linejoin="round" stroke-miterlimit="10" fill="#017188"/><path d="M544.499 324.5C544.499 330.575 539.575 335.499 533.5 335.499 527.425 335.499 522.5 330.575 522.5 324.5 522.5 318.425 527.425 313.5 533.5 313.5 539.575 313.5 544.499 318.425 544.499 324.5Z" stroke="#017188" stroke-width="3.4375" stroke-linejoin="round" stroke-miterlimit="10" fill="#017188"/><path d="M526.499 310.5C526.499 316.574 521.575 321.499 515.5 321.499 509.425 321.499 504.5 316.574 504.5 310.5 504.5 304.425 509.425 299.5 515.5 299.5 521.575 299.5 526.499 304.425 526.499 310.5Z" stroke="#017188" stroke-width="3.4375" stroke-linejoin="round" stroke-miterlimit="10" fill="#017188"/><path d="M508.499 297.5C508.499 303.575 503.574 308.499 497.5 308.499 491.425 308.499 486.5 303.575 486.5 297.5 486.5 291.425 491.425 286.5 497.5 286.5 503.574 286.5 508.499 291.425 508.499 297.5Z" stroke="#017188" stroke-width="3.4375" stroke-linejoin="round" stroke-miterlimit="10" fill="#017188"/><path d="M490.499 294.5C490.499 300.575 485.575 305.499 479.5 305.499 473.425 305.499 468.5 300.575 468.5 294.5 468.5 288.425 473.425 283.5 479.5 283.5 485.575 283.5 490.499 288.425 490.499 294.5Z" stroke="#017188" stroke-width="3.4375" stroke-linejoin="round" stroke-miterlimit="10" fill="#017188"/><path d="M472.499 270.5C472.499 276.575 467.575 281.499 461.5 281.499 455.425 281.499 450.5 276.575 450.5 270.5 450.5 264.425 455.425 259.5 461.5 259.5 467.575 259.5 472.499 264.425 472.499 270.5Z" stroke="#017188" stroke-width="3.4375" stroke-linejoin="round" stroke-miterlimit="10" fill="#017188"/><path d="M455.499 263.5C455.499 269.575 450.575 274.499 444.5 274.499 438.425 274.499 433.5 269.575 433.5 263.5 433.5 257.425 438.425 252.5 444.5 252.5 450.575 252.5 455.499 257.425 455.499 263.5Z" stroke="#017188" stroke-width="3.4375" stroke-linejoin="round" stroke-miterlimit="10" fill="#017188"/><path d="M437.499 238.5C437.499 244.575 432.575 249.499 426.5 249.499 420.425 249.499 415.5 244.575 415.5 238.5 415.5 232.425 420.425 227.5 426.5 227.5 432.575 227.5 437.499 232.425 437.499 238.5Z" stroke="#017188" stroke-width="3.4375" stroke-linejoin="round" stroke-miterlimit="10" fill="#017188"/></g><g clip-path="url(#clip9)"><text fill="#595959" font-family="Arial,Arial_MSFontService,sans-serif" font-weight="400" font-size="41" transform="matrix(1 0 0 1 123.75 798)">1.00E+00</text></g><g clip-path="url(#clip10)"><text fill="#595959" font-family="Arial,Arial_MSFontService,sans-serif" font-weight="400" font-size="41" transform="matrix(1 0 0 1 123.75 736)">1.00E+01</text></g><g clip-path="url(#clip11)"><text fill="#595959" font-family="Arial,Arial_MSFontService,sans-serif" font-weight="400" font-size="41" transform="matrix(1 0 0 1 123.75 674)">1.00E+02</text></g><g clip-path="url(#clip12)"><text fill="#595959" font-family="Arial,Arial_MSFontService,sans-serif" font-weight="400" font-size="41" transform="matrix(1 0 0 1 123.75 612)">1.00E+03</text></g><g clip-path="url(#clip13)"><text fill="#595959" font-family="Arial,Arial_MSFontService,sans-serif" font-weight="400" font-size="41" transform="matrix(1 0 0 1 123.75 550)">1.00E+04</text></g><g clip-path="url(#clip14)"><text fill="#595959" font-family="Arial,Arial_MSFontService,sans-serif" font-weight="400" font-size="41" transform="matrix(1 0 0 1 123.75 488)">1.00E+05</text></g><g clip-path="url(#clip15)"><text fill="#595959" font-family="Arial,Arial_MSFontService,sans-serif" font-weight="400" font-size="41" transform="matrix(1 0 0 1 123.75 426)">1.00E+06</text></g><g clip-path="url(#clip16)"><text fill="#595959" font-family="Arial,Arial_MSFontService,sans-serif" font-weight="400" font-size="41" transform="matrix(1 0 0 1 123.75 364)">1.00E+07</text></g><g clip-path="url(#clip17)"><text fill="#595959" font-family="Arial,Arial_MSFontService,sans-serif" font-weight="400" font-size="41" transform="matrix(1 0 0 1 123.75 302)">1.00E+08</text></g><g clip-path="url(#clip18)"><text fill="#595959" font-family="Arial,Arial_MSFontService,sans-serif" font-weight="400" font-size="41" transform="matrix(1 0 0 1 123.75 240)">1.00E+09</text></g><g clip-path="url(#clip19)"><text fill="#595959" font-family="Arial,Arial_MSFontService,sans-serif" font-weight="400" font-size="41" transform="matrix(1 0 0 1 123.75 178)">1.00E+10</text></g><g clip-path="url(#clip20)"><text fill="#595959" font-family="Arial,Arial_MSFontService,sans-serif" font-weight="400" font-size="41" transform="matrix(1 0 0 1 285.382 847)">0.001</text></g><g clip-path="url(#clip21)"><text fill="#595959" font-family="Arial,Arial_MSFontService,sans-serif" font-weight="400" font-size="41" transform="matrix(1 0 0 1 475.091 847)">0.01</text></g><g clip-path="url(#clip22)"><text fill="#595959" font-family="Arial,Arial_MSFontService,sans-serif" font-weight="400" font-size="41" transform="matrix(1 0 0 1 664.799 847)">0.1</text></g><g clip-path="url(#clip23)"><text fill="#595959" font-family="Arial,Arial_MSFontService,sans-serif" font-weight="400" font-size="41" transform="matrix(1 0 0 1 860.236 847)">1</text></g><g clip-path="url(#clip24)"><text fill="#595959" font-family="Arial,Arial_MSFontService,sans-serif" font-weight="400" font-size="41" transform="matrix(1 0 0 1 1027.01 847)">10</text></g><g clip-path="url(#clip25)"><text fill="#595959" font-family="Arial,Arial_MSFontService,sans-serif" font-weight="400" font-size="41" transform="matrix(1 0 0 1 1193.77 847)">100</text></g><g clip-path="url(#clip26)"><text fill="#595959" font-family="Arial,Arial_MSFontService,sans-serif" font-weight="400" font-size="46" transform="matrix(6.12323e-17 -1 1 6.12323e-17 100.283 526)">n (H)</text></g><g clip-path="url(#clip27)"><text fill="#595959" font-family="Arial,Arial_MSFontService,sans-serif" font-weight="400" font-size="46" transform="matrix(1 0 0 1 639.977 913)">Diameter [km]</text></g><g clip-path="url(#clip28)"><text fill="#595959" font-family="Arial,Arial_MSFontService,sans-serif" font-weight="400" font-size="64" transform="matrix(1 0 0 1 515.281 94)">Differential population</text></g><g clip-path="url(#clip29)"><path d="M1334.5 510.5 1422.5 510.5" stroke="#00A6D6" stroke-width="6.875" stroke-linecap="round" stroke-linejoin="round" stroke-miterlimit="10" fill="none" fill-rule="evenodd"/></g><g clip-path="url(#clip30)"><path d="M1389 510C1389 516.075 1384.07 520.999 1378 520.999 1371.92 520.999 1367 516.075 1367 510 1367 503.925 1371.92 499 1378 499 1384.07 499 1389 503.925 1389 510Z" stroke="#00A6D6" stroke-width="3.4375" stroke-linejoin="round" stroke-miterlimit="10" fill="#00A6D6"/></g><g clip-path="url(#clip31)"><text fill="#595959" font-family="Arial,Arial_MSFontService,sans-serif" font-weight="400" font-size="41" transform="matrix(1 0 0 1 1431.6 524)">Identified</text></g><g clip-path="url(#clip32)"><path d="M1334.5 583.5 1422.5 583.5" stroke="#017188" stroke-width="6.875" stroke-linecap="round" stroke-linejoin="round" stroke-miterlimit="10" fill="none" fill-rule="evenodd"/></g><g clip-path="url(#clip33)"><path d="M1389 583.499C1389 589.31 1384.07 594.021 1378 594.021 1371.92 594.021 1367 589.31 1367 583.499 1367 577.689 1371.92 572.978 1378 572.978 1384.07 572.978 1389 577.689 1389 583.499Z" stroke="#017188" stroke-width="3.4375" stroke-linejoin="round" stroke-miterlimit="10" fill="#017188"/></g><g clip-path="url(#clip34)"><text fill="#595959" font-family="Arial,Arial_MSFontService,sans-serif" font-weight="400" font-size="41" transform="matrix(1 0 0 1 1431.6 597)">Expected</text></g><g clip-path="url(#clip35)"><path d="M1986.5 723.524 2878.5 723.524M1986.5 661.522 2878.5 661.522M1986.5 599.52 2878.5 599.52M1986.5 537.518 2878.5 537.518M1986.5 475.516 2878.5 475.516M1986.5 413.514 2878.5 413.514M1986.5 351.512 2878.5 351.512M1986.5 289.51 2878.5 289.51M1986.5 227.508 2878.5 227.508M1986.5 165.5 2878.5 165.5" stroke="#D9D9D9" stroke-width="3.4375" stroke-linejoin="round" stroke-miterlimit="10" fill="none"/></g><g clip-path="url(#clip36)"><path d="M2165.57 165.5 2165.57 784.5M2343.58 165.5 2343.58 784.5M2521.58 165.5 2521.58 784.5M2699.59 165.5 2699.59 784.5M2878.5 165.5 2878.5 784.5" stroke="#D9D9D9" stroke-width="3.4375" stroke-linejoin="round" stroke-miterlimit="10" fill="none"/></g><g clip-path="url(#clip37)"><path d="M0 0 0.000360892 619" stroke="#BFBFBF" stroke-width="3.4375" stroke-linejoin="round" stroke-miterlimit="10" fill="none" fill-rule="evenodd" transform="matrix(1 0 0 -1 1986.5 784.5)"/></g><g clip-path="url(#clip38)"><path d="M1986.5 784.5 2878.5 784.5" stroke="#BFBFBF" stroke-width="3.4375" stroke-linejoin="round" stroke-miterlimit="10" fill="none" fill-rule="evenodd"/></g><g clip-path="url(#clip39)"><path d="M2824.5 785.39C2818.56 785.39 2812.63 785.39 2806.69 785.39 2800.75 785.39 2794.82 785.39 2788.88 785.39 2782.94 785.39 2777.01 788.5 2771.07 785.39 2765.13 782.279 2759.2 769.836 2753.26 766.726 2747.33 763.615 2741.39 768.545 2735.45 766.726 2729.52 764.906 2723.58 759.92 2717.64 755.808 2711.71 751.696 2705.77 746.455 2699.83 742.053 2693.9 737.651 2687.96 734.328 2682.02 729.398 2676.09 724.467 2670.15 717.761 2664.21 712.471 2658.28 707.182 2652.34 703.491 2646.4 697.661 2640.47 691.829 2634.53 683.959 2628.6 677.486 2622.66 671.013 2616.72 664.479 2610.79 658.822 2604.85 653.165 2598.91 648.309 2592.98 643.545 2587.04 638.781 2581.1 634.378 2575.17 630.238 2569.23 626.098 2563.29 622.527 2557.36 618.706 2551.42 614.886 2545.48 610.946 2539.55 607.315 2533.61 603.684 2527.67 600.408 2521.74 596.92 2515.8 593.431 2509.86 589.51 2503.93 586.382 2497.99 583.253 2492.06 580.77 2486.12 578.146 2480.18 575.521 2474.25 572.841 2468.31 570.636 2462.37 568.43 2456.44 566.672 2450.5 564.912 2444.56 563.152 2438.63 561.539 2432.69 560.075 2426.75 558.611 2420.82 557.288 2414.88 556.127 2408.94 554.966 2403.01 554.026 2397.07 553.111 2391.13 552.196 2385.2 551.404 2379.26 550.636 2373.33 549.867 2367.39 549.178 2361.45 548.499 2355.52 547.819 2349.58 547.188 2343.64 546.561 2337.71 545.933 2331.77 545.348 2325.83 544.735 2319.9 544.122 2313.96 543.492 2308.02 542.883 2302.09 542.273 2296.15 541.642 2290.21 541.079 2284.28 540.516 2278.34 539.995 2272.4 539.504 2266.47 539.013 2260.53 538.528 2254.6 538.133 2248.66 537.738 2242.72 537.453 2236.79 537.133 2230.85 536.813 2224.91 536.469 2218.98 536.215 2213.04 535.961 2207.1 535.782 2201.17 535.611 2195.23 535.44 2189.29 535.305 2183.36 535.188 2177.42 535.072 2171.48 534.988 2165.55 534.912 2159.61 534.836 2153.67 534.776 2147.74 534.733 2141.8 534.69 2135.86 534.681 2129.93 534.655 2123.99 534.629 2118.06 534.597 2112.12 534.578 2106.18 534.558 2100.25 534.552 2094.31 534.539 2088.37 534.526 2082.44 534.513 2076.5 534.5" stroke="#00A6D6" stroke-width="6.875" stroke-linecap="round" stroke-linejoin="round" stroke-miterlimit="10" fill="none"/></g><g clip-path="url(#clip40)"><path d="M2835.5 784.5C2835.5 790.575 2830.57 795.499 2824.5 795.499 2818.42 795.499 2813.5 790.575 2813.5 784.5 2813.5 778.425 2818.42 773.5 2824.5 773.5 2830.57 773.5 2835.5 778.425 2835.5 784.5Z" stroke="#00A6D6" stroke-width="3.4375" stroke-linejoin="round" stroke-miterlimit="10" fill="#00A6D6"/><path d="M2817.5 784.5C2817.5 790.575 2812.57 795.499 2806.5 795.499 2800.42 795.499 2795.5 790.575 2795.5 784.5 2795.5 778.425 2800.42 773.5 2806.5 773.5 2812.57 773.5 2817.5 778.425 2817.5 784.5Z" stroke="#00A6D6" stroke-width="3.4375" stroke-linejoin="round" stroke-miterlimit="10" fill="#00A6D6"/><path d="M2800.5 784.5C2800.5 790.575 2795.57 795.499 2789.5 795.499 2783.42 795.499 2778.5 790.575 2778.5 784.5 2778.5 778.425 2783.42 773.5 2789.5 773.5 2795.57 773.5 2800.5 778.425 2800.5 784.5Z" stroke="#00A6D6" stroke-width="3.4375" stroke-linejoin="round" stroke-miterlimit="10" fill="#00A6D6"/><path d="M2782.5 784.5C2782.5 790.575 2777.57 795.499 2771.5 795.499 2765.42 795.499 2760.5 790.575 2760.5 784.5 2760.5 778.425 2765.42 773.5 2771.5 773.5 2777.57 773.5 2782.5 778.425 2782.5 784.5Z" stroke="#00A6D6" stroke-width="3.4375" stroke-linejoin="round" stroke-miterlimit="10" fill="#00A6D6"/><path d="M2764.5 766.5C2764.5 772.575 2759.57 777.499 2753.5 777.499 2747.42 777.499 2742.5 772.575 2742.5 766.5 2742.5 760.425 2747.42 755.5 2753.5 755.5 2759.57 755.5 2764.5 760.425 2764.5 766.5Z" stroke="#00A6D6" stroke-width="3.4375" stroke-linejoin="round" stroke-miterlimit="10" fill="#00A6D6"/><path d="M2746.5 766.5C2746.5 772.575 2741.57 777.499 2735.5 777.499 2729.42 777.499 2724.5 772.575 2724.5 766.5 2724.5 760.425 2729.42 755.5 2735.5 755.5 2741.57 755.5 2746.5 760.425 2746.5 766.5Z" stroke="#00A6D6" stroke-width="3.4375" stroke-linejoin="round" stroke-miterlimit="10" fill="#00A6D6"/><path d="M2728.5 755.5C2728.5 761.575 2723.57 766.499 2717.5 766.499 2711.42 766.499 2706.5 761.575 2706.5 755.5 2706.5 749.425 2711.42 744.5 2717.5 744.5 2723.57 744.5 2728.5 749.425 2728.5 755.5Z" stroke="#00A6D6" stroke-width="3.4375" stroke-linejoin="round" stroke-miterlimit="10" fill="#00A6D6"/><path d="M2711.5 741.5C2711.5 747.575 2706.57 752.499 2700.5 752.499 2694.42 752.499 2689.5 747.575 2689.5 741.5 2689.5 735.425 2694.42 730.5 2700.5 730.5 2706.57 730.5 2711.5 735.425 2711.5 741.5Z" stroke="#00A6D6" stroke-width="3.4375" stroke-linejoin="round" stroke-miterlimit="10" fill="#00A6D6"/><path d="M2693.5 729.5C2693.5 735.575 2688.57 740.499 2682.5 740.499 2676.42 740.499 2671.5 735.575 2671.5 729.5 2671.5 723.425 2676.42 718.5 2682.5 718.5 2688.57 718.5 2693.5 723.425 2693.5 729.5Z" stroke="#00A6D6" stroke-width="3.4375" stroke-linejoin="round" stroke-miterlimit="10" fill="#00A6D6"/><path d="M2675.5 712.5C2675.5 718.575 2670.57 723.499 2664.5 723.499 2658.42 723.499 2653.5 718.575 2653.5 712.5 2653.5 706.425 2658.42 701.5 2664.5 701.5 2670.57 701.5 2675.5 706.425 2675.5 712.5Z" stroke="#00A6D6" stroke-width="3.4375" stroke-linejoin="round" stroke-miterlimit="10" fill="#00A6D6"/><path d="M2657.5 697.5C2657.5 703.575 2652.57 708.499 2646.5 708.499 2640.42 708.499 2635.5 703.575 2635.5 697.5 2635.5 691.425 2640.42 686.5 2646.5 686.5 2652.57 686.5 2657.5 691.425 2657.5 697.5Z" stroke="#00A6D6" stroke-width="3.4375" stroke-linejoin="round" stroke-miterlimit="10" fill="#00A6D6"/><path d="M2639.5 677.5C2639.5 683.575 2634.57 688.499 2628.5 688.499 2622.42 688.499 2617.5 683.575 2617.5 677.5 2617.5 671.425 2622.42 666.5 2628.5 666.5 2634.57 666.5 2639.5 671.425 2639.5 677.5Z" stroke="#00A6D6" stroke-width="3.4375" stroke-linejoin="round" stroke-miterlimit="10" fill="#00A6D6"/><path d="M2621.5 658.5C2621.5 664.575 2616.57 669.499 2610.5 669.499 2604.42 669.499 2599.5 664.575 2599.5 658.5 2599.5 652.425 2604.42 647.5 2610.5 647.5 2616.57 647.5 2621.5 652.425 2621.5 658.5Z" stroke="#00A6D6" stroke-width="3.4375" stroke-linejoin="round" stroke-miterlimit="10" fill="#00A6D6"/><path d="M2604.5 643.5C2604.5 649.575 2599.57 654.499 2593.5 654.499 2587.42 654.499 2582.5 649.575 2582.5 643.5 2582.5 637.425 2587.42 632.5 2593.5 632.5 2599.57 632.5 2604.5 637.425 2604.5 643.5Z" stroke="#00A6D6" stroke-width="3.4375" stroke-linejoin="round" stroke-miterlimit="10" fill="#00A6D6"/><path d="M2586.5 629.5C2586.5 635.574 2581.57 640.499 2575.5 640.499 2569.42 640.499 2564.5 635.574 2564.5 629.5 2564.5 623.425 2569.42 618.5 2575.5 618.5 2581.57 618.5 2586.5 623.425 2586.5 629.5Z" stroke="#00A6D6" stroke-width="3.4375" stroke-linejoin="round" stroke-miterlimit="10" fill="#00A6D6"/><path d="M2568.5 618.5C2568.5 624.574 2563.57 629.499 2557.5 629.499 2551.42 629.499 2546.5 624.574 2546.5 618.5 2546.5 612.425 2551.42 607.5 2557.5 607.5 2563.57 607.5 2568.5 612.425 2568.5 618.5Z" stroke="#00A6D6" stroke-width="3.4375" stroke-linejoin="round" stroke-miterlimit="10" fill="#00A6D6"/><path d="M2550.5 607.5C2550.5 613.574 2545.57 618.499 2539.5 618.499 2533.42 618.499 2528.5 613.574 2528.5 607.5 2528.5 601.425 2533.42 596.5 2539.5 596.5 2545.57 596.5 2550.5 601.425 2550.5 607.5Z" stroke="#00A6D6" stroke-width="3.4375" stroke-linejoin="round" stroke-miterlimit="10" fill="#00A6D6"/><path d="M2532.5 596.5C2532.5 602.574 2527.57 607.499 2521.5 607.499 2515.42 607.499 2510.5 602.574 2510.5 596.5 2510.5 590.425 2515.42 585.5 2521.5 585.5 2527.57 585.5 2532.5 590.425 2532.5 596.5Z" stroke="#00A6D6" stroke-width="3.4375" stroke-linejoin="round" stroke-miterlimit="10" fill="#00A6D6"/><path d="M2514.5 586.5C2514.5 592.575 2509.57 597.499 2503.5 597.499 2497.42 597.499 2492.5 592.575 2492.5 586.5 2492.5 580.425 2497.42 575.5 2503.5 575.5 2509.57 575.5 2514.5 580.425 2514.5 586.5Z" stroke="#00A6D6" stroke-width="3.4375" stroke-linejoin="round" stroke-miterlimit="10" fill="#00A6D6"/><path d="M2497.5 577.5C2497.5 583.575 2492.57 588.499 2486.5 588.499 2480.42 588.499 2475.5 583.575 2475.5 577.5 2475.5 571.425 2480.42 566.5 2486.5 566.5 2492.57 566.5 2497.5 571.425 2497.5 577.5Z" stroke="#00A6D6" stroke-width="3.4375" stroke-linejoin="round" stroke-miterlimit="10" fill="#00A6D6"/><path d="M2479.5 570.5C2479.5 576.575 2474.57 581.499 2468.5 581.499 2462.42 581.499 2457.5 576.575 2457.5 570.5 2457.5 564.425 2462.42 559.5 2468.5 559.5 2474.57 559.5 2479.5 564.425 2479.5 570.5Z" stroke="#00A6D6" stroke-width="3.4375" stroke-linejoin="round" stroke-miterlimit="10" fill="#00A6D6"/><path d="M2461.5 564.5C2461.5 570.575 2456.57 575.499 2450.5 575.499 2444.42 575.499 2439.5 570.575 2439.5 564.5 2439.5 558.425 2444.42 553.5 2450.5 553.5 2456.57 553.5 2461.5 558.425 2461.5 564.5Z" stroke="#00A6D6" stroke-width="3.4375" stroke-linejoin="round" stroke-miterlimit="10" fill="#00A6D6"/><path d="M2443.5 559.5C2443.5 565.575 2438.57 570.499 2432.5 570.499 2426.42 570.499 2421.5 565.575 2421.5 559.5 2421.5 553.425 2426.42 548.5 2432.5 548.5 2438.57 548.5 2443.5 553.425 2443.5 559.5Z" stroke="#00A6D6" stroke-width="3.4375" stroke-linejoin="round" stroke-miterlimit="10" fill="#00A6D6"/><path d="M2425.5 555.5C2425.5 561.575 2420.57 566.499 2414.5 566.499 2408.42 566.499 2403.5 561.575 2403.5 555.5 2403.5 549.425 2408.42 544.5 2414.5 544.5 2420.57 544.5 2425.5 549.425 2425.5 555.5Z" stroke="#00A6D6" stroke-width="3.4375" stroke-linejoin="round" stroke-miterlimit="10" fill="#00A6D6"/><path d="M2408.5 552.5C2408.5 558.574 2403.57 563.499 2397.5 563.499 2391.42 563.499 2386.5 558.574 2386.5 552.5 2386.5 546.425 2391.42 541.5 2397.5 541.5 2403.57 541.5 2408.5 546.425 2408.5 552.5Z" stroke="#00A6D6" stroke-width="3.4375" stroke-linejoin="round" stroke-miterlimit="10" fill="#00A6D6"/><path d="M2390.5 550.5C2390.5 556.575 2385.57 561.499 2379.5 561.499 2373.42 561.499 2368.5 556.575 2368.5 550.5 2368.5 544.425 2373.42 539.5 2379.5 539.5 2385.57 539.5 2390.5 544.425 2390.5 550.5Z" stroke="#00A6D6" stroke-width="3.4375" stroke-linejoin="round" stroke-miterlimit="10" fill="#00A6D6"/><path d="M2372.5 548.5C2372.5 554.575 2367.57 559.499 2361.5 559.499 2355.42 559.499 2350.5 554.575 2350.5 548.5 2350.5 542.425 2355.42 537.5 2361.5 537.5 2367.57 537.5 2372.5 542.425 2372.5 548.5Z" stroke="#00A6D6" stroke-width="3.4375" stroke-linejoin="round" stroke-miterlimit="10" fill="#00A6D6"/><path d="M2354.5 546.5C2354.5 552.575 2349.57 557.499 2343.5 557.499 2337.42 557.499 2332.5 552.575 2332.5 546.5 2332.5 540.425 2337.42 535.5 2343.5 535.5 2349.57 535.5 2354.5 540.425 2354.5 546.5Z" stroke="#00A6D6" stroke-width="3.4375" stroke-linejoin="round" stroke-miterlimit="10" fill="#00A6D6"/><path d="M2336.5 544.5C2336.5 550.575 2331.57 555.499 2325.5 555.499 2319.42 555.499 2314.5 550.575 2314.5 544.5 2314.5 538.425 2319.42 533.5 2325.5 533.5 2331.57 533.5 2336.5 538.425 2336.5 544.5Z" stroke="#00A6D6" stroke-width="3.4375" stroke-linejoin="round" stroke-miterlimit="10" fill="#00A6D6"/><path d="M2318.5 542.5C2318.5 548.575 2313.57 553.499 2307.5 553.499 2301.42 553.499 2296.5 548.575 2296.5 542.5 2296.5 536.425 2301.42 531.5 2307.5 531.5 2313.57 531.5 2318.5 536.425 2318.5 542.5Z" stroke="#00A6D6" stroke-width="3.4375" stroke-linejoin="round" stroke-miterlimit="10" fill="#00A6D6"/><path d="M2301.5 540.5C2301.5 546.574 2296.57 551.499 2290.5 551.499 2284.42 551.499 2279.5 546.574 2279.5 540.5 2279.5 534.425 2284.42 529.5 2290.5 529.5 2296.57 529.5 2301.5 534.425 2301.5 540.5Z" stroke="#00A6D6" stroke-width="3.4375" stroke-linejoin="round" stroke-miterlimit="10" fill="#00A6D6"/><path d="M2283.5 539.5C2283.5 545.575 2278.57 550.499 2272.5 550.499 2266.42 550.499 2261.5 545.575 2261.5 539.5 2261.5 533.425 2266.42 528.5 2272.5 528.5 2278.57 528.5 2283.5 533.425 2283.5 539.5Z" stroke="#00A6D6" stroke-width="3.4375" stroke-linejoin="round" stroke-miterlimit="10" fill="#00A6D6"/><path d="M2265.5 537.5C2265.5 543.575 2260.57 548.499 2254.5 548.499 2248.42 548.499 2243.5 543.575 2243.5 537.5 2243.5 531.425 2248.42 526.5 2254.5 526.5 2260.57 526.5 2265.5 531.425 2265.5 537.5Z" stroke="#00A6D6" stroke-width="3.4375" stroke-linejoin="round" stroke-miterlimit="10" fill="#00A6D6"/><path d="M2247.5 536.5C2247.5 542.575 2242.57 547.499 2236.5 547.499 2230.42 547.499 2225.5 542.575 2225.5 536.5 2225.5 530.425 2230.42 525.5 2236.5 525.5 2242.57 525.5 2247.5 530.425 2247.5 536.5Z" stroke="#00A6D6" stroke-width="3.4375" stroke-linejoin="round" stroke-miterlimit="10" fill="#00A6D6"/><path d="M2229.5 536.5C2229.5 542.575 2224.57 547.499 2218.5 547.499 2212.42 547.499 2207.5 542.575 2207.5 536.5 2207.5 530.425 2212.42 525.5 2218.5 525.5 2224.57 525.5 2229.5 530.425 2229.5 536.5Z" stroke="#00A6D6" stroke-width="3.4375" stroke-linejoin="round" stroke-miterlimit="10" fill="#00A6D6"/><path d="M2211.5 535.5C2211.5 541.575 2206.57 546.499 2200.5 546.499 2194.42 546.499 2189.5 541.575 2189.5 535.5 2189.5 529.425 2194.42 524.5 2200.5 524.5 2206.57 524.5 2211.5 529.425 2211.5 535.5Z" stroke="#00A6D6" stroke-width="3.4375" stroke-linejoin="round" stroke-miterlimit="10" fill="#00A6D6"/><path d="M2194.5 534.5C2194.5 540.575 2189.57 545.499 2183.5 545.499 2177.42 545.499 2172.5 540.575 2172.5 534.5 2172.5 528.425 2177.42 523.5 2183.5 523.5 2189.57 523.5 2194.5 528.425 2194.5 534.5Z" stroke="#00A6D6" stroke-width="3.4375" stroke-linejoin="round" stroke-miterlimit="10" fill="#00A6D6"/><path d="M2176.5 534.5C2176.5 540.575 2171.57 545.499 2165.5 545.499 2159.42 545.499 2154.5 540.575 2154.5 534.5 2154.5 528.425 2159.42 523.5 2165.5 523.5 2171.57 523.5 2176.5 528.425 2176.5 534.5Z" stroke="#00A6D6" stroke-width="3.4375" stroke-linejoin="round" stroke-miterlimit="10" fill="#00A6D6"/><path d="M2158.5 534.5C2158.5 540.575 2153.57 545.499 2147.5 545.499 2141.42 545.499 2136.5 540.575 2136.5 534.5 2136.5 528.425 2141.42 523.5 2147.5 523.5 2153.57 523.5 2158.5 528.425 2158.5 534.5Z" stroke="#00A6D6" stroke-width="3.4375" stroke-linejoin="round" stroke-miterlimit="10" fill="#00A6D6"/><path d="M2140.5 534.5C2140.5 540.575 2135.57 545.499 2129.5 545.499 2123.42 545.499 2118.5 540.575 2118.5 534.5 2118.5 528.425 2123.42 523.5 2129.5 523.5 2135.57 523.5 2140.5 528.425 2140.5 534.5Z" stroke="#00A6D6" stroke-width="3.4375" stroke-linejoin="round" stroke-miterlimit="10" fill="#00A6D6"/><path d="M2122.5 534.5C2122.5 540.575 2117.57 545.499 2111.5 545.499 2105.42 545.499 2100.5 540.575 2100.5 534.5 2100.5 528.425 2105.42 523.5 2111.5 523.5 2117.57 523.5 2122.5 528.425 2122.5 534.5Z" stroke="#00A6D6" stroke-width="3.4375" stroke-linejoin="round" stroke-miterlimit="10" fill="#00A6D6"/><path d="M2105.5 534.5C2105.5 540.575 2100.57 545.499 2094.5 545.499 2088.42 545.499 2083.5 540.575 2083.5 534.5 2083.5 528.425 2088.42 523.5 2094.5 523.5 2100.57 523.5 2105.5 528.425 2105.5 534.5Z" stroke="#00A6D6" stroke-width="3.4375" stroke-linejoin="round" stroke-miterlimit="10" fill="#00A6D6"/><path d="M2087.5 534.5C2087.5 540.575 2082.57 545.499 2076.5 545.499 2070.42 545.499 2065.5 540.575 2065.5 534.5 2065.5 528.425 2070.42 523.5 2076.5 523.5 2082.57 523.5 2087.5 528.425 2087.5 534.5Z" stroke="#00A6D6" stroke-width="3.4375" stroke-linejoin="round" stroke-miterlimit="10" fill="#00A6D6"/></g><g clip-path="url(#clip41)"><path d="M2824.5 784.392C2818.56 784.392 2812.63 784.392 2806.69 784.392 2800.75 784.392 2794.82 784.392 2788.88 784.392 2782.94 784.392 2777.01 787.5 2771.07 784.392 2765.13 781.283 2759.2 768.849 2753.26 765.741 2747.33 762.633 2741.39 767.559 2735.45 765.741 2729.52 763.922 2723.58 758.94 2717.64 754.831 2711.71 750.722 2705.77 745.485 2699.83 741.086 2693.9 736.687 2687.96 733.366 2682.02 728.44 2676.09 723.513 2670.15 716.825 2664.21 711.526 2658.28 706.227 2652.34 702.497 2646.4 696.645 2640.47 690.792 2634.53 682.907 2628.6 676.412 2622.66 669.917 2616.72 663.366 2610.79 657.674 2604.85 651.982 2598.91 647.088 2592.98 642.262 2587.04 637.435 2581.1 632.959 2575.17 628.714 2569.23 624.468 2563.29 620.79 2557.36 616.791 2551.42 612.791 2545.48 608.636 2539.55 604.719 2533.61 600.801 2527.67 597.234 2521.74 593.283 2515.8 589.331 2509.86 584.795 2503.93 581.008 2497.99 577.22 2492.06 574.079 2486.12 570.558 2480.18 567.036 2474.25 563.23 2468.31 559.881 2462.37 556.532 2456.44 553.621 2450.5 550.461 2444.56 547.3 2438.63 544.107 2432.69 540.92 2426.75 537.732 2420.82 534.503 2414.88 531.338 2408.94 528.171 2403.01 525.203 2397.07 521.923 2391.13 518.643 2385.2 515.346 2379.26 511.656 2373.33 507.965 2367.39 504.139 2361.45 499.78 2355.52 495.42 2349.58 490.709 2343.64 485.5 2337.71 480.291 2331.77 474.729 2325.83 468.524 2319.9 462.318 2313.96 455.467 2308.02 448.265 2302.09 441.063 2296.15 432.957 2290.21 425.311 2284.28 417.665 2278.34 409.989 2272.4 402.391 2266.47 394.793 2260.53 386.813 2254.6 379.724 2248.66 372.636 2242.72 366.8 2236.79 359.861 2230.85 352.923 2224.91 344.696 2218.98 338.093 2213.04 331.49 2207.1 326.028 2201.17 320.242 2195.23 314.457 2189.29 308.766 2183.36 303.379 2177.42 297.991 2171.48 292.911 2165.55 287.917 2159.61 282.922 2153.67 277.521 2147.74 273.412 2141.8 269.302 2135.86 267.558 2129.93 263.261 2123.99 258.963 2118.06 252.215 2112.12 247.63 2106.18 243.044 2100.25 240.601 2094.31 235.747 2088.37 230.892 2082.44 224.249 2076.5 218.5" stroke="#017188" stroke-width="6.875" stroke-linecap="round" stroke-linejoin="round" stroke-miterlimit="10" fill="none"/></g><g clip-path="url(#clip42)"><path d="M2835.5 784.5C2835.5 790.575 2830.57 795.499 2824.5 795.499 2818.42 795.499 2813.5 790.575 2813.5 784.5 2813.5 778.425 2818.42 773.5 2824.5 773.5 2830.57 773.5 2835.5 778.425 2835.5 784.5Z" stroke="#017188" stroke-width="3.4375" stroke-linejoin="round" stroke-miterlimit="10" fill="#017188"/><path d="M2817.5 784.5C2817.5 790.575 2812.57 795.499 2806.5 795.499 2800.42 795.499 2795.5 790.575 2795.5 784.5 2795.5 778.425 2800.42 773.5 2806.5 773.5 2812.57 773.5 2817.5 778.425 2817.5 784.5Z" stroke="#017188" stroke-width="3.4375" stroke-linejoin="round" stroke-miterlimit="10" fill="#017188"/><path d="M2800.5 784.5C2800.5 790.575 2795.57 795.499 2789.5 795.499 2783.42 795.499 2778.5 790.575 2778.5 784.5 2778.5 778.425 2783.42 773.5 2789.5 773.5 2795.57 773.5 2800.5 778.425 2800.5 784.5Z" stroke="#017188" stroke-width="3.4375" stroke-linejoin="round" stroke-miterlimit="10" fill="#017188"/><path d="M2782.5 784.5C2782.5 790.575 2777.57 795.499 2771.5 795.499 2765.42 795.499 2760.5 790.575 2760.5 784.5 2760.5 778.425 2765.42 773.5 2771.5 773.5 2777.57 773.5 2782.5 778.425 2782.5 784.5Z" stroke="#017188" stroke-width="3.4375" stroke-linejoin="round" stroke-miterlimit="10" fill="#017188"/><path d="M2764.5 766.5C2764.5 772.575 2759.57 777.499 2753.5 777.499 2747.42 777.499 2742.5 772.575 2742.5 766.5 2742.5 760.425 2747.42 755.5 2753.5 755.5 2759.57 755.5 2764.5 760.425 2764.5 766.5Z" stroke="#017188" stroke-width="3.4375" stroke-linejoin="round" stroke-miterlimit="10" fill="#017188"/><path d="M2746.5 766.5C2746.5 772.575 2741.57 777.499 2735.5 777.499 2729.42 777.499 2724.5 772.575 2724.5 766.5 2724.5 760.425 2729.42 755.5 2735.5 755.5 2741.57 755.5 2746.5 760.425 2746.5 766.5Z" stroke="#017188" stroke-width="3.4375" stroke-linejoin="round" stroke-miterlimit="10" fill="#017188"/><path d="M2728.5 755.5C2728.5 761.575 2723.57 766.499 2717.5 766.499 2711.42 766.499 2706.5 761.575 2706.5 755.5 2706.5 749.425 2711.42 744.5 2717.5 744.5 2723.57 744.5 2728.5 749.425 2728.5 755.5Z" stroke="#017188" stroke-width="3.4375" stroke-linejoin="round" stroke-miterlimit="10" fill="#017188"/><path d="M2711.5 741.5C2711.5 747.575 2706.57 752.499 2700.5 752.499 2694.42 752.499 2689.5 747.575 2689.5 741.5 2689.5 735.425 2694.42 730.5 2700.5 730.5 2706.57 730.5 2711.5 735.425 2711.5 741.5Z" stroke="#017188" stroke-width="3.4375" stroke-linejoin="round" stroke-miterlimit="10" fill="#017188"/><path d="M2693.5 728.5C2693.5 734.574 2688.57 739.499 2682.5 739.499 2676.42 739.499 2671.5 734.574 2671.5 728.5 2671.5 722.425 2676.42 717.5 2682.5 717.5 2688.57 717.5 2693.5 722.425 2693.5 728.5Z" stroke="#017188" stroke-width="3.4375" stroke-linejoin="round" stroke-miterlimit="10" fill="#017188"/><path d="M2675.5 711.5C2675.5 717.575 2670.57 722.499 2664.5 722.499 2658.42 722.499 2653.5 717.575 2653.5 711.5 2653.5 705.425 2658.42 700.5 2664.5 700.5 2670.57 700.5 2675.5 705.425 2675.5 711.5Z" stroke="#017188" stroke-width="3.4375" stroke-linejoin="round" stroke-miterlimit="10" fill="#017188"/><path d="M2657.5 696.5C2657.5 702.575 2652.57 707.499 2646.5 707.499 2640.42 707.499 2635.5 702.575 2635.5 696.5 2635.5 690.425 2640.42 685.5 2646.5 685.5 2652.57 685.5 2657.5 690.425 2657.5 696.5Z" stroke="#017188" stroke-width="3.4375" stroke-linejoin="round" stroke-miterlimit="10" fill="#017188"/><path d="M2639.5 676.5C2639.5 682.575 2634.57 687.499 2628.5 687.499 2622.42 687.499 2617.5 682.575 2617.5 676.5 2617.5 670.425 2622.42 665.5 2628.5 665.5 2634.57 665.5 2639.5 670.425 2639.5 676.5Z" stroke="#017188" stroke-width="3.4375" stroke-linejoin="round" stroke-miterlimit="10" fill="#017188"/><path d="M2621.5 658.5C2621.5 664.575 2616.57 669.499 2610.5 669.499 2604.42 669.499 2599.5 664.575 2599.5 658.5 2599.5 652.425 2604.42 647.5 2610.5 647.5 2616.57 647.5 2621.5 652.425 2621.5 658.5Z" stroke="#017188" stroke-width="3.4375" stroke-linejoin="round" stroke-miterlimit="10" fill="#017188"/><path d="M2604.5 642.5C2604.5 648.575 2599.57 653.499 2593.5 653.499 2587.42 653.499 2582.5 648.575 2582.5 642.5 2582.5 636.425 2587.42 631.5 2593.5 631.5 2599.57 631.5 2604.5 636.425 2604.5 642.5Z" stroke="#017188" stroke-width="3.4375" stroke-linejoin="round" stroke-miterlimit="10" fill="#017188"/><path d="M2586.5 629.5C2586.5 635.574 2581.57 640.499 2575.5 640.499 2569.42 640.499 2564.5 635.574 2564.5 629.5 2564.5 623.425 2569.42 618.5 2575.5 618.5 2581.57 618.5 2586.5 623.425 2586.5 629.5Z" stroke="#017188" stroke-width="3.4375" stroke-linejoin="round" stroke-miterlimit="10" fill="#017188"/><path d="M2568.5 617.5C2568.5 623.574 2563.57 628.499 2557.5 628.499 2551.42 628.499 2546.5 623.574 2546.5 617.5 2546.5 611.425 2551.42 606.5 2557.5 606.5 2563.57 606.5 2568.5 611.425 2568.5 617.5Z" stroke="#017188" stroke-width="3.4375" stroke-linejoin="round" stroke-miterlimit="10" fill="#017188"/><path d="M2550.5 605.5C2550.5 611.575 2545.57 616.499 2539.5 616.499 2533.42 616.499 2528.5 611.575 2528.5 605.5 2528.5 599.425 2533.42 594.5 2539.5 594.5 2545.57 594.5 2550.5 599.425 2550.5 605.5Z" stroke="#017188" stroke-width="3.4375" stroke-linejoin="round" stroke-miterlimit="10" fill="#017188"/><path d="M2532.5 593.5C2532.5 599.575 2527.57 604.499 2521.5 604.499 2515.42 604.499 2510.5 599.575 2510.5 593.5 2510.5 587.425 2515.42 582.5 2521.5 582.5 2527.57 582.5 2532.5 587.425 2532.5 593.5Z" stroke="#017188" stroke-width="3.4375" stroke-linejoin="round" stroke-miterlimit="10" fill="#017188"/><path d="M2514.5 581.5C2514.5 587.575 2509.57 592.499 2503.5 592.499 2497.42 592.499 2492.5 587.575 2492.5 581.5 2492.5 575.425 2497.42 570.5 2503.5 570.5 2509.57 570.5 2514.5 575.425 2514.5 581.5Z" stroke="#017188" stroke-width="3.4375" stroke-linejoin="round" stroke-miterlimit="10" fill="#017188"/><path d="M2497.5 570.5C2497.5 576.575 2492.57 581.499 2486.5 581.499 2480.42 581.499 2475.5 576.575 2475.5 570.5 2475.5 564.425 2480.42 559.5 2486.5 559.5 2492.57 559.5 2497.5 564.425 2497.5 570.5Z" stroke="#017188" stroke-width="3.4375" stroke-linejoin="round" stroke-miterlimit="10" fill="#017188"/><path d="M2479.5 560.5C2479.5 566.575 2474.57 571.499 2468.5 571.499 2462.42 571.499 2457.5 566.575 2457.5 560.5 2457.5 554.425 2462.42 549.5 2468.5 549.5 2474.57 549.5 2479.5 554.425 2479.5 560.5Z" stroke="#017188" stroke-width="3.4375" stroke-linejoin="round" stroke-miterlimit="10" fill="#017188"/><path d="M2461.5 550.5C2461.5 556.575 2456.57 561.499 2450.5 561.499 2444.42 561.499 2439.5 556.575 2439.5 550.5 2439.5 544.425 2444.42 539.5 2450.5 539.5 2456.57 539.5 2461.5 544.425 2461.5 550.5Z" stroke="#017188" stroke-width="3.4375" stroke-linejoin="round" stroke-miterlimit="10" fill="#017188"/><path d="M2443.5 541.5C2443.5 547.574 2438.57 552.499 2432.5 552.499 2426.42 552.499 2421.5 547.574 2421.5 541.5 2421.5 535.425 2426.42 530.5 2432.5 530.5 2438.57 530.5 2443.5 535.425 2443.5 541.5Z" stroke="#017188" stroke-width="3.4375" stroke-linejoin="round" stroke-miterlimit="10" fill="#017188"/><path d="M2425.5 531.5C2425.5 537.575 2420.57 542.499 2414.5 542.499 2408.42 542.499 2403.5 537.575 2403.5 531.5 2403.5 525.425 2408.42 520.5 2414.5 520.5 2420.57 520.5 2425.5 525.425 2425.5 531.5Z" stroke="#017188" stroke-width="3.4375" stroke-linejoin="round" stroke-miterlimit="10" fill="#017188"/><path d="M2408.5 522.5C2408.5 528.575 2403.57 533.499 2397.5 533.499 2391.42 533.499 2386.5 528.575 2386.5 522.5 2386.5 516.425 2391.42 511.5 2397.5 511.5 2403.57 511.5 2408.5 516.425 2408.5 522.5Z" stroke="#017188" stroke-width="3.4375" stroke-linejoin="round" stroke-miterlimit="10" fill="#017188"/><path d="M2390.5 511.5C2390.5 517.575 2385.57 522.499 2379.5 522.499 2373.42 522.499 2368.5 517.575 2368.5 511.5 2368.5 505.425 2373.42 500.5 2379.5 500.5 2385.57 500.5 2390.5 505.425 2390.5 511.5Z" stroke="#017188" stroke-width="3.4375" stroke-linejoin="round" stroke-miterlimit="10" fill="#017188"/><path d="M2372.5 500.5C2372.5 506.575 2367.57 511.499 2361.5 511.499 2355.42 511.499 2350.5 506.575 2350.5 500.5 2350.5 494.425 2355.42 489.5 2361.5 489.5 2367.57 489.5 2372.5 494.425 2372.5 500.5Z" stroke="#017188" stroke-width="3.4375" stroke-linejoin="round" stroke-miterlimit="10" fill="#017188"/><path d="M2354.5 485.5C2354.5 491.574 2349.57 496.499 2343.5 496.499 2337.42 496.499 2332.5 491.574 2332.5 485.5 2332.5 479.425 2337.42 474.5 2343.5 474.5 2349.57 474.5 2354.5 479.425 2354.5 485.5Z" stroke="#017188" stroke-width="3.4375" stroke-linejoin="round" stroke-miterlimit="10" fill="#017188"/><path d="M2336.5 468.5C2336.5 474.575 2331.57 479.499 2325.5 479.499 2319.42 479.499 2314.5 474.575 2314.5 468.5 2314.5 462.425 2319.42 457.5 2325.5 457.5 2331.57 457.5 2336.5 462.425 2336.5 468.5Z" stroke="#017188" stroke-width="3.4375" stroke-linejoin="round" stroke-miterlimit="10" fill="#017188"/><path d="M2318.5 448.5C2318.5 454.575 2313.57 459.499 2307.5 459.499 2301.42 459.499 2296.5 454.575 2296.5 448.5 2296.5 442.425 2301.42 437.5 2307.5 437.5 2313.57 437.5 2318.5 442.425 2318.5 448.5Z" stroke="#017188" stroke-width="3.4375" stroke-linejoin="round" stroke-miterlimit="10" fill="#017188"/><path d="M2301.5 425.5C2301.5 431.575 2296.57 436.499 2290.5 436.499 2284.42 436.499 2279.5 431.575 2279.5 425.5 2279.5 419.425 2284.42 414.5 2290.5 414.5 2296.57 414.5 2301.5 419.425 2301.5 425.5Z" stroke="#017188" stroke-width="3.4375" stroke-linejoin="round" stroke-miterlimit="10" fill="#017188"/><path d="M2283.5 402.5C2283.5 408.575 2278.57 413.499 2272.5 413.499 2266.42 413.499 2261.5 408.575 2261.5 402.5 2261.5 396.425 2266.42 391.5 2272.5 391.5 2278.57 391.5 2283.5 396.425 2283.5 402.5Z" stroke="#017188" stroke-width="3.4375" stroke-linejoin="round" stroke-miterlimit="10" fill="#017188"/><path d="M2265.5 380.5C2265.5 386.575 2260.57 391.499 2254.5 391.499 2248.42 391.499 2243.5 386.575 2243.5 380.5 2243.5 374.425 2248.42 369.5 2254.5 369.5 2260.57 369.5 2265.5 374.425 2265.5 380.5Z" stroke="#017188" stroke-width="3.4375" stroke-linejoin="round" stroke-miterlimit="10" fill="#017188"/><path d="M2247.5 360.5C2247.5 366.575 2242.57 371.499 2236.5 371.499 2230.42 371.499 2225.5 366.575 2225.5 360.5 2225.5 354.425 2230.42 349.5 2236.5 349.5 2242.57 349.5 2247.5 354.425 2247.5 360.5Z" stroke="#017188" stroke-width="3.4375" stroke-linejoin="round" stroke-miterlimit="10" fill="#017188"/><path d="M2229.5 338.5C2229.5 344.575 2224.57 349.499 2218.5 349.499 2212.42 349.499 2207.5 344.575 2207.5 338.5 2207.5 332.425 2212.42 327.5 2218.5 327.5 2224.57 327.5 2229.5 332.425 2229.5 338.5Z" stroke="#017188" stroke-width="3.4375" stroke-linejoin="round" stroke-miterlimit="10" fill="#017188"/><path d="M2211.5 320.5C2211.5 326.574 2206.57 331.499 2200.5 331.499 2194.42 331.499 2189.5 326.574 2189.5 320.5 2189.5 314.425 2194.42 309.5 2200.5 309.5 2206.57 309.5 2211.5 314.425 2211.5 320.5Z" stroke="#017188" stroke-width="3.4375" stroke-linejoin="round" stroke-miterlimit="10" fill="#017188"/><path d="M2194.5 303.5C2194.5 309.575 2189.57 314.499 2183.5 314.499 2177.42 314.499 2172.5 309.575 2172.5 303.5 2172.5 297.425 2177.42 292.5 2183.5 292.5 2189.57 292.5 2194.5 297.425 2194.5 303.5Z" stroke="#017188" stroke-width="3.4375" stroke-linejoin="round" stroke-miterlimit="10" fill="#017188"/><path d="M2176.5 288.5C2176.5 294.574 2171.57 299.499 2165.5 299.499 2159.42 299.499 2154.5 294.574 2154.5 288.5 2154.5 282.425 2159.42 277.5 2165.5 277.5 2171.57 277.5 2176.5 282.425 2176.5 288.5Z" stroke="#017188" stroke-width="3.4375" stroke-linejoin="round" stroke-miterlimit="10" fill="#017188"/><path d="M2158.5 273.5C2158.5 279.575 2153.57 284.499 2147.5 284.499 2141.42 284.499 2136.5 279.575 2136.5 273.5 2136.5 267.425 2141.42 262.5 2147.5 262.5 2153.57 262.5 2158.5 267.425 2158.5 273.5Z" stroke="#017188" stroke-width="3.4375" stroke-linejoin="round" stroke-miterlimit="10" fill="#017188"/><path d="M2140.5 263.5C2140.5 269.575 2135.57 274.499 2129.5 274.499 2123.42 274.499 2118.5 269.575 2118.5 263.5 2118.5 257.425 2123.42 252.5 2129.5 252.5 2135.57 252.5 2140.5 257.425 2140.5 263.5Z" stroke="#017188" stroke-width="3.4375" stroke-linejoin="round" stroke-miterlimit="10" fill="#017188"/><path d="M2122.5 247.5C2122.5 253.575 2117.57 258.499 2111.5 258.499 2105.42 258.499 2100.5 253.575 2100.5 247.5 2100.5 241.425 2105.42 236.5 2111.5 236.5 2117.57 236.5 2122.5 241.425 2122.5 247.5Z" stroke="#017188" stroke-width="3.4375" stroke-linejoin="round" stroke-miterlimit="10" fill="#017188"/><path d="M2105.5 236.5C2105.5 242.575 2100.57 247.499 2094.5 247.499 2088.42 247.499 2083.5 242.575 2083.5 236.5 2083.5 230.425 2088.42 225.5 2094.5 225.5 2100.57 225.5 2105.5 230.425 2105.5 236.5Z" stroke="#017188" stroke-width="3.4375" stroke-linejoin="round" stroke-miterlimit="10" fill="#017188"/><path d="M2087.5 218.5C2087.5 224.575 2082.57 229.499 2076.5 229.499 2070.42 229.499 2065.5 224.575 2065.5 218.5 2065.5 212.425 2070.42 207.5 2076.5 207.5 2082.57 207.5 2087.5 212.425 2087.5 218.5Z" stroke="#017188" stroke-width="3.4375" stroke-linejoin="round" stroke-miterlimit="10" fill="#017188"/></g><g clip-path="url(#clip43)"><text fill="#595959" font-family="Arial,Arial_MSFontService,sans-serif" font-weight="400" font-size="41" transform="matrix(1 0 0 1 1773.75 798)">1.00E+00</text></g><g clip-path="url(#clip44)"><text fill="#595959" font-family="Arial,Arial_MSFontService,sans-serif" font-weight="400" font-size="41" transform="matrix(1 0 0 1 1773.75 736)">1.00E+01</text></g><g clip-path="url(#clip45)"><text fill="#595959" font-family="Arial,Arial_MSFontService,sans-serif" font-weight="400" font-size="41" transform="matrix(1 0 0 1 1773.75 674)">1.00E+02</text></g><g clip-path="url(#clip46)"><text fill="#595959" font-family="Arial,Arial_MSFontService,sans-serif" font-weight="400" font-size="41" transform="matrix(1 0 0 1 1773.75 612)">1.00E+03</text></g><g clip-path="url(#clip47)"><text fill="#595959" font-family="Arial,Arial_MSFontService,sans-serif" font-weight="400" font-size="41" transform="matrix(1 0 0 1 1773.75 550)">1.00E+04</text></g><g clip-path="url(#clip48)"><text fill="#595959" font-family="Arial,Arial_MSFontService,sans-serif" font-weight="400" font-size="41" transform="matrix(1 0 0 1 1773.75 488)">1.00E+05</text></g><g clip-path="url(#clip49)"><text fill="#595959" font-family="Arial,Arial_MSFontService,sans-serif" font-weight="400" font-size="41" transform="matrix(1 0 0 1 1773.75 426)">1.00E+06</text></g><g clip-path="url(#clip50)"><text fill="#595959" font-family="Arial,Arial_MSFontService,sans-serif" font-weight="400" font-size="41" transform="matrix(1 0 0 1 1773.75 364)">1.00E+07</text></g><g clip-path="url(#clip51)"><text fill="#595959" font-family="Arial,Arial_MSFontService,sans-serif" font-weight="400" font-size="41" transform="matrix(1 0 0 1 1773.75 302)">1.00E+08</text></g><g clip-path="url(#clip52)"><text fill="#595959" font-family="Arial,Arial_MSFontService,sans-serif" font-weight="400" font-size="41" transform="matrix(1 0 0 1 1773.75 240)">1.00E+09</text></g><g clip-path="url(#clip53)"><text fill="#595959" font-family="Arial,Arial_MSFontService,sans-serif" font-weight="400" font-size="41" transform="matrix(1 0 0 1 1773.75 178)">1.00E+10</text></g><g clip-path="url(#clip54)"><text fill="#595959" font-family="Arial,Arial_MSFontService,sans-serif" font-weight="400" font-size="41" transform="matrix(1 0 0 1 1935.38 847)">0.001</text></g><g clip-path="url(#clip55)"><text fill="#595959" font-family="Arial,Arial_MSFontService,sans-serif" font-weight="400" font-size="41" transform="matrix(1 0 0 1 2125.09 847)">0.01</text></g><g clip-path="url(#clip56)"><text fill="#595959" font-family="Arial,Arial_MSFontService,sans-serif" font-weight="400" font-size="41" transform="matrix(1 0 0 1 2314.8 847)">0.1</text></g><g clip-path="url(#clip57)"><text fill="#595959" font-family="Arial,Arial_MSFontService,sans-serif" font-weight="400" font-size="41" transform="matrix(1 0 0 1 2510.24 847)">1</text></g><g clip-path="url(#clip58)"><text fill="#595959" font-family="Arial,Arial_MSFontService,sans-serif" font-weight="400" font-size="41" transform="matrix(1 0 0 1 2677.01 847)">10</text></g><g clip-path="url(#clip59)"><text fill="#595959" font-family="Arial,Arial_MSFontService,sans-serif" font-weight="400" font-size="41" transform="matrix(1 0 0 1 2843.77 847)">100</text></g><g clip-path="url(#clip60)"><text fill="#595959" font-family="Arial,Arial_MSFontService,sans-serif" font-weight="400" font-size="46" transform="matrix(6.12323e-17 -1 1 6.12323e-17 1750.28 540)">n (&lt;H)</text></g><g clip-path="url(#clip61)"><text fill="#595959" font-family="Arial,Arial_MSFontService,sans-serif" font-weight="400" font-size="46" transform="matrix(1 0 0 1 2289.98 913)">Diameter [km]</text></g><g clip-path="url(#clip62)"><text fill="#595959" font-family="Arial,Arial_MSFontService,sans-serif" font-weight="400" font-size="64" transform="matrix(1 0 0 1 2157.57 94)">Cumulative population</text></g><g clip-path="url(#clip63)"><path d="M2984.5 510.5 3072.5 510.5" stroke="#00A6D6" stroke-width="6.875" stroke-linecap="round" stroke-linejoin="round" stroke-miterlimit="10" fill="none" fill-rule="evenodd"/></g><g clip-path="url(#clip64)"><path d="M3039 510C3039 516.075 3034.07 520.999 3028 520.999 3021.93 520.999 3017 516.075 3017 510 3017 503.925 3021.93 499 3028 499 3034.07 499 3039 503.925 3039 510Z" stroke="#00A6D6" stroke-width="3.4375" stroke-linejoin="round" stroke-miterlimit="10" fill="#00A6D6"/></g><g clip-path="url(#clip65)"><text fill="#595959" font-family="Arial,Arial_MSFontService,sans-serif" font-weight="400" font-size="41" transform="matrix(1 0 0 1 3081.6 524)">Identified</text></g><g clip-path="url(#clip66)"><path d="M2984.5 583.5 3072.5 583.5" stroke="#017188" stroke-width="6.875" stroke-linecap="round" stroke-linejoin="round" stroke-miterlimit="10" fill="none" fill-rule="evenodd"/></g><g clip-path="url(#clip67)"><path d="M3039 583.499C3039 589.31 3034.07 594.021 3028 594.021 3021.93 594.021 3017 589.31 3017 583.499 3017 577.689 3021.93 572.978 3028 572.978 3034.07 572.978 3039 577.689 3039 583.499Z" stroke="#017188" stroke-width="3.4375" stroke-linejoin="round" stroke-miterlimit="10" fill="#017188"/></g><g clip-path="url(#clip68)"><text fill="#595959" font-family="Arial,Arial_MSFontService,sans-serif" font-weight="400" font-size="41" transform="matrix(1 0 0 1 3081.6 597)">Expected</text></g></g></svg>