<svg width="1650" height="980" xmlns="http://www.w3.org/2000/svg" xmlns:xlink="http://www.w3.org/1999/xlink" overflow="hidden"><defs><clipPath id="clip0"><rect x="1650" y="0" width="1650" height="980"/></clipPath><clipPath id="clip1"><rect x="1650" y="0" width="1650" height="979"/></clipPath><clipPath id="clip2"><rect x="1891" y="165" width="1362" height="623"/></clipPath><clipPath id="clip3"><rect x="1650" y="0" width="1650" height="979"/></clipPath><clipPath id="clip4"><rect x="1650" y="0" width="1650" height="979"/></clipPath><clipPath id="clip5"><rect x="1650" y="0" width="1650" height="979"/></clipPath><clipPath id="clip6"><rect x="1650" y="0" width="1650" height="979"/></clipPath><clipPath id="clip7"><rect x="1650" y="0" width="1650" height="979"/></clipPath><clipPath id="clip8"><rect x="1650" y="0" width="1650" height="979"/></clipPath><clipPath id="clip9"><rect x="1650" y="0" width="1650" height="979"/></clipPath><clipPath id="clip10"><rect x="1650" y="0" width="1650" height="979"/></clipPath><clipPath id="clip11"><rect x="1650" y="0" width="1650" height="979"/></clipPath><clipPath id="clip12"><rect x="1650" y="0" width="1650" height="979"/></clipPath><clipPath id="clip13"><rect x="1650" y="0" width="1650" height="979"/></clipPath><clipPath id="clip14"><rect x="1650" y="0" width="1650" height="979"/></clipPath><clipPath id="clip15"><rect x="1650" y="0" width="1650" height="979"/></clipPath><clipPath id="clip16"><rect x="1650" y="0" width="1650" height="979"/></clipPath><clipPath id="clip17"><rect x="1650" y="0" width="1650" height="979"/></clipPath><clipPath id="clip18"><rect x="1650" y="0" width="1650" height="979"/></clipPath><clipPath id="clip19"><rect x="1650" y="0" width="1650" height="979"/></clipPath><clipPath id="clip20"><rect x="1650" y="0" width="1650" height="979"/></clipPath><clipPath id="clip21"><rect x="1650" y="0" width="1650" height="979"/></clipPath><clipPath id="clip22"><rect x="1650" y="0" width="1650" height="979"/></clipPath><clipPath id="clip23"><rect x="1650" y="0" width="1650" height="979"/></clipPath><clipPath id="clip24"><rect x="1650" y="0" width="1650" height="979"/></clipPath><clipPath id="clip25"><rect x="1650" y="0" width="1650" height="979"/></clipPath><clipPath id="clip26"><rect x="1650" y="0" width="1650" height="979"/></clipPath><clipPath id="clip27"><rect x="1650" y="0" width="1650" height="979"/></clipPath><clipPath id="clip28"><rect x="1650" y="0" width="1650" height="979"/></clipPath><clipPath id="clip29"><rect x="1650" y="0" width="1650" height="979"/></clipPath><clipPath id="clip30"><rect x="1650" y="0" width="1650" height="979"/></clipPath><clipPath id="clip31"><rect x="1650" y="0" width="1650" height="979"/></clipPath></defs><g clip-path="url(#clip0)" transform="translate(-1650 0)"><g clip-path="url(#clip1)"><path d="M1891.5 696.523 3249.5 696.523M1891.5 607.52 3249.5 607.52M1891.5 519.517 3249.5 519.517M1891.5 430.514 3249.5 430.514M1891.5 342.511 3249.5 342.511M1891.5 253.508 3249.5 253.508M1891.5 165.5 3249.5 165.5" stroke="#D9D9D9" stroke-width="3.4375" stroke-linejoin="round" stroke-miterlimit="10" fill="none"/></g><g clip-path="url(#clip2)"><path d="M1997.07 238.008 2058.07 238.008 2058.07 785 1997.07 785ZM2088.07 499.016 2148.07 499.016 2148.07 785 2088.07 785ZM2178.07 641.021 2239.07 641.021 2239.07 785 2178.07 785ZM2269.07 603.02 2329.08 603.02 2329.08 785 2269.07 785ZM2359.08 675.022 2420.08 675.022 2420.08 785 2359.08 785ZM2450.08 690.023 2510.08 690.023 2510.08 785 2450.08 785ZM2540.08 730.024 2601.09 730.024 2601.09 785 2540.08 785ZM2631.09 741.024 2691.09 741.024 2691.09 785 2631.09 785ZM2721.09 758.025 2782.09 758.025 2782.09 785 2721.09 785ZM2812.09 704.023 2872.09 704.023 2872.09 785 2812.09 785ZM2902.1 746.024 2963.1 746.024 2963.1 785 2902.1 785ZM2993.1 742.024 3053.1 742.024 3053.1 785 2993.1 785ZM3084.1 771.025 3144.1 771.025 3144.1 785 3084.1 785ZM3174.1 747.025 3234.11 747.025 3234.11 785 3174.1 785Z" fill="#017188"/></g><g clip-path="url(#clip3)"><path d="M1891.5 784.5 3249.5 784.5" stroke="#D9D9D9" stroke-width="3.4375" stroke-linejoin="round" stroke-miterlimit="10" fill="none" fill-rule="evenodd"/></g><g clip-path="url(#clip4)"><path d="M1926.5 782.5 1948.5 782.5 1948.5 786.5 1926.5 786.5Z" stroke="#A7A7A7" stroke-width="3.4375" stroke-linejoin="round" stroke-miterlimit="10" fill="#A7A7A7"/><path d="M2016.5 272.5 2038.5 272.5 2038.5 276.5 2016.5 276.5Z" stroke="#A7A7A7" stroke-width="3.4375" stroke-linejoin="round" stroke-miterlimit="10" fill="#A7A7A7"/><path d="M2107.5 519.5 2129.5 519.5 2129.5 523.5 2107.5 523.5Z" stroke="#A7A7A7" stroke-width="3.4375" stroke-linejoin="round" stroke-miterlimit="10" fill="#A7A7A7"/><path d="M2197.5 673.5 2219.5 673.5 2219.5 677.5 2197.5 677.5Z" stroke="#A7A7A7" stroke-width="3.4375" stroke-linejoin="round" stroke-miterlimit="10" fill="#A7A7A7"/><path d="M2288.5 620.5 2310.5 620.5 2310.5 624.5 2288.5 624.5Z" stroke="#A7A7A7" stroke-width="3.4375" stroke-linejoin="round" stroke-miterlimit="10" fill="#A7A7A7"/><path d="M2378.5 713.5 2400.5 713.5 2400.5 717.5 2378.5 717.5Z" stroke="#A7A7A7" stroke-width="3.4375" stroke-linejoin="round" stroke-miterlimit="10" fill="#A7A7A7"/><path d="M2469.5 716.5 2491.5 716.5 2491.5 720.5 2469.5 720.5Z" stroke="#A7A7A7" stroke-width="3.4375" stroke-linejoin="round" stroke-miterlimit="10" fill="#A7A7A7"/><path d="M2559.5 753.5 2581.5 753.5 2581.5 757.5 2559.5 757.5Z" stroke="#A7A7A7" stroke-width="3.4375" stroke-linejoin="round" stroke-miterlimit="10" fill="#A7A7A7"/><path d="M2650.5 778.5 2672.5 778.5 2672.5 782.5 2650.5 782.5Z" stroke="#A7A7A7" stroke-width="3.4375" stroke-linejoin="round" stroke-miterlimit="10" fill="#A7A7A7"/><path d="M2831.5 738.5 2853.5 738.5 2853.5 742.5 2831.5 742.5Z" stroke="#A7A7A7" stroke-width="3.4375" stroke-linejoin="round" stroke-miterlimit="10" fill="#A7A7A7"/><path d="M2921.5 772.5 2943.5 772.5 2943.5 776.5 2921.5 776.5Z" stroke="#A7A7A7" stroke-width="3.4375" stroke-linejoin="round" stroke-miterlimit="10" fill="#A7A7A7"/><path d="M3012.5 768.5 3034.5 768.5 3034.5 772.5 3012.5 772.5Z" stroke="#A7A7A7" stroke-width="3.4375" stroke-linejoin="round" stroke-miterlimit="10" fill="#A7A7A7"/><path d="M3193.5 781.5 3215.5 781.5 3215.5 785.5 3193.5 785.5Z" stroke="#A7A7A7" stroke-width="3.4375" stroke-linejoin="round" stroke-miterlimit="10" fill="#A7A7A7"/></g><g clip-path="url(#clip5)"><path d="M1926.5 782.5 1948.5 782.5 1948.5 786.5 1926.5 786.5Z" stroke="#A7A7A7" stroke-width="3.4375" stroke-linejoin="round" stroke-miterlimit="10" fill="#A7A7A7"/><path d="M2016.5 199.5 2038.5 199.5 2038.5 203.5 2016.5 203.5Z" stroke="#A7A7A7" stroke-width="3.4375" stroke-linejoin="round" stroke-miterlimit="10" fill="#A7A7A7"/><path d="M2107.5 474.5 2129.5 474.5 2129.5 478.5 2107.5 478.5Z" stroke="#A7A7A7" stroke-width="3.4375" stroke-linejoin="round" stroke-miterlimit="10" fill="#A7A7A7"/><path d="M2197.5 605.5 2219.5 605.5 2219.5 609.5 2197.5 609.5Z" stroke="#A7A7A7" stroke-width="3.4375" stroke-linejoin="round" stroke-miterlimit="10" fill="#A7A7A7"/><path d="M2288.5 581.5 2310.5 581.5 2310.5 585.5 2288.5 585.5Z" stroke="#A7A7A7" stroke-width="3.4375" stroke-linejoin="round" stroke-miterlimit="10" fill="#A7A7A7"/><path d="M2378.5 633.5 2400.5 633.5 2400.5 637.5 2378.5 637.5Z" stroke="#A7A7A7" stroke-width="3.4375" stroke-linejoin="round" stroke-miterlimit="10" fill="#A7A7A7"/><path d="M2469.5 659.5 2491.5 659.5 2491.5 663.5 2469.5 663.5Z" stroke="#A7A7A7" stroke-width="3.4375" stroke-linejoin="round" stroke-miterlimit="10" fill="#A7A7A7"/><path d="M2559.5 702.5 2581.5 702.5 2581.5 706.5 2559.5 706.5Z" stroke="#A7A7A7" stroke-width="3.4375" stroke-linejoin="round" stroke-miterlimit="10" fill="#A7A7A7"/><path d="M2650.5 699.5 2672.5 699.5 2672.5 703.5 2650.5 703.5Z" stroke="#A7A7A7" stroke-width="3.4375" stroke-linejoin="round" stroke-miterlimit="10" fill="#A7A7A7"/><path d="M2740.5 714.5 2762.5 714.5 2762.5 718.5 2740.5 718.5Z" stroke="#A7A7A7" stroke-width="3.4375" stroke-linejoin="round" stroke-miterlimit="10" fill="#A7A7A7"/><path d="M2831.5 666.5 2853.5 666.5 2853.5 670.5 2831.5 670.5Z" stroke="#A7A7A7" stroke-width="3.4375" stroke-linejoin="round" stroke-miterlimit="10" fill="#A7A7A7"/><path d="M2921.5 714.5 2943.5 714.5 2943.5 718.5 2921.5 718.5Z" stroke="#A7A7A7" stroke-width="3.4375" stroke-linejoin="round" stroke-miterlimit="10" fill="#A7A7A7"/><path d="M3012.5 712.5 3034.5 712.5 3034.5 716.5 3012.5 716.5Z" stroke="#A7A7A7" stroke-width="3.4375" stroke-linejoin="round" stroke-miterlimit="10" fill="#A7A7A7"/><path d="M3102.5 725.5 3124.5 725.5 3124.5 729.5 3102.5 729.5Z" stroke="#A7A7A7" stroke-width="3.4375" stroke-linejoin="round" stroke-miterlimit="10" fill="#A7A7A7"/><path d="M3193.5 708.5 3215.5 708.5 3215.5 712.5 3193.5 712.5Z" stroke="#A7A7A7" stroke-width="3.4375" stroke-linejoin="round" stroke-miterlimit="10" fill="#A7A7A7"/></g><g clip-path="url(#clip6)"><text fill="#595959" font-family="Arial,Arial_MSFontService,sans-serif" font-weight="400" font-size="41" transform="matrix(1 0 0 1 1796.69 798)">0%</text></g><g clip-path="url(#clip7)"><text fill="#595959" font-family="Arial,Arial_MSFontService,sans-serif" font-weight="400" font-size="41" transform="matrix(1 0 0 1 1796.69 709)">5%</text></g><g clip-path="url(#clip8)"><text fill="#595959" font-family="Arial,Arial_MSFontService,sans-serif" font-weight="400" font-size="41" transform="matrix(1 0 0 1 1773.75 621)">10%</text></g><g clip-path="url(#clip9)"><text fill="#595959" font-family="Arial,Arial_MSFontService,sans-serif" font-weight="400" font-size="41" transform="matrix(1 0 0 1 1773.75 532)">15%</text></g><g clip-path="url(#clip10)"><text fill="#595959" font-family="Arial,Arial_MSFontService,sans-serif" font-weight="400" font-size="41" transform="matrix(1 0 0 1 1773.75 444)">20%</text></g><g clip-path="url(#clip11)"><text fill="#595959" font-family="Arial,Arial_MSFontService,sans-serif" font-weight="400" font-size="41" transform="matrix(1 0 0 1 1773.75 355)">25%</text></g><g clip-path="url(#clip12)"><text fill="#595959" font-family="Arial,Arial_MSFontService,sans-serif" font-weight="400" font-size="41" transform="matrix(1 0 0 1 1773.75 267)">30%</text></g><g clip-path="url(#clip13)"><text fill="#595959" font-family="Arial,Arial_MSFontService,sans-serif" font-weight="400" font-size="41" transform="matrix(1 0 0 1 1773.75 178)">35%</text></g><g clip-path="url(#clip14)"><text fill="#595959" font-family="Arial,Arial_MSFontService,sans-serif" font-weight="400" font-size="41" transform="matrix(1 0 0 1 1925.56 847)">1</text></g><g clip-path="url(#clip15)"><text fill="#595959" font-family="Arial,Arial_MSFontService,sans-serif" font-weight="400" font-size="41" transform="matrix(1 0 0 1 2016.08 847)">2</text></g><g clip-path="url(#clip16)"><text fill="#595959" font-family="Arial,Arial_MSFontService,sans-serif" font-weight="400" font-size="41" transform="matrix(1 0 0 1 2106.6 847)">3</text></g><g clip-path="url(#clip17)"><text fill="#595959" font-family="Arial,Arial_MSFontService,sans-serif" font-weight="400" font-size="41" transform="matrix(1 0 0 1 2197.12 847)">4</text></g><g clip-path="url(#clip18)"><text fill="#595959" font-family="Arial,Arial_MSFontService,sans-serif" font-weight="400" font-size="41" transform="matrix(1 0 0 1 2287.64 847)">5</text></g><g clip-path="url(#clip19)"><text fill="#595959" font-family="Arial,Arial_MSFontService,sans-serif" font-weight="400" font-size="41" transform="matrix(1 0 0 1 2378.17 847)">6</text></g><g clip-path="url(#clip20)"><text fill="#595959" font-family="Arial,Arial_MSFontService,sans-serif" font-weight="400" font-size="41" transform="matrix(1 0 0 1 2468.69 847)">7</text></g><g clip-path="url(#clip21)"><text fill="#595959" font-family="Arial,Arial_MSFontService,sans-serif" font-weight="400" font-size="41" transform="matrix(1 0 0 1 2559.21 847)">8</text></g><g clip-path="url(#clip22)"><text fill="#595959" font-family="Arial,Arial_MSFontService,sans-serif" font-weight="400" font-size="41" transform="matrix(1 0 0 1 2649.73 847)">9</text></g><g clip-path="url(#clip23)"><text fill="#595959" font-family="Arial,Arial_MSFontService,sans-serif" font-weight="400" font-size="41" transform="matrix(1 0 0 1 2728.78 847)">10</text></g><g clip-path="url(#clip24)"><text fill="#595959" font-family="Arial,Arial_MSFontService,sans-serif" font-weight="400" font-size="41" transform="matrix(1 0 0 1 2819.3 847)">11</text></g><g clip-path="url(#clip25)"><text fill="#595959" font-family="Arial,Arial_MSFontService,sans-serif" font-weight="400" font-size="41" transform="matrix(1 0 0 1 2909.82 847)">12</text></g><g clip-path="url(#clip26)"><text fill="#595959" font-family="Arial,Arial_MSFontService,sans-serif" font-weight="400" font-size="41" transform="matrix(1 0 0 1 3000.34 847)">13</text></g><g clip-path="url(#clip27)"><text fill="#595959" font-family="Arial,Arial_MSFontService,sans-serif" font-weight="400" font-size="41" transform="matrix(1 0 0 1 3090.86 847)">14</text></g><g clip-path="url(#clip28)"><text fill="#595959" font-family="Arial,Arial_MSFontService,sans-serif" font-weight="400" font-size="41" transform="matrix(1 0 0 1 3181.38 847)">15</text></g><g clip-path="url(#clip29)"><text fill="#595959" font-family="Arial,Arial_MSFontService,sans-serif" font-weight="400" font-size="46" transform="matrix(6.12323e-17 -1 1 6.12323e-17 1750.28 746)">Performance Improvement</text></g><g clip-path="url(#clip30)"><text fill="#595959" font-family="Arial,Arial_MSFontService,sans-serif" font-weight="400" font-size="46" transform="matrix(1 0 0 1 2347.79 913)">Number of Spacecraft</text></g><g clip-path="url(#clip31)"><text fill="#595959" font-family="Arial,Arial_MSFontService,sans-serif" font-weight="400" font-size="64" transform="matrix(1 0 0 1 2045.31 94)">Relative Improvement per S/C</text></g></g></svg>