<svg width="1650" height="979" xmlns="http://www.w3.org/2000/svg" xmlns:xlink="http://www.w3.org/1999/xlink" overflow="hidden"><defs><clipPath id="clip0"><rect x="1650" y="980" width="1650" height="979"/></clipPath><clipPath id="clip1"><rect x="1650" y="979" width="1650" height="980"/></clipPath><clipPath id="clip2"><rect x="1891" y="1145" width="1362" height="623"/></clipPath><clipPath id="clip3"><rect x="1650" y="979" width="1650" height="980"/></clipPath><clipPath id="clip4"><rect x="1650" y="979" width="1650" height="980"/></clipPath><clipPath id="clip5"><rect x="1650" y="979" width="1650" height="980"/></clipPath><clipPath id="clip6"><rect x="1650" y="979" width="1650" height="980"/></clipPath><clipPath id="clip7"><rect x="1650" y="979" width="1650" height="980"/></clipPath><clipPath id="clip8"><rect x="1650" y="979" width="1650" height="980"/></clipPath><clipPath id="clip9"><rect x="1650" y="979" width="1650" height="980"/></clipPath><clipPath id="clip10"><rect x="1650" y="979" width="1650" height="980"/></clipPath><clipPath id="clip11"><rect x="1650" y="979" width="1650" height="980"/></clipPath><clipPath id="clip12"><rect x="1650" y="979" width="1650" height="980"/></clipPath><clipPath id="clip13"><rect x="1650" y="979" width="1650" height="980"/></clipPath><clipPath id="clip14"><rect x="1650" y="979" width="1650" height="980"/></clipPath><clipPath id="clip15"><rect x="1650" y="979" width="1650" height="980"/></clipPath><clipPath id="clip16"><rect x="1650" y="979" width="1650" height="980"/></clipPath><clipPath id="clip17"><rect x="1650" y="979" width="1650" height="980"/></clipPath><clipPath id="clip18"><rect x="1650" y="979" width="1650" height="980"/></clipPath><clipPath id="clip19"><rect x="1650" y="979" width="1650" height="980"/></clipPath><clipPath id="clip20"><rect x="1650" y="979" width="1650" height="980"/></clipPath><clipPath id="clip21"><rect x="1650" y="979" width="1650" height="980"/></clipPath><clipPath id="clip22"><rect x="1650" y="979" width="1650" height="980"/></clipPath><clipPath id="clip23"><rect x="1650" y="979" width="1650" height="980"/></clipPath><clipPath id="clip24"><rect x="1650" y="979" width="1650" height="980"/></clipPath><clipPath id="clip25"><rect x="1650" y="979" width="1650" height="980"/></clipPath><clipPath id="clip26"><rect x="1650" y="979" width="1650" height="980"/></clipPath><clipPath id="clip27"><rect x="1650" y="979" width="1650" height="980"/></clipPath><clipPath id="clip28"><rect x="1650" y="979" width="1650" height="980"/></clipPath><clipPath id="clip29"><rect x="1650" y="979" width="1650" height="980"/></clipPath><clipPath id="clip30"><rect x="1650" y="979" width="1650" height="980"/></clipPath><clipPath id="clip31"><rect x="1650" y="979" width="1650" height="980"/></clipPath><clipPath id="clip32"><rect x="1650" y="979" width="1650" height="980"/></clipPath><clipPath id="clip33"><rect x="1650" y="979" width="1650" height="980"/></clipPath></defs><g clip-path="url(#clip0)" transform="translate(-1650 -980)"><g clip-path="url(#clip1)"><path d="M1891.5 1695.56 3249.5 1695.56M1891.5 1626.55 3249.5 1626.55M1891.5 1558.55 3249.5 1558.55M1891.5 1489.55 3249.5 1489.55M1891.5 1420.55 3249.5 1420.55M1891.5 1351.54 3249.5 1351.54M1891.5 1282.54 3249.5 1282.54M1891.5 1213.54 3249.5 1213.54M1891.5 1145.5 3249.5 1145.5" stroke="#D9D9D9" stroke-width="3.4375" stroke-linejoin="round" stroke-miterlimit="10" fill="none"/></g><g clip-path="url(#clip2)"><path d="M1997.07 1212.04 2058.07 1212.04 2058.07 1765 1997.07 1765ZM2088.07 1603.05 2148.07 1603.05 2148.07 1765 2088.07 1765ZM2178.07 1612.05 2239.07 1612.05 2239.07 1765 2178.07 1765ZM2269.07 1710.06 2329.08 1710.06 2329.08 1765 2269.07 1765ZM2359.08 1717.06 2420.08 1717.06 2420.08 1765 2359.08 1765ZM2450.08 1680.06 2510.08 1680.06 2510.08 1765 2450.08 1765ZM2540.08 1724.06 2601.09 1724.06 2601.09 1765 2540.08 1765ZM2631.09 1722.06 2691.09 1722.06 2691.09 1765 2631.09 1765ZM2721.09 1689.06 2782.09 1689.06 2782.09 1765 2721.09 1765ZM2812.09 1701.06 2872.09 1701.06 2872.09 1765 2812.09 1765ZM2902.1 1748.06 2963.1 1748.06 2963.1 1765 2902.1 1765ZM2993.1 1737.06 3053.1 1737.06 3053.1 1765 2993.1 1765ZM3084.1 1730.06 3144.1 1730.06 3144.1 1765 3084.1 1765ZM3174.1 1716.06 3234.11 1716.06 3234.11 1765 3174.1 1765Z" fill="#00A6D6"/></g><g clip-path="url(#clip3)"><path d="M1891.5 1764.5 3249.5 1764.5" stroke="#D9D9D9" stroke-width="3.4375" stroke-linejoin="round" stroke-miterlimit="10" fill="none" fill-rule="evenodd"/></g><g clip-path="url(#clip4)"><path d="M1926.5 1762.19 1948.5 1762.19 1948.5 1766.19 1926.5 1766.19Z" stroke="#A7A7A7" stroke-width="3.4375" stroke-linejoin="round" stroke-miterlimit="10" fill="#A7A7A7"/><path d="M2016.5 1220.19 2038.5 1220.19 2038.5 1224.19 2016.5 1224.19Z" stroke="#A7A7A7" stroke-width="3.4375" stroke-linejoin="round" stroke-miterlimit="10" fill="#A7A7A7"/><path d="M2107.5 1611.19 2129.5 1611.19 2129.5 1615.19 2107.5 1615.19Z" stroke="#A7A7A7" stroke-width="3.4375" stroke-linejoin="round" stroke-miterlimit="10" fill="#A7A7A7"/><path d="M2197.5 1621.19 2219.5 1621.19 2219.5 1625.19 2197.5 1625.19Z" stroke="#A7A7A7" stroke-width="3.4375" stroke-linejoin="round" stroke-miterlimit="10" fill="#A7A7A7"/><path d="M2288.5 1718.19 2310.5 1718.19 2310.5 1722.19 2288.5 1722.19Z" stroke="#A7A7A7" stroke-width="3.4375" stroke-linejoin="round" stroke-miterlimit="10" fill="#A7A7A7"/><path d="M2378.5 1725.19 2400.5 1725.19 2400.5 1729.19 2378.5 1729.19Z" stroke="#A7A7A7" stroke-width="3.4375" stroke-linejoin="round" stroke-miterlimit="10" fill="#A7A7A7"/><path d="M2469.5 1690.19 2491.5 1690.19 2491.5 1694.19 2469.5 1694.19Z" stroke="#A7A7A7" stroke-width="3.4375" stroke-linejoin="round" stroke-miterlimit="10" fill="#A7A7A7"/><path d="M2559.5 1731.19 2581.5 1731.19 2581.5 1735.19 2559.5 1735.19Z" stroke="#A7A7A7" stroke-width="3.4375" stroke-linejoin="round" stroke-miterlimit="10" fill="#A7A7A7"/><path d="M2650.5 1728.19 2672.5 1728.19 2672.5 1732.19 2650.5 1732.19Z" stroke="#A7A7A7" stroke-width="3.4375" stroke-linejoin="round" stroke-miterlimit="10" fill="#A7A7A7"/><path d="M2740.5 1701.19 2762.5 1701.19 2762.5 1705.19 2740.5 1705.19Z" stroke="#A7A7A7" stroke-width="3.4375" stroke-linejoin="round" stroke-miterlimit="10" fill="#A7A7A7"/><path d="M2831.5 1711.19 2853.5 1711.19 2853.5 1715.19 2831.5 1715.19Z" stroke="#A7A7A7" stroke-width="3.4375" stroke-linejoin="round" stroke-miterlimit="10" fill="#A7A7A7"/><path d="M2921.5 1761.19 2943.5 1761.19 2943.5 1765.19 2921.5 1765.19Z" stroke="#A7A7A7" stroke-width="3.4375" stroke-linejoin="round" stroke-miterlimit="10" fill="#A7A7A7"/><path d="M3012.5 1746.19 3034.5 1746.19 3034.5 1750.19 3012.5 1750.19Z" stroke="#A7A7A7" stroke-width="3.4375" stroke-linejoin="round" stroke-miterlimit="10" fill="#A7A7A7"/><path d="M3102.5 1732.19 3124.5 1732.19 3124.5 1736.19 3102.5 1736.19Z" stroke="#A7A7A7" stroke-width="3.4375" stroke-linejoin="round" stroke-miterlimit="10" fill="#A7A7A7"/><path d="M3193.5 1721.19 3215.5 1721.19 3215.5 1725.19 3193.5 1725.19Z" stroke="#A7A7A7" stroke-width="3.4375" stroke-linejoin="round" stroke-miterlimit="10" fill="#A7A7A7"/></g><g clip-path="url(#clip5)"><path d="M1926.5 1762.19 1948.5 1762.19 1948.5 1766.19 1926.5 1766.19Z" stroke="#A7A7A7" stroke-width="3.4375" stroke-linejoin="round" stroke-miterlimit="10" fill="#A7A7A7"/><path d="M2016.5 1198.19 2038.5 1198.19 2038.5 1202.19 2016.5 1202.19Z" stroke="#A7A7A7" stroke-width="3.4375" stroke-linejoin="round" stroke-miterlimit="10" fill="#A7A7A7"/><path d="M2107.5 1589.19 2129.5 1589.19 2129.5 1593.19 2107.5 1593.19Z" stroke="#A7A7A7" stroke-width="3.4375" stroke-linejoin="round" stroke-miterlimit="10" fill="#A7A7A7"/><path d="M2197.5 1599.19 2219.5 1599.19 2219.5 1603.19 2197.5 1603.19Z" stroke="#A7A7A7" stroke-width="3.4375" stroke-linejoin="round" stroke-miterlimit="10" fill="#A7A7A7"/><path d="M2288.5 1696.19 2310.5 1696.19 2310.5 1700.19 2288.5 1700.19Z" stroke="#A7A7A7" stroke-width="3.4375" stroke-linejoin="round" stroke-miterlimit="10" fill="#A7A7A7"/><path d="M2378.5 1704.19 2400.5 1704.19 2400.5 1708.19 2378.5 1708.19Z" stroke="#A7A7A7" stroke-width="3.4375" stroke-linejoin="round" stroke-miterlimit="10" fill="#A7A7A7"/><path d="M2469.5 1665.19 2491.5 1665.19 2491.5 1669.19 2469.5 1669.19Z" stroke="#A7A7A7" stroke-width="3.4375" stroke-linejoin="round" stroke-miterlimit="10" fill="#A7A7A7"/><path d="M2559.5 1713.19 2581.5 1713.19 2581.5 1717.19 2559.5 1717.19Z" stroke="#A7A7A7" stroke-width="3.4375" stroke-linejoin="round" stroke-miterlimit="10" fill="#A7A7A7"/><path d="M2650.5 1711.19 2672.5 1711.19 2672.5 1715.19 2650.5 1715.19Z" stroke="#A7A7A7" stroke-width="3.4375" stroke-linejoin="round" stroke-miterlimit="10" fill="#A7A7A7"/><path d="M2740.5 1672.19 2762.5 1672.19 2762.5 1676.19 2740.5 1676.19Z" stroke="#A7A7A7" stroke-width="3.4375" stroke-linejoin="round" stroke-miterlimit="10" fill="#A7A7A7"/><path d="M2831.5 1688.19 2853.5 1688.19 2853.5 1692.19 2831.5 1692.19Z" stroke="#A7A7A7" stroke-width="3.4375" stroke-linejoin="round" stroke-miterlimit="10" fill="#A7A7A7"/><path d="M2921.5 1730.19 2943.5 1730.19 2943.5 1734.19 2921.5 1734.19Z" stroke="#A7A7A7" stroke-width="3.4375" stroke-linejoin="round" stroke-miterlimit="10" fill="#A7A7A7"/><path d="M3012.5 1723.19 3034.5 1723.19 3034.5 1727.19 3012.5 1727.19Z" stroke="#A7A7A7" stroke-width="3.4375" stroke-linejoin="round" stroke-miterlimit="10" fill="#A7A7A7"/><path d="M3102.5 1723.19 3124.5 1723.19 3124.5 1727.19 3102.5 1727.19Z" stroke="#A7A7A7" stroke-width="3.4375" stroke-linejoin="round" stroke-miterlimit="10" fill="#A7A7A7"/><path d="M3193.5 1706.19 3215.5 1706.19 3215.5 1710.19 3193.5 1710.19Z" stroke="#A7A7A7" stroke-width="3.4375" stroke-linejoin="round" stroke-miterlimit="10" fill="#A7A7A7"/></g><g clip-path="url(#clip6)"><text fill="#595959" font-family="Arial,Arial_MSFontService,sans-serif" font-weight="400" font-size="41" transform="matrix(1 0 0 1 1796.69 1777)">0%</text></g><g clip-path="url(#clip7)"><text fill="#595959" font-family="Arial,Arial_MSFontService,sans-serif" font-weight="400" font-size="41" transform="matrix(1 0 0 1 1796.69 1709)">5%</text></g><g clip-path="url(#clip8)"><text fill="#595959" font-family="Arial,Arial_MSFontService,sans-serif" font-weight="400" font-size="41" transform="matrix(1 0 0 1 1773.75 1640)">10%</text></g><g clip-path="url(#clip9)"><text fill="#595959" font-family="Arial,Arial_MSFontService,sans-serif" font-weight="400" font-size="41" transform="matrix(1 0 0 1 1773.75 1571)">15%</text></g><g clip-path="url(#clip10)"><text fill="#595959" font-family="Arial,Arial_MSFontService,sans-serif" font-weight="400" font-size="41" transform="matrix(1 0 0 1 1773.75 1502)">20%</text></g><g clip-path="url(#clip11)"><text fill="#595959" font-family="Arial,Arial_MSFontService,sans-serif" font-weight="400" font-size="41" transform="matrix(1 0 0 1 1773.75 1433)">25%</text></g><g clip-path="url(#clip12)"><text fill="#595959" font-family="Arial,Arial_MSFontService,sans-serif" font-weight="400" font-size="41" transform="matrix(1 0 0 1 1773.75 1364)">30%</text></g><g clip-path="url(#clip13)"><text fill="#595959" font-family="Arial,Arial_MSFontService,sans-serif" font-weight="400" font-size="41" transform="matrix(1 0 0 1 1773.75 1296)">35%</text></g><g clip-path="url(#clip14)"><text fill="#595959" font-family="Arial,Arial_MSFontService,sans-serif" font-weight="400" font-size="41" transform="matrix(1 0 0 1 1773.75 1227)">40%</text></g><g clip-path="url(#clip15)"><text fill="#595959" font-family="Arial,Arial_MSFontService,sans-serif" font-weight="400" font-size="41" transform="matrix(1 0 0 1 1773.75 1158)">45%</text></g><g clip-path="url(#clip16)"><text fill="#595959" font-family="Arial,Arial_MSFontService,sans-serif" font-weight="400" font-size="41" transform="matrix(1 0 0 1 1925.56 1827)">1</text></g><g clip-path="url(#clip17)"><text fill="#595959" font-family="Arial,Arial_MSFontService,sans-serif" font-weight="400" font-size="41" transform="matrix(1 0 0 1 2016.08 1827)">2</text></g><g clip-path="url(#clip18)"><text fill="#595959" font-family="Arial,Arial_MSFontService,sans-serif" font-weight="400" font-size="41" transform="matrix(1 0 0 1 2106.6 1827)">3</text></g><g clip-path="url(#clip19)"><text fill="#595959" font-family="Arial,Arial_MSFontService,sans-serif" font-weight="400" font-size="41" transform="matrix(1 0 0 1 2197.12 1827)">4</text></g><g clip-path="url(#clip20)"><text fill="#595959" font-family="Arial,Arial_MSFontService,sans-serif" font-weight="400" font-size="41" transform="matrix(1 0 0 1 2287.64 1827)">5</text></g><g clip-path="url(#clip21)"><text fill="#595959" font-family="Arial,Arial_MSFontService,sans-serif" font-weight="400" font-size="41" transform="matrix(1 0 0 1 2378.17 1827)">6</text></g><g clip-path="url(#clip22)"><text fill="#595959" font-family="Arial,Arial_MSFontService,sans-serif" font-weight="400" font-size="41" transform="matrix(1 0 0 1 2468.69 1827)">7</text></g><g clip-path="url(#clip23)"><text fill="#595959" font-family="Arial,Arial_MSFontService,sans-serif" font-weight="400" font-size="41" transform="matrix(1 0 0 1 2559.21 1827)">8</text></g><g clip-path="url(#clip24)"><text fill="#595959" font-family="Arial,Arial_MSFontService,sans-serif" font-weight="400" font-size="41" transform="matrix(1 0 0 1 2649.73 1827)">9</text></g><g clip-path="url(#clip25)"><text fill="#595959" font-family="Arial,Arial_MSFontService,sans-serif" font-weight="400" font-size="41" transform="matrix(1 0 0 1 2728.78 1827)">10</text></g><g clip-path="url(#clip26)"><text fill="#595959" font-family="Arial,Arial_MSFontService,sans-serif" font-weight="400" font-size="41" transform="matrix(1 0 0 1 2819.3 1827)">11</text></g><g clip-path="url(#clip27)"><text fill="#595959" font-family="Arial,Arial_MSFontService,sans-serif" font-weight="400" font-size="41" transform="matrix(1 0 0 1 2909.82 1827)">12</text></g><g clip-path="url(#clip28)"><text fill="#595959" font-family="Arial,Arial_MSFontService,sans-serif" font-weight="400" font-size="41" transform="matrix(1 0 0 1 3000.34 1827)">13</text></g><g clip-path="url(#clip29)"><text fill="#595959" font-family="Arial,Arial_MSFontService,sans-serif" font-weight="400" font-size="41" transform="matrix(1 0 0 1 3090.86 1827)">14</text></g><g clip-path="url(#clip30)"><text fill="#595959" font-family="Arial,Arial_MSFontService,sans-serif" font-weight="400" font-size="41" transform="matrix(1 0 0 1 3181.38 1827)">15</text></g><g clip-path="url(#clip31)"><text fill="#595959" font-family="Arial,Arial_MSFontService,sans-serif" font-weight="400" font-size="46" transform="matrix(6.12323e-17 -1 1 6.12323e-17 1750.28 1726)">Performance Improvement</text></g><g clip-path="url(#clip32)"><text fill="#595959" font-family="Arial,Arial_MSFontService,sans-serif" font-weight="400" font-size="46" transform="matrix(1 0 0 1 2347.79 1892)">Number of Spacecraft</text></g><g clip-path="url(#clip33)"><text fill="#595959" font-family="Arial,Arial_MSFontService,sans-serif" font-weight="400" font-size="64" transform="matrix(1 0 0 1 2045.31 1074)">Relative Improvement per S/C</text></g></g></svg>