<svg width="1650" height="979" xmlns="http://www.w3.org/2000/svg" xmlns:xlink="http://www.w3.org/1999/xlink" overflow="hidden"><defs><clipPath id="clip0"><rect x="0" y="980" width="1650" height="979"/></clipPath><clipPath id="clip1"><rect x="0" y="979" width="1650" height="980"/></clipPath><clipPath id="clip2"><rect x="264" y="1145" width="1339" height="623"/></clipPath><clipPath id="clip3"><rect x="0" y="979" width="1650" height="980"/></clipPath><clipPath id="clip4"><rect x="0" y="979" width="1650" height="980"/></clipPath><clipPath id="clip5"><rect x="0" y="979" width="1650" height="980"/></clipPath><clipPath id="clip6"><rect x="0" y="979" width="1650" height="980"/></clipPath><clipPath id="clip7"><rect x="0" y="979" width="1650" height="980"/></clipPath><clipPath id="clip8"><rect x="0" y="979" width="1650" height="980"/></clipPath><clipPath id="clip9"><rect x="0" y="979" width="1650" height="980"/></clipPath><clipPath id="clip10"><rect x="0" y="979" width="1650" height="980"/></clipPath><clipPath id="clip11"><rect x="0" y="979" width="1650" height="980"/></clipPath><clipPath id="clip12"><rect x="0" y="979" width="1650" height="980"/></clipPath><clipPath id="clip13"><rect x="0" y="979" width="1650" height="980"/></clipPath><clipPath id="clip14"><rect x="0" y="979" width="1650" height="980"/></clipPath><clipPath id="clip15"><rect x="0" y="979" width="1650" height="980"/></clipPath><clipPath id="clip16"><rect x="0" y="979" width="1650" height="980"/></clipPath><clipPath id="clip17"><rect x="0" y="979" width="1650" height="980"/></clipPath><clipPath id="clip18"><rect x="0" y="979" width="1650" height="980"/></clipPath><clipPath id="clip19"><rect x="0" y="979" width="1650" height="980"/></clipPath><clipPath id="clip20"><rect x="0" y="979" width="1650" height="980"/></clipPath><clipPath id="clip21"><rect x="0" y="979" width="1650" height="980"/></clipPath><clipPath id="clip22"><rect x="0" y="979" width="1650" height="980"/></clipPath><clipPath id="clip23"><rect x="0" y="979" width="1650" height="980"/></clipPath><clipPath id="clip24"><rect x="0" y="979" width="1650" height="980"/></clipPath><clipPath id="clip25"><rect x="0" y="979" width="1650" height="980"/></clipPath><clipPath id="clip26"><rect x="0" y="979" width="1650" height="980"/></clipPath><clipPath id="clip27"><rect x="0" y="979" width="1650" height="980"/></clipPath><clipPath id="clip28"><rect x="0" y="979" width="1650" height="980"/></clipPath><clipPath id="clip29"><rect x="0" y="979" width="1650" height="980"/></clipPath><clipPath id="clip30"><rect x="0" y="979" width="1650" height="980"/></clipPath><clipPath id="clip31"><rect x="0" y="979" width="1650" height="980"/></clipPath><clipPath id="clip32"><rect x="0" y="979" width="1650" height="980"/></clipPath><clipPath id="clip33"><rect x="0" y="979" width="1650" height="980"/></clipPath></defs><g clip-path="url(#clip0)" transform="matrix(1 0 0 1 0 -980)"><g clip-path="url(#clip1)"><path d="M264.5 1695.56 1599.5 1695.56M264.5 1626.55 1599.5 1626.55M264.5 1558.55 1599.5 1558.55M264.5 1489.55 1599.5 1489.55M264.5 1420.55 1599.5 1420.55M264.5 1351.54 1599.5 1351.54M264.5 1282.54 1599.5 1282.54M264.5 1213.54 1599.5 1213.54M264.5 1145.5 1599.5 1145.5" stroke="#D9D9D9" stroke-width="3.4375" stroke-linejoin="round" stroke-miterlimit="10" fill="none"/></g><g clip-path="url(#clip2)"><path d="M369.012 1626.05 428.014 1626.05 428.014 1765 369.012 1765ZM458.015 1570.05 517.017 1570.05 517.017 1765 458.015 1765ZM546.018 1510.05 606.02 1510.05 606.02 1765 546.018 1765ZM635.021 1486.05 695.023 1486.05 695.023 1765 635.021 1765ZM724.024 1465.05 784.026 1465.05 784.026 1765 724.024 1765ZM813.027 1425.05 873.029 1425.05 873.029 1765 813.027 1765ZM902.03 1405.05 962.032 1405.05 962.032 1765 902.03 1765ZM991.032 1383.05 1051.03 1383.05 1051.03 1765 991.032 1765ZM1080.04 1343.04 1140.04 1343.04 1140.04 1765 1080.04 1765ZM1169.04 1308.04 1229.04 1308.04 1229.04 1765 1169.04 1765ZM1258.04 1298.04 1318.04 1298.04 1318.04 1765 1258.04 1765ZM1347.04 1282.04 1407.05 1282.04 1407.05 1765 1347.04 1765ZM1436.05 1261.04 1496.05 1261.04 1496.05 1765 1436.05 1765ZM1525.05 1231.04 1585.05 1231.04 1585.05 1765 1525.05 1765Z" fill="#00A6D6"/></g><g clip-path="url(#clip3)"><path d="M264.5 1764.5 1599.5 1764.5" stroke="#D9D9D9" stroke-width="3.4375" stroke-linejoin="round" stroke-miterlimit="10" fill="none" fill-rule="evenodd"/></g><g clip-path="url(#clip4)"><path d="M298.5 1762.19 320.499 1762.19 320.499 1766.19 298.5 1766.19Z" stroke="#A7A7A7" stroke-width="3.4375" stroke-linejoin="round" stroke-miterlimit="10" fill="#A7A7A7"/><path d="M387.5 1627.19 409.499 1627.19 409.499 1631.19 387.5 1631.19Z" stroke="#A7A7A7" stroke-width="3.4375" stroke-linejoin="round" stroke-miterlimit="10" fill="#A7A7A7"/><path d="M476.5 1570.19 498.499 1570.19 498.499 1574.19 476.5 1574.19Z" stroke="#A7A7A7" stroke-width="3.4375" stroke-linejoin="round" stroke-miterlimit="10" fill="#A7A7A7"/><path d="M565.5 1510.19 587.499 1510.19 587.499 1514.19 565.5 1514.19Z" stroke="#A7A7A7" stroke-width="3.4375" stroke-linejoin="round" stroke-miterlimit="10" fill="#A7A7A7"/><path d="M654.5 1486.19 676.499 1486.19 676.499 1490.19 654.5 1490.19Z" stroke="#A7A7A7" stroke-width="3.4375" stroke-linejoin="round" stroke-miterlimit="10" fill="#A7A7A7"/><path d="M743.5 1465.19 765.499 1465.19 765.499 1469.19 743.5 1469.19Z" stroke="#A7A7A7" stroke-width="3.4375" stroke-linejoin="round" stroke-miterlimit="10" fill="#A7A7A7"/><path d="M832.5 1426.19 854.499 1426.19 854.499 1430.19 832.5 1430.19Z" stroke="#A7A7A7" stroke-width="3.4375" stroke-linejoin="round" stroke-miterlimit="10" fill="#A7A7A7"/><path d="M921.5 1405.19 943.499 1405.19 943.499 1409.19 921.5 1409.19Z" stroke="#A7A7A7" stroke-width="3.4375" stroke-linejoin="round" stroke-miterlimit="10" fill="#A7A7A7"/><path d="M1010.5 1383.19 1032.5 1383.19 1032.5 1387.19 1010.5 1387.19Z" stroke="#A7A7A7" stroke-width="3.4375" stroke-linejoin="round" stroke-miterlimit="10" fill="#A7A7A7"/><path d="M1099.5 1344.19 1121.5 1344.19 1121.5 1348.19 1099.5 1348.19Z" stroke="#A7A7A7" stroke-width="3.4375" stroke-linejoin="round" stroke-miterlimit="10" fill="#A7A7A7"/><path d="M1188.5 1309.19 1210.5 1309.19 1210.5 1313.19 1188.5 1313.19Z" stroke="#A7A7A7" stroke-width="3.4375" stroke-linejoin="round" stroke-miterlimit="10" fill="#A7A7A7"/><path d="M1277.5 1300.19 1299.5 1300.19 1299.5 1304.19 1277.5 1304.19Z" stroke="#A7A7A7" stroke-width="3.4375" stroke-linejoin="round" stroke-miterlimit="10" fill="#A7A7A7"/><path d="M1366.5 1282.19 1388.5 1282.19 1388.5 1286.19 1366.5 1286.19Z" stroke="#A7A7A7" stroke-width="3.4375" stroke-linejoin="round" stroke-miterlimit="10" fill="#A7A7A7"/><path d="M1455.5 1260.19 1477.5 1260.19 1477.5 1264.19 1455.5 1264.19Z" stroke="#A7A7A7" stroke-width="3.4375" stroke-linejoin="round" stroke-miterlimit="10" fill="#A7A7A7"/><path d="M1544.5 1230.19 1566.5 1230.19 1566.5 1234.19 1544.5 1234.19Z" stroke="#A7A7A7" stroke-width="3.4375" stroke-linejoin="round" stroke-miterlimit="10" fill="#A7A7A7"/></g><g clip-path="url(#clip5)"><path d="M298.5 1762.19 320.499 1762.19 320.499 1766.19 298.5 1766.19Z" stroke="#A7A7A7" stroke-width="3.4375" stroke-linejoin="round" stroke-miterlimit="10" fill="#A7A7A7"/><path d="M387.5 1621.19 409.499 1621.19 409.499 1625.19 387.5 1625.19Z" stroke="#A7A7A7" stroke-width="3.4375" stroke-linejoin="round" stroke-miterlimit="10" fill="#A7A7A7"/><path d="M476.5 1564.19 498.499 1564.19 498.499 1568.19 476.5 1568.19Z" stroke="#A7A7A7" stroke-width="3.4375" stroke-linejoin="round" stroke-miterlimit="10" fill="#A7A7A7"/><path d="M565.5 1505.19 587.499 1505.19 587.499 1509.19 565.5 1509.19Z" stroke="#A7A7A7" stroke-width="3.4375" stroke-linejoin="round" stroke-miterlimit="10" fill="#A7A7A7"/><path d="M654.5 1481.19 676.499 1481.19 676.499 1485.19 654.5 1485.19Z" stroke="#A7A7A7" stroke-width="3.4375" stroke-linejoin="round" stroke-miterlimit="10" fill="#A7A7A7"/><path d="M743.5 1460.19 765.499 1460.19 765.499 1464.19 743.5 1464.19Z" stroke="#A7A7A7" stroke-width="3.4375" stroke-linejoin="round" stroke-miterlimit="10" fill="#A7A7A7"/><path d="M832.5 1419.19 854.499 1419.19 854.499 1423.19 832.5 1423.19Z" stroke="#A7A7A7" stroke-width="3.4375" stroke-linejoin="round" stroke-miterlimit="10" fill="#A7A7A7"/><path d="M921.5 1400.19 943.499 1400.19 943.499 1404.19 921.5 1404.19Z" stroke="#A7A7A7" stroke-width="3.4375" stroke-linejoin="round" stroke-miterlimit="10" fill="#A7A7A7"/><path d="M1010.5 1379.19 1032.5 1379.19 1032.5 1383.19 1010.5 1383.19Z" stroke="#A7A7A7" stroke-width="3.4375" stroke-linejoin="round" stroke-miterlimit="10" fill="#A7A7A7"/><path d="M1099.5 1337.19 1121.5 1337.19 1121.5 1341.19 1099.5 1341.19Z" stroke="#A7A7A7" stroke-width="3.4375" stroke-linejoin="round" stroke-miterlimit="10" fill="#A7A7A7"/><path d="M1188.5 1303.19 1210.5 1303.19 1210.5 1307.19 1188.5 1307.19Z" stroke="#A7A7A7" stroke-width="3.4375" stroke-linejoin="round" stroke-miterlimit="10" fill="#A7A7A7"/><path d="M1277.5 1292.19 1299.5 1292.19 1299.5 1296.19 1277.5 1296.19Z" stroke="#A7A7A7" stroke-width="3.4375" stroke-linejoin="round" stroke-miterlimit="10" fill="#A7A7A7"/><path d="M1366.5 1276.19 1388.5 1276.19 1388.5 1280.19 1366.5 1280.19Z" stroke="#A7A7A7" stroke-width="3.4375" stroke-linejoin="round" stroke-miterlimit="10" fill="#A7A7A7"/><path d="M1455.5 1257.19 1477.5 1257.19 1477.5 1261.19 1455.5 1261.19Z" stroke="#A7A7A7" stroke-width="3.4375" stroke-linejoin="round" stroke-miterlimit="10" fill="#A7A7A7"/><path d="M1544.5 1226.19 1566.5 1226.19 1566.5 1230.19 1544.5 1230.19Z" stroke="#A7A7A7" stroke-width="3.4375" stroke-linejoin="round" stroke-miterlimit="10" fill="#A7A7A7"/></g><g clip-path="url(#clip6)"><text fill="#595959" font-family="Arial,Arial_MSFontService,sans-serif" font-weight="400" font-size="41" transform="matrix(1 0 0 1 169.63 1777)">0%</text></g><g clip-path="url(#clip7)"><text fill="#595959" font-family="Arial,Arial_MSFontService,sans-serif" font-weight="400" font-size="41" transform="matrix(1 0 0 1 146.69 1709)">20%</text></g><g clip-path="url(#clip8)"><text fill="#595959" font-family="Arial,Arial_MSFontService,sans-serif" font-weight="400" font-size="41" transform="matrix(1 0 0 1 146.69 1640)">40%</text></g><g clip-path="url(#clip9)"><text fill="#595959" font-family="Arial,Arial_MSFontService,sans-serif" font-weight="400" font-size="41" transform="matrix(1 0 0 1 146.69 1571)">60%</text></g><g clip-path="url(#clip10)"><text fill="#595959" font-family="Arial,Arial_MSFontService,sans-serif" font-weight="400" font-size="41" transform="matrix(1 0 0 1 146.69 1502)">80%</text></g><g clip-path="url(#clip11)"><text fill="#595959" font-family="Arial,Arial_MSFontService,sans-serif" font-weight="400" font-size="41" transform="matrix(1 0 0 1 123.75 1433)">100%</text></g><g clip-path="url(#clip12)"><text fill="#595959" font-family="Arial,Arial_MSFontService,sans-serif" font-weight="400" font-size="41" transform="matrix(1 0 0 1 123.75 1364)">120%</text></g><g clip-path="url(#clip13)"><text fill="#595959" font-family="Arial,Arial_MSFontService,sans-serif" font-weight="400" font-size="41" transform="matrix(1 0 0 1 123.75 1296)">140%</text></g><g clip-path="url(#clip14)"><text fill="#595959" font-family="Arial,Arial_MSFontService,sans-serif" font-weight="400" font-size="41" transform="matrix(1 0 0 1 123.75 1227)">160%</text></g><g clip-path="url(#clip15)"><text fill="#595959" font-family="Arial,Arial_MSFontService,sans-serif" font-weight="400" font-size="41" transform="matrix(1 0 0 1 123.75 1158)">180%</text></g><g clip-path="url(#clip16)"><text fill="#595959" font-family="Arial,Arial_MSFontService,sans-serif" font-weight="400" font-size="41" transform="matrix(1 0 0 1 297.737 1827)">1</text></g><g clip-path="url(#clip17)"><text fill="#595959" font-family="Arial,Arial_MSFontService,sans-serif" font-weight="400" font-size="41" transform="matrix(1 0 0 1 386.728 1827)">2</text></g><g clip-path="url(#clip18)"><text fill="#595959" font-family="Arial,Arial_MSFontService,sans-serif" font-weight="400" font-size="41" transform="matrix(1 0 0 1 475.72 1827)">3</text></g><g clip-path="url(#clip19)"><text fill="#595959" font-family="Arial,Arial_MSFontService,sans-serif" font-weight="400" font-size="41" transform="matrix(1 0 0 1 564.711 1827)">4</text></g><g clip-path="url(#clip20)"><text fill="#595959" font-family="Arial,Arial_MSFontService,sans-serif" font-weight="400" font-size="41" transform="matrix(1 0 0 1 653.703 1827)">5</text></g><g clip-path="url(#clip21)"><text fill="#595959" font-family="Arial,Arial_MSFontService,sans-serif" font-weight="400" font-size="41" transform="matrix(1 0 0 1 742.694 1827)">6</text></g><g clip-path="url(#clip22)"><text fill="#595959" font-family="Arial,Arial_MSFontService,sans-serif" font-weight="400" font-size="41" transform="matrix(1 0 0 1 831.686 1827)">7</text></g><g clip-path="url(#clip23)"><text fill="#595959" font-family="Arial,Arial_MSFontService,sans-serif" font-weight="400" font-size="41" transform="matrix(1 0 0 1 920.677 1827)">8</text></g><g clip-path="url(#clip24)"><text fill="#595959" font-family="Arial,Arial_MSFontService,sans-serif" font-weight="400" font-size="41" transform="matrix(1 0 0 1 1009.67 1827)">9</text></g><g clip-path="url(#clip25)"><text fill="#595959" font-family="Arial,Arial_MSFontService,sans-serif" font-weight="400" font-size="41" transform="matrix(1 0 0 1 1087.19 1827)">10</text></g><g clip-path="url(#clip26)"><text fill="#595959" font-family="Arial,Arial_MSFontService,sans-serif" font-weight="400" font-size="41" transform="matrix(1 0 0 1 1176.18 1827)">11</text></g><g clip-path="url(#clip27)"><text fill="#595959" font-family="Arial,Arial_MSFontService,sans-serif" font-weight="400" font-size="41" transform="matrix(1 0 0 1 1265.17 1827)">12</text></g><g clip-path="url(#clip28)"><text fill="#595959" font-family="Arial,Arial_MSFontService,sans-serif" font-weight="400" font-size="41" transform="matrix(1 0 0 1 1354.16 1827)">13</text></g><g clip-path="url(#clip29)"><text fill="#595959" font-family="Arial,Arial_MSFontService,sans-serif" font-weight="400" font-size="41" transform="matrix(1 0 0 1 1443.16 1827)">14</text></g><g clip-path="url(#clip30)"><text fill="#595959" font-family="Arial,Arial_MSFontService,sans-serif" font-weight="400" font-size="41" transform="matrix(1 0 0 1 1532.15 1827)">15</text></g><g clip-path="url(#clip31)"><text fill="#595959" font-family="Arial,Arial_MSFontService,sans-serif" font-weight="400" font-size="46" transform="matrix(6.12323e-17 -1 1 6.12323e-17 100.283 1726)">Performance Improvement</text></g><g clip-path="url(#clip32)"><text fill="#595959" font-family="Arial,Arial_MSFontService,sans-serif" font-weight="400" font-size="46" transform="matrix(1 0 0 1 709.26 1892)">Number of Spacecraft</text></g><g clip-path="url(#clip33)"><text fill="#595959" font-family="Arial,Arial_MSFontService,sans-serif" font-weight="400" font-size="64" transform="matrix(1 0 0 1 473.756 1074)">Improvement w.r.t. 1 S/C</text></g></g></svg>