<svg width="1650" height="980" xmlns="http://www.w3.org/2000/svg" xmlns:xlink="http://www.w3.org/1999/xlink" overflow="hidden"><defs><clipPath id="clip0"><rect x="0" y="0" width="1650" height="980"/></clipPath><clipPath id="clip1"><rect x="0" y="0" width="1650" height="979"/></clipPath><clipPath id="clip2"><rect x="264" y="165" width="1339" height="623"/></clipPath><clipPath id="clip3"><rect x="0" y="0" width="1650" height="979"/></clipPath><clipPath id="clip4"><rect x="0" y="0" width="1650" height="979"/></clipPath><clipPath id="clip5"><rect x="0" y="0" width="1650" height="979"/></clipPath><clipPath id="clip6"><rect x="0" y="0" width="1650" height="979"/></clipPath><clipPath id="clip7"><rect x="0" y="0" width="1650" height="979"/></clipPath><clipPath id="clip8"><rect x="0" y="0" width="1650" height="979"/></clipPath><clipPath id="clip9"><rect x="0" y="0" width="1650" height="979"/></clipPath><clipPath id="clip10"><rect x="0" y="0" width="1650" height="979"/></clipPath><clipPath id="clip11"><rect x="0" y="0" width="1650" height="979"/></clipPath><clipPath id="clip12"><rect x="0" y="0" width="1650" height="979"/></clipPath><clipPath id="clip13"><rect x="0" y="0" width="1650" height="979"/></clipPath><clipPath id="clip14"><rect x="0" y="0" width="1650" height="979"/></clipPath><clipPath id="clip15"><rect x="0" y="0" width="1650" height="979"/></clipPath><clipPath id="clip16"><rect x="0" y="0" width="1650" height="979"/></clipPath><clipPath id="clip17"><rect x="0" y="0" width="1650" height="979"/></clipPath><clipPath id="clip18"><rect x="0" y="0" width="1650" height="979"/></clipPath><clipPath id="clip19"><rect x="0" y="0" width="1650" height="979"/></clipPath><clipPath id="clip20"><rect x="0" y="0" width="1650" height="979"/></clipPath><clipPath id="clip21"><rect x="0" y="0" width="1650" height="979"/></clipPath><clipPath id="clip22"><rect x="0" y="0" width="1650" height="979"/></clipPath><clipPath id="clip23"><rect x="0" y="0" width="1650" height="979"/></clipPath><clipPath id="clip24"><rect x="0" y="0" width="1650" height="979"/></clipPath><clipPath id="clip25"><rect x="0" y="0" width="1650" height="979"/></clipPath><clipPath id="clip26"><rect x="0" y="0" width="1650" height="979"/></clipPath><clipPath id="clip27"><rect x="0" y="0" width="1650" height="979"/></clipPath><clipPath id="clip28"><rect x="0" y="0" width="1650" height="979"/></clipPath><clipPath id="clip29"><rect x="0" y="0" width="1650" height="979"/></clipPath><clipPath id="clip30"><rect x="0" y="0" width="1650" height="979"/></clipPath><clipPath id="clip31"><rect x="0" y="0" width="1650" height="979"/></clipPath><clipPath id="clip32"><rect x="0" y="0" width="1650" height="979"/></clipPath></defs><g clip-path="url(#clip0)"><g clip-path="url(#clip1)"><path d="M264.5 707.523 1599.5 707.523M264.5 630.521 1599.5 630.521M264.5 552.518 1599.5 552.518M264.5 475.516 1599.5 475.516M264.5 397.513 1599.5 397.513M264.5 320.511 1599.5 320.511M264.5 242.508 1599.5 242.508M264.5 165.5 1599.5 165.5" stroke="#D9D9D9" stroke-width="3.4375" stroke-linejoin="round" stroke-miterlimit="10" fill="none"/></g><g clip-path="url(#clip2)"><path d="M369.012 665.022 428.014 665.022 428.014 785 369.012 785ZM458.015 583.019 517.017 583.019 517.017 785 458.015 785ZM546.018 536.018 606.02 536.018 606.02 785 546.018 785ZM635.021 470.015 695.023 470.015 695.023 785 635.021 785ZM724.024 427.014 784.026 427.014 784.026 785 724.024 785ZM813.027 387.013 873.029 387.013 873.029 785 813.027 785ZM902.03 363.012 962.032 363.012 962.032 785 902.03 785ZM991.032 343.011 1051.03 343.011 1051.03 785 991.032 785ZM1080.04 330.011 1140.04 330.011 1140.04 785 1080.04 785ZM1169.04 292.01 1229.04 292.01 1229.04 785 1169.04 785ZM1258.04 272.009 1318.04 272.009 1318.04 785 1258.04 785ZM1347.04 250.008 1407.05 250.008 1407.05 785 1347.04 785ZM1436.05 243.008 1496.05 243.008 1496.05 785 1436.05 785ZM1525.05 223.007 1585.05 223.007 1585.05 785 1525.05 785Z" fill="#017188"/></g><g clip-path="url(#clip3)"><path d="M264.5 784.5 1599.5 784.5" stroke="#D9D9D9" stroke-width="3.4375" stroke-linejoin="round" stroke-miterlimit="10" fill="none" fill-rule="evenodd"/></g><g clip-path="url(#clip4)"><path d="M298.5 782.5 320.499 782.5 320.499 786.5 298.5 786.5Z" stroke="#A7A7A7" stroke-width="3.4375" stroke-linejoin="round" stroke-miterlimit="10" fill="#A7A7A7"/><path d="M387.5 671.5 409.499 671.5 409.499 675.5 387.5 675.5Z" stroke="#A7A7A7" stroke-width="3.4375" stroke-linejoin="round" stroke-miterlimit="10" fill="#A7A7A7"/><path d="M476.5 586.5 498.499 586.5 498.499 590.5 476.5 590.5Z" stroke="#A7A7A7" stroke-width="3.4375" stroke-linejoin="round" stroke-miterlimit="10" fill="#A7A7A7"/><path d="M565.5 541.5 587.499 541.5 587.499 545.5 565.5 545.5Z" stroke="#A7A7A7" stroke-width="3.4375" stroke-linejoin="round" stroke-miterlimit="10" fill="#A7A7A7"/><path d="M654.5 472.5 676.499 472.5 676.499 476.5 654.5 476.5Z" stroke="#A7A7A7" stroke-width="3.4375" stroke-linejoin="round" stroke-miterlimit="10" fill="#A7A7A7"/><path d="M743.5 433.5 765.499 433.5 765.499 437.5 743.5 437.5Z" stroke="#A7A7A7" stroke-width="3.4375" stroke-linejoin="round" stroke-miterlimit="10" fill="#A7A7A7"/><path d="M832.5 391.5 854.499 391.5 854.499 395.5 832.5 395.5Z" stroke="#A7A7A7" stroke-width="3.4375" stroke-linejoin="round" stroke-miterlimit="10" fill="#A7A7A7"/><path d="M921.5 366.5 943.499 366.5 943.499 370.5 921.5 370.5Z" stroke="#A7A7A7" stroke-width="3.4375" stroke-linejoin="round" stroke-miterlimit="10" fill="#A7A7A7"/><path d="M1010.5 349.5 1032.5 349.5 1032.5 353.5 1010.5 353.5Z" stroke="#A7A7A7" stroke-width="3.4375" stroke-linejoin="round" stroke-miterlimit="10" fill="#A7A7A7"/><path d="M1099.5 337.5 1121.5 337.5 1121.5 341.5 1099.5 341.5Z" stroke="#A7A7A7" stroke-width="3.4375" stroke-linejoin="round" stroke-miterlimit="10" fill="#A7A7A7"/><path d="M1188.5 297.5 1210.5 297.5 1210.5 301.5 1188.5 301.5Z" stroke="#A7A7A7" stroke-width="3.4375" stroke-linejoin="round" stroke-miterlimit="10" fill="#A7A7A7"/><path d="M1277.5 276.5 1299.5 276.5 1299.5 280.5 1277.5 280.5Z" stroke="#A7A7A7" stroke-width="3.4375" stroke-linejoin="round" stroke-miterlimit="10" fill="#A7A7A7"/><path d="M1366.5 254.5 1388.5 254.5 1388.5 258.5 1366.5 258.5Z" stroke="#A7A7A7" stroke-width="3.4375" stroke-linejoin="round" stroke-miterlimit="10" fill="#A7A7A7"/><path d="M1455.5 250.5 1477.5 250.5 1477.5 254.5 1455.5 254.5Z" stroke="#A7A7A7" stroke-width="3.4375" stroke-linejoin="round" stroke-miterlimit="10" fill="#A7A7A7"/><path d="M1544.5 229.5 1566.5 229.5 1566.5 233.5 1544.5 233.5Z" stroke="#A7A7A7" stroke-width="3.4375" stroke-linejoin="round" stroke-miterlimit="10" fill="#A7A7A7"/></g><g clip-path="url(#clip5)"><path d="M298.5 782.5 320.499 782.5 320.499 786.5 298.5 786.5Z" stroke="#A7A7A7" stroke-width="3.4375" stroke-linejoin="round" stroke-miterlimit="10" fill="#A7A7A7"/><path d="M387.5 655.5 409.499 655.5 409.499 659.5 387.5 659.5Z" stroke="#A7A7A7" stroke-width="3.4375" stroke-linejoin="round" stroke-miterlimit="10" fill="#A7A7A7"/><path d="M476.5 576.5 498.499 576.5 498.499 580.5 476.5 580.5Z" stroke="#A7A7A7" stroke-width="3.4375" stroke-linejoin="round" stroke-miterlimit="10" fill="#A7A7A7"/><path d="M565.5 526.5 587.499 526.5 587.499 530.5 565.5 530.5Z" stroke="#A7A7A7" stroke-width="3.4375" stroke-linejoin="round" stroke-miterlimit="10" fill="#A7A7A7"/><path d="M654.5 464.5 676.499 464.5 676.499 468.5 654.5 468.5Z" stroke="#A7A7A7" stroke-width="3.4375" stroke-linejoin="round" stroke-miterlimit="10" fill="#A7A7A7"/><path d="M743.5 416.5 765.499 416.5 765.499 420.5 743.5 420.5Z" stroke="#A7A7A7" stroke-width="3.4375" stroke-linejoin="round" stroke-miterlimit="10" fill="#A7A7A7"/><path d="M832.5 378.5 854.499 378.5 854.499 382.5 832.5 382.5Z" stroke="#A7A7A7" stroke-width="3.4375" stroke-linejoin="round" stroke-miterlimit="10" fill="#A7A7A7"/><path d="M921.5 355.5 943.499 355.5 943.499 359.5 921.5 359.5Z" stroke="#A7A7A7" stroke-width="3.4375" stroke-linejoin="round" stroke-miterlimit="10" fill="#A7A7A7"/><path d="M1010.5 331.5 1032.5 331.5 1032.5 335.5 1010.5 335.5Z" stroke="#A7A7A7" stroke-width="3.4375" stroke-linejoin="round" stroke-miterlimit="10" fill="#A7A7A7"/><path d="M1099.5 318.5 1121.5 318.5 1121.5 322.5 1099.5 322.5Z" stroke="#A7A7A7" stroke-width="3.4375" stroke-linejoin="round" stroke-miterlimit="10" fill="#A7A7A7"/><path d="M1188.5 281.5 1210.5 281.5 1210.5 285.5 1188.5 285.5Z" stroke="#A7A7A7" stroke-width="3.4375" stroke-linejoin="round" stroke-miterlimit="10" fill="#A7A7A7"/><path d="M1277.5 263.5 1299.5 263.5 1299.5 267.5 1277.5 267.5Z" stroke="#A7A7A7" stroke-width="3.4375" stroke-linejoin="round" stroke-miterlimit="10" fill="#A7A7A7"/><path d="M1366.5 242.5 1388.5 242.5 1388.5 246.5 1366.5 246.5Z" stroke="#A7A7A7" stroke-width="3.4375" stroke-linejoin="round" stroke-miterlimit="10" fill="#A7A7A7"/><path d="M1455.5 231.5 1477.5 231.5 1477.5 235.5 1455.5 235.5Z" stroke="#A7A7A7" stroke-width="3.4375" stroke-linejoin="round" stroke-miterlimit="10" fill="#A7A7A7"/><path d="M1544.5 213.5 1566.5 213.5 1566.5 217.5 1544.5 217.5Z" stroke="#A7A7A7" stroke-width="3.4375" stroke-linejoin="round" stroke-miterlimit="10" fill="#A7A7A7"/></g><g clip-path="url(#clip6)"><text fill="#595959" font-family="Arial,Arial_MSFontService,sans-serif" font-weight="400" font-size="41" transform="matrix(1 0 0 1 169.63 798)">0%</text></g><g clip-path="url(#clip7)"><text fill="#595959" font-family="Arial,Arial_MSFontService,sans-serif" font-weight="400" font-size="41" transform="matrix(1 0 0 1 146.69 720)">20%</text></g><g clip-path="url(#clip8)"><text fill="#595959" font-family="Arial,Arial_MSFontService,sans-serif" font-weight="400" font-size="41" transform="matrix(1 0 0 1 146.69 643)">40%</text></g><g clip-path="url(#clip9)"><text fill="#595959" font-family="Arial,Arial_MSFontService,sans-serif" font-weight="400" font-size="41" transform="matrix(1 0 0 1 146.69 565)">60%</text></g><g clip-path="url(#clip10)"><text fill="#595959" font-family="Arial,Arial_MSFontService,sans-serif" font-weight="400" font-size="41" transform="matrix(1 0 0 1 146.69 488)">80%</text></g><g clip-path="url(#clip11)"><text fill="#595959" font-family="Arial,Arial_MSFontService,sans-serif" font-weight="400" font-size="41" transform="matrix(1 0 0 1 123.75 411)">100%</text></g><g clip-path="url(#clip12)"><text fill="#595959" font-family="Arial,Arial_MSFontService,sans-serif" font-weight="400" font-size="41" transform="matrix(1 0 0 1 123.75 333)">120%</text></g><g clip-path="url(#clip13)"><text fill="#595959" font-family="Arial,Arial_MSFontService,sans-serif" font-weight="400" font-size="41" transform="matrix(1 0 0 1 123.75 256)">140%</text></g><g clip-path="url(#clip14)"><text fill="#595959" font-family="Arial,Arial_MSFontService,sans-serif" font-weight="400" font-size="41" transform="matrix(1 0 0 1 123.75 178)">160%</text></g><g clip-path="url(#clip15)"><text fill="#595959" font-family="Arial,Arial_MSFontService,sans-serif" font-weight="400" font-size="41" transform="matrix(1 0 0 1 297.737 847)">1</text></g><g clip-path="url(#clip16)"><text fill="#595959" font-family="Arial,Arial_MSFontService,sans-serif" font-weight="400" font-size="41" transform="matrix(1 0 0 1 386.728 847)">2</text></g><g clip-path="url(#clip17)"><text fill="#595959" font-family="Arial,Arial_MSFontService,sans-serif" font-weight="400" font-size="41" transform="matrix(1 0 0 1 475.72 847)">3</text></g><g clip-path="url(#clip18)"><text fill="#595959" font-family="Arial,Arial_MSFontService,sans-serif" font-weight="400" font-size="41" transform="matrix(1 0 0 1 564.711 847)">4</text></g><g clip-path="url(#clip19)"><text fill="#595959" font-family="Arial,Arial_MSFontService,sans-serif" font-weight="400" font-size="41" transform="matrix(1 0 0 1 653.703 847)">5</text></g><g clip-path="url(#clip20)"><text fill="#595959" font-family="Arial,Arial_MSFontService,sans-serif" font-weight="400" font-size="41" transform="matrix(1 0 0 1 742.694 847)">6</text></g><g clip-path="url(#clip21)"><text fill="#595959" font-family="Arial,Arial_MSFontService,sans-serif" font-weight="400" font-size="41" transform="matrix(1 0 0 1 831.686 847)">7</text></g><g clip-path="url(#clip22)"><text fill="#595959" font-family="Arial,Arial_MSFontService,sans-serif" font-weight="400" font-size="41" transform="matrix(1 0 0 1 920.677 847)">8</text></g><g clip-path="url(#clip23)"><text fill="#595959" font-family="Arial,Arial_MSFontService,sans-serif" font-weight="400" font-size="41" transform="matrix(1 0 0 1 1009.67 847)">9</text></g><g clip-path="url(#clip24)"><text fill="#595959" font-family="Arial,Arial_MSFontService,sans-serif" font-weight="400" font-size="41" transform="matrix(1 0 0 1 1087.19 847)">10</text></g><g clip-path="url(#clip25)"><text fill="#595959" font-family="Arial,Arial_MSFontService,sans-serif" font-weight="400" font-size="41" transform="matrix(1 0 0 1 1176.18 847)">11</text></g><g clip-path="url(#clip26)"><text fill="#595959" font-family="Arial,Arial_MSFontService,sans-serif" font-weight="400" font-size="41" transform="matrix(1 0 0 1 1265.17 847)">12</text></g><g clip-path="url(#clip27)"><text fill="#595959" font-family="Arial,Arial_MSFontService,sans-serif" font-weight="400" font-size="41" transform="matrix(1 0 0 1 1354.16 847)">13</text></g><g clip-path="url(#clip28)"><text fill="#595959" font-family="Arial,Arial_MSFontService,sans-serif" font-weight="400" font-size="41" transform="matrix(1 0 0 1 1443.16 847)">14</text></g><g clip-path="url(#clip29)"><text fill="#595959" font-family="Arial,Arial_MSFontService,sans-serif" font-weight="400" font-size="41" transform="matrix(1 0 0 1 1532.15 847)">15</text></g><g clip-path="url(#clip30)"><text fill="#595959" font-family="Arial,Arial_MSFontService,sans-serif" font-weight="400" font-size="46" transform="matrix(6.12323e-17 -1 1 6.12323e-17 100.283 746)">Performance Improvement</text></g><g clip-path="url(#clip31)"><text fill="#595959" font-family="Arial,Arial_MSFontService,sans-serif" font-weight="400" font-size="46" transform="matrix(1 0 0 1 709.26 913)">Number of Spacecraft</text></g><g clip-path="url(#clip32)"><text fill="#595959" font-family="Arial,Arial_MSFontService,sans-serif" font-weight="400" font-size="64" transform="matrix(1 0 0 1 473.756 94)">Improvement w.r.t. 1 S/C</text></g></g></svg>