<svg width="2203" height="980" xmlns="http://www.w3.org/2000/svg" xmlns:xlink="http://www.w3.org/1999/xlink" overflow="hidden"><defs><clipPath id="clip0"><rect x="0" y="0" width="2203" height="980"/></clipPath><clipPath id="clip1"><rect x="0" y="0" width="2203" height="979"/></clipPath><clipPath id="clip2"><rect x="253" y="50" width="1903" height="816"/></clipPath><clipPath id="clip3"><rect x="253" y="50" width="1903" height="816"/></clipPath><clipPath id="clip4"><rect x="253" y="50" width="1903" height="816"/></clipPath><clipPath id="clip5"><rect x="0" y="0" width="2203" height="979"/></clipPath><clipPath id="clip6"><rect x="0" y="0" width="2203" height="979"/></clipPath><clipPath id="clip7"><rect x="0" y="0" width="2203" height="979"/></clipPath><clipPath id="clip8"><rect x="0" y="0" width="2203" height="979"/></clipPath><clipPath id="clip9"><rect x="0" y="0" width="2203" height="979"/></clipPath><clipPath id="clip10"><rect x="0" y="0" width="2203" height="979"/></clipPath><clipPath id="clip11"><rect x="0" y="0" width="2203" height="979"/></clipPath><clipPath id="clip12"><rect x="0" y="0" width="2203" height="979"/></clipPath><clipPath id="clip13"><rect x="0" y="0" width="2203" height="979"/></clipPath><clipPath id="clip14"><rect x="0" y="0" width="2203" height="979"/></clipPath><clipPath id="clip15"><rect x="0" y="0" width="2203" height="979"/></clipPath><clipPath id="clip16"><rect x="0" y="0" width="2203" height="979"/></clipPath><clipPath id="clip17"><rect x="0" y="0" width="2203" height="979"/></clipPath><clipPath id="clip18"><rect x="0" y="0" width="2203" height="979"/></clipPath><clipPath id="clip19"><rect x="0" y="0" width="2203" height="979"/></clipPath><clipPath id="clip20"><rect x="0" y="0" width="2203" height="979"/></clipPath><clipPath id="clip21"><rect x="0" y="0" width="2203" height="979"/></clipPath><clipPath id="clip22"><rect x="0" y="0" width="2203" height="979"/></clipPath><clipPath id="clip23"><rect x="0" y="0" width="2203" height="979"/></clipPath><clipPath id="clip24"><rect x="0" y="0" width="2203" height="979"/></clipPath><clipPath id="clip25"><rect x="0" y="0" width="2203" height="979"/></clipPath><clipPath id="clip26"><rect x="0" y="0" width="2203" height="979"/></clipPath><clipPath id="clip27"><rect x="0" y="0" width="2203" height="979"/></clipPath><clipPath id="clip28"><rect x="0" y="0" width="2203" height="979"/></clipPath><clipPath id="clip29"><rect x="0" y="0" width="2203" height="979"/></clipPath><clipPath id="clip30"><rect x="0" y="0" width="2203" height="979"/></clipPath><clipPath id="clip31"><rect x="0" y="0" width="2203" height="979"/></clipPath><clipPath id="clip32"><rect x="0" y="0" width="2203" height="979"/></clipPath><clipPath id="clip33"><rect x="0" y="0" width="2203" height="979"/></clipPath><clipPath id="clip34"><rect x="0" y="0" width="2203" height="979"/></clipPath><clipPath id="clip35"><rect x="0" y="0" width="2203" height="979"/></clipPath><clipPath id="clip36"><rect x="0" y="0" width="2203" height="979"/></clipPath><clipPath id="clip37"><rect x="0" y="0" width="2203" height="979"/></clipPath><clipPath id="clip38"><rect x="0" y="0" width="2203" height="979"/></clipPath><clipPath id="clip39"><rect x="0" y="0" width="2203" height="979"/></clipPath><clipPath id="clip40"><rect x="0" y="0" width="2203" height="979"/></clipPath></defs><g clip-path="url(#clip0)"><g clip-path="url(#clip1)"><path d="M253.5 862.5 2153.5 862.5M253.5 781.526 2153.5 781.526M253.5 700.523 2153.5 700.523M253.5 619.521 2153.5 619.521M253.5 456.515 2153.5 456.515M253.5 375.512 2153.5 375.512M253.5 294.51 2153.5 294.51M253.5 212.507 2153.5 212.507M253.5 131.505 2153.5 131.505M253.5 50.5 2153.5 50.5" stroke="#D9D9D9" stroke-width="3.4375" stroke-linejoin="round" stroke-miterlimit="10" fill="none"/></g><g clip-path="url(#clip2)"><path d="M280.009 411.013 304.01 411.013 304.01 538.018 280.009 538.018ZM407.013 305.01 431.014 305.01 431.014 538.018 407.013 538.018ZM533.017 590.019 558.018 590.019 558.018 538.018 533.017 538.018ZM660.022 466.015 684.022 466.015 684.022 538.018 660.022 538.018ZM787.026 559.018 811.027 559.018 811.027 538.018 787.026 538.018ZM913.03 344.011 938.031 344.011 938.031 538.018 913.03 538.018ZM1040.03 497.016 1064.03 497.016 1064.03 538.018 1040.03 538.018ZM1166.04 364.012 1191.04 364.012 1191.04 538.018 1166.04 538.018ZM1293.04 435.014 1318.04 435.014 1318.04 538.018 1293.04 538.018ZM1420.05 808.026 1444.05 808.026 1444.05 538.018 1420.05 538.018ZM1546.05 502.016 1571.05 502.016 1571.05 538.018 1546.05 538.018ZM1673.05 554.018 1697.06 554.018 1697.06 538.018 1673.05 538.018ZM1800.06 468.015 1824.06 468.015 1824.06 538.018 1800.06 538.018ZM1926.06 684.022 1951.06 684.022 1951.06 538.018 1926.06 538.018ZM2053.07 353.012 2077.07 353.012 2077.07 538.018 2053.07 538.018Z" fill="#00A6D6"/></g><g clip-path="url(#clip3)"><path d="M304.01 262.009 329.011 262.009 329.011 538.018 304.01 538.018ZM431.014 533.017 455.015 533.017 455.015 538.018 431.014 538.018ZM558.018 396.013 582.019 396.013 582.019 538.018 558.018 538.018ZM684.022 299.01 709.023 299.01 709.023 538.018 684.022 538.018ZM811.027 559.018 835.027 559.018 835.027 538.018 811.027 538.018ZM938.031 408.013 962.032 408.013 962.032 538.018 938.031 538.018ZM1064.03 226.007 1089.04 226.007 1089.04 538.018 1064.03 538.018ZM1191.04 528.017 1215.04 528.017 1215.04 538.018 1191.04 538.018ZM1318.04 424.014 1342.04 424.014 1342.04 538.018 1318.04 538.018ZM1444.05 487.016 1469.05 487.016 1469.05 538.018 1444.05 538.018ZM1571.05 517.017 1595.05 517.017 1595.05 538.018 1571.05 538.018ZM1697.06 642.021 1722.06 642.021 1722.06 538.018 1697.06 538.018ZM1824.06 270.009 1849.06 270.009 1849.06 538.018 1824.06 538.018ZM1951.06 431.014 1975.06 431.014 1975.06 538.018 1951.06 538.018ZM2077.07 569.019 2102.07 569.019 2102.07 538.018 2077.07 538.018Z" fill="#017188"/></g><g clip-path="url(#clip4)"><path d="M329.011 676.022 353.012 676.022 353.012 538.018 329.011 538.018ZM455.015 450.015 480.016 450.015 480.016 538.018 455.015 538.018ZM582.019 424.014 606.02 424.014 606.02 538.018 582.019 538.018ZM709.023 431.014 733.024 431.014 733.024 538.018 709.023 538.018ZM835.027 331.011 860.028 331.011 860.028 538.018 835.027 538.018ZM962.032 364.012 986.032 364.012 986.032 538.018 962.032 538.018ZM1089.04 323.011 1113.04 323.011 1113.04 538.018 1089.04 538.018ZM1215.04 478.016 1240.04 478.016 1240.04 538.018 1215.04 538.018ZM1342.04 192.006 1366.04 192.006 1366.04 538.018 1342.04 538.018ZM1469.05 234.008 1493.05 234.008 1493.05 538.018 1469.05 538.018ZM1595.05 340.011 1620.05 340.011 1620.05 538.018 1595.05 538.018ZM1722.06 297.01 1746.06 297.01 1746.06 538.018 1722.06 538.018ZM1849.06 177.006 1873.06 177.006 1873.06 538.018 1849.06 538.018ZM1975.06 163.005 2000.07 163.005 2000.07 538.018 1975.06 538.018ZM2102.07 333.011 2126.07 333.011 2126.07 538.018 2102.07 538.018Z" fill="#EB7246"/></g><g clip-path="url(#clip5)"><path d="M253.5 537.5 2153.5 537.5" stroke="#D9D9D9" stroke-width="3.4375" stroke-linejoin="round" stroke-miterlimit="10" fill="none" fill-rule="evenodd"/></g><g clip-path="url(#clip6)"><text fill="#595959" font-family="Arial,Arial_MSFontService,sans-serif" font-weight="400" font-size="41" transform="matrix(1 0 0 1 123.75 876)">-0.04</text></g><g clip-path="url(#clip7)"><text fill="#595959" font-family="Arial,Arial_MSFontService,sans-serif" font-weight="400" font-size="41" transform="matrix(1 0 0 1 123.75 794)">-0.03</text></g><g clip-path="url(#clip8)"><text fill="#595959" font-family="Arial,Arial_MSFontService,sans-serif" font-weight="400" font-size="41" transform="matrix(1 0 0 1 123.75 713)">-0.02</text></g><g clip-path="url(#clip9)"><text fill="#595959" font-family="Arial,Arial_MSFontService,sans-serif" font-weight="400" font-size="41" transform="matrix(1 0 0 1 123.75 632)">-0.01</text></g><g clip-path="url(#clip10)"><text fill="#595959" font-family="Arial,Arial_MSFontService,sans-serif" font-weight="400" font-size="41" transform="matrix(1 0 0 1 194.815 551)">0</text></g><g clip-path="url(#clip11)"><text fill="#595959" font-family="Arial,Arial_MSFontService,sans-serif" font-weight="400" font-size="41" transform="matrix(1 0 0 1 137.477 469)">0.01</text></g><g clip-path="url(#clip12)"><text fill="#595959" font-family="Arial,Arial_MSFontService,sans-serif" font-weight="400" font-size="41" transform="matrix(1 0 0 1 137.477 388)">0.02</text></g><g clip-path="url(#clip13)"><text fill="#595959" font-family="Arial,Arial_MSFontService,sans-serif" font-weight="400" font-size="41" transform="matrix(1 0 0 1 137.477 307)">0.03</text></g><g clip-path="url(#clip14)"><text fill="#595959" font-family="Arial,Arial_MSFontService,sans-serif" font-weight="400" font-size="41" transform="matrix(1 0 0 1 137.477 226)">0.04</text></g><g clip-path="url(#clip15)"><text fill="#595959" font-family="Arial,Arial_MSFontService,sans-serif" font-weight="400" font-size="41" transform="matrix(1 0 0 1 137.477 144)">0.05</text></g><g clip-path="url(#clip16)"><text fill="#595959" font-family="Arial,Arial_MSFontService,sans-serif" font-weight="400" font-size="41" transform="matrix(1 0 0 1 137.477 63)">0.06</text></g><g clip-path="url(#clip17)"><text fill="#595959" font-family="Arial,Arial_MSFontService,sans-serif" font-weight="400" font-size="41" transform="matrix(1 0 0 1 305.086 600)">1</text></g><g clip-path="url(#clip18)"><text fill="#595959" font-family="Arial,Arial_MSFontService,sans-serif" font-weight="400" font-size="41" transform="matrix(1 0 0 1 431.739 600)">2</text></g><g clip-path="url(#clip19)"><text fill="#595959" font-family="Arial,Arial_MSFontService,sans-serif" font-weight="400" font-size="41" transform="matrix(1 0 0 1 558.392 600)">3</text></g><g clip-path="url(#clip20)"><text fill="#595959" font-family="Arial,Arial_MSFontService,sans-serif" font-weight="400" font-size="41" transform="matrix(1 0 0 1 685.044 600)">4</text></g><g clip-path="url(#clip21)"><text fill="#595959" font-family="Arial,Arial_MSFontService,sans-serif" font-weight="400" font-size="41" transform="matrix(1 0 0 1 811.697 600)">5</text></g><g clip-path="url(#clip22)"><text fill="#595959" font-family="Arial,Arial_MSFontService,sans-serif" font-weight="400" font-size="41" transform="matrix(1 0 0 1 938.35 600)">6</text></g><g clip-path="url(#clip23)"><text fill="#595959" font-family="Arial,Arial_MSFontService,sans-serif" font-weight="400" font-size="41" transform="matrix(1 0 0 1 1065 600)">7</text></g><g clip-path="url(#clip24)"><text fill="#595959" font-family="Arial,Arial_MSFontService,sans-serif" font-weight="400" font-size="41" transform="matrix(1 0 0 1 1191.66 600)">8</text></g><g clip-path="url(#clip25)"><text fill="#595959" font-family="Arial,Arial_MSFontService,sans-serif" font-weight="400" font-size="41" transform="matrix(1 0 0 1 1318.31 600)">9</text></g><g clip-path="url(#clip26)"><text fill="#595959" font-family="Arial,Arial_MSFontService,sans-serif" font-weight="400" font-size="41" transform="matrix(1 0 0 1 1433.49 600)">10</text></g><g clip-path="url(#clip27)"><text fill="#595959" font-family="Arial,Arial_MSFontService,sans-serif" font-weight="400" font-size="41" transform="matrix(1 0 0 1 1560.14 600)">11</text></g><g clip-path="url(#clip28)"><text fill="#595959" font-family="Arial,Arial_MSFontService,sans-serif" font-weight="400" font-size="41" transform="matrix(1 0 0 1 1686.8 600)">12</text></g><g clip-path="url(#clip29)"><text fill="#595959" font-family="Arial,Arial_MSFontService,sans-serif" font-weight="400" font-size="41" transform="matrix(1 0 0 1 1813.45 600)">13</text></g><g clip-path="url(#clip30)"><text fill="#595959" font-family="Arial,Arial_MSFontService,sans-serif" font-weight="400" font-size="41" transform="matrix(1 0 0 1 1940.1 600)">14</text></g><g clip-path="url(#clip31)"><text fill="#595959" font-family="Arial,Arial_MSFontService,sans-serif" font-weight="400" font-size="41" transform="matrix(1 0 0 1 2066.75 600)">15</text></g><g clip-path="url(#clip32)"><text fill="#595959" font-family="Arial,Arial_MSFontService,sans-serif" font-weight="400" font-size="46" transform="matrix(6.12323e-17 -1 1 6.12323e-17 100.284 524)">Overfit</text></g><g clip-path="url(#clip33)"><text fill="#595959" font-family="Arial,Arial_MSFontService,sans-serif" font-weight="400" font-size="46" transform="matrix(1 0 0 1 980.238 913)">Number of Spacecraft</text></g><g clip-path="url(#clip34)"><rect x="1607" y="697" width="562" height="229" fill="#FFFFFF"/></g><g clip-path="url(#clip35)"><rect x="1626" y="724" width="19.9999" height="20.9999" fill="#00A6D6"/></g><g clip-path="url(#clip36)"><text fill="#595959" font-family="Arial,Arial_MSFontService,sans-serif" font-weight="400" font-size="41" transform="matrix(1 0 0 1 1654.91 748)">Circular, co-orbital</text></g><g clip-path="url(#clip37)"><rect x="1626" y="801" width="19.9999" height="20.9999" fill="#017188"/></g><g clip-path="url(#clip38)"><text fill="#595959" font-family="Arial,Arial_MSFontService,sans-serif" font-weight="400" font-size="41" transform="matrix(1 0 0 1 1654.91 824)">Circular, non-co-orbital</text></g><g clip-path="url(#clip39)"><rect x="1626" y="878" width="19.9999" height="19.9999" fill="#EB7246"/></g><g clip-path="url(#clip40)"><text fill="#595959" font-family="Arial,Arial_MSFontService,sans-serif" font-weight="400" font-size="41" transform="matrix(1 0 0 1 1654.91 901)">Non-circular, non-co-orbital</text></g></g></svg>