<svg width="2204" height="979" xmlns="http://www.w3.org/2000/svg" xmlns:xlink="http://www.w3.org/1999/xlink" overflow="hidden"><defs><clipPath id="clip0"><rect x="-4" y="980" width="2204" height="979"/></clipPath><clipPath id="clip1"><rect x="-4" y="979" width="2204" height="980"/></clipPath><clipPath id="clip2"><rect x="258" y="1030" width="1895" height="738"/></clipPath><clipPath id="clip3"><rect x="258" y="1030" width="1895" height="738"/></clipPath><clipPath id="clip4"><rect x="258" y="1030" width="1895" height="738"/></clipPath><clipPath id="clip5"><rect x="-4" y="979" width="2204" height="980"/></clipPath><clipPath id="clip6"><rect x="-4" y="979" width="2204" height="980"/></clipPath><clipPath id="clip7"><rect x="-4" y="979" width="2204" height="980"/></clipPath><clipPath id="clip8"><rect x="-4" y="979" width="2204" height="980"/></clipPath><clipPath id="clip9"><rect x="-4" y="979" width="2204" height="980"/></clipPath><clipPath id="clip10"><rect x="-4" y="979" width="2204" height="980"/></clipPath><clipPath id="clip11"><rect x="-4" y="979" width="2204" height="980"/></clipPath><clipPath id="clip12"><rect x="-4" y="979" width="2204" height="980"/></clipPath><clipPath id="clip13"><rect x="-4" y="979" width="2204" height="980"/></clipPath><clipPath id="clip14"><rect x="-4" y="979" width="2204" height="980"/></clipPath><clipPath id="clip15"><rect x="-4" y="979" width="2204" height="980"/></clipPath><clipPath id="clip16"><rect x="-4" y="979" width="2204" height="980"/></clipPath><clipPath id="clip17"><rect x="-4" y="979" width="2204" height="980"/></clipPath><clipPath id="clip18"><rect x="-4" y="979" width="2204" height="980"/></clipPath><clipPath id="clip19"><rect x="-4" y="979" width="2204" height="980"/></clipPath><clipPath id="clip20"><rect x="-4" y="979" width="2204" height="980"/></clipPath><clipPath id="clip21"><rect x="-4" y="979" width="2204" height="980"/></clipPath><clipPath id="clip22"><rect x="-4" y="979" width="2204" height="980"/></clipPath><clipPath id="clip23"><rect x="-4" y="979" width="2204" height="980"/></clipPath><clipPath id="clip24"><rect x="-4" y="979" width="2204" height="980"/></clipPath><clipPath id="clip25"><rect x="-4" y="979" width="2204" height="980"/></clipPath><clipPath id="clip26"><rect x="-4" y="979" width="2204" height="980"/></clipPath><clipPath id="clip27"><rect x="-4" y="979" width="2204" height="980"/></clipPath><clipPath id="clip28"><rect x="-4" y="979" width="2204" height="980"/></clipPath><clipPath id="clip29"><rect x="-4" y="979" width="2204" height="980"/></clipPath><clipPath id="clip30"><rect x="-4" y="979" width="2204" height="980"/></clipPath><clipPath id="clip31"><rect x="-4" y="979" width="2204" height="980"/></clipPath><clipPath id="clip32"><rect x="-4" y="979" width="2204" height="980"/></clipPath><clipPath id="clip33"><rect x="-4" y="979" width="2204" height="980"/></clipPath><clipPath id="clip34"><rect x="-4" y="979" width="2204" height="980"/></clipPath><clipPath id="clip35"><rect x="-4" y="979" width="2204" height="980"/></clipPath><clipPath id="clip36"><rect x="-4" y="979" width="2204" height="980"/></clipPath><clipPath id="clip37"><rect x="-4" y="979" width="2204" height="980"/></clipPath><clipPath id="clip38"><rect x="-4" y="979" width="2204" height="980"/></clipPath></defs><g clip-path="url(#clip0)" transform="translate(4 -980)"><g clip-path="url(#clip1)"><path d="M258.5 1672.56 2149.5 1672.56M258.5 1580.55 2149.5 1580.55M258.5 1489.55 2149.5 1489.55M258.5 1397.55 2149.5 1397.55M258.5 1305.54 2149.5 1305.54M258.5 1213.54 2149.5 1213.54M258.5 1121.54 2149.5 1121.54M258.5 1030.5 2149.5 1030.5" stroke="#D9D9D9" stroke-width="3.4375" stroke-linejoin="round" stroke-miterlimit="10" fill="none"/></g><g clip-path="url(#clip2)"><path d="M285.009 1478.05 309.01 1478.05 309.01 1765 285.009 1765ZM411.013 1359.04 435.014 1359.04 435.014 1765 411.013 1765ZM537.018 1533.05 561.018 1533.05 561.018 1765 537.018 1765ZM663.022 1551.05 687.023 1551.05 687.023 1765 663.022 1765ZM789.026 1603.05 814.027 1603.05 814.027 1765 789.026 1765ZM915.03 1557.05 940.031 1557.05 940.031 1765 915.03 1765ZM1041.03 1574.05 1066.03 1574.05 1066.03 1765 1041.03 1765ZM1167.04 1548.05 1192.04 1548.05 1192.04 1765 1167.04 1765ZM1294.04 1547.05 1318.04 1547.05 1318.04 1765 1294.04 1765ZM1420.05 1629.05 1444.05 1629.05 1444.05 1765 1420.05 1765ZM1546.05 1634.05 1570.05 1634.05 1570.05 1765 1546.05 1765ZM1672.05 1648.05 1696.06 1648.05 1696.06 1765 1672.05 1765ZM1798.06 1645.05 1822.06 1645.05 1822.06 1765 1798.06 1765ZM1924.06 1677.06 1948.06 1677.06 1948.06 1765 1924.06 1765ZM2050.07 1655.05 2074.07 1655.05 2074.07 1765 2050.07 1765Z" fill="#00A6D6"/></g><g clip-path="url(#clip3)"><path d="M309.01 1140.04 333.011 1140.04 333.011 1765 309.01 1765ZM435.014 1447.05 460.015 1447.05 460.015 1765 435.014 1765ZM561.018 1446.05 586.019 1446.05 586.019 1765 561.018 1765ZM687.023 1391.05 712.023 1391.05 712.023 1765 687.023 1765ZM814.027 1475.05 838.027 1475.05 838.027 1765 814.027 1765ZM940.031 1474.05 964.032 1474.05 964.032 1765 940.031 1765ZM1066.03 1415.05 1090.04 1415.05 1090.04 1765 1066.03 1765ZM1192.04 1456.05 1216.04 1456.05 1216.04 1765 1192.04 1765ZM1318.04 1462.05 1342.04 1462.05 1342.04 1765 1318.04 1765ZM1444.05 1481.05 1468.05 1481.05 1468.05 1765 1444.05 1765ZM1570.05 1502.05 1594.05 1502.05 1594.05 1765 1570.05 1765ZM1696.06 1544.05 1720.06 1544.05 1720.06 1765 1696.06 1765ZM1822.06 1514.05 1846.06 1514.05 1846.06 1765 1822.06 1765ZM1948.06 1515.05 1973.06 1515.05 1973.06 1765 1948.06 1765ZM2074.07 1536.05 2099.07 1536.05 2099.07 1765 2074.07 1765Z" fill="#017188"/></g><g clip-path="url(#clip4)"><path d="M333.011 2077 358.012 2077 358.012 1765.06 333.011 1765.06ZM460.015 1822.06 484.016 1822.06 484.016 1765.06 460.015 1765.06ZM586.019 1717.06 610.02 1717.06 610.02 1765.06 586.019 1765.06ZM712.023 1668.05 736.024 1668.05 736.024 1765.06 712.023 1765.06ZM838.027 1594.05 862.028 1594.05 862.028 1765.06 838.027 1765.06ZM964.032 1557.05 988.032 1557.05 988.032 1765.06 964.032 1765.06ZM1090.04 1517.05 1114.04 1517.05 1114.04 1765.06 1090.04 1765.06ZM1216.04 1531.05 1240.04 1531.05 1240.04 1765.06 1216.04 1765.06ZM1342.04 1470.05 1366.04 1470.05 1366.04 1765.06 1342.04 1765.06ZM1468.05 1431.05 1493.05 1431.05 1493.05 1765.06 1468.05 1765.06ZM1594.05 1421.05 1619.05 1421.05 1619.05 1765.06 1594.05 1765.06ZM1720.06 1404.05 1745.06 1404.05 1745.06 1765.06 1720.06 1765.06ZM1846.06 1369.04 1871.06 1369.04 1871.06 1765.06 1846.06 1765.06ZM1973.06 1337.04 1997.07 1337.04 1997.07 1765.06 1973.06 1765.06ZM2099.07 1334.04 2123.07 1334.04 2123.07 1765.06 2099.07 1765.06Z" fill="#EB7246"/></g><g clip-path="url(#clip5)"><path d="M258.5 1764.5 2149.5 1764.5" stroke="#D9D9D9" stroke-width="3.4375" stroke-linejoin="round" stroke-miterlimit="10" fill="none" fill-rule="evenodd"/></g><g clip-path="url(#clip6)"><text fill="#595959" font-family="Arial,Arial_MSFontService,sans-serif" font-weight="400" font-size="41" transform="matrix(1 0 0 1 199.903 1777)">0</text></g><g clip-path="url(#clip7)"><text fill="#595959" font-family="Arial,Arial_MSFontService,sans-serif" font-weight="400" font-size="41" transform="matrix(1 0 0 1 119.625 1686)">0.005</text></g><g clip-path="url(#clip8)"><text fill="#595959" font-family="Arial,Arial_MSFontService,sans-serif" font-weight="400" font-size="41" transform="matrix(1 0 0 1 142.565 1594)">0.01</text></g><g clip-path="url(#clip9)"><text fill="#595959" font-family="Arial,Arial_MSFontService,sans-serif" font-weight="400" font-size="41" transform="matrix(1 0 0 1 119.625 1502)">0.015</text></g><g clip-path="url(#clip10)"><text fill="#595959" font-family="Arial,Arial_MSFontService,sans-serif" font-weight="400" font-size="41" transform="matrix(1 0 0 1 142.565 1410)">0.02</text></g><g clip-path="url(#clip11)"><text fill="#595959" font-family="Arial,Arial_MSFontService,sans-serif" font-weight="400" font-size="41" transform="matrix(1 0 0 1 119.625 1318)">0.025</text></g><g clip-path="url(#clip12)"><text fill="#595959" font-family="Arial,Arial_MSFontService,sans-serif" font-weight="400" font-size="41" transform="matrix(1 0 0 1 142.565 1227)">0.03</text></g><g clip-path="url(#clip13)"><text fill="#595959" font-family="Arial,Arial_MSFontService,sans-serif" font-weight="400" font-size="41" transform="matrix(1 0 0 1 119.625 1135)">0.035</text></g><g clip-path="url(#clip14)"><text fill="#595959" font-family="Arial,Arial_MSFontService,sans-serif" font-weight="400" font-size="41" transform="matrix(1 0 0 1 142.565 1043)">0.04</text></g><g clip-path="url(#clip15)"><text fill="#595959" font-family="Arial,Arial_MSFontService,sans-serif" font-weight="400" font-size="41" transform="matrix(1 0 0 1 309.89 1827)">1</text></g><g clip-path="url(#clip16)"><text fill="#595959" font-family="Arial,Arial_MSFontService,sans-serif" font-weight="400" font-size="41" transform="matrix(1 0 0 1 435.974 1827)">2</text></g><g clip-path="url(#clip17)"><text fill="#595959" font-family="Arial,Arial_MSFontService,sans-serif" font-weight="400" font-size="41" transform="matrix(1 0 0 1 562.058 1827)">3</text></g><g clip-path="url(#clip18)"><text fill="#595959" font-family="Arial,Arial_MSFontService,sans-serif" font-weight="400" font-size="41" transform="matrix(1 0 0 1 688.143 1827)">4</text></g><g clip-path="url(#clip19)"><text fill="#595959" font-family="Arial,Arial_MSFontService,sans-serif" font-weight="400" font-size="41" transform="matrix(1 0 0 1 814.227 1827)">5</text></g><g clip-path="url(#clip20)"><text fill="#595959" font-family="Arial,Arial_MSFontService,sans-serif" font-weight="400" font-size="41" transform="matrix(1 0 0 1 940.312 1827)">6</text></g><g clip-path="url(#clip21)"><text fill="#595959" font-family="Arial,Arial_MSFontService,sans-serif" font-weight="400" font-size="41" transform="matrix(1 0 0 1 1066.4 1827)">7</text></g><g clip-path="url(#clip22)"><text fill="#595959" font-family="Arial,Arial_MSFontService,sans-serif" font-weight="400" font-size="41" transform="matrix(1 0 0 1 1192.48 1827)">8</text></g><g clip-path="url(#clip23)"><text fill="#595959" font-family="Arial,Arial_MSFontService,sans-serif" font-weight="400" font-size="41" transform="matrix(1 0 0 1 1318.56 1827)">9</text></g><g clip-path="url(#clip24)"><text fill="#595959" font-family="Arial,Arial_MSFontService,sans-serif" font-weight="400" font-size="41" transform="matrix(1 0 0 1 1433.18 1827)">10</text></g><g clip-path="url(#clip25)"><text fill="#595959" font-family="Arial,Arial_MSFontService,sans-serif" font-weight="400" font-size="41" transform="matrix(1 0 0 1 1559.26 1827)">11</text></g><g clip-path="url(#clip26)"><text fill="#595959" font-family="Arial,Arial_MSFontService,sans-serif" font-weight="400" font-size="41" transform="matrix(1 0 0 1 1685.35 1827)">12</text></g><g clip-path="url(#clip27)"><text fill="#595959" font-family="Arial,Arial_MSFontService,sans-serif" font-weight="400" font-size="41" transform="matrix(1 0 0 1 1811.43 1827)">13</text></g><g clip-path="url(#clip28)"><text fill="#595959" font-family="Arial,Arial_MSFontService,sans-serif" font-weight="400" font-size="41" transform="matrix(1 0 0 1 1937.52 1827)">14</text></g><g clip-path="url(#clip29)"><text fill="#595959" font-family="Arial,Arial_MSFontService,sans-serif" font-weight="400" font-size="41" transform="matrix(1 0 0 1 2063.6 1827)">15</text></g><g clip-path="url(#clip30)"><text fill="#595959" font-family="Arial,Arial_MSFontService,sans-serif" font-weight="400" font-size="46" transform="matrix(6.12323e-17 -1 1 6.12323e-17 96.1587 1678)">Cumulative Average Overfit</text></g><g clip-path="url(#clip31)"><text fill="#595959" font-family="Arial,Arial_MSFontService,sans-serif" font-weight="400" font-size="46" transform="matrix(1 0 0 1 981.063 1892)">Number of Spacecraft</text></g><g clip-path="url(#clip32)"><rect x="1571" y="1021" width="585" height="229" fill="#FFFFFF"/></g><g clip-path="url(#clip33)"><rect x="1601" y="1049" width="21.0004" height="19.9999" fill="#00A6D6"/></g><g clip-path="url(#clip34)"><text fill="#595959" font-family="Arial,Arial_MSFontService,sans-serif" font-weight="400" font-size="41" transform="matrix(1 0 0 1 1630.74 1072)">Circular, co-orbital</text></g><g clip-path="url(#clip35)"><rect x="1601" y="1125" width="21.0004" height="21" fill="#017188"/></g><g clip-path="url(#clip36)"><text fill="#595959" font-family="Arial,Arial_MSFontService,sans-serif" font-weight="400" font-size="41" transform="matrix(1 0 0 1 1630.74 1148)">Circular, non-co-orbital</text></g><g clip-path="url(#clip37)"><rect x="1601" y="1202" width="21.0004" height="21" fill="#EB7246"/></g><g clip-path="url(#clip38)"><text fill="#595959" font-family="Arial,Arial_MSFontService,sans-serif" font-weight="400" font-size="41" transform="matrix(1 0 0 1 1630.74 1225)">Non-circular, non-co-orbital</text></g></g></svg>