<svg width="2203" height="980" xmlns="http://www.w3.org/2000/svg" xmlns:xlink="http://www.w3.org/1999/xlink" overflow="hidden"><defs><clipPath id="clip0"><rect x="0" y="0" width="2203" height="980"/></clipPath><clipPath id="clip1"><rect x="0" y="0" width="2203" height="979"/></clipPath><clipPath id="clip2"><rect x="241" y="50" width="1915" height="738"/></clipPath><clipPath id="clip3"><rect x="241" y="50" width="1915" height="738"/></clipPath><clipPath id="clip4"><rect x="241" y="50" width="1915" height="738"/></clipPath><clipPath id="clip5"><rect x="0" y="0" width="2203" height="979"/></clipPath><clipPath id="clip6"><rect x="0" y="0" width="2203" height="979"/></clipPath><clipPath id="clip7"><rect x="0" y="0" width="2203" height="979"/></clipPath><clipPath id="clip8"><rect x="0" y="0" width="2203" height="979"/></clipPath><clipPath id="clip9"><rect x="0" y="0" width="2203" height="979"/></clipPath><clipPath id="clip10"><rect x="0" y="0" width="2203" height="979"/></clipPath><clipPath id="clip11"><rect x="0" y="0" width="2203" height="979"/></clipPath><clipPath id="clip12"><rect x="0" y="0" width="2203" height="979"/></clipPath><clipPath id="clip13"><rect x="0" y="0" width="2203" height="979"/></clipPath><clipPath id="clip14"><rect x="0" y="0" width="2203" height="979"/></clipPath><clipPath id="clip15"><rect x="0" y="0" width="2203" height="979"/></clipPath><clipPath id="clip16"><rect x="0" y="0" width="2203" height="979"/></clipPath><clipPath id="clip17"><rect x="0" y="0" width="2203" height="979"/></clipPath><clipPath id="clip18"><rect x="0" y="0" width="2203" height="979"/></clipPath><clipPath id="clip19"><rect x="0" y="0" width="2203" height="979"/></clipPath><clipPath id="clip20"><rect x="0" y="0" width="2203" height="979"/></clipPath><clipPath id="clip21"><rect x="0" y="0" width="2203" height="979"/></clipPath><clipPath id="clip22"><rect x="0" y="0" width="2203" height="979"/></clipPath><clipPath id="clip23"><rect x="0" y="0" width="2203" height="979"/></clipPath><clipPath id="clip24"><rect x="0" y="0" width="2203" height="979"/></clipPath><clipPath id="clip25"><rect x="0" y="0" width="2203" height="979"/></clipPath><clipPath id="clip26"><rect x="0" y="0" width="2203" height="979"/></clipPath><clipPath id="clip27"><rect x="0" y="0" width="2203" height="979"/></clipPath><clipPath id="clip28"><rect x="0" y="0" width="2203" height="979"/></clipPath><clipPath id="clip29"><rect x="0" y="0" width="2203" height="979"/></clipPath><clipPath id="clip30"><rect x="0" y="0" width="2203" height="979"/></clipPath><clipPath id="clip31"><rect x="0" y="0" width="2203" height="979"/></clipPath><clipPath id="clip32"><rect x="0" y="0" width="2203" height="979"/></clipPath><clipPath id="clip33"><rect x="0" y="0" width="2203" height="979"/></clipPath><clipPath id="clip34"><rect x="0" y="0" width="2203" height="979"/></clipPath><clipPath id="clip35"><rect x="0" y="0" width="2203" height="979"/></clipPath><clipPath id="clip36"><rect x="0" y="0" width="2203" height="979"/></clipPath></defs><g clip-path="url(#clip0)"><g clip-path="url(#clip1)"><path d="M241.5 662.522 2153.5 662.522M241.5 540.518 2153.5 540.518M241.5 417.514 2153.5 417.514M241.5 295.51 2153.5 295.51M241.5 172.506 2153.5 172.506M241.5 50.5 2153.5 50.5" stroke="#D9D9D9" stroke-width="3.4375" stroke-linejoin="round" stroke-miterlimit="10" fill="none"/></g><g clip-path="url(#clip2)"><path d="M266.009 520.017 288.009 520.017 288.009 785 266.009 785ZM394.013 417.014 416.014 417.014 416.014 785 394.013 785ZM521.017 378.012 543.018 378.012 543.018 785 521.017 785ZM648.021 323.011 671.022 323.011 671.022 785 648.021 785ZM776.025 279.009 798.026 279.009 798.026 785 776.025 785ZM903.03 284.009 925.03 284.009 925.03 785 903.03 785ZM1031.03 244.008 1053.03 244.008 1053.03 785 1031.03 785ZM1158.04 235.008 1180.04 235.008 1180.04 785 1158.04 785ZM1285.04 207.007 1308.04 207.007 1308.04 785 1285.04 785ZM1413.05 176.006 1435.05 176.006 1435.05 785 1413.05 785ZM1540.05 183.006 1562.05 183.006 1562.05 785 1540.05 785ZM1668.05 161.005 1690.06 161.005 1690.06 785 1668.05 785ZM1795.06 165.005 1817.06 165.005 1817.06 785 1795.06 785ZM1922.06 131.004 1945.06 131.004 1945.06 785 1922.06 785ZM2050.07 132.004 2072.07 132.004 2072.07 785 2050.07 785Z" fill="#00A6D6"/></g><g clip-path="url(#clip3)"><path d="M294.01 508.017 317.01 508.017 317.01 785 294.01 785ZM422.014 422.014 444.015 422.014 444.015 785 422.014 785ZM549.018 359.012 571.019 359.012 571.019 785 549.018 785ZM677.022 328.011 699.023 328.011 699.023 785 677.022 785ZM804.026 308.01 826.027 308.01 826.027 785 804.026 785ZM931.031 276.009 954.031 276.009 954.031 785 931.031 785ZM1059.03 279.009 1081.04 279.009 1081.04 785 1059.03 785ZM1186.04 233.008 1208.04 233.008 1208.04 785 1186.04 785ZM1314.04 227.007 1336.04 227.007 1336.04 785 1314.04 785ZM1441.05 223.007 1463.05 223.007 1463.05 785 1441.05 785ZM1568.05 199.007 1591.05 199.007 1591.05 785 1568.05 785ZM1696.06 194.006 1718.06 194.006 1718.06 785 1696.06 785ZM1823.06 202.007 1846.06 202.007 1846.06 785 1823.06 785ZM1951.06 194.006 1973.06 194.006 1973.06 785 1951.06 785ZM2078.07 155.005 2100.07 155.005 2100.07 785 2078.07 785Z" fill="#017188"/></g><g clip-path="url(#clip4)"><path d="M323.011 508.017 345.011 508.017 345.011 785 323.011 785ZM450.015 409.013 472.016 409.013 472.016 785 450.015 785ZM577.019 393.013 600.02 393.013 600.02 785 577.019 785ZM705.023 336.011 727.024 336.011 727.024 785 705.023 785ZM832.027 330.011 854.028 330.011 854.028 785 832.027 785ZM960.031 310.01 982.032 310.01 982.032 785 960.031 785ZM1087.04 276.009 1109.04 276.009 1109.04 785 1087.04 785ZM1214.04 276.009 1237.04 276.009 1237.04 785 1214.04 785ZM1342.04 297.01 1364.04 297.01 1364.04 785 1342.04 785ZM1469.05 261.009 1492.05 261.009 1492.05 785 1469.05 785ZM1597.05 288.009 1619.05 288.009 1619.05 785 1597.05 785ZM1724.06 253.008 1746.06 253.008 1746.06 785 1724.06 785ZM1852.06 249.008 1874.06 249.008 1874.06 785 1852.06 785ZM1979.06 187.006 2001.07 187.006 2001.07 785 1979.06 785ZM2106.07 187.006 2129.07 187.006 2129.07 785 2106.07 785Z" fill="#EB7246"/></g><g clip-path="url(#clip5)"><path d="M241.5 784.5 2153.5 784.5" stroke="#D9D9D9" stroke-width="3.4375" stroke-linejoin="round" stroke-miterlimit="10" fill="none" fill-rule="evenodd"/></g><g clip-path="url(#clip6)"><text fill="#595959" font-family="Arial,Arial_MSFontService,sans-serif" font-weight="400" font-size="41" transform="matrix(1 0 0 1 146.69 798)">0%</text></g><g clip-path="url(#clip7)"><text fill="#595959" font-family="Arial,Arial_MSFontService,sans-serif" font-weight="400" font-size="41" transform="matrix(1 0 0 1 123.75 675)">10%</text></g><g clip-path="url(#clip8)"><text fill="#595959" font-family="Arial,Arial_MSFontService,sans-serif" font-weight="400" font-size="41" transform="matrix(1 0 0 1 123.75 553)">20%</text></g><g clip-path="url(#clip9)"><text fill="#595959" font-family="Arial,Arial_MSFontService,sans-serif" font-weight="400" font-size="41" transform="matrix(1 0 0 1 123.75 430)">30%</text></g><g clip-path="url(#clip10)"><text fill="#595959" font-family="Arial,Arial_MSFontService,sans-serif" font-weight="400" font-size="41" transform="matrix(1 0 0 1 123.75 308)">40%</text></g><g clip-path="url(#clip11)"><text fill="#595959" font-family="Arial,Arial_MSFontService,sans-serif" font-weight="400" font-size="41" transform="matrix(1 0 0 1 123.75 186)">50%</text></g><g clip-path="url(#clip12)"><text fill="#595959" font-family="Arial,Arial_MSFontService,sans-serif" font-weight="400" font-size="41" transform="matrix(1 0 0 1 123.75 63)">60%</text></g><g clip-path="url(#clip13)"><text fill="#595959" font-family="Arial,Arial_MSFontService,sans-serif" font-weight="400" font-size="41" transform="matrix(1 0 0 1 294.01 847)">1</text></g><g clip-path="url(#clip14)"><text fill="#595959" font-family="Arial,Arial_MSFontService,sans-serif" font-weight="400" font-size="41" transform="matrix(1 0 0 1 421.426 847)">2</text></g><g clip-path="url(#clip15)"><text fill="#595959" font-family="Arial,Arial_MSFontService,sans-serif" font-weight="400" font-size="41" transform="matrix(1 0 0 1 548.843 847)">3</text></g><g clip-path="url(#clip16)"><text fill="#595959" font-family="Arial,Arial_MSFontService,sans-serif" font-weight="400" font-size="41" transform="matrix(1 0 0 1 676.26 847)">4</text></g><g clip-path="url(#clip17)"><text fill="#595959" font-family="Arial,Arial_MSFontService,sans-serif" font-weight="400" font-size="41" transform="matrix(1 0 0 1 803.676 847)">5</text></g><g clip-path="url(#clip18)"><text fill="#595959" font-family="Arial,Arial_MSFontService,sans-serif" font-weight="400" font-size="41" transform="matrix(1 0 0 1 931.093 847)">6</text></g><g clip-path="url(#clip19)"><text fill="#595959" font-family="Arial,Arial_MSFontService,sans-serif" font-weight="400" font-size="41" transform="matrix(1 0 0 1 1058.51 847)">7</text></g><g clip-path="url(#clip20)"><text fill="#595959" font-family="Arial,Arial_MSFontService,sans-serif" font-weight="400" font-size="41" transform="matrix(1 0 0 1 1185.93 847)">8</text></g><g clip-path="url(#clip21)"><text fill="#595959" font-family="Arial,Arial_MSFontService,sans-serif" font-weight="400" font-size="41" transform="matrix(1 0 0 1 1313.34 847)">9</text></g><g clip-path="url(#clip22)"><text fill="#595959" font-family="Arial,Arial_MSFontService,sans-serif" font-weight="400" font-size="41" transform="matrix(1 0 0 1 1429.29 847)">10</text></g><g clip-path="url(#clip23)"><text fill="#595959" font-family="Arial,Arial_MSFontService,sans-serif" font-weight="400" font-size="41" transform="matrix(1 0 0 1 1556.71 847)">11</text></g><g clip-path="url(#clip24)"><text fill="#595959" font-family="Arial,Arial_MSFontService,sans-serif" font-weight="400" font-size="41" transform="matrix(1 0 0 1 1684.12 847)">12</text></g><g clip-path="url(#clip25)"><text fill="#595959" font-family="Arial,Arial_MSFontService,sans-serif" font-weight="400" font-size="41" transform="matrix(1 0 0 1 1811.54 847)">13</text></g><g clip-path="url(#clip26)"><text fill="#595959" font-family="Arial,Arial_MSFontService,sans-serif" font-weight="400" font-size="41" transform="matrix(1 0 0 1 1938.96 847)">14</text></g><g clip-path="url(#clip27)"><text fill="#595959" font-family="Arial,Arial_MSFontService,sans-serif" font-weight="400" font-size="41" transform="matrix(1 0 0 1 2066.37 847)">15</text></g><g clip-path="url(#clip28)"><text fill="#595959" font-family="Arial,Arial_MSFontService,sans-serif" font-weight="400" font-size="46" transform="matrix(6.12323e-17 -1 1 6.12323e-17 100.284 604)">Completeness [%]</text></g><g clip-path="url(#clip29)"><text fill="#595959" font-family="Arial,Arial_MSFontService,sans-serif" font-weight="400" font-size="46" transform="matrix(1 0 0 1 974.508 913)">Number of Spacecraft</text></g><g clip-path="url(#clip30)"><rect x="1524" y="562" width="626" height="230" fill="#FFFFFF"/></g><g clip-path="url(#clip31)"><rect x="1575" y="590" width="19.9999" height="20.9999" fill="#00A6D6"/></g><g clip-path="url(#clip32)"><text fill="#595959" font-family="Arial,Arial_MSFontService,sans-serif" font-weight="400" font-size="41" transform="matrix(1 0 0 1 1604.09 613)">Circular, co-orbital</text></g><g clip-path="url(#clip33)"><rect x="1575" y="667" width="19.9999" height="20.0003" fill="#017188"/></g><g clip-path="url(#clip34)"><text fill="#595959" font-family="Arial,Arial_MSFontService,sans-serif" font-weight="400" font-size="41" transform="matrix(1 0 0 1 1604.09 690)">Circular, non-co-orbital</text></g><g clip-path="url(#clip35)"><rect x="1575" y="743" width="19.9999" height="21.0003" fill="#EB7246"/></g><g clip-path="url(#clip36)"><text fill="#595959" font-family="Arial,Arial_MSFontService,sans-serif" font-weight="400" font-size="41" transform="matrix(1 0 0 1 1604.09 766)">Non-circular, non-co-orbital</text></g></g></svg>