<svg width="2200" height="980" xmlns="http://www.w3.org/2000/svg" xmlns:xlink="http://www.w3.org/1999/xlink" overflow="hidden"><defs><clipPath id="clip0"><rect x="0" y="0" width="2200" height="980"/></clipPath><clipPath id="clip1"><rect x="0" y="0" width="2200" height="979"/></clipPath><clipPath id="clip2"><rect x="0" y="0" width="2200" height="979"/></clipPath><clipPath id="clip3"><rect x="0" y="0" width="2200" height="979"/></clipPath><clipPath id="clip4"><rect x="0" y="0" width="2200" height="979"/></clipPath><clipPath id="clip5"><rect x="0" y="0" width="2200" height="979"/></clipPath><clipPath id="clip6"><rect x="0" y="0" width="2200" height="979"/></clipPath><clipPath id="clip7"><rect x="216" y="50" width="1444" height="738"/></clipPath><clipPath id="clip8"><rect x="0" y="0" width="2200" height="979"/></clipPath><clipPath id="clip9"><rect x="216" y="50" width="1444" height="738"/></clipPath><clipPath id="clip10"><rect x="0" y="0" width="2200" height="979"/></clipPath><clipPath id="clip11"><rect x="0" y="0" width="2200" height="979"/></clipPath><clipPath id="clip12"><rect x="0" y="0" width="2200" height="979"/></clipPath><clipPath id="clip13"><rect x="0" y="0" width="2200" height="979"/></clipPath><clipPath id="clip14"><rect x="0" y="0" width="2200" height="979"/></clipPath><clipPath id="clip15"><rect x="0" y="0" width="2200" height="979"/></clipPath><clipPath id="clip16"><rect x="0" y="0" width="2200" height="979"/></clipPath><clipPath id="clip17"><rect x="0" y="0" width="2200" height="979"/></clipPath><clipPath id="clip18"><rect x="0" y="0" width="2200" height="979"/></clipPath><clipPath id="clip19"><rect x="0" y="0" width="2200" height="979"/></clipPath><clipPath id="clip20"><rect x="0" y="0" width="2200" height="979"/></clipPath><clipPath id="clip21"><rect x="0" y="0" width="2200" height="979"/></clipPath><clipPath id="clip22"><rect x="0" y="0" width="2200" height="979"/></clipPath><clipPath id="clip23"><rect x="0" y="0" width="2200" height="979"/></clipPath><clipPath id="clip24"><rect x="0" y="0" width="2200" height="979"/></clipPath><clipPath id="clip25"><rect x="0" y="0" width="2200" height="979"/></clipPath><clipPath id="clip26"><rect x="0" y="0" width="2200" height="979"/></clipPath><clipPath id="clip27"><rect x="0" y="0" width="2200" height="979"/></clipPath><clipPath id="clip28"><rect x="0" y="0" width="2200" height="979"/></clipPath><clipPath id="clip29"><rect x="0" y="0" width="2200" height="979"/></clipPath><clipPath id="clip30"><rect x="0" y="0" width="2200" height="979"/></clipPath><clipPath id="clip31"><rect x="0" y="0" width="2200" height="979"/></clipPath><clipPath id="clip32"><rect x="0" y="0" width="2200" height="979"/></clipPath><clipPath id="clip33"><rect x="0" y="0" width="2200" height="979"/></clipPath><clipPath id="clip34"><rect x="0" y="0" width="2200" height="979"/></clipPath><clipPath id="clip35"><rect x="0" y="0" width="2200" height="979"/></clipPath><clipPath id="clip36"><rect x="0" y="0" width="2200" height="979"/></clipPath><clipPath id="clip37"><rect x="0" y="0" width="2200" height="979"/></clipPath><clipPath id="clip38"><rect x="0" y="0" width="2200" height="979"/></clipPath><clipPath id="clip39"><rect x="0" y="0" width="2200" height="979"/></clipPath><clipPath id="clip40"><rect x="0" y="0" width="2200" height="979"/></clipPath><clipPath id="clip41"><rect x="0" y="0" width="2200" height="979"/></clipPath><clipPath id="clip42"><rect x="0" y="0" width="2200" height="979"/></clipPath><clipPath id="clip43"><rect x="0" y="0" width="2200" height="979"/></clipPath><clipPath id="clip44"><rect x="0" y="0" width="2200" height="979"/></clipPath></defs><g clip-path="url(#clip0)"><g clip-path="url(#clip1)"><path d="M216.5 693.523 1656.5 693.523M216.5 601.52 1656.5 601.52M216.5 509.517 1656.5 509.517M216.5 417.514 1656.5 417.514M216.5 325.511 1656.5 325.511M216.5 234.508 1656.5 234.508M216.5 142.505 1656.5 142.505M216.5 50.5 1656.5 50.5" stroke="#D9D9D9" stroke-width="3.4375" stroke-linejoin="round" stroke-miterlimit="10" fill="none"/></g><g clip-path="url(#clip2)"><path d="M216.5 784.5 1656.5 784.5" stroke="#D9D9D9" stroke-width="3.4375" stroke-linejoin="round" stroke-miterlimit="10" fill="none" fill-rule="evenodd"/></g><g clip-path="url(#clip3)"><path d="M205.5 599.5 227.499 599.5 227.499 603.5 205.5 603.5Z" stroke="#007DA0" stroke-width="3.4375" stroke-linejoin="round" stroke-miterlimit="10" fill="#007DA0"/><path d="M308.5 543.5 330.499 543.5 330.499 547.5 308.5 547.5Z" stroke="#007DA0" stroke-width="3.4375" stroke-linejoin="round" stroke-miterlimit="10" fill="#007DA0"/><path d="M411.5 559.5 433.499 559.5 433.499 563.5 411.5 563.5Z" stroke="#007DA0" stroke-width="3.4375" stroke-linejoin="round" stroke-miterlimit="10" fill="#007DA0"/><path d="M514.5 403.5 536.499 403.5 536.499 407.5 514.5 407.5Z" stroke="#007DA0" stroke-width="3.4375" stroke-linejoin="round" stroke-miterlimit="10" fill="#007DA0"/><path d="M617.5 423.5 639.499 423.5 639.499 427.5 617.5 427.5Z" stroke="#007DA0" stroke-width="3.4375" stroke-linejoin="round" stroke-miterlimit="10" fill="#007DA0"/><path d="M719.5 375.5 741.499 375.5 741.499 379.5 719.5 379.5Z" stroke="#007DA0" stroke-width="3.4375" stroke-linejoin="round" stroke-miterlimit="10" fill="#007DA0"/><path d="M822.5 324.5 844.499 324.5 844.499 328.5 822.5 328.5Z" stroke="#007DA0" stroke-width="3.4375" stroke-linejoin="round" stroke-miterlimit="10" fill="#007DA0"/><path d="M925.5 353.5 947.499 353.5 947.499 357.5 925.5 357.5Z" stroke="#007DA0" stroke-width="3.4375" stroke-linejoin="round" stroke-miterlimit="10" fill="#007DA0"/><path d="M1028.5 332.5 1050.5 332.5 1050.5 336.5 1028.5 336.5Z" stroke="#007DA0" stroke-width="3.4375" stroke-linejoin="round" stroke-miterlimit="10" fill="#007DA0"/><path d="M1131.5 401.5 1153.5 401.5 1153.5 405.5 1131.5 405.5Z" stroke="#007DA0" stroke-width="3.4375" stroke-linejoin="round" stroke-miterlimit="10" fill="#007DA0"/><path d="M1234.5 305.5 1256.5 305.5 1256.5 309.5 1234.5 309.5Z" stroke="#007DA0" stroke-width="3.4375" stroke-linejoin="round" stroke-miterlimit="10" fill="#007DA0"/><path d="M1337.5 398.5 1359.5 398.5 1359.5 402.5 1337.5 402.5Z" stroke="#007DA0" stroke-width="3.4375" stroke-linejoin="round" stroke-miterlimit="10" fill="#007DA0"/><path d="M1440.5 349.5 1462.5 349.5 1462.5 353.5 1440.5 353.5Z" stroke="#007DA0" stroke-width="3.4375" stroke-linejoin="round" stroke-miterlimit="10" fill="#007DA0"/><path d="M1542.5 165.5 1564.5 165.5 1564.5 169.5 1542.5 169.5Z" stroke="#007DA0" stroke-width="3.4375" stroke-linejoin="round" stroke-miterlimit="10" fill="#007DA0"/><path d="M1645.5 162.5 1667.5 162.5 1667.5 166.5 1645.5 166.5Z" stroke="#007DA0" stroke-width="3.4375" stroke-linejoin="round" stroke-miterlimit="10" fill="#007DA0"/></g><g clip-path="url(#clip4)"><path d="M205.5 382.5 227.499 382.5 227.499 386.5 205.5 386.5Z" stroke="#007DA0" stroke-width="3.4375" stroke-linejoin="round" stroke-miterlimit="10" fill="#007DA0"/><path d="M308.5 449.5 330.499 449.5 330.499 453.5 308.5 453.5Z" stroke="#007DA0" stroke-width="3.4375" stroke-linejoin="round" stroke-miterlimit="10" fill="#007DA0"/><path d="M411.5 333.5 433.499 333.5 433.499 337.5 411.5 337.5Z" stroke="#007DA0" stroke-width="3.4375" stroke-linejoin="round" stroke-miterlimit="10" fill="#007DA0"/><path d="M514.5 354.5 536.499 354.5 536.499 358.5 514.5 358.5Z" stroke="#007DA0" stroke-width="3.4375" stroke-linejoin="round" stroke-miterlimit="10" fill="#007DA0"/><path d="M617.5 347.5 639.499 347.5 639.499 351.5 617.5 351.5Z" stroke="#007DA0" stroke-width="3.4375" stroke-linejoin="round" stroke-miterlimit="10" fill="#007DA0"/><path d="M719.5 257.5 741.499 257.5 741.499 261.5 719.5 261.5Z" stroke="#007DA0" stroke-width="3.4375" stroke-linejoin="round" stroke-miterlimit="10" fill="#007DA0"/><path d="M822.5 268.5 844.499 268.5 844.499 272.5 822.5 272.5Z" stroke="#007DA0" stroke-width="3.4375" stroke-linejoin="round" stroke-miterlimit="10" fill="#007DA0"/><path d="M925.5 291.5 947.499 291.5 947.499 295.5 925.5 295.5Z" stroke="#007DA0" stroke-width="3.4375" stroke-linejoin="round" stroke-miterlimit="10" fill="#007DA0"/><path d="M1028.5 302.5 1050.5 302.5 1050.5 306.5 1028.5 306.5Z" stroke="#007DA0" stroke-width="3.4375" stroke-linejoin="round" stroke-miterlimit="10" fill="#007DA0"/><path d="M1131.5 228.5 1153.5 228.5 1153.5 232.5 1131.5 232.5Z" stroke="#007DA0" stroke-width="3.4375" stroke-linejoin="round" stroke-miterlimit="10" fill="#007DA0"/><path d="M1234.5 260.5 1256.5 260.5 1256.5 264.5 1234.5 264.5Z" stroke="#007DA0" stroke-width="3.4375" stroke-linejoin="round" stroke-miterlimit="10" fill="#007DA0"/><path d="M1337.5 312.5 1359.5 312.5 1359.5 316.5 1337.5 316.5Z" stroke="#007DA0" stroke-width="3.4375" stroke-linejoin="round" stroke-miterlimit="10" fill="#007DA0"/><path d="M1440.5 279.5 1462.5 279.5 1462.5 283.5 1440.5 283.5Z" stroke="#007DA0" stroke-width="3.4375" stroke-linejoin="round" stroke-miterlimit="10" fill="#007DA0"/><path d="M1542.5 105.5 1564.5 105.5 1564.5 109.5 1542.5 109.5Z" stroke="#007DA0" stroke-width="3.4375" stroke-linejoin="round" stroke-miterlimit="10" fill="#007DA0"/><path d="M1645.5 99.5002 1667.5 99.5002 1667.5 103.5 1645.5 103.5Z" stroke="#007DA0" stroke-width="3.4375" stroke-linejoin="round" stroke-miterlimit="10" fill="#007DA0"/></g><g clip-path="url(#clip5)"><path d="M205.5 699.5 227.499 699.5 227.499 703.5 205.5 703.5Z" stroke="#015566" stroke-width="3.4375" stroke-linejoin="round" stroke-miterlimit="10" fill="#015566"/><path d="M308.5 643.5 330.499 643.5 330.499 647.5 308.5 647.5Z" stroke="#015566" stroke-width="3.4375" stroke-linejoin="round" stroke-miterlimit="10" fill="#015566"/><path d="M411.5 626.5 433.499 626.5 433.499 630.5 411.5 630.5Z" stroke="#015566" stroke-width="3.4375" stroke-linejoin="round" stroke-miterlimit="10" fill="#015566"/><path d="M514.5 593.5 536.499 593.5 536.499 597.5 514.5 597.5Z" stroke="#015566" stroke-width="3.4375" stroke-linejoin="round" stroke-miterlimit="10" fill="#015566"/><path d="M617.5 624.5 639.499 624.5 639.499 628.5 617.5 628.5Z" stroke="#015566" stroke-width="3.4375" stroke-linejoin="round" stroke-miterlimit="10" fill="#015566"/><path d="M719.5 477.5 741.499 477.5 741.499 481.5 719.5 481.5Z" stroke="#015566" stroke-width="3.4375" stroke-linejoin="round" stroke-miterlimit="10" fill="#015566"/><path d="M822.5 463.5 844.499 463.5 844.499 467.5 822.5 467.5Z" stroke="#015566" stroke-width="3.4375" stroke-linejoin="round" stroke-miterlimit="10" fill="#015566"/><path d="M925.5 471.5 947.499 471.5 947.499 475.5 925.5 475.5Z" stroke="#015566" stroke-width="3.4375" stroke-linejoin="round" stroke-miterlimit="10" fill="#015566"/><path d="M1028.5 464.5 1050.5 464.5 1050.5 468.5 1028.5 468.5Z" stroke="#015566" stroke-width="3.4375" stroke-linejoin="round" stroke-miterlimit="10" fill="#015566"/><path d="M1131.5 426.5 1153.5 426.5 1153.5 430.5 1131.5 430.5Z" stroke="#015566" stroke-width="3.4375" stroke-linejoin="round" stroke-miterlimit="10" fill="#015566"/><path d="M1234.5 371.5 1256.5 371.5 1256.5 375.5 1234.5 375.5Z" stroke="#015566" stroke-width="3.4375" stroke-linejoin="round" stroke-miterlimit="10" fill="#015566"/><path d="M1337.5 299.5 1359.5 299.5 1359.5 303.5 1337.5 303.5Z" stroke="#015566" stroke-width="3.4375" stroke-linejoin="round" stroke-miterlimit="10" fill="#015566"/><path d="M1440.5 324.5 1462.5 324.5 1462.5 328.5 1440.5 328.5Z" stroke="#015566" stroke-width="3.4375" stroke-linejoin="round" stroke-miterlimit="10" fill="#015566"/><path d="M1542.5 343.5 1564.5 343.5 1564.5 347.5 1542.5 347.5Z" stroke="#015566" stroke-width="3.4375" stroke-linejoin="round" stroke-miterlimit="10" fill="#015566"/><path d="M1645.5 285.5 1667.5 285.5 1667.5 289.5 1645.5 289.5Z" stroke="#015566" stroke-width="3.4375" stroke-linejoin="round" stroke-miterlimit="10" fill="#015566"/></g><g clip-path="url(#clip6)"><path d="M205.5 636.5 227.499 636.5 227.499 640.5 205.5 640.5Z" stroke="#015566" stroke-width="3.4375" stroke-linejoin="round" stroke-miterlimit="10" fill="#015566"/><path d="M308.5 520.5 330.499 520.5 330.499 524.5 308.5 524.5Z" stroke="#015566" stroke-width="3.4375" stroke-linejoin="round" stroke-miterlimit="10" fill="#015566"/><path d="M411.5 471.5 433.499 471.5 433.499 475.5 411.5 475.5Z" stroke="#015566" stroke-width="3.4375" stroke-linejoin="round" stroke-miterlimit="10" fill="#015566"/><path d="M514.5 496.5 536.499 496.5 536.499 500.5 514.5 500.5Z" stroke="#015566" stroke-width="3.4375" stroke-linejoin="round" stroke-miterlimit="10" fill="#015566"/><path d="M617.5 492.5 639.499 492.5 639.499 496.5 617.5 496.5Z" stroke="#015566" stroke-width="3.4375" stroke-linejoin="round" stroke-miterlimit="10" fill="#015566"/><path d="M719.5 375.5 741.499 375.5 741.499 379.5 719.5 379.5Z" stroke="#015566" stroke-width="3.4375" stroke-linejoin="round" stroke-miterlimit="10" fill="#015566"/><path d="M822.5 358.5 844.499 358.5 844.499 362.5 822.5 362.5Z" stroke="#015566" stroke-width="3.4375" stroke-linejoin="round" stroke-miterlimit="10" fill="#015566"/><path d="M925.5 345.5 947.499 345.5 947.499 349.5 925.5 349.5Z" stroke="#015566" stroke-width="3.4375" stroke-linejoin="round" stroke-miterlimit="10" fill="#015566"/><path d="M1028.5 302.5 1050.5 302.5 1050.5 306.5 1028.5 306.5Z" stroke="#015566" stroke-width="3.4375" stroke-linejoin="round" stroke-miterlimit="10" fill="#015566"/><path d="M1131.5 261.5 1153.5 261.5 1153.5 265.5 1131.5 265.5Z" stroke="#015566" stroke-width="3.4375" stroke-linejoin="round" stroke-miterlimit="10" fill="#015566"/><path d="M1234.5 277.5 1256.5 277.5 1256.5 281.5 1234.5 281.5Z" stroke="#015566" stroke-width="3.4375" stroke-linejoin="round" stroke-miterlimit="10" fill="#015566"/><path d="M1337.5 200.5 1359.5 200.5 1359.5 204.5 1337.5 204.5Z" stroke="#015566" stroke-width="3.4375" stroke-linejoin="round" stroke-miterlimit="10" fill="#015566"/><path d="M1440.5 202.5 1462.5 202.5 1462.5 206.5 1440.5 206.5Z" stroke="#015566" stroke-width="3.4375" stroke-linejoin="round" stroke-miterlimit="10" fill="#015566"/><path d="M1542.5 192.5 1564.5 192.5 1564.5 196.5 1542.5 196.5Z" stroke="#015566" stroke-width="3.4375" stroke-linejoin="round" stroke-miterlimit="10" fill="#015566"/><path d="M1645.5 231.5 1667.5 231.5 1667.5 235.5 1645.5 235.5Z" stroke="#015566" stroke-width="3.4375" stroke-linejoin="round" stroke-miterlimit="10" fill="#015566"/></g><g clip-path="url(#clip7)"><path d="M217 493.241C251.286 495.001 285.571 506 319.857 498.521 354.143 491.042 388.428 467.995 422.714 448.369 457 428.743 491.286 390.948 525.571 380.765 559.857 370.582 594.143 397.646 628.428 387.271 662.714 376.896 697 333.321 731.286 318.514 765.571 303.707 799.857 297.457 834.143 298.427 868.428 299.396 902.714 320.809 937 324.332 971.286 327.855 1005.57 320.754 1039.86 319.567 1074.14 318.38 1108.43 323.01 1142.71 317.212 1177 311.413 1211.29 278.058 1245.57 284.775 1279.86 291.491 1314.14 352.204 1348.43 357.51 1382.71 362.816 1417 353.266 1451.29 316.61 1485.57 279.954 1519.86 168.151 1554.14 137.576 1588.43 107 1622.71 134.629 1657 133.156" stroke="#00A6D6" stroke-width="10.3125" stroke-linecap="round" stroke-linejoin="round" stroke-miterlimit="10" fill="none"/></g><g clip-path="url(#clip8)"><path d="M228 505 205 482M205 505 228 482" stroke="#00A6D6" stroke-width="3.4375" stroke-linejoin="round" stroke-miterlimit="10" fill="none"/><path d="M331 509.999 308 487M308 509.999 331 487" stroke="#00A6D6" stroke-width="3.4375" stroke-linejoin="round" stroke-miterlimit="10" fill="none"/><path d="M433.999 460 411 437M411 460 433.999 437" stroke="#00A6D6" stroke-width="3.4375" stroke-linejoin="round" stroke-miterlimit="10" fill="none"/><path d="M537 392 514 369M514 392 537 369" stroke="#00A6D6" stroke-width="3.4375" stroke-linejoin="round" stroke-miterlimit="10" fill="none"/><path d="M639.999 398.999 617 376M617 398.999 639.999 376" stroke="#00A6D6" stroke-width="3.4375" stroke-linejoin="round" stroke-miterlimit="10" fill="none"/><path d="M741.999 330 719 307M719 330 741.999 307" stroke="#00A6D6" stroke-width="3.4375" stroke-linejoin="round" stroke-miterlimit="10" fill="none"/><path d="M845 309.999 822 287M822 309.999 845 287" stroke="#00A6D6" stroke-width="3.4375" stroke-linejoin="round" stroke-miterlimit="10" fill="none"/><path d="M947.999 335.999 925 313M925 335.999 947.999 313" stroke="#00A6D6" stroke-width="3.4375" stroke-linejoin="round" stroke-miterlimit="10" fill="none"/><path d="M1051 331 1028 308M1028 331 1051 308" stroke="#00A6D6" stroke-width="3.4375" stroke-linejoin="round" stroke-miterlimit="10" fill="none"/><path d="M1154 329 1131 306M1131 329 1154 306" stroke="#00A6D6" stroke-width="3.4375" stroke-linejoin="round" stroke-miterlimit="10" fill="none"/><path d="M1257 296 1234 273M1234 296 1257 273" stroke="#00A6D6" stroke-width="3.4375" stroke-linejoin="round" stroke-miterlimit="10" fill="none"/><path d="M1360 368.999 1337 346M1337 368.999 1360 346" stroke="#00A6D6" stroke-width="3.4375" stroke-linejoin="round" stroke-miterlimit="10" fill="none"/><path d="M1463 328 1440 305M1440 328 1463 305" stroke="#00A6D6" stroke-width="3.4375" stroke-linejoin="round" stroke-miterlimit="10" fill="none"/><path d="M1565 148.999 1542 126M1542 148.999 1565 126" stroke="#00A6D6" stroke-width="3.4375" stroke-linejoin="round" stroke-miterlimit="10" fill="none"/><path d="M1668 144.999 1645 122M1645 144.999 1668 122" stroke="#00A6D6" stroke-width="3.4375" stroke-linejoin="round" stroke-miterlimit="10" fill="none"/></g><g clip-path="url(#clip9)"><path d="M217 670C251.286 641.414 285.571 604.117 319.857 584.243 354.143 564.369 388.428 556.894 422.714 550.754 457 544.613 491.286 545.806 525.571 547.401 559.857 548.994 594.143 580.083 628.428 560.319 662.714 540.554 697 453.338 731.286 428.816 765.571 404.293 799.857 416.169 834.143 413.185 868.428 410.201 902.714 415.517 937 410.91 971.286 406.303 1005.57 396.319 1039.86 385.542 1074.14 374.764 1108.43 356.054 1142.71 346.244 1177 336.434 1211.29 342.358 1245.57 326.681 1279.86 311.004 1314.14 262.367 1348.43 252.184 1382.71 242 1417 262.547 1451.29 265.579 1485.57 268.611 1519.86 271.125 1554.14 270.374 1588.43 269.623 1622.71 264.174 1657 261.074" stroke="#017188" stroke-width="10.3125" stroke-linecap="round" stroke-linejoin="round" stroke-miterlimit="10" fill="none"/></g><g clip-path="url(#clip10)"><path d="M228 682 205 659M205 682 228 659" stroke="#017188" stroke-width="3.4375" stroke-linejoin="round" stroke-miterlimit="10" fill="none"/><path d="M331 595.999 308 573M308 595.999 331 573" stroke="#017188" stroke-width="3.4375" stroke-linejoin="round" stroke-miterlimit="10" fill="none"/><path d="M433.999 562 411 539M411 562 433.999 539" stroke="#017188" stroke-width="3.4375" stroke-linejoin="round" stroke-miterlimit="10" fill="none"/><path d="M537 559 514 536M514 559 537 536" stroke="#017188" stroke-width="3.4375" stroke-linejoin="round" stroke-miterlimit="10" fill="none"/><path d="M639.999 572 617 549M617 572 639.999 549" stroke="#017188" stroke-width="3.4375" stroke-linejoin="round" stroke-miterlimit="10" fill="none"/><path d="M741.999 440 719 417M719 440 741.999 417" stroke="#017188" stroke-width="3.4375" stroke-linejoin="round" stroke-miterlimit="10" fill="none"/><path d="M845 425 822 402M822 425 845 402" stroke="#017188" stroke-width="3.4375" stroke-linejoin="round" stroke-miterlimit="10" fill="none"/><path d="M947.999 421.999 925 399M925 421.999 947.999 399" stroke="#017188" stroke-width="3.4375" stroke-linejoin="round" stroke-miterlimit="10" fill="none"/><path d="M1051 397 1028 374M1028 397 1051 374" stroke="#017188" stroke-width="3.4375" stroke-linejoin="round" stroke-miterlimit="10" fill="none"/><path d="M1154 357.999 1131 335M1131 357.999 1154 335" stroke="#017188" stroke-width="3.4375" stroke-linejoin="round" stroke-miterlimit="10" fill="none"/><path d="M1257 338 1234 315M1234 338 1257 315" stroke="#017188" stroke-width="3.4375" stroke-linejoin="round" stroke-miterlimit="10" fill="none"/><path d="M1360 263 1337 240M1337 263 1360 240" stroke="#017188" stroke-width="3.4375" stroke-linejoin="round" stroke-miterlimit="10" fill="none"/><path d="M1463 276.999 1440 254M1440 276.999 1463 254" stroke="#017188" stroke-width="3.4375" stroke-linejoin="round" stroke-miterlimit="10" fill="none"/><path d="M1565 282 1542 259M1542 282 1565 259" stroke="#017188" stroke-width="3.4375" stroke-linejoin="round" stroke-miterlimit="10" fill="none"/><path d="M1668 272 1645 249M1645 272 1668 249" stroke="#017188" stroke-width="3.4375" stroke-linejoin="round" stroke-miterlimit="10" fill="none"/></g><g clip-path="url(#clip11)"><text fill="#595959" font-family="Arial,Arial_MSFontService,sans-serif" font-weight="400" font-size="41" transform="matrix(1 0 0 1 123.75 798)">0.8</text></g><g clip-path="url(#clip12)"><text fill="#595959" font-family="Arial,Arial_MSFontService,sans-serif" font-weight="400" font-size="41" transform="matrix(1 0 0 1 123.75 706)">0.9</text></g><g clip-path="url(#clip13)"><text fill="#595959" font-family="Arial,Arial_MSFontService,sans-serif" font-weight="400" font-size="41" transform="matrix(1 0 0 1 158.148 614)">1</text></g><g clip-path="url(#clip14)"><text fill="#595959" font-family="Arial,Arial_MSFontService,sans-serif" font-weight="400" font-size="41" transform="matrix(1 0 0 1 123.75 522)">1.1</text></g><g clip-path="url(#clip15)"><text fill="#595959" font-family="Arial,Arial_MSFontService,sans-serif" font-weight="400" font-size="41" transform="matrix(1 0 0 1 123.75 430)">1.2</text></g><g clip-path="url(#clip16)"><text fill="#595959" font-family="Arial,Arial_MSFontService,sans-serif" font-weight="400" font-size="41" transform="matrix(1 0 0 1 123.75 339)">1.3</text></g><g clip-path="url(#clip17)"><text fill="#595959" font-family="Arial,Arial_MSFontService,sans-serif" font-weight="400" font-size="41" transform="matrix(1 0 0 1 123.75 247)">1.4</text></g><g clip-path="url(#clip18)"><text fill="#595959" font-family="Arial,Arial_MSFontService,sans-serif" font-weight="400" font-size="41" transform="matrix(1 0 0 1 123.75 155)">1.5</text></g><g clip-path="url(#clip19)"><text fill="#595959" font-family="Arial,Arial_MSFontService,sans-serif" font-weight="400" font-size="41" transform="matrix(1 0 0 1 123.75 63)">1.6</text></g><g clip-path="url(#clip20)"><text fill="#595959" font-family="Arial,Arial_MSFontService,sans-serif" font-weight="400" font-size="41" transform="matrix(1 0 0 1 205.093 847)">1</text></g><g clip-path="url(#clip21)"><text fill="#595959" font-family="Arial,Arial_MSFontService,sans-serif" font-weight="400" font-size="41" transform="matrix(1 0 0 1 307.966 847)">2</text></g><g clip-path="url(#clip22)"><text fill="#595959" font-family="Arial,Arial_MSFontService,sans-serif" font-weight="400" font-size="41" transform="matrix(1 0 0 1 410.838 847)">3</text></g><g clip-path="url(#clip23)"><text fill="#595959" font-family="Arial,Arial_MSFontService,sans-serif" font-weight="400" font-size="41" transform="matrix(1 0 0 1 513.711 847)">4</text></g><g clip-path="url(#clip24)"><text fill="#595959" font-family="Arial,Arial_MSFontService,sans-serif" font-weight="400" font-size="41" transform="matrix(1 0 0 1 616.584 847)">5</text></g><g clip-path="url(#clip25)"><text fill="#595959" font-family="Arial,Arial_MSFontService,sans-serif" font-weight="400" font-size="41" transform="matrix(1 0 0 1 719.457 847)">6</text></g><g clip-path="url(#clip26)"><text fill="#595959" font-family="Arial,Arial_MSFontService,sans-serif" font-weight="400" font-size="41" transform="matrix(1 0 0 1 822.329 847)">7</text></g><g clip-path="url(#clip27)"><text fill="#595959" font-family="Arial,Arial_MSFontService,sans-serif" font-weight="400" font-size="41" transform="matrix(1 0 0 1 925.202 847)">8</text></g><g clip-path="url(#clip28)"><text fill="#595959" font-family="Arial,Arial_MSFontService,sans-serif" font-weight="400" font-size="41" transform="matrix(1 0 0 1 1028.08 847)">9</text></g><g clip-path="url(#clip29)"><text fill="#595959" font-family="Arial,Arial_MSFontService,sans-serif" font-weight="400" font-size="41" transform="matrix(1 0 0 1 1119.48 847)">10</text></g><g clip-path="url(#clip30)"><text fill="#595959" font-family="Arial,Arial_MSFontService,sans-serif" font-weight="400" font-size="41" transform="matrix(1 0 0 1 1222.35 847)">11</text></g><g clip-path="url(#clip31)"><text fill="#595959" font-family="Arial,Arial_MSFontService,sans-serif" font-weight="400" font-size="41" transform="matrix(1 0 0 1 1325.22 847)">12</text></g><g clip-path="url(#clip32)"><text fill="#595959" font-family="Arial,Arial_MSFontService,sans-serif" font-weight="400" font-size="41" transform="matrix(1 0 0 1 1428.1 847)">13</text></g><g clip-path="url(#clip33)"><text fill="#595959" font-family="Arial,Arial_MSFontService,sans-serif" font-weight="400" font-size="41" transform="matrix(1 0 0 1 1530.97 847)">14</text></g><g clip-path="url(#clip34)"><text fill="#595959" font-family="Arial,Arial_MSFontService,sans-serif" font-weight="400" font-size="41" transform="matrix(1 0 0 1 1633.84 847)">15</text></g><g clip-path="url(#clip35)"><text fill="#595959" font-family="Arial,Arial_MSFontService,sans-serif" font-weight="400" font-size="46" transform="matrix(6.12323e-17 -1 1 6.12323e-17 100.284 670)">Optimal Semi</text></g><g clip-path="url(#clip36)"><text fill="#595959" font-family="Arial,Arial_MSFontService,sans-serif" font-weight="400" font-size="46" transform="matrix(6.12323e-17 -1 1 6.12323e-17 100.284 395)">-</text></g><g clip-path="url(#clip37)"><text fill="#595959" font-family="Arial,Arial_MSFontService,sans-serif" font-weight="400" font-size="46" transform="matrix(6.12323e-17 -1 1 6.12323e-17 100.284 379)">major Axis</text></g><g clip-path="url(#clip38)"><text fill="#595959" font-family="Arial,Arial_MSFontService,sans-serif" font-weight="400" font-size="46" transform="matrix(1 0 0 1 713.784 913)">Number of Spacecraft</text></g><g clip-path="url(#clip39)"><path d="M1751 453 1839 453" stroke="#00A6D6" stroke-width="10.3125" stroke-linecap="round" stroke-linejoin="round" stroke-miterlimit="10" fill="none" fill-rule="evenodd"/></g><g clip-path="url(#clip40)"><path d="M1806.5 464.5 1783.5 441.5M1783.5 464.5 1806.5 441.5" stroke="#00A6D6" stroke-width="3.4375" stroke-linejoin="round" stroke-miterlimit="10" fill="none"/></g><g clip-path="url(#clip41)"><text fill="#595959" font-family="Arial,Arial_MSFontService,sans-serif" font-weight="400" font-size="41" transform="matrix(1 0 0 1 1848.73 466)">Visual Light</text></g><g clip-path="url(#clip42)"><path d="M1751 526 1839 526" stroke="#017188" stroke-width="10.3125" stroke-linecap="round" stroke-linejoin="round" stroke-miterlimit="10" fill="none" fill-rule="evenodd"/></g><g clip-path="url(#clip43)"><path d="M1806.5 537.5 1783.5 514.5M1783.5 537.5 1806.5 514.5" stroke="#017188" stroke-width="3.4375" stroke-linejoin="round" stroke-miterlimit="10" fill="none"/></g><g clip-path="url(#clip44)"><text fill="#595959" font-family="Arial,Arial_MSFontService,sans-serif" font-weight="400" font-size="41" transform="matrix(1 0 0 1 1848.73 539)">Thermal Infrared</text></g></g></svg>