<svg width="2386" height="980" xmlns="http://www.w3.org/2000/svg" xmlns:xlink="http://www.w3.org/1999/xlink" overflow="hidden"><defs><clipPath id="clip0"><rect x="881" y="1155" width="2386" height="980"/></clipPath><clipPath id="clip1"><rect x="880" y="1155" width="2386" height="980"/></clipPath><clipPath id="clip2"><rect x="880" y="1155" width="2386" height="980"/></clipPath><clipPath id="clip3"><rect x="880" y="1155" width="2386" height="980"/></clipPath><clipPath id="clip4"><rect x="880" y="1155" width="2386" height="980"/></clipPath><clipPath id="clip5"><rect x="1145" y="1205" width="2000" height="738"/></clipPath><clipPath id="clip6"><rect x="880" y="1155" width="2386" height="980"/></clipPath><clipPath id="clip7"><rect x="880" y="1155" width="2386" height="980"/></clipPath><clipPath id="clip8"><rect x="880" y="1155" width="2386" height="980"/></clipPath><clipPath id="clip9"><rect x="880" y="1155" width="2386" height="980"/></clipPath><clipPath id="clip10"><rect x="880" y="1155" width="2386" height="980"/></clipPath><clipPath id="clip11"><rect x="880" y="1155" width="2386" height="980"/></clipPath><clipPath id="clip12"><rect x="880" y="1155" width="2386" height="980"/></clipPath><clipPath id="clip13"><rect x="880" y="1155" width="2386" height="980"/></clipPath><clipPath id="clip14"><rect x="880" y="1155" width="2386" height="980"/></clipPath><clipPath id="clip15"><rect x="880" y="1155" width="2386" height="980"/></clipPath><clipPath id="clip16"><rect x="880" y="1155" width="2386" height="980"/></clipPath><clipPath id="clip17"><rect x="880" y="1155" width="2386" height="980"/></clipPath><clipPath id="clip18"><rect x="880" y="1155" width="2386" height="980"/></clipPath><clipPath id="clip19"><rect x="880" y="1155" width="2386" height="980"/></clipPath><clipPath id="clip20"><rect x="880" y="1155" width="2386" height="980"/></clipPath><clipPath id="clip21"><rect x="880" y="1155" width="2386" height="980"/></clipPath><clipPath id="clip22"><rect x="880" y="1155" width="2386" height="980"/></clipPath><clipPath id="clip23"><rect x="880" y="1155" width="2386" height="980"/></clipPath><clipPath id="clip24"><rect x="880" y="1155" width="2386" height="980"/></clipPath><clipPath id="clip25"><rect x="880" y="1155" width="2386" height="980"/></clipPath></defs><g clip-path="url(#clip0)" transform="translate(-881 -1155)"><g clip-path="url(#clip1)"><path d="M1145.5 1866.56 3141.5 1866.56M1145.5 1793.56 3141.5 1793.56M1145.5 1719.56 3141.5 1719.56M1145.5 1646.55 3141.5 1646.55M1145.5 1573.55 3141.5 1573.55M1145.5 1499.55 3141.5 1499.55M1145.5 1426.55 3141.5 1426.55M1145.5 1352.54 3141.5 1352.54M1145.5 1279.54 3141.5 1279.54M1145.5 1205.5 3141.5 1205.5" stroke="#D9D9D9" stroke-width="3.4375" stroke-linejoin="round" stroke-miterlimit="10" fill="none"/></g><g clip-path="url(#clip2)"><path d="M1544.55 1205.5 1544.55 1940.5M1943.56 1205.5 1943.56 1940.5M2343.58 1205.5 2343.58 1940.5M2742.59 1205.5 2742.59 1940.5M3141.5 1205.5 3141.5 1940.5" stroke="#D9D9D9" stroke-width="3.4375" stroke-linejoin="round" stroke-miterlimit="10" fill="none"/></g><g clip-path="url(#clip3)"><path d="M0 0 0.000360892 735" stroke="#BFBFBF" stroke-width="3.4375" stroke-linejoin="round" stroke-miterlimit="10" fill="none" fill-rule="evenodd" transform="matrix(1 0 0 -1 1145.5 1940.5)"/></g><g clip-path="url(#clip4)"><path d="M1145.5 1940.5 3141.5 1940.5" stroke="#BFBFBF" stroke-width="3.4375" stroke-linejoin="round" stroke-miterlimit="10" fill="none" fill-rule="evenodd"/></g><g clip-path="url(#clip5)"><path d="M3022.5 1213.36C3009.19 1213.36 2995.88 1213.36 2982.57 1213.36 2969.26 1213.36 2955.95 1213.36 2942.64 1213.36 2929.33 1213.36 2916.02 1213.36 2902.71 1213.36 2889.4 1213.36 2876.09 1213.36 2862.79 1213.36 2849.48 1213.36 2836.17 1213.36 2822.86 1213.36 2809.55 1213.36 2796.24 1213.36 2782.93 1213.36 2769.62 1213.36 2756.31 1213.36 2743 1213.36 2729.69 1213.36 2716.38 1213.36 2703.07 1213.36 2689.76 1213.36 2676.45 1212.5 2663.14 1213.36 2649.83 1214.21 2636.52 1217.52 2623.21 1218.5 2609.9 1219.48 2596.6 1218.62 2583.29 1219.23 2569.98 1219.84 2556.67 1220.58 2543.36 1222.17 2530.05 1223.76 2516.74 1225.72 2503.43 1228.78 2490.12 1231.84 2476.81 1235.39 2463.5 1240.53 2450.19 1245.67 2436.88 1251.43 2423.57 1259.63 2410.26 1267.83 2396.95 1277.38 2383.64 1289.74 2370.33 1302.11 2357.02 1315.94 2343.71 1333.81 2330.4 1351.69 2317.1 1373.11 2303.79 1396.98 2290.48 1420.85 2277.17 1448.76 2263.86 1477.04 2250.55 1505.32 2237.24 1536.78 2223.93 1566.65 2210.62 1596.51 2197.31 1627.73 2184 1656.25 2170.69 1684.78 2157.38 1713.05 2144.07 1737.78 2130.76 1762.51 2117.45 1784.91 2104.14 1804.62 2090.83 1824.33 2077.52 1841.52 2064.21 1856.03 2050.9 1870.55 2037.6 1882.02 2024.29 1891.73 2010.98 1901.44 1997.67 1908.33 1984.36 1914.28 1971.05 1920.23 1957.74 1924.09 1944.43 1927.43 1931.12 1930.77 1917.81 1932.6 1904.5 1934.32 1891.19 1936.03 1877.88 1936.86 1864.57 1937.7 1851.26 1938.54 1837.95 1938.96 1824.64 1939.35 1811.33 1939.74 1798.02 1939.88 1784.71 1940.05 1771.4 1940.21 1758.1 1940.25 1744.79 1940.32 1731.48 1940.38 1718.17 1940.4 1704.86 1940.43 1691.55 1940.45 1678.24 1940.46 1664.93 1940.47 1651.62 1940.48 1638.31 1940.48 1625 1940.49 1611.69 1940.49 1598.38 1940.49 1585.07 1940.5 1571.76 1940.5 1558.45 1940.5 1545.14 1940.5 1531.83 1940.5 1518.52 1940.5 1505.21 1940.5 1491.9 1940.5 1478.6 1940.5 1465.29 1940.5 1451.98 1940.5 1438.67 1940.5 1425.36 1940.5 1412.05 1940.5 1398.74 1940.5 1385.43 1940.5 1372.12 1940.5 1358.81 1940.5 1345.5 1940.5" stroke="#00A6D6" stroke-width="6.875" stroke-linecap="round" stroke-linejoin="round" stroke-miterlimit="10" fill="none"/></g><g clip-path="url(#clip6)"><path d="M3033.29 1213.87C3033.29 1219.95 3028.37 1224.87 3022.29 1224.87 3016.22 1224.87 3011.29 1219.95 3011.29 1213.87 3011.29 1207.8 3016.22 1202.87 3022.29 1202.87 3028.37 1202.87 3033.29 1207.8 3033.29 1213.87Z" stroke="#00A6D6" stroke-width="3.4375" stroke-linejoin="round" stroke-miterlimit="10" fill="#00A6D6"/><path d="M2993.29 1213.87C2993.29 1219.95 2988.37 1224.87 2982.29 1224.87 2976.22 1224.87 2971.29 1219.95 2971.29 1213.87 2971.29 1207.8 2976.22 1202.87 2982.29 1202.87 2988.37 1202.87 2993.29 1207.8 2993.29 1213.87Z" stroke="#00A6D6" stroke-width="3.4375" stroke-linejoin="round" stroke-miterlimit="10" fill="#00A6D6"/><path d="M2953.29 1213.87C2953.29 1219.95 2948.37 1224.87 2942.29 1224.87 2936.22 1224.87 2931.29 1219.95 2931.29 1213.87 2931.29 1207.8 2936.22 1202.87 2942.29 1202.87 2948.37 1202.87 2953.29 1207.8 2953.29 1213.87Z" stroke="#00A6D6" stroke-width="3.4375" stroke-linejoin="round" stroke-miterlimit="10" fill="#00A6D6"/><path d="M2913.29 1213.87C2913.29 1219.95 2908.37 1224.87 2902.29 1224.87 2896.22 1224.87 2891.29 1219.95 2891.29 1213.87 2891.29 1207.8 2896.22 1202.87 2902.29 1202.87 2908.37 1202.87 2913.29 1207.8 2913.29 1213.87Z" stroke="#00A6D6" stroke-width="3.4375" stroke-linejoin="round" stroke-miterlimit="10" fill="#00A6D6"/><path d="M2873.29 1213.87C2873.29 1219.95 2868.37 1224.87 2862.29 1224.87 2856.22 1224.87 2851.29 1219.95 2851.29 1213.87 2851.29 1207.8 2856.22 1202.87 2862.29 1202.87 2868.37 1202.87 2873.29 1207.8 2873.29 1213.87Z" stroke="#00A6D6" stroke-width="3.4375" stroke-linejoin="round" stroke-miterlimit="10" fill="#00A6D6"/><path d="M2833.29 1213.87C2833.29 1219.95 2828.37 1224.87 2822.29 1224.87 2816.22 1224.87 2811.29 1219.95 2811.29 1213.87 2811.29 1207.8 2816.22 1202.87 2822.29 1202.87 2828.37 1202.87 2833.29 1207.8 2833.29 1213.87Z" stroke="#00A6D6" stroke-width="3.4375" stroke-linejoin="round" stroke-miterlimit="10" fill="#00A6D6"/><path d="M2793.29 1213.87C2793.29 1219.95 2788.37 1224.87 2782.29 1224.87 2776.22 1224.87 2771.29 1219.95 2771.29 1213.87 2771.29 1207.8 2776.22 1202.87 2782.29 1202.87 2788.37 1202.87 2793.29 1207.8 2793.29 1213.87Z" stroke="#00A6D6" stroke-width="3.4375" stroke-linejoin="round" stroke-miterlimit="10" fill="#00A6D6"/><path d="M2753.29 1213.87C2753.29 1219.95 2748.37 1224.87 2742.29 1224.87 2736.22 1224.87 2731.29 1219.95 2731.29 1213.87 2731.29 1207.8 2736.22 1202.87 2742.29 1202.87 2748.37 1202.87 2753.29 1207.8 2753.29 1213.87Z" stroke="#00A6D6" stroke-width="3.4375" stroke-linejoin="round" stroke-miterlimit="10" fill="#00A6D6"/><path d="M2713.29 1213.87C2713.29 1219.95 2708.37 1224.87 2702.29 1224.87 2696.22 1224.87 2691.29 1219.95 2691.29 1213.87 2691.29 1207.8 2696.22 1202.87 2702.29 1202.87 2708.37 1202.87 2713.29 1207.8 2713.29 1213.87Z" stroke="#00A6D6" stroke-width="3.4375" stroke-linejoin="round" stroke-miterlimit="10" fill="#00A6D6"/><path d="M2673.29 1213.87C2673.29 1219.95 2668.37 1224.87 2662.29 1224.87 2656.22 1224.87 2651.29 1219.95 2651.29 1213.87 2651.29 1207.8 2656.22 1202.87 2662.29 1202.87 2668.37 1202.87 2673.29 1207.8 2673.29 1213.87Z" stroke="#00A6D6" stroke-width="3.4375" stroke-linejoin="round" stroke-miterlimit="10" fill="#00A6D6"/><path d="M2633.29 1218.87C2633.29 1224.95 2628.37 1229.87 2622.29 1229.87 2616.22 1229.87 2611.29 1224.95 2611.29 1218.87 2611.29 1212.8 2616.22 1207.87 2622.29 1207.87 2628.37 1207.87 2633.29 1212.8 2633.29 1218.87Z" stroke="#00A6D6" stroke-width="3.4375" stroke-linejoin="round" stroke-miterlimit="10" fill="#00A6D6"/><path d="M2594.29 1219.87C2594.29 1225.95 2589.37 1230.87 2583.29 1230.87 2577.22 1230.87 2572.29 1225.95 2572.29 1219.87 2572.29 1213.8 2577.22 1208.87 2583.29 1208.87 2589.37 1208.87 2594.29 1213.8 2594.29 1219.87Z" stroke="#00A6D6" stroke-width="3.4375" stroke-linejoin="round" stroke-miterlimit="10" fill="#00A6D6"/><path d="M2554.29 1221.87C2554.29 1227.95 2549.37 1232.87 2543.29 1232.87 2537.22 1232.87 2532.29 1227.95 2532.29 1221.87 2532.29 1215.8 2537.22 1210.87 2543.29 1210.87 2549.37 1210.87 2554.29 1215.8 2554.29 1221.87Z" stroke="#00A6D6" stroke-width="3.4375" stroke-linejoin="round" stroke-miterlimit="10" fill="#00A6D6"/><path d="M2514.29 1228.87C2514.29 1234.95 2509.37 1239.87 2503.29 1239.87 2497.22 1239.87 2492.29 1234.95 2492.29 1228.87 2492.29 1222.8 2497.22 1217.87 2503.29 1217.87 2509.37 1217.87 2514.29 1222.8 2514.29 1228.87Z" stroke="#00A6D6" stroke-width="3.4375" stroke-linejoin="round" stroke-miterlimit="10" fill="#00A6D6"/><path d="M2474.29 1240.87C2474.29 1246.95 2469.37 1251.87 2463.29 1251.87 2457.22 1251.87 2452.29 1246.95 2452.29 1240.87 2452.29 1234.8 2457.22 1229.87 2463.29 1229.87 2469.37 1229.87 2474.29 1234.8 2474.29 1240.87Z" stroke="#00A6D6" stroke-width="3.4375" stroke-linejoin="round" stroke-miterlimit="10" fill="#00A6D6"/><path d="M2434.29 1259.87C2434.29 1265.95 2429.37 1270.87 2423.29 1270.87 2417.22 1270.87 2412.29 1265.95 2412.29 1259.87 2412.29 1253.8 2417.22 1248.87 2423.29 1248.87 2429.37 1248.87 2434.29 1253.8 2434.29 1259.87Z" stroke="#00A6D6" stroke-width="3.4375" stroke-linejoin="round" stroke-miterlimit="10" fill="#00A6D6"/><path d="M2394.29 1289.87C2394.29 1295.95 2389.37 1300.87 2383.29 1300.87 2377.22 1300.87 2372.29 1295.95 2372.29 1289.87 2372.29 1283.8 2377.22 1278.87 2383.29 1278.87 2389.37 1278.87 2394.29 1283.8 2394.29 1289.87Z" stroke="#00A6D6" stroke-width="3.4375" stroke-linejoin="round" stroke-miterlimit="10" fill="#00A6D6"/><path d="M2354.29 1333.87C2354.29 1339.95 2349.37 1344.87 2343.29 1344.87 2337.22 1344.87 2332.29 1339.95 2332.29 1333.87 2332.29 1327.8 2337.22 1322.87 2343.29 1322.87 2349.37 1322.87 2354.29 1327.8 2354.29 1333.87Z" stroke="#00A6D6" stroke-width="3.4375" stroke-linejoin="round" stroke-miterlimit="10" fill="#00A6D6"/><path d="M2314.29 1396.87C2314.29 1402.95 2309.37 1407.87 2303.29 1407.87 2297.22 1407.87 2292.29 1402.95 2292.29 1396.87 2292.29 1390.8 2297.22 1385.87 2303.29 1385.87 2309.37 1385.87 2314.29 1390.8 2314.29 1396.87Z" stroke="#00A6D6" stroke-width="3.4375" stroke-linejoin="round" stroke-miterlimit="10" fill="#00A6D6"/><path d="M2274.29 1476.87C2274.29 1482.95 2269.37 1487.87 2263.29 1487.87 2257.22 1487.87 2252.29 1482.95 2252.29 1476.87 2252.29 1470.8 2257.22 1465.87 2263.29 1465.87 2269.37 1465.87 2274.29 1470.8 2274.29 1476.87Z" stroke="#00A6D6" stroke-width="3.4375" stroke-linejoin="round" stroke-miterlimit="10" fill="#00A6D6"/><path d="M2234.29 1566.87C2234.29 1572.95 2229.37 1577.87 2223.29 1577.87 2217.22 1577.87 2212.29 1572.95 2212.29 1566.87 2212.29 1560.8 2217.22 1555.87 2223.29 1555.87 2229.37 1555.87 2234.29 1560.8 2234.29 1566.87Z" stroke="#00A6D6" stroke-width="3.4375" stroke-linejoin="round" stroke-miterlimit="10" fill="#00A6D6"/><path d="M2194.29 1656.87C2194.29 1662.95 2189.37 1667.87 2183.29 1667.87 2177.22 1667.87 2172.29 1662.95 2172.29 1656.87 2172.29 1650.8 2177.22 1645.87 2183.29 1645.87 2189.37 1645.87 2194.29 1650.8 2194.29 1656.87Z" stroke="#00A6D6" stroke-width="3.4375" stroke-linejoin="round" stroke-miterlimit="10" fill="#00A6D6"/><path d="M2154.29 1737.87C2154.29 1743.95 2149.37 1748.87 2143.29 1748.87 2137.22 1748.87 2132.29 1743.95 2132.29 1737.87 2132.29 1731.8 2137.22 1726.87 2143.29 1726.87 2149.37 1726.87 2154.29 1731.8 2154.29 1737.87Z" stroke="#00A6D6" stroke-width="3.4375" stroke-linejoin="round" stroke-miterlimit="10" fill="#00A6D6"/><path d="M2114.29 1804.87C2114.29 1810.95 2109.37 1815.87 2103.29 1815.87 2097.22 1815.87 2092.29 1810.95 2092.29 1804.87 2092.29 1798.8 2097.22 1793.87 2103.29 1793.87 2109.37 1793.87 2114.29 1798.8 2114.29 1804.87Z" stroke="#00A6D6" stroke-width="3.4375" stroke-linejoin="round" stroke-miterlimit="10" fill="#00A6D6"/><path d="M2074.29 1855.87C2074.29 1861.95 2069.37 1866.87 2063.29 1866.87 2057.22 1866.87 2052.29 1861.95 2052.29 1855.87 2052.29 1849.8 2057.22 1844.87 2063.29 1844.87 2069.37 1844.87 2074.29 1849.8 2074.29 1855.87Z" stroke="#00A6D6" stroke-width="3.4375" stroke-linejoin="round" stroke-miterlimit="10" fill="#00A6D6"/><path d="M2035.29 1891.87C2035.29 1897.95 2030.37 1902.87 2024.29 1902.87 2018.22 1902.87 2013.29 1897.95 2013.29 1891.87 2013.29 1885.8 2018.22 1880.87 2024.29 1880.87 2030.37 1880.87 2035.29 1885.8 2035.29 1891.87Z" stroke="#00A6D6" stroke-width="3.4375" stroke-linejoin="round" stroke-miterlimit="10" fill="#00A6D6"/><path d="M1995.29 1914.87C1995.29 1920.95 1990.37 1925.87 1984.29 1925.87 1978.22 1925.87 1973.29 1920.95 1973.29 1914.87 1973.29 1908.8 1978.22 1903.87 1984.29 1903.87 1990.37 1903.87 1995.29 1908.8 1995.29 1914.87Z" stroke="#00A6D6" stroke-width="3.4375" stroke-linejoin="round" stroke-miterlimit="10" fill="#00A6D6"/><path d="M1955.29 1927.87C1955.29 1933.95 1950.37 1938.87 1944.29 1938.87 1938.22 1938.87 1933.29 1933.95 1933.29 1927.87 1933.29 1921.8 1938.22 1916.87 1944.29 1916.87 1950.37 1916.87 1955.29 1921.8 1955.29 1927.87Z" stroke="#00A6D6" stroke-width="3.4375" stroke-linejoin="round" stroke-miterlimit="10" fill="#00A6D6"/><path d="M1915.29 1934.87C1915.29 1940.95 1910.37 1945.87 1904.29 1945.87 1898.22 1945.87 1893.29 1940.95 1893.29 1934.87 1893.29 1928.8 1898.22 1923.87 1904.29 1923.87 1910.37 1923.87 1915.29 1928.8 1915.29 1934.87Z" stroke="#00A6D6" stroke-width="3.4375" stroke-linejoin="round" stroke-miterlimit="10" fill="#00A6D6"/><path d="M1875.29 1937.87C1875.29 1943.95 1870.37 1948.87 1864.29 1948.87 1858.22 1948.87 1853.29 1943.95 1853.29 1937.87 1853.29 1931.8 1858.22 1926.87 1864.29 1926.87 1870.37 1926.87 1875.29 1931.8 1875.29 1937.87Z" stroke="#00A6D6" stroke-width="3.4375" stroke-linejoin="round" stroke-miterlimit="10" fill="#00A6D6"/><path d="M1835.29 1939.87C1835.29 1945.95 1830.37 1950.87 1824.29 1950.87 1818.22 1950.87 1813.29 1945.95 1813.29 1939.87 1813.29 1933.8 1818.22 1928.87 1824.29 1928.87 1830.37 1928.87 1835.29 1933.8 1835.29 1939.87Z" stroke="#00A6D6" stroke-width="3.4375" stroke-linejoin="round" stroke-miterlimit="10" fill="#00A6D6"/><path d="M1795.29 1939.87C1795.29 1945.95 1790.37 1950.87 1784.29 1950.87 1778.22 1950.87 1773.29 1945.95 1773.29 1939.87 1773.29 1933.8 1778.22 1928.87 1784.29 1928.87 1790.37 1928.87 1795.29 1933.8 1795.29 1939.87Z" stroke="#00A6D6" stroke-width="3.4375" stroke-linejoin="round" stroke-miterlimit="10" fill="#00A6D6"/><path d="M1755.29 1940.87C1755.29 1946.95 1750.37 1951.87 1744.29 1951.87 1738.22 1951.87 1733.29 1946.95 1733.29 1940.87 1733.29 1934.8 1738.22 1929.87 1744.29 1929.87 1750.37 1929.87 1755.29 1934.8 1755.29 1940.87Z" stroke="#00A6D6" stroke-width="3.4375" stroke-linejoin="round" stroke-miterlimit="10" fill="#00A6D6"/><path d="M1715.29 1940.87C1715.29 1946.95 1710.37 1951.87 1704.29 1951.87 1698.22 1951.87 1693.29 1946.95 1693.29 1940.87 1693.29 1934.8 1698.22 1929.87 1704.29 1929.87 1710.37 1929.87 1715.29 1934.8 1715.29 1940.87Z" stroke="#00A6D6" stroke-width="3.4375" stroke-linejoin="round" stroke-miterlimit="10" fill="#00A6D6"/><path d="M1675.29 1940.87C1675.29 1946.95 1670.37 1951.87 1664.29 1951.87 1658.22 1951.87 1653.29 1946.95 1653.29 1940.87 1653.29 1934.8 1658.22 1929.87 1664.29 1929.87 1670.37 1929.87 1675.29 1934.8 1675.29 1940.87Z" stroke="#00A6D6" stroke-width="3.4375" stroke-linejoin="round" stroke-miterlimit="10" fill="#00A6D6"/><path d="M1635.29 1940.87C1635.29 1946.95 1630.37 1951.87 1624.29 1951.87 1618.22 1951.87 1613.29 1946.95 1613.29 1940.87 1613.29 1934.8 1618.22 1929.87 1624.29 1929.87 1630.37 1929.87 1635.29 1934.8 1635.29 1940.87Z" stroke="#00A6D6" stroke-width="3.4375" stroke-linejoin="round" stroke-miterlimit="10" fill="#00A6D6"/><path d="M1595.29 1940.87C1595.29 1946.95 1590.37 1951.87 1584.29 1951.87 1578.22 1951.87 1573.29 1946.95 1573.29 1940.87 1573.29 1934.8 1578.22 1929.87 1584.29 1929.87 1590.37 1929.87 1595.29 1934.8 1595.29 1940.87Z" stroke="#00A6D6" stroke-width="3.4375" stroke-linejoin="round" stroke-miterlimit="10" fill="#00A6D6"/><path d="M1555.29 1940.87C1555.29 1946.95 1550.37 1951.87 1544.29 1951.87 1538.22 1951.87 1533.29 1946.95 1533.29 1940.87 1533.29 1934.8 1538.22 1929.87 1544.29 1929.87 1550.37 1929.87 1555.29 1934.8 1555.29 1940.87Z" stroke="#00A6D6" stroke-width="3.4375" stroke-linejoin="round" stroke-miterlimit="10" fill="#00A6D6"/><path d="M1516.29 1940.87C1516.29 1946.95 1511.37 1951.87 1505.29 1951.87 1499.22 1951.87 1494.29 1946.95 1494.29 1940.87 1494.29 1934.8 1499.22 1929.87 1505.29 1929.87 1511.37 1929.87 1516.29 1934.8 1516.29 1940.87Z" stroke="#00A6D6" stroke-width="3.4375" stroke-linejoin="round" stroke-miterlimit="10" fill="#00A6D6"/><path d="M1476.29 1940.87C1476.29 1946.95 1471.37 1951.87 1465.29 1951.87 1459.22 1951.87 1454.29 1946.95 1454.29 1940.87 1454.29 1934.8 1459.22 1929.87 1465.29 1929.87 1471.37 1929.87 1476.29 1934.8 1476.29 1940.87Z" stroke="#00A6D6" stroke-width="3.4375" stroke-linejoin="round" stroke-miterlimit="10" fill="#00A6D6"/><path d="M1436.29 1940.87C1436.29 1946.95 1431.37 1951.87 1425.29 1951.87 1419.22 1951.87 1414.29 1946.95 1414.29 1940.87 1414.29 1934.8 1419.22 1929.87 1425.29 1929.87 1431.37 1929.87 1436.29 1934.8 1436.29 1940.87Z" stroke="#00A6D6" stroke-width="3.4375" stroke-linejoin="round" stroke-miterlimit="10" fill="#00A6D6"/><path d="M1396.29 1940.87C1396.29 1946.95 1391.37 1951.87 1385.29 1951.87 1379.22 1951.87 1374.29 1946.95 1374.29 1940.87 1374.29 1934.8 1379.22 1929.87 1385.29 1929.87 1391.37 1929.87 1396.29 1934.8 1396.29 1940.87Z" stroke="#00A6D6" stroke-width="3.4375" stroke-linejoin="round" stroke-miterlimit="10" fill="#00A6D6"/><path d="M1356.29 1940.87C1356.29 1946.95 1351.37 1951.87 1345.29 1951.87 1339.22 1951.87 1334.29 1946.95 1334.29 1940.87 1334.29 1934.8 1339.22 1929.87 1345.29 1929.87 1351.37 1929.87 1356.29 1934.8 1356.29 1940.87Z" stroke="#00A6D6" stroke-width="3.4375" stroke-linejoin="round" stroke-miterlimit="10" fill="#00A6D6"/></g><g clip-path="url(#clip7)"><text fill="#595959" font-family="Arial,Arial_MSFontService,sans-serif" font-weight="400" font-size="41" transform="matrix(1 0 0 1 1050.42 1953)">0%</text></g><g clip-path="url(#clip8)"><text fill="#595959" font-family="Arial,Arial_MSFontService,sans-serif" font-weight="400" font-size="41" transform="matrix(1 0 0 1 1027.48 1880)">10%</text></g><g clip-path="url(#clip9)"><text fill="#595959" font-family="Arial,Arial_MSFontService,sans-serif" font-weight="400" font-size="41" transform="matrix(1 0 0 1 1027.48 1806)">20%</text></g><g clip-path="url(#clip10)"><text fill="#595959" font-family="Arial,Arial_MSFontService,sans-serif" font-weight="400" font-size="41" transform="matrix(1 0 0 1 1027.48 1733)">30%</text></g><g clip-path="url(#clip11)"><text fill="#595959" font-family="Arial,Arial_MSFontService,sans-serif" font-weight="400" font-size="41" transform="matrix(1 0 0 1 1027.48 1659)">40%</text></g><g clip-path="url(#clip12)"><text fill="#595959" font-family="Arial,Arial_MSFontService,sans-serif" font-weight="400" font-size="41" transform="matrix(1 0 0 1 1027.48 1586)">50%</text></g><g clip-path="url(#clip13)"><text fill="#595959" font-family="Arial,Arial_MSFontService,sans-serif" font-weight="400" font-size="41" transform="matrix(1 0 0 1 1027.48 1512)">60%</text></g><g clip-path="url(#clip14)"><text fill="#595959" font-family="Arial,Arial_MSFontService,sans-serif" font-weight="400" font-size="41" transform="matrix(1 0 0 1 1027.48 1439)">70%</text></g><g clip-path="url(#clip15)"><text fill="#595959" font-family="Arial,Arial_MSFontService,sans-serif" font-weight="400" font-size="41" transform="matrix(1 0 0 1 1027.48 1365)">80%</text></g><g clip-path="url(#clip16)"><text fill="#595959" font-family="Arial,Arial_MSFontService,sans-serif" font-weight="400" font-size="41" transform="matrix(1 0 0 1 1027.48 1292)">90%</text></g><g clip-path="url(#clip17)"><text fill="#595959" font-family="Arial,Arial_MSFontService,sans-serif" font-weight="400" font-size="41" transform="matrix(1 0 0 1 1004.54 1219)">100%</text></g><g clip-path="url(#clip18)"><text fill="#595959" font-family="Arial,Arial_MSFontService,sans-serif" font-weight="400" font-size="41" transform="matrix(1 0 0 1 1093.89 2002)">0.001</text></g><g clip-path="url(#clip19)"><text fill="#595959" font-family="Arial,Arial_MSFontService,sans-serif" font-weight="400" font-size="41" transform="matrix(1 0 0 1 1493.15 2002)">0.010</text></g><g clip-path="url(#clip20)"><text fill="#595959" font-family="Arial,Arial_MSFontService,sans-serif" font-weight="400" font-size="41" transform="matrix(1 0 0 1 1892.41 2002)">0.100</text></g><g clip-path="url(#clip21)"><text fill="#595959" font-family="Arial,Arial_MSFontService,sans-serif" font-weight="400" font-size="41" transform="matrix(1 0 0 1 2291.67 2002)">1.000</text></g><g clip-path="url(#clip22)"><text fill="#595959" font-family="Arial,Arial_MSFontService,sans-serif" font-weight="400" font-size="41" transform="matrix(1 0 0 1 2679.46 2002)">10.000</text></g><g clip-path="url(#clip23)"><text fill="#595959" font-family="Arial,Arial_MSFontService,sans-serif" font-weight="400" font-size="41" transform="matrix(1 0 0 1 3067.25 2002)">100.000</text></g><g clip-path="url(#clip24)"><text fill="#595959" font-family="Arial,Arial_MSFontService,sans-serif" font-weight="400" font-size="46" transform="matrix(6.12323e-17 -1 1 6.12323e-17 981.075 1720)">Completeness</text></g><g clip-path="url(#clip25)"><text fill="#595959" font-family="Arial,Arial_MSFontService,sans-serif" font-weight="400" font-size="46" transform="matrix(1 0 0 1 2001.04 2068)">Diameter [km]</text></g></g></svg>