<svg width="2200" height="990" xmlns="http://www.w3.org/2000/svg" xmlns:xlink="http://www.w3.org/1999/xlink" overflow="hidden"><defs><clipPath id="clip0"><rect x="0" y="980" width="2200" height="990"/></clipPath><clipPath id="clip1"><rect x="0" y="979" width="2200" height="991"/></clipPath><clipPath id="clip2"><rect x="264" y="1030" width="1487" height="749"/></clipPath><clipPath id="clip3"><rect x="264" y="1030" width="1487" height="749"/></clipPath><clipPath id="clip4"><rect x="0" y="979" width="2200" height="991"/></clipPath><clipPath id="clip5"><rect x="0" y="979" width="2200" height="991"/></clipPath><clipPath id="clip6"><rect x="0" y="979" width="2200" height="991"/></clipPath><clipPath id="clip7"><rect x="0" y="979" width="2200" height="991"/></clipPath><clipPath id="clip8"><rect x="0" y="979" width="2200" height="991"/></clipPath><clipPath id="clip9"><rect x="0" y="979" width="2200" height="991"/></clipPath><clipPath id="clip10"><rect x="0" y="979" width="2200" height="991"/></clipPath><clipPath id="clip11"><rect x="0" y="979" width="2200" height="991"/></clipPath><clipPath id="clip12"><rect x="0" y="979" width="2200" height="991"/></clipPath><clipPath id="clip13"><rect x="0" y="979" width="2200" height="991"/></clipPath><clipPath id="clip14"><rect x="0" y="979" width="2200" height="991"/></clipPath><clipPath id="clip15"><rect x="0" y="979" width="2200" height="991"/></clipPath><clipPath id="clip16"><rect x="0" y="979" width="2200" height="991"/></clipPath><clipPath id="clip17"><rect x="0" y="979" width="2200" height="991"/></clipPath><clipPath id="clip18"><rect x="0" y="979" width="2200" height="991"/></clipPath><clipPath id="clip19"><rect x="0" y="979" width="2200" height="991"/></clipPath><clipPath id="clip20"><rect x="0" y="979" width="2200" height="991"/></clipPath><clipPath id="clip21"><rect x="0" y="979" width="2200" height="991"/></clipPath><clipPath id="clip22"><rect x="0" y="979" width="2200" height="991"/></clipPath><clipPath id="clip23"><rect x="0" y="979" width="2200" height="991"/></clipPath><clipPath id="clip24"><rect x="0" y="979" width="2200" height="991"/></clipPath><clipPath id="clip25"><rect x="0" y="979" width="2200" height="991"/></clipPath><clipPath id="clip26"><rect x="0" y="979" width="2200" height="991"/></clipPath><clipPath id="clip27"><rect x="0" y="979" width="2200" height="991"/></clipPath><clipPath id="clip28"><rect x="0" y="979" width="2200" height="991"/></clipPath><clipPath id="clip29"><rect x="0" y="979" width="2200" height="991"/></clipPath><clipPath id="clip30"><rect x="0" y="979" width="2200" height="991"/></clipPath><clipPath id="clip31"><rect x="0" y="979" width="2200" height="991"/></clipPath><clipPath id="clip32"><rect x="0" y="979" width="2200" height="991"/></clipPath><clipPath id="clip33"><rect x="0" y="979" width="2200" height="991"/></clipPath></defs><g clip-path="url(#clip0)" transform="matrix(1 0 0 1 0 -980)"><g clip-path="url(#clip1)"><path d="M264.5 1682.56 1748.5 1682.56M264.5 1589.55 1748.5 1589.55M264.5 1496.55 1748.5 1496.55M264.5 1402.55 1748.5 1402.55M264.5 1309.54 1748.5 1309.54M264.5 1216.54 1748.5 1216.54M264.5 1123.54 1748.5 1123.54M264.5 1030.5 1748.5 1030.5" stroke="#D9D9D9" stroke-width="3.4375" stroke-linejoin="round" stroke-miterlimit="10" fill="none"/></g><g clip-path="url(#clip2)"><path d="M291.01 1632.05 314.01 1632.05 314.01 1776 291.01 1776ZM397.013 1560.05 420.014 1560.05 420.014 1776 397.013 1776ZM503.016 1485.05 526.017 1485.05 526.017 1776 503.016 1776ZM609.02 1455.05 632.021 1455.05 632.021 1776 609.02 1776ZM715.023 1427.05 738.024 1427.05 738.024 1776 715.023 1776ZM821.027 1378.05 844.028 1378.05 844.028 1776 821.027 1776ZM927.03 1352.04 950.031 1352.04 950.031 1776 927.03 1776ZM1032.03 1325.04 1056.03 1325.04 1056.03 1776 1032.03 1776ZM1138.04 1274.04 1162.04 1274.04 1162.04 1776 1138.04 1776ZM1244.04 1230.04 1268.04 1230.04 1268.04 1776 1244.04 1776ZM1350.04 1217.04 1374.05 1217.04 1374.05 1776 1350.04 1776ZM1456.05 1197.04 1480.05 1197.04 1480.05 1776 1456.05 1776ZM1562.05 1170.04 1586.05 1170.04 1586.05 1776 1562.05 1776ZM1668.05 1132.04 1692.06 1132.04 1692.06 1776 1668.05 1776Z" fill="#00A6D6"/></g><g clip-path="url(#clip3)"><path d="M321.011 1632.05 345.011 1632.05 345.011 1776 321.011 1776ZM427.014 1533.05 451.015 1533.05 451.015 1776 427.014 1776ZM533.017 1476.05 557.018 1476.05 557.018 1776 533.017 1776ZM639.021 1397.05 663.022 1397.05 663.022 1776 639.021 1776ZM745.024 1345.04 769.025 1345.04 769.025 1776 745.024 1776ZM851.028 1296.04 874.029 1296.04 874.029 1776 851.028 1776ZM957.031 1267.04 980.032 1267.04 980.032 1776 957.031 1776ZM1063.03 1243.04 1086.04 1243.04 1086.04 1776 1063.03 1776ZM1169.04 1228.04 1192.04 1228.04 1192.04 1776 1169.04 1776ZM1275.04 1182.04 1298.04 1182.04 1298.04 1776 1275.04 1776ZM1381.05 1158.04 1404.05 1158.04 1404.05 1776 1381.05 1776ZM1487.05 1132.04 1510.05 1132.04 1510.05 1776 1487.05 1776ZM1592.05 1124.04 1616.05 1124.04 1616.05 1776 1592.05 1776ZM1698.06 1100.04 1722.06 1100.04 1722.06 1776 1698.06 1776Z" fill="#017188"/></g><g clip-path="url(#clip4)"><path d="M264.5 1775.5 1748.5 1775.5" stroke="#D9D9D9" stroke-width="3.4375" stroke-linejoin="round" stroke-miterlimit="10" fill="none" fill-rule="evenodd"/></g><g clip-path="url(#clip5)"><text fill="#595959" font-family="Arial,Arial_MSFontService,sans-serif" font-weight="400" font-size="41" transform="matrix(1 0 0 1 169.63 1788)">0%</text></g><g clip-path="url(#clip6)"><text fill="#595959" font-family="Arial,Arial_MSFontService,sans-serif" font-weight="400" font-size="41" transform="matrix(1 0 0 1 146.69 1695)">20%</text></g><g clip-path="url(#clip7)"><text fill="#595959" font-family="Arial,Arial_MSFontService,sans-serif" font-weight="400" font-size="41" transform="matrix(1 0 0 1 146.69 1602)">40%</text></g><g clip-path="url(#clip8)"><text fill="#595959" font-family="Arial,Arial_MSFontService,sans-serif" font-weight="400" font-size="41" transform="matrix(1 0 0 1 146.69 1509)">60%</text></g><g clip-path="url(#clip9)"><text fill="#595959" font-family="Arial,Arial_MSFontService,sans-serif" font-weight="400" font-size="41" transform="matrix(1 0 0 1 146.69 1416)">80%</text></g><g clip-path="url(#clip10)"><text fill="#595959" font-family="Arial,Arial_MSFontService,sans-serif" font-weight="400" font-size="41" transform="matrix(1 0 0 1 123.75 1322)">100%</text></g><g clip-path="url(#clip11)"><text fill="#595959" font-family="Arial,Arial_MSFontService,sans-serif" font-weight="400" font-size="41" transform="matrix(1 0 0 1 123.75 1229)">120%</text></g><g clip-path="url(#clip12)"><text fill="#595959" font-family="Arial,Arial_MSFontService,sans-serif" font-weight="400" font-size="41" transform="matrix(1 0 0 1 123.75 1136)">140%</text></g><g clip-path="url(#clip13)"><text fill="#595959" font-family="Arial,Arial_MSFontService,sans-serif" font-weight="400" font-size="41" transform="matrix(1 0 0 1 123.75 1043)">160%</text></g><g clip-path="url(#clip14)"><text fill="#595959" font-family="Arial,Arial_MSFontService,sans-serif" font-weight="400" font-size="41" transform="matrix(1 0 0 1 306.225 1838)">2</text></g><g clip-path="url(#clip15)"><text fill="#595959" font-family="Arial,Arial_MSFontService,sans-serif" font-weight="400" font-size="41" transform="matrix(1 0 0 1 412.193 1838)">3</text></g><g clip-path="url(#clip16)"><text fill="#595959" font-family="Arial,Arial_MSFontService,sans-serif" font-weight="400" font-size="41" transform="matrix(1 0 0 1 518.161 1838)">4</text></g><g clip-path="url(#clip17)"><text fill="#595959" font-family="Arial,Arial_MSFontService,sans-serif" font-weight="400" font-size="41" transform="matrix(1 0 0 1 624.129 1838)">5</text></g><g clip-path="url(#clip18)"><text fill="#595959" font-family="Arial,Arial_MSFontService,sans-serif" font-weight="400" font-size="41" transform="matrix(1 0 0 1 730.098 1838)">6</text></g><g clip-path="url(#clip19)"><text fill="#595959" font-family="Arial,Arial_MSFontService,sans-serif" font-weight="400" font-size="41" transform="matrix(1 0 0 1 836.066 1838)">7</text></g><g clip-path="url(#clip20)"><text fill="#595959" font-family="Arial,Arial_MSFontService,sans-serif" font-weight="400" font-size="41" transform="matrix(1 0 0 1 942.034 1838)">8</text></g><g clip-path="url(#clip21)"><text fill="#595959" font-family="Arial,Arial_MSFontService,sans-serif" font-weight="400" font-size="41" transform="matrix(1 0 0 1 1048 1838)">9</text></g><g clip-path="url(#clip22)"><text fill="#595959" font-family="Arial,Arial_MSFontService,sans-serif" font-weight="400" font-size="41" transform="matrix(1 0 0 1 1142.5 1838)">10</text></g><g clip-path="url(#clip23)"><text fill="#595959" font-family="Arial,Arial_MSFontService,sans-serif" font-weight="400" font-size="41" transform="matrix(1 0 0 1 1248.47 1838)">11</text></g><g clip-path="url(#clip24)"><text fill="#595959" font-family="Arial,Arial_MSFontService,sans-serif" font-weight="400" font-size="41" transform="matrix(1 0 0 1 1354.44 1838)">12</text></g><g clip-path="url(#clip25)"><text fill="#595959" font-family="Arial,Arial_MSFontService,sans-serif" font-weight="400" font-size="41" transform="matrix(1 0 0 1 1460.4 1838)">13</text></g><g clip-path="url(#clip26)"><text fill="#595959" font-family="Arial,Arial_MSFontService,sans-serif" font-weight="400" font-size="41" transform="matrix(1 0 0 1 1566.37 1838)">14</text></g><g clip-path="url(#clip27)"><text fill="#595959" font-family="Arial,Arial_MSFontService,sans-serif" font-weight="400" font-size="41" transform="matrix(1 0 0 1 1672.34 1838)">15</text></g><g clip-path="url(#clip28)"><text fill="#595959" font-family="Arial,Arial_MSFontService,sans-serif" font-weight="400" font-size="46" transform="matrix(6.12323e-17 -1 1 6.12323e-17 100.284 1674)">Performance Improvement</text></g><g clip-path="url(#clip29)"><text fill="#595959" font-family="Arial,Arial_MSFontService,sans-serif" font-weight="400" font-size="46" transform="matrix(1 0 0 1 783.6 1903)">Number of Spacecraft</text></g><g clip-path="url(#clip30)"><rect x="1819" y="1428" width="21" height="21" fill="#00A6D6"/></g><g clip-path="url(#clip31)"><text fill="#595959" font-family="Arial,Arial_MSFontService,sans-serif" font-weight="400" font-size="41" transform="matrix(1 0 0 1 1848.73 1451)">Visual Light</text></g><g clip-path="url(#clip32)"><rect x="1819" y="1501" width="21" height="21" fill="#017188"/></g><g clip-path="url(#clip33)"><text fill="#595959" font-family="Arial,Arial_MSFontService,sans-serif" font-weight="400" font-size="41" transform="matrix(1 0 0 1 1848.73 1524)">Thermal Infrared</text></g></g></svg>