<svg width="2200" height="948" xmlns="http://www.w3.org/2000/svg" xmlns:xlink="http://www.w3.org/1999/xlink" overflow="hidden"><defs><clipPath id="clip0"><rect x="2200" y="0" width="2200" height="948"/></clipPath><clipPath id="clip1"><rect x="2200" y="0" width="2200" height="948"/></clipPath><clipPath id="clip2"><rect x="2200" y="0" width="2200" height="948"/></clipPath><clipPath id="clip3"><rect x="2200" y="0" width="2200" height="948"/></clipPath><clipPath id="clip4"><rect x="2200" y="0" width="2200" height="948"/></clipPath><clipPath id="clip5"><rect x="2200" y="0" width="2200" height="948"/></clipPath><clipPath id="clip6"><rect x="2200" y="0" width="2200" height="948"/></clipPath><clipPath id="clip7"><rect x="2200" y="0" width="2200" height="948"/></clipPath><clipPath id="clip8"><rect x="2200" y="0" width="2200" height="948"/></clipPath><clipPath id="clip9"><rect x="2200" y="0" width="2200" height="948"/></clipPath><clipPath id="clip10"><rect x="2441" y="50" width="1680" height="703"/></clipPath><clipPath id="clip11"><rect x="2441" y="50" width="1680" height="703"/></clipPath><clipPath id="clip12"><rect x="2441" y="50" width="1680" height="703"/></clipPath><clipPath id="clip13"><rect x="2441" y="50" width="1680" height="703"/></clipPath><clipPath id="clip14"><rect x="2441" y="50" width="1680" height="703"/></clipPath><clipPath id="clip15"><rect x="2200" y="0" width="2200" height="948"/></clipPath><clipPath id="clip16"><rect x="2200" y="0" width="2200" height="948"/></clipPath><clipPath id="clip17"><rect x="2200" y="0" width="2200" height="948"/></clipPath><clipPath id="clip18"><rect x="2200" y="0" width="2200" height="948"/></clipPath><clipPath id="clip19"><rect x="2200" y="0" width="2200" height="948"/></clipPath><clipPath id="clip20"><rect x="2200" y="0" width="2200" height="948"/></clipPath><clipPath id="clip21"><rect x="2200" y="0" width="2200" height="948"/></clipPath><clipPath id="clip22"><rect x="2200" y="0" width="2200" height="948"/></clipPath><clipPath id="clip23"><rect x="2200" y="0" width="2200" height="948"/></clipPath><clipPath id="clip24"><rect x="2200" y="0" width="2200" height="948"/></clipPath><clipPath id="clip25"><rect x="2200" y="0" width="2200" height="948"/></clipPath><clipPath id="clip26"><rect x="2200" y="0" width="2200" height="948"/></clipPath><clipPath id="clip27"><rect x="2200" y="0" width="2200" height="948"/></clipPath><clipPath id="clip28"><rect x="2200" y="0" width="2200" height="948"/></clipPath><clipPath id="clip29"><rect x="2200" y="0" width="2200" height="948"/></clipPath><clipPath id="clip30"><rect x="2200" y="0" width="2200" height="948"/></clipPath><clipPath id="clip31"><rect x="2200" y="0" width="2200" height="948"/></clipPath><clipPath id="clip32"><rect x="2200" y="0" width="2200" height="948"/></clipPath><clipPath id="clip33"><rect x="2200" y="0" width="2200" height="948"/></clipPath><clipPath id="clip34"><rect x="2200" y="0" width="2200" height="948"/></clipPath><clipPath id="clip35"><rect x="2200" y="0" width="2200" height="948"/></clipPath><clipPath id="clip36"><rect x="2200" y="0" width="2200" height="948"/></clipPath><clipPath id="clip37"><rect x="2200" y="0" width="2200" height="948"/></clipPath><clipPath id="clip38"><rect x="2200" y="0" width="2200" height="948"/></clipPath><clipPath id="clip39"><rect x="2200" y="0" width="2200" height="948"/></clipPath><clipPath id="clip40"><rect x="2200" y="0" width="2200" height="948"/></clipPath><clipPath id="clip41"><rect x="2200" y="0" width="2200" height="948"/></clipPath><clipPath id="clip42"><rect x="2200" y="0" width="2200" height="948"/></clipPath><clipPath id="clip43"><rect x="2200" y="0" width="2200" height="948"/></clipPath><clipPath id="clip44"><rect x="2200" y="0" width="2200" height="948"/></clipPath><clipPath id="clip45"><rect x="2200" y="0" width="2200" height="948"/></clipPath></defs><g clip-path="url(#clip0)" transform="translate(-2200 0)"><g clip-path="url(#clip1)"><path d="M2441.5 683.523 4121.5 683.523M2441.5 612.52 4121.5 612.52M2441.5 542.518 4121.5 542.518M2441.5 472.516 4121.5 472.516M2441.5 401.513 4121.5 401.513M2441.5 331.511 4121.5 331.511M2441.5 261.509 4121.5 261.509M2441.5 191.506 4121.5 191.506M2441.5 120.504 4121.5 120.504M2441.5 50.5 4121.5 50.5" stroke="#D9D9D9" stroke-width="3.4375" stroke-linejoin="round" stroke-miterlimit="10" fill="none"/></g><g clip-path="url(#clip2)"><path d="M2741.59 50.5 2741.59 753.5M3041.6 50.5 3041.6 753.5M3341.61 50.5 3341.61 753.5M3641.62 50.5 3641.62 753.5M3941.5 50.5 3941.5 753.5" stroke="#D9D9D9" stroke-width="3.4375" stroke-linejoin="round" stroke-miterlimit="10" fill="none"/></g><g clip-path="url(#clip3)"><path d="M0 0 0.000360892 703" stroke="#BFBFBF" stroke-width="3.4375" stroke-linejoin="round" stroke-miterlimit="10" fill="none" fill-rule="evenodd" transform="matrix(1 0 0 -1 2441.5 753.5)"/></g><g clip-path="url(#clip4)"><path d="M2441.5 753.5 4121.5 753.5" stroke="#BFBFBF" stroke-width="3.4375" stroke-linejoin="round" stroke-miterlimit="10" fill="none" fill-rule="evenodd"/></g><g clip-path="url(#clip5)"><path d="M2452.5 707.5C2452.5 713.575 2447.57 718.499 2441.5 718.499 2435.42 718.499 2430.5 713.575 2430.5 707.5 2430.5 701.425 2435.42 696.5 2441.5 696.5 2447.57 696.5 2452.5 701.425 2452.5 707.5Z" stroke="#00A6D6" stroke-width="3.4375" stroke-linejoin="round" stroke-miterlimit="10" fill="#00A6D6"/><path d="M2512.5 698.5C2512.5 704.575 2507.57 709.499 2501.5 709.499 2495.42 709.499 2490.5 704.575 2490.5 698.5 2490.5 692.425 2495.42 687.5 2501.5 687.5 2507.57 687.5 2512.5 692.425 2512.5 698.5Z" stroke="#00A6D6" stroke-width="3.4375" stroke-linejoin="round" stroke-miterlimit="10" fill="#00A6D6"/><path d="M2572.5 698.5C2572.5 704.575 2567.57 709.499 2561.5 709.499 2555.42 709.499 2550.5 704.575 2550.5 698.5 2550.5 692.425 2555.42 687.5 2561.5 687.5 2567.57 687.5 2572.5 692.425 2572.5 698.5Z" stroke="#00A6D6" stroke-width="3.4375" stroke-linejoin="round" stroke-miterlimit="10" fill="#00A6D6"/><path d="M2632.5 703.5C2632.5 709.575 2627.57 714.499 2621.5 714.499 2615.42 714.499 2610.5 709.575 2610.5 703.5 2610.5 697.425 2615.42 692.5 2621.5 692.5 2627.57 692.5 2632.5 697.425 2632.5 703.5Z" stroke="#00A6D6" stroke-width="3.4375" stroke-linejoin="round" stroke-miterlimit="10" fill="#00A6D6"/><path d="M2692.5 700.5C2692.5 706.575 2687.57 711.499 2681.5 711.499 2675.42 711.499 2670.5 706.575 2670.5 700.5 2670.5 694.425 2675.42 689.5 2681.5 689.5 2687.57 689.5 2692.5 694.425 2692.5 700.5Z" stroke="#00A6D6" stroke-width="3.4375" stroke-linejoin="round" stroke-miterlimit="10" fill="#00A6D6"/><path d="M2752.5 704.5C2752.5 710.575 2747.57 715.499 2741.5 715.499 2735.42 715.499 2730.5 710.575 2730.5 704.5 2730.5 698.425 2735.42 693.5 2741.5 693.5 2747.57 693.5 2752.5 698.425 2752.5 704.5Z" stroke="#00A6D6" stroke-width="3.4375" stroke-linejoin="round" stroke-miterlimit="10" fill="#00A6D6"/><path d="M2812.5 695.5C2812.5 701.574 2807.57 706.499 2801.5 706.499 2795.42 706.499 2790.5 701.574 2790.5 695.5 2790.5 689.425 2795.42 684.5 2801.5 684.5 2807.57 684.5 2812.5 689.425 2812.5 695.5Z" stroke="#00A6D6" stroke-width="3.4375" stroke-linejoin="round" stroke-miterlimit="10" fill="#00A6D6"/><path d="M2872.5 698.5C2872.5 704.575 2867.57 709.499 2861.5 709.499 2855.42 709.499 2850.5 704.575 2850.5 698.5 2850.5 692.425 2855.42 687.5 2861.5 687.5 2867.57 687.5 2872.5 692.425 2872.5 698.5Z" stroke="#00A6D6" stroke-width="3.4375" stroke-linejoin="round" stroke-miterlimit="10" fill="#00A6D6"/><path d="M2932.5 703.5C2932.5 709.575 2927.57 714.499 2921.5 714.499 2915.42 714.499 2910.5 709.575 2910.5 703.5 2910.5 697.425 2915.42 692.5 2921.5 692.5 2927.57 692.5 2932.5 697.425 2932.5 703.5Z" stroke="#00A6D6" stroke-width="3.4375" stroke-linejoin="round" stroke-miterlimit="10" fill="#00A6D6"/><path d="M2992.5 706.5C2992.5 712.574 2987.57 717.499 2981.5 717.499 2975.42 717.499 2970.5 712.574 2970.5 706.5 2970.5 700.425 2975.42 695.5 2981.5 695.5 2987.57 695.5 2992.5 700.425 2992.5 706.5Z" stroke="#00A6D6" stroke-width="3.4375" stroke-linejoin="round" stroke-miterlimit="10" fill="#00A6D6"/><path d="M3052.5 706.5C3052.5 712.574 3047.57 717.499 3041.5 717.499 3035.42 717.499 3030.5 712.574 3030.5 706.5 3030.5 700.425 3035.42 695.5 3041.5 695.5 3047.57 695.5 3052.5 700.425 3052.5 706.5Z" stroke="#00A6D6" stroke-width="3.4375" stroke-linejoin="round" stroke-miterlimit="10" fill="#00A6D6"/><path d="M3112.5 698.5C3112.5 704.575 3107.57 709.499 3101.5 709.499 3095.42 709.499 3090.5 704.575 3090.5 698.5 3090.5 692.425 3095.42 687.5 3101.5 687.5 3107.57 687.5 3112.5 692.425 3112.5 698.5Z" stroke="#00A6D6" stroke-width="3.4375" stroke-linejoin="round" stroke-miterlimit="10" fill="#00A6D6"/><path d="M3172.5 698.5C3172.5 704.575 3167.57 709.499 3161.5 709.499 3155.42 709.499 3150.5 704.575 3150.5 698.5 3150.5 692.425 3155.42 687.5 3161.5 687.5 3167.57 687.5 3172.5 692.425 3172.5 698.5Z" stroke="#00A6D6" stroke-width="3.4375" stroke-linejoin="round" stroke-miterlimit="10" fill="#00A6D6"/><path d="M3232.5 698.5C3232.5 704.575 3227.57 709.499 3221.5 709.499 3215.42 709.499 3210.5 704.575 3210.5 698.5 3210.5 692.425 3215.42 687.5 3221.5 687.5 3227.57 687.5 3232.5 692.425 3232.5 698.5Z" stroke="#00A6D6" stroke-width="3.4375" stroke-linejoin="round" stroke-miterlimit="10" fill="#00A6D6"/><path d="M3292.5 704.5C3292.5 710.575 3287.57 715.499 3281.5 715.499 3275.42 715.499 3270.5 710.575 3270.5 704.5 3270.5 698.425 3275.42 693.5 3281.5 693.5 3287.57 693.5 3292.5 698.425 3292.5 704.5Z" stroke="#00A6D6" stroke-width="3.4375" stroke-linejoin="round" stroke-miterlimit="10" fill="#00A6D6"/><path d="M3352.5 704.5C3352.5 710.575 3347.57 715.499 3341.5 715.499 3335.42 715.499 3330.5 710.575 3330.5 704.5 3330.5 698.425 3335.42 693.5 3341.5 693.5 3347.57 693.5 3352.5 698.425 3352.5 704.5Z" stroke="#00A6D6" stroke-width="3.4375" stroke-linejoin="round" stroke-miterlimit="10" fill="#00A6D6"/><path d="M3412.5 705.5C3412.5 711.574 3407.57 716.499 3401.5 716.499 3395.42 716.499 3390.5 711.574 3390.5 705.5 3390.5 699.425 3395.42 694.5 3401.5 694.5 3407.57 694.5 3412.5 699.425 3412.5 705.5Z" stroke="#00A6D6" stroke-width="3.4375" stroke-linejoin="round" stroke-miterlimit="10" fill="#00A6D6"/><path d="M3472.5 706.5C3472.5 712.574 3467.57 717.499 3461.5 717.499 3455.42 717.499 3450.5 712.574 3450.5 706.5 3450.5 700.425 3455.42 695.5 3461.5 695.5 3467.57 695.5 3472.5 700.425 3472.5 706.5Z" stroke="#00A6D6" stroke-width="3.4375" stroke-linejoin="round" stroke-miterlimit="10" fill="#00A6D6"/><path d="M3532.5 706.5C3532.5 712.574 3527.57 717.499 3521.5 717.499 3515.42 717.499 3510.5 712.574 3510.5 706.5 3510.5 700.425 3515.42 695.5 3521.5 695.5 3527.57 695.5 3532.5 700.425 3532.5 706.5Z" stroke="#00A6D6" stroke-width="3.4375" stroke-linejoin="round" stroke-miterlimit="10" fill="#00A6D6"/><path d="M3592.5 700.5C3592.5 706.575 3587.57 711.499 3581.5 711.499 3575.42 711.499 3570.5 706.575 3570.5 700.5 3570.5 694.425 3575.42 689.5 3581.5 689.5 3587.57 689.5 3592.5 694.425 3592.5 700.5Z" stroke="#00A6D6" stroke-width="3.4375" stroke-linejoin="round" stroke-miterlimit="10" fill="#00A6D6"/><path d="M3652.5 704.5C3652.5 710.575 3647.57 715.499 3641.5 715.499 3635.42 715.499 3630.5 710.575 3630.5 704.5 3630.5 698.425 3635.42 693.5 3641.5 693.5 3647.57 693.5 3652.5 698.425 3652.5 704.5Z" stroke="#00A6D6" stroke-width="3.4375" stroke-linejoin="round" stroke-miterlimit="10" fill="#00A6D6"/><path d="M3712.5 695.5C3712.5 701.574 3707.57 706.499 3701.5 706.499 3695.42 706.499 3690.5 701.574 3690.5 695.5 3690.5 689.425 3695.42 684.5 3701.5 684.5 3707.57 684.5 3712.5 689.425 3712.5 695.5Z" stroke="#00A6D6" stroke-width="3.4375" stroke-linejoin="round" stroke-miterlimit="10" fill="#00A6D6"/><path d="M3772.5 698.5C3772.5 704.575 3767.57 709.499 3761.5 709.499 3755.42 709.499 3750.5 704.575 3750.5 698.5 3750.5 692.425 3755.42 687.5 3761.5 687.5 3767.57 687.5 3772.5 692.425 3772.5 698.5Z" stroke="#00A6D6" stroke-width="3.4375" stroke-linejoin="round" stroke-miterlimit="10" fill="#00A6D6"/><path d="M3832.5 707.5C3832.5 713.575 3827.57 718.499 3821.5 718.499 3815.42 718.499 3810.5 713.575 3810.5 707.5 3810.5 701.425 3815.42 696.5 3821.5 696.5 3827.57 696.5 3832.5 701.425 3832.5 707.5Z" stroke="#00A6D6" stroke-width="3.4375" stroke-linejoin="round" stroke-miterlimit="10" fill="#00A6D6"/><path d="M3892.5 706.5C3892.5 712.574 3887.57 717.499 3881.5 717.499 3875.42 717.499 3870.5 712.574 3870.5 706.5 3870.5 700.425 3875.42 695.5 3881.5 695.5 3887.57 695.5 3892.5 700.425 3892.5 706.5Z" stroke="#00A6D6" stroke-width="3.4375" stroke-linejoin="round" stroke-miterlimit="10" fill="#00A6D6"/><path d="M3952.5 706.5C3952.5 712.574 3947.57 717.499 3941.5 717.499 3935.42 717.499 3930.5 712.574 3930.5 706.5 3930.5 700.425 3935.42 695.5 3941.5 695.5 3947.57 695.5 3952.5 700.425 3952.5 706.5Z" stroke="#00A6D6" stroke-width="3.4375" stroke-linejoin="round" stroke-miterlimit="10" fill="#00A6D6"/><path d="M4012.5 698.5C4012.5 704.575 4007.57 709.499 4001.5 709.499 3995.42 709.499 3990.5 704.575 3990.5 698.5 3990.5 692.425 3995.42 687.5 4001.5 687.5 4007.57 687.5 4012.5 692.425 4012.5 698.5Z" stroke="#00A6D6" stroke-width="3.4375" stroke-linejoin="round" stroke-miterlimit="10" fill="#00A6D6"/><path d="M4072.5 698.5C4072.5 704.575 4067.57 709.499 4061.5 709.499 4055.42 709.499 4050.5 704.575 4050.5 698.5 4050.5 692.425 4055.42 687.5 4061.5 687.5 4067.57 687.5 4072.5 692.425 4072.5 698.5Z" stroke="#00A6D6" stroke-width="3.4375" stroke-linejoin="round" stroke-miterlimit="10" fill="#00A6D6"/><path d="M4132.5 698.5C4132.5 704.575 4127.57 709.499 4121.5 709.499 4115.42 709.499 4110.5 704.575 4110.5 698.5 4110.5 692.425 4115.42 687.5 4121.5 687.5 4127.57 687.5 4132.5 692.425 4132.5 698.5Z" stroke="#00A6D6" stroke-width="3.4375" stroke-linejoin="round" stroke-miterlimit="10" fill="#00A6D6"/></g><g clip-path="url(#clip6)"><path d="M2452.5 412.5C2452.5 418.575 2447.57 423.499 2441.5 423.499 2435.42 423.499 2430.5 418.575 2430.5 412.5 2430.5 406.425 2435.42 401.5 2441.5 401.5 2447.57 401.5 2452.5 406.425 2452.5 412.5Z" stroke="#017188" stroke-width="3.4375" stroke-linejoin="round" stroke-miterlimit="10" fill="#017188"/><path d="M2512.5 412.5C2512.5 418.575 2507.57 423.499 2501.5 423.499 2495.42 423.499 2490.5 418.575 2490.5 412.5 2490.5 406.425 2495.42 401.5 2501.5 401.5 2507.57 401.5 2512.5 406.425 2512.5 412.5Z" stroke="#017188" stroke-width="3.4375" stroke-linejoin="round" stroke-miterlimit="10" fill="#017188"/><path d="M2572.5 414.5C2572.5 420.575 2567.57 425.499 2561.5 425.499 2555.42 425.499 2550.5 420.575 2550.5 414.5 2550.5 408.425 2555.42 403.5 2561.5 403.5 2567.57 403.5 2572.5 408.425 2572.5 414.5Z" stroke="#017188" stroke-width="3.4375" stroke-linejoin="round" stroke-miterlimit="10" fill="#017188"/><path d="M2632.5 415.5C2632.5 421.575 2627.57 426.499 2621.5 426.499 2615.42 426.499 2610.5 421.575 2610.5 415.5 2610.5 409.425 2615.42 404.5 2621.5 404.5 2627.57 404.5 2632.5 409.425 2632.5 415.5Z" stroke="#017188" stroke-width="3.4375" stroke-linejoin="round" stroke-miterlimit="10" fill="#017188"/><path d="M2692.5 415.5C2692.5 421.575 2687.57 426.499 2681.5 426.499 2675.42 426.499 2670.5 421.575 2670.5 415.5 2670.5 409.425 2675.42 404.5 2681.5 404.5 2687.57 404.5 2692.5 409.425 2692.5 415.5Z" stroke="#017188" stroke-width="3.4375" stroke-linejoin="round" stroke-miterlimit="10" fill="#017188"/><path d="M2752.5 400.5C2752.5 406.575 2747.57 411.499 2741.5 411.499 2735.42 411.499 2730.5 406.575 2730.5 400.5 2730.5 394.425 2735.42 389.5 2741.5 389.5 2747.57 389.5 2752.5 394.425 2752.5 400.5Z" stroke="#017188" stroke-width="3.4375" stroke-linejoin="round" stroke-miterlimit="10" fill="#017188"/><path d="M2812.5 404.5C2812.5 410.575 2807.57 415.499 2801.5 415.499 2795.42 415.499 2790.5 410.575 2790.5 404.5 2790.5 398.425 2795.42 393.5 2801.5 393.5 2807.57 393.5 2812.5 398.425 2812.5 404.5Z" stroke="#017188" stroke-width="3.4375" stroke-linejoin="round" stroke-miterlimit="10" fill="#017188"/><path d="M2872.5 410.5C2872.5 416.574 2867.57 421.499 2861.5 421.499 2855.42 421.499 2850.5 416.574 2850.5 410.5 2850.5 404.425 2855.42 399.5 2861.5 399.5 2867.57 399.5 2872.5 404.425 2872.5 410.5Z" stroke="#017188" stroke-width="3.4375" stroke-linejoin="round" stroke-miterlimit="10" fill="#017188"/><path d="M2932.5 415.5C2932.5 421.575 2927.57 426.499 2921.5 426.499 2915.42 426.499 2910.5 421.575 2910.5 415.5 2910.5 409.425 2915.42 404.5 2921.5 404.5 2927.57 404.5 2932.5 409.425 2932.5 415.5Z" stroke="#017188" stroke-width="3.4375" stroke-linejoin="round" stroke-miterlimit="10" fill="#017188"/><path d="M2992.5 414.5C2992.5 420.575 2987.57 425.499 2981.5 425.499 2975.42 425.499 2970.5 420.575 2970.5 414.5 2970.5 408.425 2975.42 403.5 2981.5 403.5 2987.57 403.5 2992.5 408.425 2992.5 414.5Z" stroke="#017188" stroke-width="3.4375" stroke-linejoin="round" stroke-miterlimit="10" fill="#017188"/><path d="M3052.5 392.5C3052.5 398.575 3047.57 403.499 3041.5 403.499 3035.42 403.499 3030.5 398.575 3030.5 392.5 3030.5 386.425 3035.42 381.5 3041.5 381.5 3047.57 381.5 3052.5 386.425 3052.5 392.5Z" stroke="#017188" stroke-width="3.4375" stroke-linejoin="round" stroke-miterlimit="10" fill="#017188"/><path d="M3112.5 392.5C3112.5 398.575 3107.57 403.499 3101.5 403.499 3095.42 403.499 3090.5 398.575 3090.5 392.5 3090.5 386.425 3095.42 381.5 3101.5 381.5 3107.57 381.5 3112.5 386.425 3112.5 392.5Z" stroke="#017188" stroke-width="3.4375" stroke-linejoin="round" stroke-miterlimit="10" fill="#017188"/><path d="M3172.5 392.5C3172.5 398.575 3167.57 403.499 3161.5 403.499 3155.42 403.499 3150.5 398.575 3150.5 392.5 3150.5 386.425 3155.42 381.5 3161.5 381.5 3167.57 381.5 3172.5 386.425 3172.5 392.5Z" stroke="#017188" stroke-width="3.4375" stroke-linejoin="round" stroke-miterlimit="10" fill="#017188"/><path d="M3232.5 393.5C3232.5 399.575 3227.57 404.499 3221.5 404.499 3215.42 404.499 3210.5 399.575 3210.5 393.5 3210.5 387.425 3215.42 382.5 3221.5 382.5 3227.57 382.5 3232.5 387.425 3232.5 393.5Z" stroke="#017188" stroke-width="3.4375" stroke-linejoin="round" stroke-miterlimit="10" fill="#017188"/><path d="M3292.5 394.5C3292.5 400.575 3287.57 405.499 3281.5 405.499 3275.42 405.499 3270.5 400.575 3270.5 394.5 3270.5 388.425 3275.42 383.5 3281.5 383.5 3287.57 383.5 3292.5 388.425 3292.5 394.5Z" stroke="#017188" stroke-width="3.4375" stroke-linejoin="round" stroke-miterlimit="10" fill="#017188"/><path d="M3352.5 395.5C3352.5 401.575 3347.57 406.499 3341.5 406.499 3335.42 406.499 3330.5 401.575 3330.5 395.5 3330.5 389.425 3335.42 384.5 3341.5 384.5 3347.57 384.5 3352.5 389.425 3352.5 395.5Z" stroke="#017188" stroke-width="3.4375" stroke-linejoin="round" stroke-miterlimit="10" fill="#017188"/><path d="M3412.5 379.5C3412.5 385.575 3407.57 390.499 3401.5 390.499 3395.42 390.499 3390.5 385.575 3390.5 379.5 3390.5 373.425 3395.42 368.5 3401.5 368.5 3407.57 368.5 3412.5 373.425 3412.5 379.5Z" stroke="#017188" stroke-width="3.4375" stroke-linejoin="round" stroke-miterlimit="10" fill="#017188"/><path d="M3472.5 383.5C3472.5 389.575 3467.57 394.499 3461.5 394.499 3455.42 394.499 3450.5 389.575 3450.5 383.5 3450.5 377.425 3455.42 372.5 3461.5 372.5 3467.57 372.5 3472.5 377.425 3472.5 383.5Z" stroke="#017188" stroke-width="3.4375" stroke-linejoin="round" stroke-miterlimit="10" fill="#017188"/><path d="M3532.5 390.5C3532.5 396.575 3527.57 401.499 3521.5 401.499 3515.42 401.499 3510.5 396.575 3510.5 390.5 3510.5 384.425 3515.42 379.5 3521.5 379.5 3527.57 379.5 3532.5 384.425 3532.5 390.5Z" stroke="#017188" stroke-width="3.4375" stroke-linejoin="round" stroke-miterlimit="10" fill="#017188"/><path d="M3592.5 394.5C3592.5 400.575 3587.57 405.499 3581.5 405.499 3575.42 405.499 3570.5 400.575 3570.5 394.5 3570.5 388.425 3575.42 383.5 3581.5 383.5 3587.57 383.5 3592.5 388.425 3592.5 394.5Z" stroke="#017188" stroke-width="3.4375" stroke-linejoin="round" stroke-miterlimit="10" fill="#017188"/><path d="M3652.5 377.5C3652.5 383.574 3647.57 388.499 3641.5 388.499 3635.42 388.499 3630.5 383.574 3630.5 377.5 3630.5 371.425 3635.42 366.5 3641.5 366.5 3647.57 366.5 3652.5 371.425 3652.5 377.5Z" stroke="#017188" stroke-width="3.4375" stroke-linejoin="round" stroke-miterlimit="10" fill="#017188"/><path d="M3712.5 378.5C3712.5 384.575 3707.57 389.499 3701.5 389.499 3695.42 389.499 3690.5 384.575 3690.5 378.5 3690.5 372.425 3695.42 367.5 3701.5 367.5 3707.57 367.5 3712.5 372.425 3712.5 378.5Z" stroke="#017188" stroke-width="3.4375" stroke-linejoin="round" stroke-miterlimit="10" fill="#017188"/><path d="M3772.5 378.5C3772.5 384.575 3767.57 389.499 3761.5 389.499 3755.42 389.499 3750.5 384.575 3750.5 378.5 3750.5 372.425 3755.42 367.5 3761.5 367.5 3767.57 367.5 3772.5 372.425 3772.5 378.5Z" stroke="#017188" stroke-width="3.4375" stroke-linejoin="round" stroke-miterlimit="10" fill="#017188"/><path d="M3832.5 363.5C3832.5 369.575 3827.57 374.499 3821.5 374.499 3815.42 374.499 3810.5 369.575 3810.5 363.5 3810.5 357.425 3815.42 352.5 3821.5 352.5 3827.57 352.5 3832.5 357.425 3832.5 363.5Z" stroke="#017188" stroke-width="3.4375" stroke-linejoin="round" stroke-miterlimit="10" fill="#017188"/><path d="M3892.5 367.5C3892.5 373.575 3887.57 378.499 3881.5 378.499 3875.42 378.499 3870.5 373.575 3870.5 367.5 3870.5 361.425 3875.42 356.5 3881.5 356.5 3887.57 356.5 3892.5 361.425 3892.5 367.5Z" stroke="#017188" stroke-width="3.4375" stroke-linejoin="round" stroke-miterlimit="10" fill="#017188"/><path d="M3952.5 373.5C3952.5 379.575 3947.57 384.499 3941.5 384.499 3935.42 384.499 3930.5 379.575 3930.5 373.5 3930.5 367.425 3935.42 362.5 3941.5 362.5 3947.57 362.5 3952.5 367.425 3952.5 373.5Z" stroke="#017188" stroke-width="3.4375" stroke-linejoin="round" stroke-miterlimit="10" fill="#017188"/><path d="M4012.5 377.5C4012.5 383.574 4007.57 388.499 4001.5 388.499 3995.42 388.499 3990.5 383.574 3990.5 377.5 3990.5 371.425 3995.42 366.5 4001.5 366.5 4007.57 366.5 4012.5 371.425 4012.5 377.5Z" stroke="#017188" stroke-width="3.4375" stroke-linejoin="round" stroke-miterlimit="10" fill="#017188"/><path d="M4072.5 360.5C4072.5 366.575 4067.57 371.499 4061.5 371.499 4055.42 371.499 4050.5 366.575 4050.5 360.5 4050.5 354.425 4055.42 349.5 4061.5 349.5 4067.57 349.5 4072.5 354.425 4072.5 360.5Z" stroke="#017188" stroke-width="3.4375" stroke-linejoin="round" stroke-miterlimit="10" fill="#017188"/><path d="M4132.5 361.5C4132.5 367.575 4127.57 372.499 4121.5 372.499 4115.42 372.499 4110.5 367.575 4110.5 361.5 4110.5 355.425 4115.42 350.5 4121.5 350.5 4127.57 350.5 4132.5 355.425 4132.5 361.5Z" stroke="#017188" stroke-width="3.4375" stroke-linejoin="round" stroke-miterlimit="10" fill="#017188"/></g><g clip-path="url(#clip7)"><path d="M2452.5 397.5C2452.5 403.574 2447.57 408.499 2441.5 408.499 2435.42 408.499 2430.5 403.574 2430.5 397.5 2430.5 391.425 2435.42 386.5 2441.5 386.5 2447.57 386.5 2452.5 391.425 2452.5 397.5Z" stroke="#EB7246" stroke-width="3.4375" stroke-linejoin="round" stroke-miterlimit="10" fill="#EB7246"/><path d="M2512.5 388.5C2512.5 394.574 2507.57 399.499 2501.5 399.499 2495.42 399.499 2490.5 394.574 2490.5 388.5 2490.5 382.425 2495.42 377.5 2501.5 377.5 2507.57 377.5 2512.5 382.425 2512.5 388.5Z" stroke="#EB7246" stroke-width="3.4375" stroke-linejoin="round" stroke-miterlimit="10" fill="#EB7246"/><path d="M2572.5 386.5C2572.5 392.574 2567.57 397.499 2561.5 397.499 2555.42 397.499 2550.5 392.574 2550.5 386.5 2550.5 380.425 2555.42 375.5 2561.5 375.5 2567.57 375.5 2572.5 380.425 2572.5 386.5Z" stroke="#EB7246" stroke-width="3.4375" stroke-linejoin="round" stroke-miterlimit="10" fill="#EB7246"/><path d="M2632.5 388.5C2632.5 394.574 2627.57 399.499 2621.5 399.499 2615.42 399.499 2610.5 394.574 2610.5 388.5 2610.5 382.425 2615.42 377.5 2621.5 377.5 2627.57 377.5 2632.5 382.425 2632.5 388.5Z" stroke="#EB7246" stroke-width="3.4375" stroke-linejoin="round" stroke-miterlimit="10" fill="#EB7246"/><path d="M2692.5 367.5C2692.5 373.575 2687.57 378.499 2681.5 378.499 2675.42 378.499 2670.5 373.575 2670.5 367.5 2670.5 361.425 2675.42 356.5 2681.5 356.5 2687.57 356.5 2692.5 361.425 2692.5 367.5Z" stroke="#EB7246" stroke-width="3.4375" stroke-linejoin="round" stroke-miterlimit="10" fill="#EB7246"/><path d="M2752.5 355.5C2752.5 361.574 2747.57 366.499 2741.5 366.499 2735.42 366.499 2730.5 361.574 2730.5 355.5 2730.5 349.425 2735.42 344.5 2741.5 344.5 2747.57 344.5 2752.5 349.425 2752.5 355.5Z" stroke="#EB7246" stroke-width="3.4375" stroke-linejoin="round" stroke-miterlimit="10" fill="#EB7246"/><path d="M2812.5 344.5C2812.5 350.574 2807.57 355.499 2801.5 355.499 2795.42 355.499 2790.5 350.574 2790.5 344.5 2790.5 338.425 2795.42 333.5 2801.5 333.5 2807.57 333.5 2812.5 338.425 2812.5 344.5Z" stroke="#EB7246" stroke-width="3.4375" stroke-linejoin="round" stroke-miterlimit="10" fill="#EB7246"/><path d="M2872.5 347.5C2872.5 353.575 2867.57 358.499 2861.5 358.499 2855.42 358.499 2850.5 353.575 2850.5 347.5 2850.5 341.425 2855.42 336.5 2861.5 336.5 2867.57 336.5 2872.5 341.425 2872.5 347.5Z" stroke="#EB7246" stroke-width="3.4375" stroke-linejoin="round" stroke-miterlimit="10" fill="#EB7246"/><path d="M2932.5 344.5C2932.5 350.574 2927.57 355.499 2921.5 355.499 2915.42 355.499 2910.5 350.574 2910.5 344.5 2910.5 338.425 2915.42 333.5 2921.5 333.5 2927.57 333.5 2932.5 338.425 2932.5 344.5Z" stroke="#EB7246" stroke-width="3.4375" stroke-linejoin="round" stroke-miterlimit="10" fill="#EB7246"/><path d="M2992.5 334.5C2992.5 340.575 2987.57 345.499 2981.5 345.499 2975.42 345.499 2970.5 340.575 2970.5 334.5 2970.5 328.425 2975.42 323.5 2981.5 323.5 2987.57 323.5 2992.5 328.425 2992.5 334.5Z" stroke="#EB7246" stroke-width="3.4375" stroke-linejoin="round" stroke-miterlimit="10" fill="#EB7246"/><path d="M3052.5 301.5C3052.5 307.575 3047.57 312.499 3041.5 312.499 3035.42 312.499 3030.5 307.575 3030.5 301.5 3030.5 295.425 3035.42 290.5 3041.5 290.5 3047.57 290.5 3052.5 295.425 3052.5 301.5Z" stroke="#EB7246" stroke-width="3.4375" stroke-linejoin="round" stroke-miterlimit="10" fill="#EB7246"/><path d="M3112.5 292.5C3112.5 298.575 3107.57 303.499 3101.5 303.499 3095.42 303.499 3090.5 298.575 3090.5 292.5 3090.5 286.425 3095.42 281.5 3101.5 281.5 3107.57 281.5 3112.5 286.425 3112.5 292.5Z" stroke="#EB7246" stroke-width="3.4375" stroke-linejoin="round" stroke-miterlimit="10" fill="#EB7246"/><path d="M3172.5 290.5C3172.5 296.575 3167.57 301.499 3161.5 301.499 3155.42 301.499 3150.5 296.575 3150.5 290.5 3150.5 284.425 3155.42 279.5 3161.5 279.5 3167.57 279.5 3172.5 284.425 3172.5 290.5Z" stroke="#EB7246" stroke-width="3.4375" stroke-linejoin="round" stroke-miterlimit="10" fill="#EB7246"/><path d="M3232.5 292.5C3232.5 298.575 3227.57 303.499 3221.5 303.499 3215.42 303.499 3210.5 298.575 3210.5 292.5 3210.5 286.425 3215.42 281.5 3221.5 281.5 3227.57 281.5 3232.5 286.425 3232.5 292.5Z" stroke="#EB7246" stroke-width="3.4375" stroke-linejoin="round" stroke-miterlimit="10" fill="#EB7246"/><path d="M3292.5 270.5C3292.5 276.575 3287.57 281.499 3281.5 281.499 3275.42 281.499 3270.5 276.575 3270.5 270.5 3270.5 264.425 3275.42 259.5 3281.5 259.5 3287.57 259.5 3292.5 264.425 3292.5 270.5Z" stroke="#EB7246" stroke-width="3.4375" stroke-linejoin="round" stroke-miterlimit="10" fill="#EB7246"/><path d="M3352.5 259.5C3352.5 265.575 3347.57 270.499 3341.5 270.499 3335.42 270.499 3330.5 265.575 3330.5 259.5 3330.5 253.425 3335.42 248.5 3341.5 248.5 3347.57 248.5 3352.5 253.425 3352.5 259.5Z" stroke="#EB7246" stroke-width="3.4375" stroke-linejoin="round" stroke-miterlimit="10" fill="#EB7246"/><path d="M3412.5 247.5C3412.5 253.575 3407.57 258.499 3401.5 258.499 3395.42 258.499 3390.5 253.575 3390.5 247.5 3390.5 241.425 3395.42 236.5 3401.5 236.5 3407.57 236.5 3412.5 241.425 3412.5 247.5Z" stroke="#EB7246" stroke-width="3.4375" stroke-linejoin="round" stroke-miterlimit="10" fill="#EB7246"/><path d="M3472.5 251.5C3472.5 257.575 3467.57 262.499 3461.5 262.499 3455.42 262.499 3450.5 257.575 3450.5 251.5 3450.5 245.425 3455.42 240.5 3461.5 240.5 3467.57 240.5 3472.5 245.425 3472.5 251.5Z" stroke="#EB7246" stroke-width="3.4375" stroke-linejoin="round" stroke-miterlimit="10" fill="#EB7246"/><path d="M3532.5 247.5C3532.5 253.575 3527.57 258.499 3521.5 258.499 3515.42 258.499 3510.5 253.575 3510.5 247.5 3510.5 241.425 3515.42 236.5 3521.5 236.5 3527.57 236.5 3532.5 241.425 3532.5 247.5Z" stroke="#EB7246" stroke-width="3.4375" stroke-linejoin="round" stroke-miterlimit="10" fill="#EB7246"/></g><g clip-path="url(#clip8)"><path d="M2452.5 298.5C2452.5 304.574 2447.57 309.499 2441.5 309.499 2435.42 309.499 2430.5 304.574 2430.5 298.5 2430.5 292.425 2435.42 287.5 2441.5 287.5 2447.57 287.5 2452.5 292.425 2452.5 298.5Z" stroke="#00A390" stroke-width="3.4375" stroke-linejoin="round" stroke-miterlimit="10" fill="#00A390"/><path d="M2512.5 275.5C2512.5 281.575 2507.57 286.499 2501.5 286.499 2495.42 286.499 2490.5 281.575 2490.5 275.5 2490.5 269.425 2495.42 264.5 2501.5 264.5 2507.57 264.5 2512.5 269.425 2512.5 275.5Z" stroke="#00A390" stroke-width="3.4375" stroke-linejoin="round" stroke-miterlimit="10" fill="#00A390"/><path d="M2572.5 258.5C2572.5 264.575 2567.57 269.499 2561.5 269.499 2555.42 269.499 2550.5 264.575 2550.5 258.5 2550.5 252.425 2555.42 247.5 2561.5 247.5 2567.57 247.5 2572.5 252.425 2572.5 258.5Z" stroke="#00A390" stroke-width="3.4375" stroke-linejoin="round" stroke-miterlimit="10" fill="#00A390"/><path d="M2632.5 254.499C2632.5 260.574 2627.57 265.499 2621.5 265.499 2615.42 265.499 2610.5 260.574 2610.5 254.499 2610.5 248.425 2615.42 243.5 2621.5 243.5 2627.57 243.5 2632.5 248.425 2632.5 254.499Z" stroke="#00A390" stroke-width="3.4375" stroke-linejoin="round" stroke-miterlimit="10" fill="#00A390"/><path d="M2692.5 235.5C2692.5 241.575 2687.57 246.499 2681.5 246.499 2675.42 246.499 2670.5 241.575 2670.5 235.5 2670.5 229.425 2675.42 224.5 2681.5 224.5 2687.57 224.5 2692.5 229.425 2692.5 235.5Z" stroke="#00A390" stroke-width="3.4375" stroke-linejoin="round" stroke-miterlimit="10" fill="#00A390"/><path d="M2752.5 225.5C2752.5 231.575 2747.57 236.499 2741.5 236.499 2735.42 236.499 2730.5 231.575 2730.5 225.5 2730.5 219.425 2735.42 214.5 2741.5 214.5 2747.57 214.5 2752.5 219.425 2752.5 225.5Z" stroke="#00A390" stroke-width="3.4375" stroke-linejoin="round" stroke-miterlimit="10" fill="#00A390"/><path d="M2812.5 223.5C2812.5 229.575 2807.57 234.499 2801.5 234.499 2795.42 234.499 2790.5 229.575 2790.5 223.5 2790.5 217.425 2795.42 212.5 2801.5 212.5 2807.57 212.5 2812.5 217.425 2812.5 223.5Z" stroke="#00A390" stroke-width="3.4375" stroke-linejoin="round" stroke-miterlimit="10" fill="#00A390"/><path d="M2872.5 211.5C2872.5 217.574 2867.57 222.499 2861.5 222.499 2855.42 222.499 2850.5 217.574 2850.5 211.5 2850.5 205.425 2855.42 200.5 2861.5 200.5 2867.57 200.5 2872.5 205.425 2872.5 211.5Z" stroke="#00A390" stroke-width="3.4375" stroke-linejoin="round" stroke-miterlimit="10" fill="#00A390"/><path d="M2932.5 206.5C2932.5 212.575 2927.57 217.499 2921.5 217.499 2915.42 217.499 2910.5 212.575 2910.5 206.5 2910.5 200.425 2915.42 195.5 2921.5 195.5 2927.57 195.5 2932.5 200.425 2932.5 206.5Z" stroke="#00A390" stroke-width="3.4375" stroke-linejoin="round" stroke-miterlimit="10" fill="#00A390"/><path d="M2992.5 192.5C2992.5 198.575 2987.57 203.499 2981.5 203.499 2975.42 203.499 2970.5 198.575 2970.5 192.5 2970.5 186.425 2975.42 181.5 2981.5 181.5 2987.57 181.5 2992.5 186.425 2992.5 192.5Z" stroke="#00A390" stroke-width="3.4375" stroke-linejoin="round" stroke-miterlimit="10" fill="#00A390"/><path d="M3052.5 175.5C3052.5 181.575 3047.57 186.499 3041.5 186.499 3035.42 186.499 3030.5 181.575 3030.5 175.5 3030.5 169.425 3035.42 164.5 3041.5 164.5 3047.57 164.5 3052.5 169.425 3052.5 175.5Z" stroke="#00A390" stroke-width="3.4375" stroke-linejoin="round" stroke-miterlimit="10" fill="#00A390"/><path d="M3112.5 171.5C3112.5 177.575 3107.57 182.499 3101.5 182.499 3095.42 182.499 3090.5 177.575 3090.5 171.5 3090.5 165.425 3095.42 160.5 3101.5 160.5 3107.57 160.5 3112.5 165.425 3112.5 171.5Z" stroke="#00A390" stroke-width="3.4375" stroke-linejoin="round" stroke-miterlimit="10" fill="#00A390"/><path d="M3172.5 153.5C3172.5 159.575 3167.57 164.499 3161.5 164.499 3155.42 164.499 3150.5 159.575 3150.5 153.5 3150.5 147.425 3155.42 142.5 3161.5 142.5 3167.57 142.5 3172.5 147.425 3172.5 153.5Z" stroke="#00A390" stroke-width="3.4375" stroke-linejoin="round" stroke-miterlimit="10" fill="#00A390"/></g><g clip-path="url(#clip9)"><path d="M2452.5 225.5C2452.5 231.575 2447.57 236.499 2441.5 236.499 2435.42 236.499 2430.5 231.575 2430.5 225.5 2430.5 219.425 2435.42 214.5 2441.5 214.5 2447.57 214.5 2452.5 219.425 2452.5 225.5Z" stroke="#F1BE3E" stroke-width="3.4375" stroke-linejoin="round" stroke-miterlimit="10" fill="#F1BE3E"/><path d="M2512.5 193.5C2512.5 199.575 2507.57 204.499 2501.5 204.499 2495.42 204.499 2490.5 199.575 2490.5 193.5 2490.5 187.425 2495.42 182.5 2501.5 182.5 2507.57 182.5 2512.5 187.425 2512.5 193.5Z" stroke="#F1BE3E" stroke-width="3.4375" stroke-linejoin="round" stroke-miterlimit="10" fill="#F1BE3E"/><path d="M2572.5 191.5C2572.5 197.575 2567.57 202.499 2561.5 202.499 2555.42 202.499 2550.5 197.575 2550.5 191.5 2550.5 185.425 2555.42 180.5 2561.5 180.5 2567.57 180.5 2572.5 185.425 2572.5 191.5Z" stroke="#F1BE3E" stroke-width="3.4375" stroke-linejoin="round" stroke-miterlimit="10" fill="#F1BE3E"/><path d="M2632.5 172.5C2632.5 178.575 2627.57 183.499 2621.5 183.499 2615.42 183.499 2610.5 178.575 2610.5 172.5 2610.5 166.425 2615.42 161.5 2621.5 161.5 2627.57 161.5 2632.5 166.425 2632.5 172.5Z" stroke="#F1BE3E" stroke-width="3.4375" stroke-linejoin="round" stroke-miterlimit="10" fill="#F1BE3E"/><path d="M2692.5 172.5C2692.5 178.575 2687.57 183.499 2681.5 183.499 2675.42 183.499 2670.5 178.575 2670.5 172.5 2670.5 166.425 2675.42 161.5 2681.5 161.5 2687.57 161.5 2692.5 166.425 2692.5 172.5Z" stroke="#F1BE3E" stroke-width="3.4375" stroke-linejoin="round" stroke-miterlimit="10" fill="#F1BE3E"/><path d="M2752.5 153.5C2752.5 159.575 2747.57 164.499 2741.5 164.499 2735.42 164.499 2730.5 159.575 2730.5 153.5 2730.5 147.425 2735.42 142.5 2741.5 142.5 2747.57 142.5 2752.5 147.425 2752.5 153.5Z" stroke="#F1BE3E" stroke-width="3.4375" stroke-linejoin="round" stroke-miterlimit="10" fill="#F1BE3E"/><path d="M2812.5 146.5C2812.5 152.575 2807.57 157.499 2801.5 157.499 2795.42 157.499 2790.5 152.575 2790.5 146.5 2790.5 140.425 2795.42 135.5 2801.5 135.5 2807.57 135.5 2812.5 140.425 2812.5 146.5Z" stroke="#F1BE3E" stroke-width="3.4375" stroke-linejoin="round" stroke-miterlimit="10" fill="#F1BE3E"/><path d="M2872.5 134.5C2872.5 140.574 2867.57 145.499 2861.5 145.499 2855.42 145.499 2850.5 140.574 2850.5 134.5 2850.5 128.425 2855.42 123.5 2861.5 123.5 2867.57 123.5 2872.5 128.425 2872.5 134.5Z" stroke="#F1BE3E" stroke-width="3.4375" stroke-linejoin="round" stroke-miterlimit="10" fill="#F1BE3E"/><path d="M2932.5 142.5C2932.5 148.575 2927.57 153.499 2921.5 153.499 2915.42 153.499 2910.5 148.575 2910.5 142.5 2910.5 136.425 2915.42 131.5 2921.5 131.5 2927.57 131.5 2932.5 136.425 2932.5 142.5Z" stroke="#F1BE3E" stroke-width="3.4375" stroke-linejoin="round" stroke-miterlimit="10" fill="#F1BE3E"/><path d="M2992.5 131.5C2992.5 137.575 2987.57 142.499 2981.5 142.499 2975.42 142.499 2970.5 137.575 2970.5 131.5 2970.5 125.425 2975.42 120.5 2981.5 120.5 2987.57 120.5 2992.5 125.425 2992.5 131.5Z" stroke="#F1BE3E" stroke-width="3.4375" stroke-linejoin="round" stroke-miterlimit="10" fill="#F1BE3E"/></g><g clip-path="url(#clip10)"><path d="M2441.5 702.5 4121.5 703.5" stroke="#00A6D6" stroke-width="6.875" stroke-linecap="round" stroke-linejoin="round" stroke-miterlimit="10" stroke-dasharray="0 13.75" fill="none" fill-rule="evenodd"/></g><g clip-path="url(#clip11)"><path d="M0 0 1680 55" stroke="#017188" stroke-width="6.875" stroke-linecap="round" stroke-linejoin="round" stroke-miterlimit="10" stroke-dasharray="0 13.75" fill="none" fill-rule="evenodd" transform="matrix(1 0 0 -1 2441.5 419.5)"/></g><g clip-path="url(#clip12)"><path d="M0 0 1080 166" stroke="#EB7246" stroke-width="6.875" stroke-linecap="round" stroke-linejoin="round" stroke-miterlimit="10" stroke-dasharray="0 13.75" fill="none" fill-rule="evenodd" transform="matrix(1 0 0 -1 2441.5 404.5)"/></g><g clip-path="url(#clip13)"><path d="M0 0 720 130" stroke="#00A390" stroke-width="6.875" stroke-linecap="round" stroke-linejoin="round" stroke-miterlimit="10" stroke-dasharray="0 13.75" fill="none" fill-rule="evenodd" transform="matrix(1 0 0 -1 2441.5 286.5)"/></g><g clip-path="url(#clip14)"><path d="M0 0 540 85.9999" stroke="#F1BE3E" stroke-width="6.875" stroke-linecap="round" stroke-linejoin="round" stroke-miterlimit="10" stroke-dasharray="0 13.75" fill="none" fill-rule="evenodd" transform="matrix(1 0 0 -1 2441.5 209.5)"/></g><g clip-path="url(#clip15)"><text fill="#595959" font-family="Arial,Arial_MSFontService,sans-serif" font-weight="400" font-size="41" transform="matrix(1 0 0 1 2323.75 766)">20%</text></g><g clip-path="url(#clip16)"><text fill="#595959" font-family="Arial,Arial_MSFontService,sans-serif" font-weight="400" font-size="41" transform="matrix(1 0 0 1 2323.75 696)">22%</text></g><g clip-path="url(#clip17)"><text fill="#595959" font-family="Arial,Arial_MSFontService,sans-serif" font-weight="400" font-size="41" transform="matrix(1 0 0 1 2323.75 626)">24%</text></g><g clip-path="url(#clip18)"><text fill="#595959" font-family="Arial,Arial_MSFontService,sans-serif" font-weight="400" font-size="41" transform="matrix(1 0 0 1 2323.75 555)">26%</text></g><g clip-path="url(#clip19)"><text fill="#595959" font-family="Arial,Arial_MSFontService,sans-serif" font-weight="400" font-size="41" transform="matrix(1 0 0 1 2323.75 485)">28%</text></g><g clip-path="url(#clip20)"><text fill="#595959" font-family="Arial,Arial_MSFontService,sans-serif" font-weight="400" font-size="41" transform="matrix(1 0 0 1 2323.75 415)">30%</text></g><g clip-path="url(#clip21)"><text fill="#595959" font-family="Arial,Arial_MSFontService,sans-serif" font-weight="400" font-size="41" transform="matrix(1 0 0 1 2323.75 344)">32%</text></g><g clip-path="url(#clip22)"><text fill="#595959" font-family="Arial,Arial_MSFontService,sans-serif" font-weight="400" font-size="41" transform="matrix(1 0 0 1 2323.75 274)">34%</text></g><g clip-path="url(#clip23)"><text fill="#595959" font-family="Arial,Arial_MSFontService,sans-serif" font-weight="400" font-size="41" transform="matrix(1 0 0 1 2323.75 204)">36%</text></g><g clip-path="url(#clip24)"><text fill="#595959" font-family="Arial,Arial_MSFontService,sans-serif" font-weight="400" font-size="41" transform="matrix(1 0 0 1 2323.75 133)">38%</text></g><g clip-path="url(#clip25)"><text fill="#595959" font-family="Arial,Arial_MSFontService,sans-serif" font-weight="400" font-size="41" transform="matrix(1 0 0 1 2323.75 63)">40%</text></g><g clip-path="url(#clip26)"><text fill="#595959" font-family="Arial,Arial_MSFontService,sans-serif" font-weight="400" font-size="41" transform="matrix(1 0 0 1 2413.1 815)">0.3</text></g><g clip-path="url(#clip27)"><text fill="#595959" font-family="Arial,Arial_MSFontService,sans-serif" font-weight="400" font-size="41" transform="matrix(1 0 0 1 2713.02 815)">0.8</text></g><g clip-path="url(#clip28)"><text fill="#595959" font-family="Arial,Arial_MSFontService,sans-serif" font-weight="400" font-size="41" transform="matrix(1 0 0 1 3012.93 815)">1.3</text></g><g clip-path="url(#clip29)"><text fill="#595959" font-family="Arial,Arial_MSFontService,sans-serif" font-weight="400" font-size="41" transform="matrix(1 0 0 1 3312.84 815)">1.8</text></g><g clip-path="url(#clip30)"><text fill="#595959" font-family="Arial,Arial_MSFontService,sans-serif" font-weight="400" font-size="41" transform="matrix(1 0 0 1 3612.76 815)">2.3</text></g><g clip-path="url(#clip31)"><text fill="#595959" font-family="Arial,Arial_MSFontService,sans-serif" font-weight="400" font-size="41" transform="matrix(1 0 0 1 3912.67 815)">2.8</text></g><g clip-path="url(#clip32)"><text fill="#595959" font-family="Arial,Arial_MSFontService,sans-serif" font-weight="400" font-size="46" transform="matrix(6.12323e-17 -1 1 6.12323e-17 2300.28 588)">Completeness [%]</text></g><g clip-path="url(#clip33)"><text fill="#595959" font-family="Arial,Arial_MSFontService,sans-serif" font-weight="400" font-size="46" transform="matrix(1 0 0 1 2986.02 881)">Inter</text></g><g clip-path="url(#clip34)"><text fill="#595959" font-family="Arial,Arial_MSFontService,sans-serif" font-weight="400" font-size="46" transform="matrix(1 0 0 1 3077.73 881)">-</text></g><g clip-path="url(#clip35)"><text fill="#595959" font-family="Arial,Arial_MSFontService,sans-serif" font-weight="400" font-size="46" transform="matrix(1 0 0 1 3092.99 881)">Spacecraft Spread [rad]</text></g><g clip-path="url(#clip36)"><path d="M4242 327C4242 333.075 4237.08 338 4231 338 4224.92 338 4220 333.075 4220 327 4220 320.925 4224.92 316 4231 316 4237.08 316 4242 320.925 4242 327Z" stroke="#00A6D6" stroke-width="3.4375" stroke-linejoin="round" stroke-miterlimit="10" fill="#00A6D6"/></g><g clip-path="url(#clip37)"><text fill="#595959" font-family="Arial,Arial_MSFontService,sans-serif" font-weight="400" font-size="41" transform="matrix(1 0 0 1 4250.42 341)">1 S/C</text></g><g clip-path="url(#clip38)"><path d="M4242 400C4242 406.075 4237.08 410.999 4231 410.999 4224.92 410.999 4220 406.075 4220 400 4220 393.925 4224.92 389 4231 389 4237.08 389 4242 393.925 4242 400Z" stroke="#017188" stroke-width="3.4375" stroke-linejoin="round" stroke-miterlimit="10" fill="#017188"/></g><g clip-path="url(#clip39)"><text fill="#595959" font-family="Arial,Arial_MSFontService,sans-serif" font-weight="400" font-size="41" transform="matrix(1 0 0 1 4250.42 414)">2 S/C</text></g><g clip-path="url(#clip40)"><path d="M4242 474C4242 480.075 4237.08 484.999 4231 484.999 4224.92 484.999 4220 480.075 4220 474 4220 467.924 4224.92 463 4231 463 4237.08 463 4242 467.924 4242 474Z" stroke="#EB7246" stroke-width="3.4375" stroke-linejoin="round" stroke-miterlimit="10" fill="#EB7246"/></g><g clip-path="url(#clip41)"><text fill="#595959" font-family="Arial,Arial_MSFontService,sans-serif" font-weight="400" font-size="41" transform="matrix(1 0 0 1 4250.42 487)">3 S/C</text></g><g clip-path="url(#clip42)"><path d="M4242 547C4242 553.075 4237.08 558 4231 558 4224.92 558 4220 553.075 4220 547 4220 540.925 4224.92 536 4231 536 4237.08 536 4242 540.925 4242 547Z" stroke="#00A390" stroke-width="3.4375" stroke-linejoin="round" stroke-miterlimit="10" fill="#00A390"/></g><g clip-path="url(#clip43)"><text fill="#595959" font-family="Arial,Arial_MSFontService,sans-serif" font-weight="400" font-size="41" transform="matrix(1 0 0 1 4250.42 560)">4 S/C</text></g><g clip-path="url(#clip44)"><path d="M4242 620C4242 626.075 4237.08 630.999 4231 630.999 4224.92 630.999 4220 626.075 4220 620 4220 613.925 4224.92 609 4231 609 4237.08 609 4242 613.925 4242 620Z" stroke="#F1BE3E" stroke-width="3.4375" stroke-linejoin="round" stroke-miterlimit="10" fill="#F1BE3E"/></g><g clip-path="url(#clip45)"><text fill="#595959" font-family="Arial,Arial_MSFontService,sans-serif" font-weight="400" font-size="41" transform="matrix(1 0 0 1 4250.42 633)">5 S/C</text></g></g></svg>