<svg width="2203" height="990" xmlns="http://www.w3.org/2000/svg" xmlns:xlink="http://www.w3.org/1999/xlink" overflow="hidden"><defs><clipPath id="clip0"><rect x="2200" y="948" width="2203" height="990"/></clipPath><clipPath id="clip1"><rect x="2200" y="948" width="2202" height="990"/></clipPath><clipPath id="clip2"><rect x="2200" y="948" width="2202" height="990"/></clipPath><clipPath id="clip3"><rect x="2200" y="948" width="2202" height="990"/></clipPath><clipPath id="clip4"><rect x="2200" y="948" width="2202" height="990"/></clipPath><clipPath id="clip5"><rect x="2200" y="948" width="2202" height="990"/></clipPath><clipPath id="clip6"><rect x="2200" y="948" width="2202" height="990"/></clipPath><clipPath id="clip7"><rect x="2200" y="948" width="2202" height="990"/></clipPath><clipPath id="clip8"><rect x="2200" y="948" width="2202" height="990"/></clipPath><clipPath id="clip9"><rect x="2200" y="948" width="2202" height="990"/></clipPath><clipPath id="clip10"><rect x="2441" y="998" width="1683" height="745"/></clipPath><clipPath id="clip11"><rect x="2441" y="998" width="1683" height="745"/></clipPath><clipPath id="clip12"><rect x="2441" y="998" width="1683" height="745"/></clipPath><clipPath id="clip13"><rect x="2441" y="998" width="1683" height="745"/></clipPath><clipPath id="clip14"><rect x="2441" y="998" width="1683" height="745"/></clipPath><clipPath id="clip15"><rect x="2200" y="948" width="2202" height="990"/></clipPath><clipPath id="clip16"><rect x="2200" y="948" width="2202" height="990"/></clipPath><clipPath id="clip17"><rect x="2200" y="948" width="2202" height="990"/></clipPath><clipPath id="clip18"><rect x="2200" y="948" width="2202" height="990"/></clipPath><clipPath id="clip19"><rect x="2200" y="948" width="2202" height="990"/></clipPath><clipPath id="clip20"><rect x="2200" y="948" width="2202" height="990"/></clipPath><clipPath id="clip21"><rect x="2200" y="948" width="2202" height="990"/></clipPath><clipPath id="clip22"><rect x="2200" y="948" width="2202" height="990"/></clipPath><clipPath id="clip23"><rect x="2200" y="948" width="2202" height="990"/></clipPath><clipPath id="clip24"><rect x="2200" y="948" width="2202" height="990"/></clipPath><clipPath id="clip25"><rect x="2200" y="948" width="2202" height="990"/></clipPath><clipPath id="clip26"><rect x="2200" y="948" width="2202" height="990"/></clipPath><clipPath id="clip27"><rect x="2200" y="948" width="2202" height="990"/></clipPath><clipPath id="clip28"><rect x="2200" y="948" width="2202" height="990"/></clipPath><clipPath id="clip29"><rect x="2200" y="948" width="2202" height="990"/></clipPath><clipPath id="clip30"><rect x="2200" y="948" width="2202" height="990"/></clipPath><clipPath id="clip31"><rect x="2200" y="948" width="2202" height="990"/></clipPath><clipPath id="clip32"><rect x="2200" y="948" width="2202" height="990"/></clipPath><clipPath id="clip33"><rect x="2200" y="948" width="2202" height="990"/></clipPath><clipPath id="clip34"><rect x="2200" y="948" width="2202" height="990"/></clipPath><clipPath id="clip35"><rect x="2200" y="948" width="2202" height="990"/></clipPath><clipPath id="clip36"><rect x="2200" y="948" width="2202" height="990"/></clipPath><clipPath id="clip37"><rect x="2200" y="948" width="2202" height="990"/></clipPath><clipPath id="clip38"><rect x="2200" y="948" width="2202" height="990"/></clipPath><clipPath id="clip39"><rect x="2200" y="948" width="2202" height="990"/></clipPath><clipPath id="clip40"><rect x="2200" y="948" width="2202" height="990"/></clipPath><clipPath id="clip41"><rect x="2200" y="948" width="2202" height="990"/></clipPath><clipPath id="clip42"><rect x="2200" y="948" width="2202" height="990"/></clipPath></defs><g clip-path="url(#clip0)" transform="translate(-2200 -948)"><g clip-path="url(#clip1)"><path d="M2441.5 1636.55 4124.5 1636.55M2441.5 1530.55 4124.5 1530.55M2441.5 1424.55 4124.5 1424.55M2441.5 1317.54 4124.5 1317.54M2441.5 1211.54 4124.5 1211.54M2441.5 1104.54 4124.5 1104.54M2441.5 998.5 4124.5 998.5" stroke="#D9D9D9" stroke-width="3.4375" stroke-linejoin="round" stroke-miterlimit="10" fill="none"/></g><g clip-path="url(#clip2)"><path d="M2742.59 998.5 2742.59 1743.5M3042.6 998.5 3042.6 1743.5M3342.61 998.5 3342.61 1743.5M3643.62 998.5 3643.62 1743.5M3943.5 998.5 3943.5 1743.5" stroke="#D9D9D9" stroke-width="3.4375" stroke-linejoin="round" stroke-miterlimit="10" fill="none"/></g><g clip-path="url(#clip3)"><path d="M0 0 0.000360892 745" stroke="#BFBFBF" stroke-width="3.4375" stroke-linejoin="round" stroke-miterlimit="10" fill="none" fill-rule="evenodd" transform="matrix(1 0 0 -1 2441.5 1743.5)"/></g><g clip-path="url(#clip4)"><path d="M2441.5 1743.5 4124.5 1743.5" stroke="#BFBFBF" stroke-width="3.4375" stroke-linejoin="round" stroke-miterlimit="10" fill="none" fill-rule="evenodd"/></g><g clip-path="url(#clip5)"><path d="M2452.5 1651.63C2452.5 1657.7 2447.57 1662.63 2441.5 1662.63 2435.42 1662.63 2430.5 1657.7 2430.5 1651.63 2430.5 1645.55 2435.42 1640.63 2441.5 1640.63 2447.57 1640.63 2452.5 1645.55 2452.5 1651.63Z" stroke="#00A6D6" stroke-width="3.4375" stroke-linejoin="round" stroke-miterlimit="10" fill="#00A6D6"/><path d="M2512.5 1649.63C2512.5 1655.7 2507.57 1660.63 2501.5 1660.63 2495.42 1660.63 2490.5 1655.7 2490.5 1649.63 2490.5 1643.55 2495.42 1638.63 2501.5 1638.63 2507.57 1638.63 2512.5 1643.55 2512.5 1649.63Z" stroke="#00A6D6" stroke-width="3.4375" stroke-linejoin="round" stroke-miterlimit="10" fill="#00A6D6"/><path d="M2572.5 1649.63C2572.5 1655.7 2567.57 1660.63 2561.5 1660.63 2555.42 1660.63 2550.5 1655.7 2550.5 1649.63 2550.5 1643.55 2555.42 1638.63 2561.5 1638.63 2567.57 1638.63 2572.5 1643.55 2572.5 1649.63Z" stroke="#00A6D6" stroke-width="3.4375" stroke-linejoin="round" stroke-miterlimit="10" fill="#00A6D6"/><path d="M2633.5 1637.63C2633.5 1643.7 2628.57 1648.63 2622.5 1648.63 2616.42 1648.63 2611.5 1643.7 2611.5 1637.63 2611.5 1631.55 2616.42 1626.63 2622.5 1626.63 2628.57 1626.63 2633.5 1631.55 2633.5 1637.63Z" stroke="#00A6D6" stroke-width="3.4375" stroke-linejoin="round" stroke-miterlimit="10" fill="#00A6D6"/><path d="M2693.5 1654.63C2693.5 1660.7 2688.57 1665.63 2682.5 1665.63 2676.42 1665.63 2671.5 1660.7 2671.5 1654.63 2671.5 1648.55 2676.42 1643.63 2682.5 1643.63 2688.57 1643.63 2693.5 1648.55 2693.5 1654.63Z" stroke="#00A6D6" stroke-width="3.4375" stroke-linejoin="round" stroke-miterlimit="10" fill="#00A6D6"/><path d="M2753.5 1647.63C2753.5 1653.7 2748.57 1658.63 2742.5 1658.63 2736.42 1658.63 2731.5 1653.7 2731.5 1647.63 2731.5 1641.55 2736.42 1636.63 2742.5 1636.63 2748.57 1636.63 2753.5 1641.55 2753.5 1647.63Z" stroke="#00A6D6" stroke-width="3.4375" stroke-linejoin="round" stroke-miterlimit="10" fill="#00A6D6"/><path d="M2813.5 1643.63C2813.5 1649.7 2808.57 1654.63 2802.5 1654.63 2796.42 1654.63 2791.5 1649.7 2791.5 1643.63 2791.5 1637.55 2796.42 1632.63 2802.5 1632.63 2808.57 1632.63 2813.5 1637.55 2813.5 1643.63Z" stroke="#00A6D6" stroke-width="3.4375" stroke-linejoin="round" stroke-miterlimit="10" fill="#00A6D6"/><path d="M2873.5 1654.63C2873.5 1660.7 2868.57 1665.63 2862.5 1665.63 2856.42 1665.63 2851.5 1660.7 2851.5 1654.63 2851.5 1648.55 2856.42 1643.63 2862.5 1643.63 2868.57 1643.63 2873.5 1648.55 2873.5 1654.63Z" stroke="#00A6D6" stroke-width="3.4375" stroke-linejoin="round" stroke-miterlimit="10" fill="#00A6D6"/><path d="M2933.5 1656.63C2933.5 1662.7 2928.57 1667.63 2922.5 1667.63 2916.42 1667.63 2911.5 1662.7 2911.5 1656.63 2911.5 1650.55 2916.42 1645.63 2922.5 1645.63 2928.57 1645.63 2933.5 1650.55 2933.5 1656.63Z" stroke="#00A6D6" stroke-width="3.4375" stroke-linejoin="round" stroke-miterlimit="10" fill="#00A6D6"/><path d="M2993.5 1649.63C2993.5 1655.7 2988.57 1660.63 2982.5 1660.63 2976.42 1660.63 2971.5 1655.7 2971.5 1649.63 2971.5 1643.55 2976.42 1638.63 2982.5 1638.63 2988.57 1638.63 2993.5 1643.55 2993.5 1649.63Z" stroke="#00A6D6" stroke-width="3.4375" stroke-linejoin="round" stroke-miterlimit="10" fill="#00A6D6"/><path d="M3053.5 1637.63C3053.5 1643.7 3048.57 1648.63 3042.5 1648.63 3036.42 1648.63 3031.5 1643.7 3031.5 1637.63 3031.5 1631.55 3036.42 1626.63 3042.5 1626.63 3048.57 1626.63 3053.5 1631.55 3053.5 1637.63Z" stroke="#00A6D6" stroke-width="3.4375" stroke-linejoin="round" stroke-miterlimit="10" fill="#00A6D6"/><path d="M3113.5 1654.63C3113.5 1660.7 3108.57 1665.63 3102.5 1665.63 3096.42 1665.63 3091.5 1660.7 3091.5 1654.63 3091.5 1648.55 3096.42 1643.63 3102.5 1643.63 3108.57 1643.63 3113.5 1648.55 3113.5 1654.63Z" stroke="#00A6D6" stroke-width="3.4375" stroke-linejoin="round" stroke-miterlimit="10" fill="#00A6D6"/><path d="M3173.5 1647.63C3173.5 1653.7 3168.57 1658.63 3162.5 1658.63 3156.42 1658.63 3151.5 1653.7 3151.5 1647.63 3151.5 1641.55 3156.42 1636.63 3162.5 1636.63 3168.57 1636.63 3173.5 1641.55 3173.5 1647.63Z" stroke="#00A6D6" stroke-width="3.4375" stroke-linejoin="round" stroke-miterlimit="10" fill="#00A6D6"/><path d="M3233.5 1643.63C3233.5 1649.7 3228.57 1654.63 3222.5 1654.63 3216.42 1654.63 3211.5 1649.7 3211.5 1643.63 3211.5 1637.55 3216.42 1632.63 3222.5 1632.63 3228.57 1632.63 3233.5 1637.55 3233.5 1643.63Z" stroke="#00A6D6" stroke-width="3.4375" stroke-linejoin="round" stroke-miterlimit="10" fill="#00A6D6"/><path d="M3293.5 1654.63C3293.5 1660.7 3288.57 1665.63 3282.5 1665.63 3276.42 1665.63 3271.5 1660.7 3271.5 1654.63 3271.5 1648.55 3276.42 1643.63 3282.5 1643.63 3288.57 1643.63 3293.5 1648.55 3293.5 1654.63Z" stroke="#00A6D6" stroke-width="3.4375" stroke-linejoin="round" stroke-miterlimit="10" fill="#00A6D6"/><path d="M3353.5 1656.63C3353.5 1662.7 3348.57 1667.63 3342.5 1667.63 3336.42 1667.63 3331.5 1662.7 3331.5 1656.63 3331.5 1650.55 3336.42 1645.63 3342.5 1645.63 3348.57 1645.63 3353.5 1650.55 3353.5 1656.63Z" stroke="#00A6D6" stroke-width="3.4375" stroke-linejoin="round" stroke-miterlimit="10" fill="#00A6D6"/><path d="M3414.5 1649.63C3414.5 1655.7 3409.57 1660.63 3403.5 1660.63 3397.42 1660.63 3392.5 1655.7 3392.5 1649.63 3392.5 1643.55 3397.42 1638.63 3403.5 1638.63 3409.57 1638.63 3414.5 1643.55 3414.5 1649.63Z" stroke="#00A6D6" stroke-width="3.4375" stroke-linejoin="round" stroke-miterlimit="10" fill="#00A6D6"/><path d="M3474.5 1637.63C3474.5 1643.7 3469.57 1648.63 3463.5 1648.63 3457.42 1648.63 3452.5 1643.7 3452.5 1637.63 3452.5 1631.55 3457.42 1626.63 3463.5 1626.63 3469.57 1626.63 3474.5 1631.55 3474.5 1637.63Z" stroke="#00A6D6" stroke-width="3.4375" stroke-linejoin="round" stroke-miterlimit="10" fill="#00A6D6"/><path d="M3534.5 1654.63C3534.5 1660.7 3529.57 1665.63 3523.5 1665.63 3517.42 1665.63 3512.5 1660.7 3512.5 1654.63 3512.5 1648.55 3517.42 1643.63 3523.5 1643.63 3529.57 1643.63 3534.5 1648.55 3534.5 1654.63Z" stroke="#00A6D6" stroke-width="3.4375" stroke-linejoin="round" stroke-miterlimit="10" fill="#00A6D6"/><path d="M3594.5 1647.63C3594.5 1653.7 3589.57 1658.63 3583.5 1658.63 3577.42 1658.63 3572.5 1653.7 3572.5 1647.63 3572.5 1641.55 3577.42 1636.63 3583.5 1636.63 3589.57 1636.63 3594.5 1641.55 3594.5 1647.63Z" stroke="#00A6D6" stroke-width="3.4375" stroke-linejoin="round" stroke-miterlimit="10" fill="#00A6D6"/><path d="M3654.5 1643.63C3654.5 1649.7 3649.57 1654.63 3643.5 1654.63 3637.42 1654.63 3632.5 1649.7 3632.5 1643.63 3632.5 1637.55 3637.42 1632.63 3643.5 1632.63 3649.57 1632.63 3654.5 1637.55 3654.5 1643.63Z" stroke="#00A6D6" stroke-width="3.4375" stroke-linejoin="round" stroke-miterlimit="10" fill="#00A6D6"/><path d="M3714.5 1654.63C3714.5 1660.7 3709.57 1665.63 3703.5 1665.63 3697.42 1665.63 3692.5 1660.7 3692.5 1654.63 3692.5 1648.55 3697.42 1643.63 3703.5 1643.63 3709.57 1643.63 3714.5 1648.55 3714.5 1654.63Z" stroke="#00A6D6" stroke-width="3.4375" stroke-linejoin="round" stroke-miterlimit="10" fill="#00A6D6"/><path d="M3774.5 1656.63C3774.5 1662.7 3769.57 1667.63 3763.5 1667.63 3757.42 1667.63 3752.5 1662.7 3752.5 1656.63 3752.5 1650.55 3757.42 1645.63 3763.5 1645.63 3769.57 1645.63 3774.5 1650.55 3774.5 1656.63Z" stroke="#00A6D6" stroke-width="3.4375" stroke-linejoin="round" stroke-miterlimit="10" fill="#00A6D6"/><path d="M3834.5 1649.63C3834.5 1655.7 3829.57 1660.63 3823.5 1660.63 3817.42 1660.63 3812.5 1655.7 3812.5 1649.63 3812.5 1643.55 3817.42 1638.63 3823.5 1638.63 3829.57 1638.63 3834.5 1643.55 3834.5 1649.63Z" stroke="#00A6D6" stroke-width="3.4375" stroke-linejoin="round" stroke-miterlimit="10" fill="#00A6D6"/><path d="M3894.5 1637.63C3894.5 1643.7 3889.57 1648.63 3883.5 1648.63 3877.42 1648.63 3872.5 1643.7 3872.5 1637.63 3872.5 1631.55 3877.42 1626.63 3883.5 1626.63 3889.57 1626.63 3894.5 1631.55 3894.5 1637.63Z" stroke="#00A6D6" stroke-width="3.4375" stroke-linejoin="round" stroke-miterlimit="10" fill="#00A6D6"/><path d="M3954.5 1654.63C3954.5 1660.7 3949.57 1665.63 3943.5 1665.63 3937.42 1665.63 3932.5 1660.7 3932.5 1654.63 3932.5 1648.55 3937.42 1643.63 3943.5 1643.63 3949.57 1643.63 3954.5 1648.55 3954.5 1654.63Z" stroke="#00A6D6" stroke-width="3.4375" stroke-linejoin="round" stroke-miterlimit="10" fill="#00A6D6"/><path d="M4014.5 1647.63C4014.5 1653.7 4009.57 1658.63 4003.5 1658.63 3997.42 1658.63 3992.5 1653.7 3992.5 1647.63 3992.5 1641.55 3997.42 1636.63 4003.5 1636.63 4009.57 1636.63 4014.5 1641.55 4014.5 1647.63Z" stroke="#00A6D6" stroke-width="3.4375" stroke-linejoin="round" stroke-miterlimit="10" fill="#00A6D6"/><path d="M4074.5 1643.63C4074.5 1649.7 4069.57 1654.63 4063.5 1654.63 4057.42 1654.63 4052.5 1649.7 4052.5 1643.63 4052.5 1637.55 4057.42 1632.63 4063.5 1632.63 4069.57 1632.63 4074.5 1637.55 4074.5 1643.63Z" stroke="#00A6D6" stroke-width="3.4375" stroke-linejoin="round" stroke-miterlimit="10" fill="#00A6D6"/><path d="M4135.5 1654.63C4135.5 1660.7 4130.57 1665.63 4124.5 1665.63 4118.42 1665.63 4113.5 1660.7 4113.5 1654.63 4113.5 1648.55 4118.42 1643.63 4124.5 1643.63 4130.57 1643.63 4135.5 1648.55 4135.5 1654.63Z" stroke="#00A6D6" stroke-width="3.4375" stroke-linejoin="round" stroke-miterlimit="10" fill="#00A6D6"/></g><g clip-path="url(#clip6)"><path d="M2452.5 1426.63C2452.5 1432.7 2447.57 1437.63 2441.5 1437.63 2435.42 1437.63 2430.5 1432.7 2430.5 1426.63 2430.5 1420.55 2435.42 1415.63 2441.5 1415.63 2447.57 1415.63 2452.5 1420.55 2452.5 1426.63Z" stroke="#017188" stroke-width="3.4375" stroke-linejoin="round" stroke-miterlimit="10" fill="#017188"/><path d="M2512.5 1424.63C2512.5 1430.7 2507.57 1435.63 2501.5 1435.63 2495.42 1435.63 2490.5 1430.7 2490.5 1424.63 2490.5 1418.55 2495.42 1413.63 2501.5 1413.63 2507.57 1413.63 2512.5 1418.55 2512.5 1424.63Z" stroke="#017188" stroke-width="3.4375" stroke-linejoin="round" stroke-miterlimit="10" fill="#017188"/><path d="M2572.5 1419.63C2572.5 1425.7 2567.57 1430.63 2561.5 1430.63 2555.42 1430.63 2550.5 1425.7 2550.5 1419.63 2550.5 1413.55 2555.42 1408.63 2561.5 1408.63 2567.57 1408.63 2572.5 1413.55 2572.5 1419.63Z" stroke="#017188" stroke-width="3.4375" stroke-linejoin="round" stroke-miterlimit="10" fill="#017188"/><path d="M2633.5 1410.63C2633.5 1416.7 2628.57 1421.63 2622.5 1421.63 2616.42 1421.63 2611.5 1416.7 2611.5 1410.63 2611.5 1404.55 2616.42 1399.63 2622.5 1399.63 2628.57 1399.63 2633.5 1404.55 2633.5 1410.63Z" stroke="#017188" stroke-width="3.4375" stroke-linejoin="round" stroke-miterlimit="10" fill="#017188"/><path d="M2693.5 1391.63C2693.5 1397.7 2688.57 1402.63 2682.5 1402.63 2676.42 1402.63 2671.5 1397.7 2671.5 1391.63 2671.5 1385.55 2676.42 1380.63 2682.5 1380.63 2688.57 1380.63 2693.5 1385.55 2693.5 1391.63Z" stroke="#017188" stroke-width="3.4375" stroke-linejoin="round" stroke-miterlimit="10" fill="#017188"/><path d="M2753.5 1395.63C2753.5 1401.7 2748.57 1406.63 2742.5 1406.63 2736.42 1406.63 2731.5 1401.7 2731.5 1395.63 2731.5 1389.55 2736.42 1384.63 2742.5 1384.63 2748.57 1384.63 2753.5 1389.55 2753.5 1395.63Z" stroke="#017188" stroke-width="3.4375" stroke-linejoin="round" stroke-miterlimit="10" fill="#017188"/><path d="M2813.5 1410.63C2813.5 1416.7 2808.57 1421.63 2802.5 1421.63 2796.42 1421.63 2791.5 1416.7 2791.5 1410.63 2791.5 1404.55 2796.42 1399.63 2802.5 1399.63 2808.57 1399.63 2813.5 1404.55 2813.5 1410.63Z" stroke="#017188" stroke-width="3.4375" stroke-linejoin="round" stroke-miterlimit="10" fill="#017188"/><path d="M2873.5 1388.63C2873.5 1394.7 2868.57 1399.63 2862.5 1399.63 2856.42 1399.63 2851.5 1394.7 2851.5 1388.63 2851.5 1382.55 2856.42 1377.63 2862.5 1377.63 2868.57 1377.63 2873.5 1382.55 2873.5 1388.63Z" stroke="#017188" stroke-width="3.4375" stroke-linejoin="round" stroke-miterlimit="10" fill="#017188"/><path d="M2933.5 1381.63C2933.5 1387.7 2928.57 1392.63 2922.5 1392.63 2916.42 1392.63 2911.5 1387.7 2911.5 1381.63 2911.5 1375.55 2916.42 1370.63 2922.5 1370.63 2928.57 1370.63 2933.5 1375.55 2933.5 1381.63Z" stroke="#017188" stroke-width="3.4375" stroke-linejoin="round" stroke-miterlimit="10" fill="#017188"/><path d="M2993.5 1386.63C2993.5 1392.7 2988.57 1397.63 2982.5 1397.63 2976.42 1397.63 2971.5 1392.7 2971.5 1386.63 2971.5 1380.55 2976.42 1375.63 2982.5 1375.63 2988.57 1375.63 2993.5 1380.55 2993.5 1386.63Z" stroke="#017188" stroke-width="3.4375" stroke-linejoin="round" stroke-miterlimit="10" fill="#017188"/><path d="M3053.5 1414.63C3053.5 1420.7 3048.57 1425.63 3042.5 1425.63 3036.42 1425.63 3031.5 1420.7 3031.5 1414.63 3031.5 1408.55 3036.42 1403.63 3042.5 1403.63 3048.57 1403.63 3053.5 1408.55 3053.5 1414.63Z" stroke="#017188" stroke-width="3.4375" stroke-linejoin="round" stroke-miterlimit="10" fill="#017188"/><path d="M3113.5 1412.63C3113.5 1418.7 3108.57 1423.63 3102.5 1423.63 3096.42 1423.63 3091.5 1418.7 3091.5 1412.63 3091.5 1406.55 3096.42 1401.63 3102.5 1401.63 3108.57 1401.63 3113.5 1406.55 3113.5 1412.63Z" stroke="#017188" stroke-width="3.4375" stroke-linejoin="round" stroke-miterlimit="10" fill="#017188"/><path d="M3173.5 1407.63C3173.5 1413.7 3168.57 1418.63 3162.5 1418.63 3156.42 1418.63 3151.5 1413.7 3151.5 1407.63 3151.5 1401.55 3156.42 1396.63 3162.5 1396.63 3168.57 1396.63 3173.5 1401.55 3173.5 1407.63Z" stroke="#017188" stroke-width="3.4375" stroke-linejoin="round" stroke-miterlimit="10" fill="#017188"/><path d="M3233.5 1398.63C3233.5 1404.7 3228.57 1409.63 3222.5 1409.63 3216.42 1409.63 3211.5 1404.7 3211.5 1398.63 3211.5 1392.55 3216.42 1387.63 3222.5 1387.63 3228.57 1387.63 3233.5 1392.55 3233.5 1398.63Z" stroke="#017188" stroke-width="3.4375" stroke-linejoin="round" stroke-miterlimit="10" fill="#017188"/><path d="M3293.5 1379.63C3293.5 1385.7 3288.57 1390.63 3282.5 1390.63 3276.42 1390.63 3271.5 1385.7 3271.5 1379.63 3271.5 1373.55 3276.42 1368.63 3282.5 1368.63 3288.57 1368.63 3293.5 1373.55 3293.5 1379.63Z" stroke="#017188" stroke-width="3.4375" stroke-linejoin="round" stroke-miterlimit="10" fill="#017188"/><path d="M3353.5 1384.63C3353.5 1390.7 3348.57 1395.63 3342.5 1395.63 3336.42 1395.63 3331.5 1390.7 3331.5 1384.63 3331.5 1378.55 3336.42 1373.63 3342.5 1373.63 3348.57 1373.63 3353.5 1378.55 3353.5 1384.63Z" stroke="#017188" stroke-width="3.4375" stroke-linejoin="round" stroke-miterlimit="10" fill="#017188"/><path d="M3414.5 1398.63C3414.5 1404.7 3409.57 1409.63 3403.5 1409.63 3397.42 1409.63 3392.5 1404.7 3392.5 1398.63 3392.5 1392.55 3397.42 1387.63 3403.5 1387.63 3409.57 1387.63 3414.5 1392.55 3414.5 1398.63Z" stroke="#017188" stroke-width="3.4375" stroke-linejoin="round" stroke-miterlimit="10" fill="#017188"/><path d="M3474.5 1376.63C3474.5 1382.7 3469.57 1387.63 3463.5 1387.63 3457.42 1387.63 3452.5 1382.7 3452.5 1376.63 3452.5 1370.55 3457.42 1365.63 3463.5 1365.63 3469.57 1365.63 3474.5 1370.55 3474.5 1376.63Z" stroke="#017188" stroke-width="3.4375" stroke-linejoin="round" stroke-miterlimit="10" fill="#017188"/><path d="M3534.5 1369.63C3534.5 1375.7 3529.57 1380.63 3523.5 1380.63 3517.42 1380.63 3512.5 1375.7 3512.5 1369.63 3512.5 1363.55 3517.42 1358.63 3523.5 1358.63 3529.57 1358.63 3534.5 1363.55 3534.5 1369.63Z" stroke="#017188" stroke-width="3.4375" stroke-linejoin="round" stroke-miterlimit="10" fill="#017188"/><path d="M3594.5 1374.63C3594.5 1380.7 3589.57 1385.63 3583.5 1385.63 3577.42 1385.63 3572.5 1380.7 3572.5 1374.63 3572.5 1368.55 3577.42 1363.63 3583.5 1363.63 3589.57 1363.63 3594.5 1368.55 3594.5 1374.63Z" stroke="#017188" stroke-width="3.4375" stroke-linejoin="round" stroke-miterlimit="10" fill="#017188"/><path d="M3654.5 1403.63C3654.5 1409.7 3649.57 1414.63 3643.5 1414.63 3637.42 1414.63 3632.5 1409.7 3632.5 1403.63 3632.5 1397.55 3637.42 1392.63 3643.5 1392.63 3649.57 1392.63 3654.5 1397.55 3654.5 1403.63Z" stroke="#017188" stroke-width="3.4375" stroke-linejoin="round" stroke-miterlimit="10" fill="#017188"/><path d="M3714.5 1400.63C3714.5 1406.7 3709.57 1411.63 3703.5 1411.63 3697.42 1411.63 3692.5 1406.7 3692.5 1400.63 3692.5 1394.55 3697.42 1389.63 3703.5 1389.63 3709.57 1389.63 3714.5 1394.55 3714.5 1400.63Z" stroke="#017188" stroke-width="3.4375" stroke-linejoin="round" stroke-miterlimit="10" fill="#017188"/><path d="M3774.5 1395.63C3774.5 1401.7 3769.57 1406.63 3763.5 1406.63 3757.42 1406.63 3752.5 1401.7 3752.5 1395.63 3752.5 1389.55 3757.42 1384.63 3763.5 1384.63 3769.57 1384.63 3774.5 1389.55 3774.5 1395.63Z" stroke="#017188" stroke-width="3.4375" stroke-linejoin="round" stroke-miterlimit="10" fill="#017188"/><path d="M3834.5 1386.63C3834.5 1392.7 3829.57 1397.63 3823.5 1397.63 3817.42 1397.63 3812.5 1392.7 3812.5 1386.63 3812.5 1380.55 3817.42 1375.63 3823.5 1375.63 3829.57 1375.63 3834.5 1380.55 3834.5 1386.63Z" stroke="#017188" stroke-width="3.4375" stroke-linejoin="round" stroke-miterlimit="10" fill="#017188"/><path d="M3894.5 1367.63C3894.5 1373.7 3889.57 1378.63 3883.5 1378.63 3877.42 1378.63 3872.5 1373.7 3872.5 1367.63 3872.5 1361.55 3877.42 1356.63 3883.5 1356.63 3889.57 1356.63 3894.5 1361.55 3894.5 1367.63Z" stroke="#017188" stroke-width="3.4375" stroke-linejoin="round" stroke-miterlimit="10" fill="#017188"/><path d="M3954.5 1372.63C3954.5 1378.7 3949.57 1383.63 3943.5 1383.63 3937.42 1383.63 3932.5 1378.7 3932.5 1372.63 3932.5 1366.55 3937.42 1361.63 3943.5 1361.63 3949.57 1361.63 3954.5 1366.55 3954.5 1372.63Z" stroke="#017188" stroke-width="3.4375" stroke-linejoin="round" stroke-miterlimit="10" fill="#017188"/><path d="M4014.5 1386.63C4014.5 1392.7 4009.57 1397.63 4003.5 1397.63 3997.42 1397.63 3992.5 1392.7 3992.5 1386.63 3992.5 1380.55 3997.42 1375.63 4003.5 1375.63 4009.57 1375.63 4014.5 1380.55 4014.5 1386.63Z" stroke="#017188" stroke-width="3.4375" stroke-linejoin="round" stroke-miterlimit="10" fill="#017188"/><path d="M4074.5 1364.63C4074.5 1370.7 4069.57 1375.63 4063.5 1375.63 4057.42 1375.63 4052.5 1370.7 4052.5 1364.63 4052.5 1358.55 4057.42 1353.63 4063.5 1353.63 4069.57 1353.63 4074.5 1358.55 4074.5 1364.63Z" stroke="#017188" stroke-width="3.4375" stroke-linejoin="round" stroke-miterlimit="10" fill="#017188"/><path d="M4135.5 1357.63C4135.5 1363.7 4130.57 1368.63 4124.5 1368.63 4118.42 1368.63 4113.5 1363.7 4113.5 1357.63 4113.5 1351.55 4118.42 1346.63 4124.5 1346.63 4130.57 1346.63 4135.5 1351.55 4135.5 1357.63Z" stroke="#017188" stroke-width="3.4375" stroke-linejoin="round" stroke-miterlimit="10" fill="#017188"/></g><g clip-path="url(#clip7)"><path d="M2452.5 1323.63C2452.5 1329.7 2447.57 1334.63 2441.5 1334.63 2435.42 1334.63 2430.5 1329.7 2430.5 1323.63 2430.5 1317.55 2435.42 1312.63 2441.5 1312.63 2447.57 1312.63 2452.5 1317.55 2452.5 1323.63Z" stroke="#EB7246" stroke-width="3.4375" stroke-linejoin="round" stroke-miterlimit="10" fill="#EB7246"/><path d="M2512.5 1323.63C2512.5 1329.7 2507.57 1334.63 2501.5 1334.63 2495.42 1334.63 2490.5 1329.7 2490.5 1323.63 2490.5 1317.55 2495.42 1312.63 2501.5 1312.63 2507.57 1312.63 2512.5 1317.55 2512.5 1323.63Z" stroke="#EB7246" stroke-width="3.4375" stroke-linejoin="round" stroke-miterlimit="10" fill="#EB7246"/><path d="M2572.5 1311.63C2572.5 1317.7 2567.57 1322.63 2561.5 1322.63 2555.42 1322.63 2550.5 1317.7 2550.5 1311.63 2550.5 1305.55 2555.42 1300.63 2561.5 1300.63 2567.57 1300.63 2572.5 1305.55 2572.5 1311.63Z" stroke="#EB7246" stroke-width="3.4375" stroke-linejoin="round" stroke-miterlimit="10" fill="#EB7246"/><path d="M2633.5 1301.63C2633.5 1307.7 2628.57 1312.63 2622.5 1312.63 2616.42 1312.63 2611.5 1307.7 2611.5 1301.63 2611.5 1295.55 2616.42 1290.63 2622.5 1290.63 2628.57 1290.63 2633.5 1295.55 2633.5 1301.63Z" stroke="#EB7246" stroke-width="3.4375" stroke-linejoin="round" stroke-miterlimit="10" fill="#EB7246"/><path d="M2693.5 1306.63C2693.5 1312.7 2688.57 1317.63 2682.5 1317.63 2676.42 1317.63 2671.5 1312.7 2671.5 1306.63 2671.5 1300.55 2676.42 1295.63 2682.5 1295.63 2688.57 1295.63 2693.5 1300.55 2693.5 1306.63Z" stroke="#EB7246" stroke-width="3.4375" stroke-linejoin="round" stroke-miterlimit="10" fill="#EB7246"/><path d="M2753.5 1287.63C2753.5 1293.7 2748.57 1298.63 2742.5 1298.63 2736.42 1298.63 2731.5 1293.7 2731.5 1287.63 2731.5 1281.55 2736.42 1276.63 2742.5 1276.63 2748.57 1276.63 2753.5 1281.55 2753.5 1287.63Z" stroke="#EB7246" stroke-width="3.4375" stroke-linejoin="round" stroke-miterlimit="10" fill="#EB7246"/><path d="M2813.5 1321.63C2813.5 1327.7 2808.57 1332.63 2802.5 1332.63 2796.42 1332.63 2791.5 1327.7 2791.5 1321.63 2791.5 1315.55 2796.42 1310.63 2802.5 1310.63 2808.57 1310.63 2813.5 1315.55 2813.5 1321.63Z" stroke="#EB7246" stroke-width="3.4375" stroke-linejoin="round" stroke-miterlimit="10" fill="#EB7246"/><path d="M2873.5 1292.63C2873.5 1298.7 2868.57 1303.63 2862.5 1303.63 2856.42 1303.63 2851.5 1298.7 2851.5 1292.63 2851.5 1286.55 2856.42 1281.63 2862.5 1281.63 2868.57 1281.63 2873.5 1286.55 2873.5 1292.63Z" stroke="#EB7246" stroke-width="3.4375" stroke-linejoin="round" stroke-miterlimit="10" fill="#EB7246"/><path d="M2933.5 1275.63C2933.5 1281.7 2928.57 1286.63 2922.5 1286.63 2916.42 1286.63 2911.5 1281.7 2911.5 1275.63 2911.5 1269.55 2916.42 1264.63 2922.5 1264.63 2928.57 1264.63 2933.5 1269.55 2933.5 1275.63Z" stroke="#EB7246" stroke-width="3.4375" stroke-linejoin="round" stroke-miterlimit="10" fill="#EB7246"/><path d="M2993.5 1275.63C2993.5 1281.7 2988.57 1286.63 2982.5 1286.63 2976.42 1286.63 2971.5 1281.7 2971.5 1275.63 2971.5 1269.55 2976.42 1264.63 2982.5 1264.63 2988.57 1264.63 2993.5 1269.55 2993.5 1275.63Z" stroke="#EB7246" stroke-width="3.4375" stroke-linejoin="round" stroke-miterlimit="10" fill="#EB7246"/><path d="M3053.5 1263.63C3053.5 1269.7 3048.57 1274.63 3042.5 1274.63 3036.42 1274.63 3031.5 1269.7 3031.5 1263.63 3031.5 1257.55 3036.42 1252.63 3042.5 1252.63 3048.57 1252.63 3053.5 1257.55 3053.5 1263.63Z" stroke="#EB7246" stroke-width="3.4375" stroke-linejoin="round" stroke-miterlimit="10" fill="#EB7246"/><path d="M3113.5 1263.63C3113.5 1269.7 3108.57 1274.63 3102.5 1274.63 3096.42 1274.63 3091.5 1269.7 3091.5 1263.63 3091.5 1257.55 3096.42 1252.63 3102.5 1252.63 3108.57 1252.63 3113.5 1257.55 3113.5 1263.63Z" stroke="#EB7246" stroke-width="3.4375" stroke-linejoin="round" stroke-miterlimit="10" fill="#EB7246"/><path d="M3173.5 1251.63C3173.5 1257.7 3168.57 1262.63 3162.5 1262.63 3156.42 1262.63 3151.5 1257.7 3151.5 1251.63 3151.5 1245.55 3156.42 1240.63 3162.5 1240.63 3168.57 1240.63 3173.5 1245.55 3173.5 1251.63Z" stroke="#EB7246" stroke-width="3.4375" stroke-linejoin="round" stroke-miterlimit="10" fill="#EB7246"/><path d="M3233.5 1241.63C3233.5 1247.7 3228.57 1252.63 3222.5 1252.63 3216.42 1252.63 3211.5 1247.7 3211.5 1241.63 3211.5 1235.55 3216.42 1230.63 3222.5 1230.63 3228.57 1230.63 3233.5 1235.55 3233.5 1241.63Z" stroke="#EB7246" stroke-width="3.4375" stroke-linejoin="round" stroke-miterlimit="10" fill="#EB7246"/><path d="M3293.5 1246.63C3293.5 1252.7 3288.57 1257.63 3282.5 1257.63 3276.42 1257.63 3271.5 1252.7 3271.5 1246.63 3271.5 1240.55 3276.42 1235.63 3282.5 1235.63 3288.57 1235.63 3293.5 1240.55 3293.5 1246.63Z" stroke="#EB7246" stroke-width="3.4375" stroke-linejoin="round" stroke-miterlimit="10" fill="#EB7246"/><path d="M3353.5 1226.63C3353.5 1232.7 3348.57 1237.63 3342.5 1237.63 3336.42 1237.63 3331.5 1232.7 3331.5 1226.63 3331.5 1220.55 3336.42 1215.63 3342.5 1215.63 3348.57 1215.63 3353.5 1220.55 3353.5 1226.63Z" stroke="#EB7246" stroke-width="3.4375" stroke-linejoin="round" stroke-miterlimit="10" fill="#EB7246"/><path d="M3414.5 1260.63C3414.5 1266.7 3409.57 1271.63 3403.5 1271.63 3397.42 1271.63 3392.5 1266.7 3392.5 1260.63 3392.5 1254.55 3397.42 1249.63 3403.5 1249.63 3409.57 1249.63 3414.5 1254.55 3414.5 1260.63Z" stroke="#EB7246" stroke-width="3.4375" stroke-linejoin="round" stroke-miterlimit="10" fill="#EB7246"/><path d="M3474.5 1231.63C3474.5 1237.7 3469.57 1242.63 3463.5 1242.63 3457.42 1242.63 3452.5 1237.7 3452.5 1231.63 3452.5 1225.55 3457.42 1220.63 3463.5 1220.63 3469.57 1220.63 3474.5 1225.55 3474.5 1231.63Z" stroke="#EB7246" stroke-width="3.4375" stroke-linejoin="round" stroke-miterlimit="10" fill="#EB7246"/><path d="M3534.5 1214.63C3534.5 1220.7 3529.57 1225.63 3523.5 1225.63 3517.42 1225.63 3512.5 1220.7 3512.5 1214.63 3512.5 1208.55 3517.42 1203.63 3523.5 1203.63 3529.57 1203.63 3534.5 1208.55 3534.5 1214.63Z" stroke="#EB7246" stroke-width="3.4375" stroke-linejoin="round" stroke-miterlimit="10" fill="#EB7246"/></g><g clip-path="url(#clip8)"><path d="M2452.5 1303.63C2452.5 1309.7 2447.57 1314.63 2441.5 1314.63 2435.42 1314.63 2430.5 1309.7 2430.5 1303.63 2430.5 1297.55 2435.42 1292.63 2441.5 1292.63 2447.57 1292.63 2452.5 1297.55 2452.5 1303.63Z" stroke="#00A390" stroke-width="3.4375" stroke-linejoin="round" stroke-miterlimit="10" fill="#00A390"/><path d="M2512.5 1296.63C2512.5 1302.7 2507.57 1307.63 2501.5 1307.63 2495.42 1307.63 2490.5 1302.7 2490.5 1296.63 2490.5 1290.55 2495.42 1285.63 2501.5 1285.63 2507.57 1285.63 2512.5 1290.55 2512.5 1296.63Z" stroke="#00A390" stroke-width="3.4375" stroke-linejoin="round" stroke-miterlimit="10" fill="#00A390"/><path d="M2572.5 1277.63C2572.5 1283.7 2567.57 1288.63 2561.5 1288.63 2555.42 1288.63 2550.5 1283.7 2550.5 1277.63 2550.5 1271.55 2555.42 1266.63 2561.5 1266.63 2567.57 1266.63 2572.5 1271.55 2572.5 1277.63Z" stroke="#00A390" stroke-width="3.4375" stroke-linejoin="round" stroke-miterlimit="10" fill="#00A390"/><path d="M2633.5 1265.63C2633.5 1271.7 2628.57 1276.63 2622.5 1276.63 2616.42 1276.63 2611.5 1271.7 2611.5 1265.63 2611.5 1259.55 2616.42 1254.63 2622.5 1254.63 2628.57 1254.63 2633.5 1259.55 2633.5 1265.63Z" stroke="#00A390" stroke-width="3.4375" stroke-linejoin="round" stroke-miterlimit="10" fill="#00A390"/><path d="M2693.5 1275.63C2693.5 1281.7 2688.57 1286.63 2682.5 1286.63 2676.42 1286.63 2671.5 1281.7 2671.5 1275.63 2671.5 1269.55 2676.42 1264.63 2682.5 1264.63 2688.57 1264.63 2693.5 1269.55 2693.5 1275.63Z" stroke="#00A390" stroke-width="3.4375" stroke-linejoin="round" stroke-miterlimit="10" fill="#00A390"/><path d="M2753.5 1246.63C2753.5 1252.7 2748.57 1257.63 2742.5 1257.63 2736.42 1257.63 2731.5 1252.7 2731.5 1246.63 2731.5 1240.55 2736.42 1235.63 2742.5 1235.63 2748.57 1235.63 2753.5 1240.55 2753.5 1246.63Z" stroke="#00A390" stroke-width="3.4375" stroke-linejoin="round" stroke-miterlimit="10" fill="#00A390"/><path d="M2813.5 1270.63C2813.5 1276.7 2808.57 1281.63 2802.5 1281.63 2796.42 1281.63 2791.5 1276.7 2791.5 1270.63 2791.5 1264.55 2796.42 1259.63 2802.5 1259.63 2808.57 1259.63 2813.5 1264.55 2813.5 1270.63Z" stroke="#00A390" stroke-width="3.4375" stroke-linejoin="round" stroke-miterlimit="10" fill="#00A390"/><path d="M2873.5 1246.63C2873.5 1252.7 2868.57 1257.63 2862.5 1257.63 2856.42 1257.63 2851.5 1252.7 2851.5 1246.63 2851.5 1240.55 2856.42 1235.63 2862.5 1235.63 2868.57 1235.63 2873.5 1240.55 2873.5 1246.63Z" stroke="#00A390" stroke-width="3.4375" stroke-linejoin="round" stroke-miterlimit="10" fill="#00A390"/><path d="M2933.5 1235.63C2933.5 1241.7 2928.57 1246.63 2922.5 1246.63 2916.42 1246.63 2911.5 1241.7 2911.5 1235.63 2911.5 1229.55 2916.42 1224.63 2922.5 1224.63 2928.57 1224.63 2933.5 1229.55 2933.5 1235.63Z" stroke="#00A390" stroke-width="3.4375" stroke-linejoin="round" stroke-miterlimit="10" fill="#00A390"/><path d="M2993.5 1232.63C2993.5 1238.7 2988.57 1243.63 2982.5 1243.63 2976.42 1243.63 2971.5 1238.7 2971.5 1232.63 2971.5 1226.55 2976.42 1221.63 2982.5 1221.63 2988.57 1221.63 2993.5 1226.55 2993.5 1232.63Z" stroke="#00A390" stroke-width="3.4375" stroke-linejoin="round" stroke-miterlimit="10" fill="#00A390"/><path d="M3053.5 1206.63C3053.5 1212.7 3048.57 1217.63 3042.5 1217.63 3036.42 1217.63 3031.5 1212.7 3031.5 1206.63 3031.5 1200.55 3036.42 1195.63 3042.5 1195.63 3048.57 1195.63 3053.5 1200.55 3053.5 1206.63Z" stroke="#00A390" stroke-width="3.4375" stroke-linejoin="round" stroke-miterlimit="10" fill="#00A390"/><path d="M3113.5 1194.63C3113.5 1200.7 3108.57 1205.63 3102.5 1205.63 3096.42 1205.63 3091.5 1200.7 3091.5 1194.63 3091.5 1188.55 3096.42 1183.63 3102.5 1183.63 3108.57 1183.63 3113.5 1188.55 3113.5 1194.63Z" stroke="#00A390" stroke-width="3.4375" stroke-linejoin="round" stroke-miterlimit="10" fill="#00A390"/><path d="M3173.5 1204.63C3173.5 1210.7 3168.57 1215.63 3162.5 1215.63 3156.42 1215.63 3151.5 1210.7 3151.5 1204.63 3151.5 1198.55 3156.42 1193.63 3162.5 1193.63 3168.57 1193.63 3173.5 1198.55 3173.5 1204.63Z" stroke="#00A390" stroke-width="3.4375" stroke-linejoin="round" stroke-miterlimit="10" fill="#00A390"/></g><g clip-path="url(#clip9)"><path d="M2452.5 1201.63C2452.5 1207.7 2447.57 1212.63 2441.5 1212.63 2435.42 1212.63 2430.5 1207.7 2430.5 1201.63 2430.5 1195.55 2435.42 1190.63 2441.5 1190.63 2447.57 1190.63 2452.5 1195.55 2452.5 1201.63Z" stroke="#F1BE3E" stroke-width="3.4375" stroke-linejoin="round" stroke-miterlimit="10" fill="#F1BE3E"/><path d="M2512.5 1178.63C2512.5 1184.7 2507.57 1189.63 2501.5 1189.63 2495.42 1189.63 2490.5 1184.7 2490.5 1178.63 2490.5 1172.55 2495.42 1167.63 2501.5 1167.63 2507.57 1167.63 2512.5 1172.55 2512.5 1178.63Z" stroke="#F1BE3E" stroke-width="3.4375" stroke-linejoin="round" stroke-miterlimit="10" fill="#F1BE3E"/><path d="M2572.5 1158.63C2572.5 1164.7 2567.57 1169.63 2561.5 1169.63 2555.42 1169.63 2550.5 1164.7 2550.5 1158.63 2550.5 1152.55 2555.42 1147.63 2561.5 1147.63 2567.57 1147.63 2572.5 1152.55 2572.5 1158.63Z" stroke="#F1BE3E" stroke-width="3.4375" stroke-linejoin="round" stroke-miterlimit="10" fill="#F1BE3E"/><path d="M2633.5 1153.63C2633.5 1159.7 2628.57 1164.63 2622.5 1164.63 2616.42 1164.63 2611.5 1159.7 2611.5 1153.63 2611.5 1147.55 2616.42 1142.63 2622.5 1142.63 2628.57 1142.63 2633.5 1147.55 2633.5 1153.63Z" stroke="#F1BE3E" stroke-width="3.4375" stroke-linejoin="round" stroke-miterlimit="10" fill="#F1BE3E"/><path d="M2693.5 1146.63C2693.5 1152.7 2688.57 1157.63 2682.5 1157.63 2676.42 1157.63 2671.5 1152.7 2671.5 1146.63 2671.5 1140.55 2676.42 1135.63 2682.5 1135.63 2688.57 1135.63 2693.5 1140.55 2693.5 1146.63Z" stroke="#F1BE3E" stroke-width="3.4375" stroke-linejoin="round" stroke-miterlimit="10" fill="#F1BE3E"/><path d="M2753.5 1136.63C2753.5 1142.7 2748.57 1147.63 2742.5 1147.63 2736.42 1147.63 2731.5 1142.7 2731.5 1136.63 2731.5 1130.55 2736.42 1125.63 2742.5 1125.63 2748.57 1125.63 2753.5 1130.55 2753.5 1136.63Z" stroke="#F1BE3E" stroke-width="3.4375" stroke-linejoin="round" stroke-miterlimit="10" fill="#F1BE3E"/><path d="M2813.5 1146.63C2813.5 1152.7 2808.57 1157.63 2802.5 1157.63 2796.42 1157.63 2791.5 1152.7 2791.5 1146.63 2791.5 1140.55 2796.42 1135.63 2802.5 1135.63 2808.57 1135.63 2813.5 1140.55 2813.5 1146.63Z" stroke="#F1BE3E" stroke-width="3.4375" stroke-linejoin="round" stroke-miterlimit="10" fill="#F1BE3E"/><path d="M2873.5 1148.63C2873.5 1154.7 2868.57 1159.63 2862.5 1159.63 2856.42 1159.63 2851.5 1154.7 2851.5 1148.63 2851.5 1142.55 2856.42 1137.63 2862.5 1137.63 2868.57 1137.63 2873.5 1142.55 2873.5 1148.63Z" stroke="#F1BE3E" stroke-width="3.4375" stroke-linejoin="round" stroke-miterlimit="10" fill="#F1BE3E"/><path d="M2933.5 1141.63C2933.5 1147.7 2928.57 1152.63 2922.5 1152.63 2916.42 1152.63 2911.5 1147.7 2911.5 1141.63 2911.5 1135.55 2916.42 1130.63 2922.5 1130.63 2928.57 1130.63 2933.5 1135.55 2933.5 1141.63Z" stroke="#F1BE3E" stroke-width="3.4375" stroke-linejoin="round" stroke-miterlimit="10" fill="#F1BE3E"/><path d="M2993.5 1126.63C2993.5 1132.7 2988.57 1137.63 2982.5 1137.63 2976.42 1137.63 2971.5 1132.7 2971.5 1126.63 2971.5 1120.55 2976.42 1115.63 2982.5 1115.63 2988.57 1115.63 2993.5 1120.55 2993.5 1126.63Z" stroke="#F1BE3E" stroke-width="3.4375" stroke-linejoin="round" stroke-miterlimit="10" fill="#F1BE3E"/></g><g clip-path="url(#clip10)"><path d="M2441.5 1648.5 4124.5 1649.5" stroke="#00A6D6" stroke-width="6.875" stroke-linecap="round" stroke-linejoin="round" stroke-miterlimit="10" stroke-dasharray="0 13.75" fill="none" fill-rule="evenodd"/></g><g clip-path="url(#clip11)"><path d="M0 0 1683 44" stroke="#017188" stroke-width="6.875" stroke-linecap="round" stroke-linejoin="round" stroke-miterlimit="10" stroke-dasharray="0 13.75" fill="none" fill-rule="evenodd" transform="matrix(1 0 0 -1 2441.5 1414.5)"/></g><g clip-path="url(#clip12)"><path d="M0 0 1082 104" stroke="#EB7246" stroke-width="6.875" stroke-linecap="round" stroke-linejoin="round" stroke-miterlimit="10" stroke-dasharray="0 13.75" fill="none" fill-rule="evenodd" transform="matrix(1 0 0 -1 2441.5 1326.5)"/></g><g clip-path="url(#clip13)"><path d="M0 0 721 104" stroke="#00A390" stroke-width="6.875" stroke-linecap="round" stroke-linejoin="round" stroke-miterlimit="10" stroke-dasharray="0 13.75" fill="none" fill-rule="evenodd" transform="matrix(1 0 0 -1 2441.5 1302.5)"/></g><g clip-path="url(#clip14)"><path d="M0 0 541 56" stroke="#F1BE3E" stroke-width="6.875" stroke-linecap="round" stroke-linejoin="round" stroke-miterlimit="10" stroke-dasharray="0 13.75" fill="none" fill-rule="evenodd" transform="matrix(1 0 0 -1 2441.5 1181.5)"/></g><g clip-path="url(#clip15)"><text fill="#595959" font-family="Arial,Arial_MSFontService,sans-serif" font-weight="400" font-size="41" transform="matrix(1 0 0 1 2346.69 1756)">8%</text></g><g clip-path="url(#clip16)"><text fill="#595959" font-family="Arial,Arial_MSFontService,sans-serif" font-weight="400" font-size="41" transform="matrix(1 0 0 1 2346.69 1650)">9%</text></g><g clip-path="url(#clip17)"><text fill="#595959" font-family="Arial,Arial_MSFontService,sans-serif" font-weight="400" font-size="41" transform="matrix(1 0 0 1 2323.75 1543)">10%</text></g><g clip-path="url(#clip18)"><text fill="#595959" font-family="Arial,Arial_MSFontService,sans-serif" font-weight="400" font-size="41" transform="matrix(1 0 0 1 2323.75 1437)">11%</text></g><g clip-path="url(#clip19)"><text fill="#595959" font-family="Arial,Arial_MSFontService,sans-serif" font-weight="400" font-size="41" transform="matrix(1 0 0 1 2323.75 1331)">12%</text></g><g clip-path="url(#clip20)"><text fill="#595959" font-family="Arial,Arial_MSFontService,sans-serif" font-weight="400" font-size="41" transform="matrix(1 0 0 1 2323.75 1224)">13%</text></g><g clip-path="url(#clip21)"><text fill="#595959" font-family="Arial,Arial_MSFontService,sans-serif" font-weight="400" font-size="41" transform="matrix(1 0 0 1 2323.75 1118)">14%</text></g><g clip-path="url(#clip22)"><text fill="#595959" font-family="Arial,Arial_MSFontService,sans-serif" font-weight="400" font-size="41" transform="matrix(1 0 0 1 2323.75 1011)">15%</text></g><g clip-path="url(#clip23)"><text fill="#595959" font-family="Arial,Arial_MSFontService,sans-serif" font-weight="400" font-size="41" transform="matrix(1 0 0 1 2413.1 1805)">0.3</text></g><g clip-path="url(#clip24)"><text fill="#595959" font-family="Arial,Arial_MSFontService,sans-serif" font-weight="400" font-size="41" transform="matrix(1 0 0 1 2713.51 1805)">0.8</text></g><g clip-path="url(#clip25)"><text fill="#595959" font-family="Arial,Arial_MSFontService,sans-serif" font-weight="400" font-size="41" transform="matrix(1 0 0 1 3013.91 1805)">1.3</text></g><g clip-path="url(#clip26)"><text fill="#595959" font-family="Arial,Arial_MSFontService,sans-serif" font-weight="400" font-size="41" transform="matrix(1 0 0 1 3314.32 1805)">1.8</text></g><g clip-path="url(#clip27)"><text fill="#595959" font-family="Arial,Arial_MSFontService,sans-serif" font-weight="400" font-size="41" transform="matrix(1 0 0 1 3614.72 1805)">2.3</text></g><g clip-path="url(#clip28)"><text fill="#595959" font-family="Arial,Arial_MSFontService,sans-serif" font-weight="400" font-size="41" transform="matrix(1 0 0 1 3915.13 1805)">2.8</text></g><g clip-path="url(#clip29)"><text fill="#595959" font-family="Arial,Arial_MSFontService,sans-serif" font-weight="400" font-size="46" transform="matrix(6.12323e-17 -1 1 6.12323e-17 2300.28 1557)">Completeness [%]</text></g><g clip-path="url(#clip30)"><text fill="#595959" font-family="Arial,Arial_MSFontService,sans-serif" font-weight="400" font-size="46" transform="matrix(1 0 0 1 2987.39 1871)">Inter</text></g><g clip-path="url(#clip31)"><text fill="#595959" font-family="Arial,Arial_MSFontService,sans-serif" font-weight="400" font-size="46" transform="matrix(1 0 0 1 3079.11 1871)">-</text></g><g clip-path="url(#clip32)"><text fill="#595959" font-family="Arial,Arial_MSFontService,sans-serif" font-weight="400" font-size="46" transform="matrix(1 0 0 1 3094.37 1871)">Spacecraft Spread [rad]</text></g><g clip-path="url(#clip33)"><path d="M4245 1296C4245 1302.07 4240.08 1307 4234 1307 4227.92 1307 4223 1302.07 4223 1296 4223 1289.92 4227.92 1285 4234 1285 4240.08 1285 4245 1289.92 4245 1296Z" stroke="#00A6D6" stroke-width="3.4375" stroke-linejoin="round" stroke-miterlimit="10" fill="#00A6D6"/></g><g clip-path="url(#clip34)"><text fill="#595959" font-family="Arial,Arial_MSFontService,sans-serif" font-weight="400" font-size="41" transform="matrix(1 0 0 1 4253.17 1310)">1 S/C</text></g><g clip-path="url(#clip35)"><path d="M4245 1370C4245 1376.07 4240.08 1381 4234 1381 4227.92 1381 4223 1376.07 4223 1370 4223 1363.92 4227.92 1359 4234 1359 4240.08 1359 4245 1363.92 4245 1370Z" stroke="#017188" stroke-width="3.4375" stroke-linejoin="round" stroke-miterlimit="10" fill="#017188"/></g><g clip-path="url(#clip36)"><text fill="#595959" font-family="Arial,Arial_MSFontService,sans-serif" font-weight="400" font-size="41" transform="matrix(1 0 0 1 4253.17 1383)">2 S/C</text></g><g clip-path="url(#clip37)"><path d="M4245 1443C4245 1449.07 4240.08 1454 4234 1454 4227.92 1454 4223 1449.07 4223 1443 4223 1436.92 4227.92 1432 4234 1432 4240.08 1432 4245 1436.92 4245 1443Z" stroke="#EB7246" stroke-width="3.4375" stroke-linejoin="round" stroke-miterlimit="10" fill="#EB7246"/></g><g clip-path="url(#clip38)"><text fill="#595959" font-family="Arial,Arial_MSFontService,sans-serif" font-weight="400" font-size="41" transform="matrix(1 0 0 1 4253.17 1456)">3 S/C</text></g><g clip-path="url(#clip39)"><path d="M4245 1516C4245 1522.07 4240.08 1527 4234 1527 4227.92 1527 4223 1522.07 4223 1516 4223 1509.92 4227.92 1505 4234 1505 4240.08 1505 4245 1509.92 4245 1516Z" stroke="#00A390" stroke-width="3.4375" stroke-linejoin="round" stroke-miterlimit="10" fill="#00A390"/></g><g clip-path="url(#clip40)"><text fill="#595959" font-family="Arial,Arial_MSFontService,sans-serif" font-weight="400" font-size="41" transform="matrix(1 0 0 1 4253.17 1529)">4 S/C</text></g><g clip-path="url(#clip41)"><path d="M4245 1589C4245 1595.07 4240.08 1600 4234 1600 4227.92 1600 4223 1595.07 4223 1589 4223 1582.92 4227.92 1578 4234 1578 4240.08 1578 4245 1582.92 4245 1589Z" stroke="#F1BE3E" stroke-width="3.4375" stroke-linejoin="round" stroke-miterlimit="10" fill="#F1BE3E"/></g><g clip-path="url(#clip42)"><text fill="#595959" font-family="Arial,Arial_MSFontService,sans-serif" font-weight="400" font-size="41" transform="matrix(1 0 0 1 4253.17 1602)">5 S/C</text></g></g></svg>